<svg width="25.4" height="49.807" xmlns="http://www.w3.org/2000/svg">
    <defs>
        <clipPath id="e"/>
        <clipPath id="d"/>
        <clipPath id="c"/>
        <clipPath id="b"/>
        <clipPath id="a"/>
    </defs>
    <g transform="translate(-31.75 -41.54)">
        <path d="M32.758 41.54c-.558 0-1.008.45-1.008 1.008v46.23c0 .559.45 1.008 1.008 1.008h23.384c.558 0 1.008-.449 1.008-1.007V42.548c0-.559-.45-1.008-1.008-1.008zm.587.567a1.028 1.028 0 0 1 1.027 1.028 1.028 1.028 0 0 1-1.027 1.027 1.028 1.028 0 0 1-1.028-1.027 1.028 1.028 0 0 1 1.028-1.028zm22.211 0a1.028 1.028 0 0 1 1.028 1.028 1.028 1.028 0 0 1-1.028 1.027 1.028 1.028 0 0 1-1.027-1.027 1.028 1.028 0 0 1 1.027-1.028zm-22.553 4.5a.723.723 0 0 1 .724.722.723.723 0 0 1-.724.724.723.723 0 0 1-.723-.724.723.723 0 0 1 .723-.723zm22.896 0a.723.723 0 0 1 .723.722.723.723 0 0 1-.723.724.723.723 0 0 1-.723-.724.723.723 0 0 1 .723-.723zm-22.896 2.618a.723.723 0 0 1 .724.724.723.723 0 0 1-.724.723.723.723 0 0 1-.723-.723.723.723 0 0 1 .723-.724zm22.896 0a.723.723 0 0 1 .723.724.723.723 0 0 1-.723.723.723.723 0 0 1-.723-.723.723.723 0 0 1 .723-.724zm-22.896 2.62a.723.723 0 0 1 .724.723.723.723 0 0 1-.724.723.723.723 0 0 1-.723-.723.723.723 0 0 1 .723-.724zm22.896 0a.723.723 0 0 1 .723.723.723.723 0 0 1-.723.723.723.723 0 0 1-.723-.723.723.723 0 0 1 .723-.724zm-22.896 2.619a.723.723 0 0 1 .724.723.723.723 0 0 1-.724.723.723.723 0 0 1-.723-.723.723.723 0 0 1 .723-.723zm22.896 0a.723.723 0 0 1 .723.723.723.723 0 0 1-.723.723.723.723 0 0 1-.723-.723.723.723 0 0 1 .723-.723zm-22.896 2.619a.723.723 0 0 1 .724.723.723.723 0 0 1-.724.723.723.723 0 0 1-.723-.723.723.723 0 0 1 .723-.723zm22.896 0a.723.723 0 0 1 .723.723.723.723 0 0 1-.723.723.723.723 0 0 1-.723-.723.723.723 0 0 1 .723-.723zm-22.896 2.619a.723.723 0 0 1 .724.723.723.723 0 0 1-.724.723.723.723 0 0 1-.723-.723.723.723 0 0 1 .723-.723zm22.896 0a.723.723 0 0 1 .723.723.723.723 0 0 1-.723.723.723.723 0 0 1-.723-.723.723.723 0 0 1 .723-.723zM33.003 62.32a.723.723 0 0 1 .724.723.723.723 0 0 1-.724.723.723.723 0 0 1-.723-.723.723.723 0 0 1 .723-.723zm22.896 0a.723.723 0 0 1 .723.723.723.723 0 0 1-.723.723.723.723 0 0 1-.723-.723.723.723 0 0 1 .723-.723zm-22.896 2.62a.723.723 0 0 1 .724.722.723.723 0 0 1-.724.723.723.723 0 0 1-.723-.723.723.723 0 0 1 .723-.723zm22.896 0a.723.723 0 0 1 .723.722.723.723 0 0 1-.723.723.723.723 0 0 1-.723-.723.723.723 0 0 1 .723-.723zm-22.896 2.618a.723.723 0 0 1 .724.723.723.723 0 0 1-.724.724.723.723 0 0 1-.723-.724.723.723 0 0 1 .723-.723zm22.896 0a.723.723 0 0 1 .723.723.723.723 0 0 1-.723.724.723.723 0 0 1-.723-.724.723.723 0 0 1 .723-.723zm-22.896 2.62a.723.723 0 0 1 .724.722.723.723 0 0 1-.724.724.723.723 0 0 1-.723-.724.723.723 0 0 1 .723-.723zm22.896 0a.723.723 0 0 1 .723.722.723.723 0 0 1-.723.724.723.723 0 0 1-.723-.724.723.723 0 0 1 .723-.723zm-22.896 2.618a.723.723 0 0 1 .724.724.723.723 0 0 1-.724.723.723.723 0 0 1-.723-.723.723.723 0 0 1 .723-.724zm22.896 0a.723.723 0 0 1 .723.724.723.723 0 0 1-.723.723.723.723 0 0 1-.723-.723.723.723 0 0 1 .723-.724zm-22.896 2.62a.723.723 0 0 1 .724.723.723.723 0 0 1-.724.723.723.723 0 0 1-.723-.723.723.723 0 0 1 .723-.724zm22.896 0a.723.723 0 0 1 .723.723.723.723 0 0 1-.723.723.723.723 0 0 1-.723-.723.723.723 0 0 1 .723-.724zm-22.896 2.619a.723.723 0 0 1 .724.723.723.723 0 0 1-.724.723.723.723 0 0 1-.723-.723.723.723 0 0 1 .723-.723zm22.896 0a.723.723 0 0 1 .723.723.723.723 0 0 1-.723.723.723.723 0 0 1-.723-.723.723.723 0 0 1 .723-.723zm-22.896 2.619a.723.723 0 0 1 .724.723.723.723 0 0 1-.724.723.723.723 0 0 1-.723-.723.723.723 0 0 1 .723-.723zm22.896 0a.723.723 0 0 1 .723.723.723.723 0 0 1-.723.723.723.723 0 0 1-.723-.723.723.723 0 0 1 .723-.723zm-22.896 2.619a.723.723 0 0 1 .724.723.723.723 0 0 1-.724.723.723.723 0 0 1-.723-.723.723.723 0 0 1 .723-.723zm22.896 0a.723.723 0 0 1 .723.723.723.723 0 0 1-.723.723.723.723 0 0 1-.723-.723.723.723 0 0 1 .723-.723zm-22.553 3.89a1.028 1.028 0 0 1 1.027 1.028 1.028 1.028 0 0 1-1.027 1.028 1.028 1.028 0 0 1-1.028-1.028 1.028 1.028 0 0 1 1.028-1.027zm22.211 0a1.028 1.028 0 0 1 1.028 1.028 1.028 1.028 0 0 1-1.028 1.028 1.028 1.028 0 0 1-1.027-1.028 1.028 1.028 0 0 1 1.027-1.027z" fill="#3c3c3c"/>
        <circle transform="rotate(90)" cx="87.889" cy="-48.148" r=".739" fill="none" stroke="#ccc" stroke-width=".42"/>
        <circle transform="rotate(90)" cx="87.889" cy="-40.751" r=".739" fill="none" stroke="#ccc" stroke-width=".42"/>
        <g fill="#666" stroke-width=".088">
            <path d="M43.011 85.167v-.44h.352v.44zM43.65 85.167v-.44h.352v.44zM44.289 85.167v-.44h.352v.44zM44.928 85.167v-.44h.352v.44zM45.567 85.167v-.44h.352v.44z"/>
        </g>
        <path fill="#b3b3b3" d="M41.188 85.097h6.518v5.846h-6.518z"/>
        <g stroke-width=".088">
            <path fill="#999" d="M47.803 88.416v-1.057h.352v1.057zM40.771 88.416v-1.057h.352v1.057z"/>
            <path fill="#ccc" d="M41.2 85.114v-.088h6.516v.088z"/>
            <path fill="#333" d="M42.677 90.482v-5.371h3.61v5.371z"/>
        </g>
        <path fill="#b3b3b3" d="M40.92 91.346h-.135l.336-.538v.202z"/>
        <path fill="#ccc" d="m41.121 91.212-.202.134.202-.336z"/>
        <path fill="#b3b3b3" d="M47.773 91.01v-.202l.404.538h-.135z"/>
        <g fill="#ccc">
            <path d="M47.773 91.212v-.202l.27.336zM41.121 85.298l.067-.202h.874l-.807.068c0 .067.068.067.068.067h-.202z"/>
            <path d="M46.631 85.097v.538h-.538v-.538h-.134v.202h-2.89v-.202h-.201v.538h-.538v-.538h-1.142v5.913h6.653v-5.913h-1.143zm-3.83 4.77v.27h-.538V89.8c-.134-.068-.269-.27-.269-.47 0-.202.068-.404.27-.471v-1.546h.537v1.546c.201.067.269.269.269.47 0 .202-.135.404-.27.47zm3.763 0v.27h-.538V89.8c-.134-.068-.269-.27-.269-.47 0-.202.068-.404.27-.471v-1.546h.537v1.546c.201.067.269.269.269.47 0 .202-.135.404-.27.47z"/>
        </g>
        <path fill="#e6e6e6" d="M41.121 85.298h.538l-.404 5.645h-.134z"/>
        <path fill="#999" d="M47.437 85.298h.336v5.645l-.201-3.763z"/>
        <g stroke-width=".088">
            <path fill="#ccc" d="M42.277 87.414v-.088h.528v.088zM46.053 87.414v-.088h.528v.088z"/>
            <path fill="#b3b3b3" d="M41.447 90.895v-.264h5.988v.264z"/>
            <path fill="#ccc" d="M41.447 90.966v-.088h5.988v.088z"/>
        </g>
        <path fill="#303030" d="M52.235 81.917v-1.19h-2.518v1.19z"/>
        <path fill="#3d3e3d" d="m49.57 80.662.135.067h2.554l.067-.067z"/>
        <path d="m49.705 81.939-.134.067h2.755l-.067-.067z"/>
        <path fill="#1e1f1f" d="m49.57 82.006.135-.067v-1.21l-.134-.067zM52.326 82.006v-1.344l-.067.067v1.21z"/>
        <g stroke-width=".031">
            <path fill="#bdbfc1" d="M52.039 80.643v-.712h-.304v.712z"/>
            <path fill="#666766" d="M52.039 80.356v-.203h-.304v.203z"/>
            <path fill="#bdbfc1" d="M51.113 82.007v.712h-.304v-.712z"/>
            <path fill="#666766" d="M51.113 82.294v.203h-.304v-.203z"/>
            <path fill="#bdbfc1" d="M50.141 80.643v-.712h-.304v.712z"/>
            <path fill="#666766" d="M50.141 80.356v-.203h-.304v.203z"/>
        </g>
        <path fill="#303030" d="M52.235 78.191v-1.19h-2.518v1.19z"/>
        <path fill="#3d3e3d" d="m49.57 76.899.135.134h2.554l.067-.134z"/>
        <path d="m49.705 78.176-.134.134h2.755l-.067-.134z"/>
        <path fill="#1e1f1f" d="m49.57 78.31.135-.134v-1.143l-.134-.134zM52.326 78.31v-1.411l-.067.134v1.143z"/>
        <g stroke-width=".031">
            <path fill="#bdbfc1" d="M52.039 76.918v-.712h-.304v.712z"/>
            <path fill="#666766" d="M52.039 76.63v-.203h-.304v.203z"/>
            <path fill="#bdbfc1" d="M51.113 78.281v.712h-.304v-.712z"/>
            <path fill="#666766" d="M51.113 78.568v.203h-.304v-.203z"/>
            <path fill="#bdbfc1" d="M50.141 76.918v-.712h-.304v.712z"/>
            <path fill="#666766" d="M50.141 76.63v-.203h-.304v.203z"/>
        </g>
        <path fill="#ccc" d="M35.849 84.963h2.889v3.83h-2.889z"/>
        <g fill="#333" stroke-width=".067">
            <path d="M35.849 84.963h.202v.538h-.202zM38.537 84.963h.202v.538h-.202zM35.849 88.255h.202v.538h-.202zM38.537 88.255h.202v.538h-.202zM36.588 84.963h.336v.202h-.336zM37.663 84.963h.336v.202h-.336z"/>
        </g>
        <path fill="#e6e6e6" d="M36.655 84.291h1.344v.672h-1.344zM36.655 88.793h1.344v.672h-1.344z"/>
        <circle cx="37.26" cy="86.911" r=".941" fill="#333" stroke="#1a1a1a" stroke-width=".076"/>
        <path d="M36.454 87.247c-.067-.134-.067-.202-.067-.336 0-.336.134-.605.403-.74" fill="none" stroke="#fff" stroke-width=".076"/>
        <g stroke-width=".067">
            <path fill="#333" d="M36.588 88.658h.336v.202h-.336zM37.663 88.658h.336v.202h-.336z"/>
            <path fill="#ccc" d="M50.161 84.963h2.889v3.83h-2.889z"/>
        </g>
        <g fill="#333" stroke-width=".067">
            <path d="M50.161 84.963h.202v.538h-.202zM52.849 84.963h.202v.538h-.202zM50.161 88.255h.202v.538h-.202zM52.849 88.255h.202v.538h-.202zM50.833 84.963h.336v.202h-.336zM51.976 84.963h.336v.202h-.336z"/>
        </g>
        <path fill="#e6e6e6" d="M50.901 84.291h1.344v.672h-1.344zM50.901 88.793h1.344v.672h-1.344z"/>
        <circle cx="51.573" cy="86.911" r=".941" fill="#333" stroke="#1a1a1a" stroke-width=".076"/>
        <path d="M50.699 87.247c-.067-.134-.067-.202-.067-.336 0-.336.134-.605.403-.74" fill="none" stroke="#fff" stroke-width=".076"/>
        <path fill="#333" d="M50.833 88.658h.336v.202h-.336zM51.976 88.658h.336v.202h-.336z"/>
        <path fill="#c6c6c5" d="M39.147 72.409v-1.002h.509v1.002z"/>
        <path fill="#b7a283" d="M39.147 72.21v-.609h.509v.609z"/>
        <g stroke-width=".067">
            <path fill="#c6c6c5" d="M48.08 83.148h1.008v.538H48.08z"/>
            <path fill="#020202" d="M48.281 83.148h.605v.538h-.605z"/>
            <path fill="#c6c6c5" d="M48.08 76.093h1.008v.538H48.08z"/>
            <path fill="#020202" d="M48.281 76.093h.605v.538h-.605z"/>
            <path fill="#c6c6c5" d="M41.239 75.219h1.008v.538h-1.008z"/>
            <path fill="#020202" d="M41.441 75.219h.605v.538h-.605z"/>
            <path fill="#c6c6c5" d="M39.156 81.334h1.008v.538h-1.008z"/>
            <path fill="#020202" d="M39.358 81.334h.605v.538h-.605z"/>
        </g>
        <path fill="#c6c6c5" d="M48.329 80.489v-1.002h.509v1.002z"/>
        <path fill="#020202" d="M48.329 80.29v-.609h.509v.609z"/>
        <path fill="#c6c6c5" d="M38.96 80.577v-1.002h.509v1.002z"/>
        <path fill="#b7a283" d="M38.96 80.378v-.609h.509v.609z"/>
        <path fill="#c6c6c5" d="M40.133 80.335v-.806h.409v.806z"/>
        <path fill="#b7a283" d="M40.133 80.174v-.49h.409v.49z"/>
        <path fill="#c6c6c5" d="M41.306 76.227h.806v.403h-.806z"/>
        <path fill="#b7a283" d="M41.441 76.227h.47v.403h-.47z"/>
        <path fill="#c6c6c5" d="M37.204 73.646v-1.953h1.234v1.953z"/>
        <path fill="#b7a283" d="M37.204 73.258v-1.186h1.234v1.186z"/>
        <g fill="#fff" font-family="Arial" font-size="1.058" font-weight="bold">
            <text x="36.207" y="84.089" stroke-width=".067" style="font-variant-caps:normal;font-variant-east-asian:normal;font-variant-ligatures:normal;font-variant-numeric:normal">RST</text>
            <text x="50.05" y="84.089" stroke-width=".067" style="font-variant-caps:normal;font-variant-east-asian:normal;font-variant-ligatures:normal;font-variant-numeric:normal">BOOT</text>
            <g stroke-width=".353">
                <text x="-48.315" y="54.641" style="font-variant-caps:normal;font-variant-east-asian:normal;font-variant-ligatures:normal;font-variant-numeric:normal" transform="rotate(-90)">D23</text>
                <text x="-50.931" y="54.654" style="font-variant-caps:normal;font-variant-east-asian:normal;font-variant-ligatures:normal;font-variant-numeric:normal" transform="rotate(-90)">D22</text>
                <text x="-53.523" y="54.641" style="font-variant-caps:normal;font-variant-east-asian:normal;font-variant-ligatures:normal;font-variant-numeric:normal" transform="rotate(-90)">TX0</text>
                <text x="-56.228" y="54.641" style="font-variant-caps:normal;font-variant-east-asian:normal;font-variant-ligatures:normal;font-variant-numeric:normal" transform="rotate(-90)">RX0</text>
                <text x="-58.728" y="54.654" style="font-variant-caps:normal;font-variant-east-asian:normal;font-variant-ligatures:normal;font-variant-numeric:normal" transform="rotate(-90)">D21</text>
                <text x="-61.409" y="54.641" style="font-variant-caps:normal;font-variant-east-asian:normal;font-variant-ligatures:normal;font-variant-numeric:normal" transform="rotate(-90)">D19</text>
                <text x="-64.029" y="54.641" style="font-variant-caps:normal;font-variant-east-asian:normal;font-variant-ligatures:normal;font-variant-numeric:normal" transform="rotate(-90)">D18</text>
                <text x="-66.361" y="54.641" style="font-variant-caps:normal;font-variant-east-asian:normal;font-variant-ligatures:normal;font-variant-numeric:normal" transform="rotate(-90)">D5</text>
                <text x="-69.237" y="54.654" style="font-variant-caps:normal;font-variant-east-asian:normal;font-variant-ligatures:normal;font-variant-numeric:normal" transform="rotate(-90)">TX2</text>
                <text x="-71.942" y="54.654" style="font-variant-caps:normal;font-variant-east-asian:normal;font-variant-ligatures:normal;font-variant-numeric:normal" transform="rotate(-90)">RX2</text>
                <text x="-74.222" y="54.654" style="font-variant-caps:normal;font-variant-east-asian:normal;font-variant-ligatures:normal;font-variant-numeric:normal" transform="rotate(-90)">D4</text>
                <text x="-76.827" y="54.654" style="font-variant-caps:normal;font-variant-east-asian:normal;font-variant-ligatures:normal;font-variant-numeric:normal" transform="rotate(-90)">D2</text>
                <text x="-79.751" y="54.641" style="font-variant-caps:normal;font-variant-east-asian:normal;font-variant-ligatures:normal;font-variant-numeric:normal" transform="rotate(-90)">D15</text>
                <text x="-82.552" y="54.641" style="font-variant-caps:normal;font-variant-east-asian:normal;font-variant-ligatures:normal;font-variant-numeric:normal" transform="rotate(-90)">GND</text>
                <text x="-84.935" y="54.641" style="font-variant-caps:normal;font-variant-east-asian:normal;font-variant-ligatures:normal;font-variant-numeric:normal" transform="rotate(-90)">3V3</text>
                <text x="-84.774" y="35.019" style="font-variant-caps:normal;font-variant-east-asian:normal;font-variant-ligatures:normal;font-variant-numeric:normal" transform="rotate(-90)">Vin</text>
                <text x="-82.552" y="35.032" style="font-variant-caps:normal;font-variant-east-asian:normal;font-variant-ligatures:normal;font-variant-numeric:normal" transform="rotate(-90)">GND</text>
                <text x="-79.744" y="35.022" style="font-variant-caps:normal;font-variant-east-asian:normal;font-variant-ligatures:normal;font-variant-numeric:normal" transform="rotate(-90)">D13</text>
                <text x="-77.121" y="35.022" style="font-variant-caps:normal;font-variant-east-asian:normal;font-variant-ligatures:normal;font-variant-numeric:normal" transform="rotate(-90)">D12</text>
                <text x="-74.517" y="35.022" style="font-variant-caps:normal;font-variant-east-asian:normal;font-variant-ligatures:normal;font-variant-numeric:normal" transform="rotate(-90)">D14</text>
                <text x="-71.886" y="35.022" style="font-variant-caps:normal;font-variant-east-asian:normal;font-variant-ligatures:normal;font-variant-numeric:normal" transform="rotate(-90)">D27</text>
                <text x="-69.272" y="35.022" style="font-variant-caps:normal;font-variant-east-asian:normal;font-variant-ligatures:normal;font-variant-numeric:normal" transform="rotate(-90)">D26</text>
                <text x="-66.656" y="35.022" style="font-variant-caps:normal;font-variant-east-asian:normal;font-variant-ligatures:normal;font-variant-numeric:normal" transform="rotate(-90)">D25</text>
                <text x="-64.03" y="35.022" style="font-variant-caps:normal;font-variant-east-asian:normal;font-variant-ligatures:normal;font-variant-numeric:normal" transform="rotate(-90)">D33</text>
                <text x="-61.407" y="35.022" style="font-variant-caps:normal;font-variant-east-asian:normal;font-variant-ligatures:normal;font-variant-numeric:normal" transform="rotate(-90)">D32</text>
                <text x="-58.798" y="35.022" style="font-variant-caps:normal;font-variant-east-asian:normal;font-variant-ligatures:normal;font-variant-numeric:normal" transform="rotate(-90)">D35</text>
                <text x="-56.183" y="35.022" style="font-variant-caps:normal;font-variant-east-asian:normal;font-variant-ligatures:normal;font-variant-numeric:normal" transform="rotate(-90)">D34</text>
                <text x="-53.26" y="35.019" style="font-variant-caps:normal;font-variant-east-asian:normal;font-variant-ligatures:normal;font-variant-numeric:normal" transform="rotate(-90)">VN</text>
                <text x="-50.63" y="35.019" style="font-variant-caps:normal;font-variant-east-asian:normal;font-variant-ligatures:normal;font-variant-numeric:normal" transform="rotate(-90)">VP</text>
                <text x="-48.06" y="35.019" style="font-variant-caps:normal;font-variant-east-asian:normal;font-variant-ligatures:normal;font-variant-numeric:normal" transform="rotate(-90)">EN</text>
            </g>
        </g>
        <g stroke-width=".32">
            <path class="led-outer" d="M37.409 77.647c.12 0 .217.068.217.152h.166V76.19h-.166c0 .084-.097.152-.217.152s-.217-.068-.217-.152h-.166v1.608h.166c0-.084.097-.152.217-.152z" fill="#cdcccc"/>
            <path class="led-blue" fill="#ff2000" d="M37.792 76.459v1.072h-.766v-1.072z"/>
            <path class="led-outer" d="M39.901 77.647c.12 0 .217.068.217.152h.166V76.19h-.166c0 .084-.097.152-.217.152s-.217-.068-.217-.152h-.166v1.608h.166c0-.084.097-.152.217-.152z" fill="#cdcccc"/>
            <path class="led-blue" fill="#00f" d="M40.284 76.459v1.072h-.766v-1.072z"/>
        </g>
        <path fill="#ccc" d="M37.241 79.267h.336v.538h-.336zM37.241 81.389h.336v.538h-.336z"/>
        <path fill="#1a1a1a" d="M36.871 79.788h1.075v1.613h-1.075z"/>
        <path fill="#4b4b4b" d="M37.946 80.997v.194h-1.075v-.194z"/>
        <path fill="#ccc" d="M44.082 69.824h1.261v3.543h-1.261z"/>
        <path fill="#f5b03b" d="M43.816 70.04h1.794v3.111h-1.794z"/>
        <g stroke-width=".067">
            <path fill="#ccc" d="M40.596 73.129h2.217v.605h-2.217zM40.596 69.457h2.217v.605h-2.217z"/>
            <path fill="#f5b03b" d="M40.395 69.977h2.621v3.293h-2.621z"/>
        </g>
        <g fill="#c6c6c5" stroke-width=".063">
            <path d="M42.002 81.241v.203h-.525v-.203zM42.002 80.741v.203h-.525v-.203zM42.002 80.241v.203h-.525v-.203zM42.002 79.741v.203h-.525v-.203zM42.002 79.241v.203h-.525v-.203zM42.002 78.741v.203h-.525v-.203zM42.002 81.741v.203h-.525v-.203zM47.424 81.241v.203h-.525v-.203zM47.424 80.741v.203h-.525v-.203zM47.424 80.241v.203h-.525v-.203zM47.424 79.741v.203h-.525v-.203zM47.424 79.241v.203h-.525v-.203zM47.424 78.741v.203h-.525v-.203zM47.424 81.741v.203h-.525v-.203zM43.553 77.895h-.203v-.525h.203zM44.053 77.895h-.203v-.525h.203zM44.552 77.895h-.203v-.525h.203zM45.052 77.895h-.203v-.525h.203zM45.552 77.895h-.203v-.525h.203zM46.052 77.895h-.203v-.525h.203zM43.053 77.895h-.203v-.525h.203zM43.553 83.319h-.203v-.525h.203zM44.053 83.319h-.203v-.525h.203zM44.552 83.319h-.203v-.525h.203zM45.052 83.319h-.203v-.525h.203zM45.552 83.319h-.203v-.525h.203zM46.052 83.319h-.203v-.525h.203zM43.053 83.319h-.203v-.525h.203z"/>
        </g>
        <path fill="#333" stroke="#000" stroke-width=".076" d="M41.965 77.856h4.973v4.973h-4.973z"/>
        <circle cx="46.177" cy="78.616" r=".269" fill="#1a1a1a"/>
        <g fill="none" stroke="#b4b4b4" stroke-width=".529">
            <circle class="pad-d2" cx="55.898" cy="83.996" r=".723"/>
            <circle class="pad-d2" cx="55.898" cy="63.044" r=".723"/>
            <circle class="pad-d2" cx="55.898" cy="65.663" r=".723"/>
            <circle class="pad-d2" cx="55.898" cy="60.425" r=".723"/>
            <circle class="pad-d2" cx="55.898" cy="57.805" r=".723"/>
            <circle class="pad-d2" cx="55.898" cy="47.329" r=".723"/>
            <circle class="pad-d2" cx="55.898" cy="52.567" r=".723"/>
            <circle class="pad-d2" cx="55.898" cy="55.186" r=".723"/>
            <circle class="pad-d2" cx="55.898" cy="49.948" r=".723"/>
            <circle class="pad-d2" cx="55.898" cy="68.282" r=".723"/>
            <circle class="pad-d2" cx="55.898" cy="73.52" r=".723"/>
            <circle class="pad-d2" cx="55.898" cy="76.139" r=".723"/>
            <circle class="pad-d2" cx="55.898" cy="78.758" r=".723"/>
            <circle class="pad-d2" cx="55.898" cy="81.377" r=".723"/>
            <circle class="pad-d2" cx="55.898" cy="70.901" r=".723"/>
            <circle class="pad-d2" cx="33.002" cy="83.996" r=".723"/>
            <circle class="pad-d2" cx="33.002" cy="63.044" r=".723"/>
            <circle class="pad-d2" cx="33.002" cy="65.663" r=".723"/>
            <circle class="pad-d2" cx="33.002" cy="60.425" r=".723"/>
            <circle class="pad-d2" cx="33.002" cy="57.805" r=".723"/>
            <circle class="pad-d2" cx="33.002" cy="47.329" r=".723"/>
            <circle class="pad-d2" cx="33.002" cy="52.567" r=".723"/>
            <circle class="pad-d2" cx="33.002" cy="55.186" r=".723"/>
            <circle class="pad-d2" cx="33.002" cy="49.948" r=".723"/>
            <circle class="pad-d2" cx="33.002" cy="68.282" r=".723"/>
            <circle class="pad-d2" cx="33.002" cy="73.52" r=".723"/>
            <circle class="pad-d2" cx="33.002" cy="76.139" r=".723"/>
            <circle class="pad-d2" cx="33.002" cy="78.758" r=".723"/>
            <circle class="pad-d2" cx="33.002" cy="81.377" r=".723"/>
            <circle class="pad-d2" cx="33.002" cy="70.901" r=".723"/>
        </g>
        <path fill="#303030" d="M47.98 68.727h2.648v5.674H47.98z"/>
        <path fill="#3d3e3d" d="M47.98 68.727v5.675l-.189.252v-6.116z"/>
        <path d="M50.628 74.402v-5.675l.19-.189V74.654z"/>
        <path fill="#1e1f1f" d="M50.628 68.727H47.98l-.189-.189h3.027zM47.791 74.654l.19-.252h2.647l.19.252z"/>
        <g stroke-width=".063">
            <path fill="#bdbfc1" d="M46.467 73.266h1.324v.694h-1.324z"/>
            <path fill="#666766" d="M46.845 73.266h.378v.694h-.378z"/>
            <path fill="#bdbfc1" d="M50.817 70.051h1.639v2.837h-1.639z"/>
            <path fill="#666766" d="M51.637 70.051h.378v2.837h-.378z"/>
            <path fill="#bdbfc1" d="M46.467 71.186h1.324v.694h-1.324z"/>
            <path fill="#666766" d="M46.845 71.186h.378v.694h-.378z"/>
            <path fill="#bdbfc1" d="M46.467 68.979h1.324v.694h-1.324z"/>
            <path fill="#666766" d="M46.845 68.979h.378v.694h-.378z"/>
        </g>
        <g fill="none">
            <g stroke="#b3b3b3">
                <g stroke-width=".075">
                    <path d="M51.7 72.888v-2.837M47.161 73.96v-.694M47.161 71.879v-.693"/>
                </g>
                <path stroke-width=".072" d="M47.162 69.673v-.694"/>
            </g>
            <g stroke="#333">
                <g stroke-width=".075">
                    <path d="M51.889 72.888v-2.837M46.971 73.96v-.694M46.971 71.879v-.693"/>
                </g>
                <path stroke-width=".072" d="M46.97 69.673v-.694"/>
            </g>
        </g>
        <path d="M35.871 41.54v6.963h.013a.19.19 0 0 1 .014.002l.013.003a.22.22 0 0 1 .014.003l.014.003.013.005a.26.26 0 0 1 .014.005l.013.006c.004.002.01.004.013.007.005.002.01.004.013.007l.013.007a.362.362 0 0 1 .013.008l.013.008.012.01c.004.002.008.006.011.01l.012.008.011.01.01.011.01.01.01.012a.246.246 0 0 1 .009.01l.009.012a.22.22 0 0 1 .008.011l.006.012.007.012a.212.212 0 0 1 .006.011l.004.012.004.011.004.012a.11.11 0 0 1 .004.023v.022l-.002.011-.002.012-.004.012a.101.101 0 0 1-.004.011l-.005.011-.005.012-.007.012-.007.011a.24.24 0 0 1-.008.011l-.008.012a.246.246 0 0 1-.009.01l-.01.012-.01.01-.01.01a.272.272 0 0 1-.011.01l-.012.01a.357.357 0 0 1-.011.01l-.012.008-.013.009a.345.345 0 0 1-.013.008l-.013.007-.012.007-.014.007a.356.356 0 0 1-.013.005l-.014.005a.244.244 0 0 1-.027.009c-.005 0-.01.002-.014.003l-.013.002a.27.27 0 0 1-.013.001l-.014.001v.67h.014a.19.19 0 0 1 .013.002l.013.002a.22.22 0 0 1 .014.003l.014.004.013.004.014.006a.237.237 0 0 1 .013.006l.014.006.012.007.013.007a.362.362 0 0 1 .013.009l.013.008.012.01.012.008.011.01.011.01.01.01a.336.336 0 0 1 .01.011l.01.011a.246.246 0 0 1 .009.01l.009.012a.22.22 0 0 1 .008.012l.006.011.007.012a.212.212 0 0 1 .006.011l.004.012.005.012.003.011a.11.11 0 0 1 .004.023v.022l-.002.012-.002.011-.003.012a.101.101 0 0 1-.005.011l-.005.012-.005.012-.007.011a.241.241 0 0 1-.015.023l-.008.011-.009.011-.01.011a.265.265 0 0 1-.01.01l-.01.011a.38.38 0 0 1-.011.01l-.011.01a.357.357 0 0 1-.012.009l-.012.009-.013.008-.013.008-.012.007-.013.008-.014.006a.356.356 0 0 1-.013.006l-.014.005a.244.244 0 0 1-.027.008l-.014.003-.013.003a.27.27 0 0 1-.013.001h-.014v.67h.014l.013.002c.005 0 .009.002.013.003a.22.22 0 0 1 .014.003l.014.003.013.005a.26.26 0 0 1 .027.011l.014.007.013.006.012.008.013.008.013.009.012.009.012.009.011.01.011.01.01.01a.336.336 0 0 1 .011.01l.01.011.008.012.009.01a.22.22 0 0 1 .008.012l.006.012.007.011.006.012a.19.19 0 0 1 .009.023l.003.012a.11.11 0 0 1 .004.023v.022l-.002.012-.002.011-.003.011a.101.101 0 0 1-.004.012l-.006.012-.005.011-.007.012-.007.011a.24.24 0 0 1-.008.012l-.008.011a.246.246 0 0 1-.009.01l-.01.012a.265.265 0 0 1-.01.01l-.01.01c-.004.004-.007.008-.011.01l-.011.01a.357.357 0 0 1-.012.01l-.012.008-.013.009-.012.008-.013.007a.31.31 0 0 1-.013.007l-.014.007a.356.356 0 0 1-.013.006l-.014.005-.014.004-.013.004-.013.003-.014.002a.27.27 0 0 1-.013.002h-.014v.67h.014c.004 0 .009 0 .013.002l.014.002a.22.22 0 0 1 .013.003l.014.004a.223.223 0 0 1 .027.01.237.237 0 0 1 .013.005l.014.007.013.007.013.008.012.007.013.01.012.008.012.01.012.01.01.01.01.01.011.01.01.011.008.011.009.012a.22.22 0 0 1 .008.011l.006.011.007.012.006.012.005.012.004.011c0 .004.002.007.003.011a.11.11 0 0 1 .004.023v.023l-.002.011-.002.012-.003.01a.11.11 0 0 1-.004.013l-.006.011-.005.012-.007.011-.007.012a.24.24 0 0 1-.008.011l-.008.012a.246.246 0 0 1-.009.01l-.01.011-.01.011-.01.01a.38.38 0 0 1-.011.01l-.011.01a.357.357 0 0 1-.012.01l-.012.008-.013.008a.345.345 0 0 1-.012.009l-.013.007a.31.31 0 0 1-.013.007l-.014.006a.356.356 0 0 1-.013.006l-.014.005a.244.244 0 0 1-.027.008l-.013.004c-.005 0-.01 0-.014.002a.27.27 0 0 1-.013.001l-.014.001v.558h.448v.766h-.448v.446h.448v.765h-.448v.446h.448v.766h-.448v.446h.448v.765h-.448v.446h.448v.765h-.448v.446h.448v.766h-.448v.446h.448v.765h-.448v.446h.448v.766h-.448v.446h.448v.765h-.448v.446h.448v.765h-.448v.835h2.745v-.448h.765v.448h.447v-.448h.765v.448h.446v-.448h.765v.448h.446v-.448h.766v.448h.446v-.448h.765v.448h.446v-.448h.766v.448h.446v-.448h.765v.448h.446v-.448h.765v.448h.447v-.448h.765v.448h.446v-.448h.765v.448h2.745v-.835h-.447v-.765h.447v-.446h-.447v-.765h.447v-.446h-.447v-.766h.447v-.446h-.447v-.765h.447v-.446h-.447v-.766h.447v-.446h-.447v-.765h.447v-.446h-.447v-.765h.447v-.446h-.447v-.766h.447v-.446h-.447v-.765h.447v-.447h-.447v-.765h.447v-.446h-.447v-.765h.447v-.447h-.447v-.764h.447v-.447h-.447v-.765h.447v-.446h-.447v-.766h.447V41.54zm17.158 6.852h-.448v.766h.448v-.113h-.013a.19.19 0 0 1-.014-.002l-.013-.002a.33.33 0 0 1-.081-.029l-.014-.007-.013-.007-.012-.008-.013-.009-.012-.009a.337.337 0 0 1-.012-.009l-.011-.01-.011-.01-.01-.01a.336.336 0 0 1-.01-.01l-.01-.011-.01-.011a.541.541 0 0 1-.008-.012l-.008-.011-.007-.011-.006-.012-.006-.012-.005-.011-.004-.011-.003-.012-.002-.012a.11.11 0 0 1-.002-.022v-.011l.002-.012c0-.003 0-.007.002-.011l.003-.012a.101.101 0 0 1 .004-.011l.005-.012.006-.011.006-.012.007-.012a.24.24 0 0 1 .008-.011l.009-.011a.246.246 0 0 1 .008-.011l.01-.012.01-.01.01-.01.012-.01.011-.01.012-.01a.34.34 0 0 1 .012-.009l.012-.008a.345.345 0 0 1 .013-.008l.013-.007.013-.008.013-.006.014-.006a.643.643 0 0 1 .054-.017c.005 0 .01 0 .014-.002a.27.27 0 0 1 .014-.001l.013-.001zm0 1.212h-.448v.765h.448v-.112h-.013l-.014-.002-.013-.003a.223.223 0 0 1-.028-.007l-.013-.004a.374.374 0 0 1-.04-.017l-.014-.008-.013-.007a.338.338 0 0 1-.012-.008l-.013-.008-.012-.01a.337.337 0 0 1-.012-.008l-.011-.01-.011-.01-.01-.01-.01-.01-.01-.012-.01-.01c-.002-.005-.005-.008-.008-.012l-.008-.011a.216.216 0 0 1-.007-.012l-.006-.011a.212.212 0 0 1-.006-.012l-.005-.012-.004-.011-.003-.012-.002-.011a.11.11 0 0 1-.002-.023v-.01l.002-.012c0-.004 0-.008.002-.012l.003-.011a.101.101 0 0 1 .004-.012l.005-.012.006-.011.006-.012.007-.011a.24.24 0 0 1 .008-.012l.009-.011a.246.246 0 0 1 .008-.011l.01-.01.01-.012.01-.01a.38.38 0 0 1 .035-.029l.012-.01.012-.007a.345.345 0 0 1 .013-.009l.013-.007.013-.007.013-.006.014-.006.013-.006.014-.004.014-.004a.227.227 0 0 1 .013-.003l.014-.002a.27.27 0 0 1 .014-.002h.013zm0 1.211h-.448v.765h.448v-.112h-.013a.19.19 0 0 1-.014-.002l-.013-.002a.223.223 0 0 1-.014-.003l-.014-.004-.013-.004a.374.374 0 0 1-.028-.011l-.012-.007-.014-.007-.013-.008a.338.338 0 0 1-.012-.007l-.013-.01-.012-.008a.337.337 0 0 1-.012-.01c-.004-.002-.008-.005-.011-.009l-.011-.01-.01-.01-.01-.01-.01-.011-.01-.011a.541.541 0 0 1-.008-.012l-.008-.011-.007-.011-.006-.012a.212.212 0 0 1-.006-.012l-.005-.012-.004-.01-.003-.012-.002-.012a.11.11 0 0 1-.002-.022v-.012l.002-.011c0-.004 0-.008.002-.011l.003-.012a.11.11 0 0 1 .004-.012l.005-.011a.306.306 0 0 1 .006-.012l.006-.011.007-.012a.24.24 0 0 1 .008-.012l.009-.01.008-.012.01-.01.01-.012.01-.01a.38.38 0 0 1 .047-.038l.012-.008.013-.008.013-.008a.31.31 0 0 1 .013-.007l.013-.006.014-.006a.643.643 0 0 1 .054-.017.332.332 0 0 1 .028-.004h.013zm0 1.212h-.448v.765h.448v-.112l-.013-.001-.014-.002c-.004 0-.009 0-.013-.002a.33.33 0 0 1-.028-.007c-.004 0-.009-.003-.013-.004a.374.374 0 0 1-.028-.011l-.012-.007-.014-.006-.013-.008-.012-.008-.013-.008-.012-.009a.337.337 0 0 1-.012-.01l-.011-.01-.011-.009-.01-.01a.336.336 0 0 1-.01-.011l-.01-.011-.01-.01a.541.541 0 0 1-.008-.012l-.008-.012-.007-.01-.006-.012-.006-.012-.005-.012a.598.598 0 0 1-.004-.011l-.003-.012-.002-.011a.11.11 0 0 1-.002-.023v-.01l.002-.012c0-.004 0-.008.002-.012l.003-.011a.101.101 0 0 1 .004-.012l.005-.012a.306.306 0 0 1 .006-.011l.006-.012.007-.011a.24.24 0 0 1 .008-.012l.009-.011.008-.011.01-.011.01-.01.01-.01.012-.011a.416.416 0 0 1 .035-.028l.012-.009.013-.008.013-.008a.31.31 0 0 1 .013-.006l.013-.007.014-.006a.643.643 0 0 1 .054-.016l.014-.003h.014l.013-.002zm0 1.211h-.448v.765h.448v-.112h-.013l-.014-.002-.013-.002a.223.223 0 0 1-.041-.012.374.374 0 0 1-.04-.017l-.014-.007-.013-.007-.012-.009-.013-.008-.012-.009a.337.337 0 0 1-.012-.009l-.011-.01-.011-.01-.01-.01a.336.336 0 0 1-.01-.01l-.01-.012-.01-.01a.541.541 0 0 1-.008-.012l-.008-.011-.007-.012-.006-.011-.006-.012-.005-.011-.004-.012-.003-.011-.002-.012a.11.11 0 0 1-.002-.022v-.011l.002-.012c0-.004 0-.007.002-.011l.003-.012a.101.101 0 0 1 .004-.011l.005-.012.006-.012.006-.012.007-.01a.24.24 0 0 1 .008-.012l.009-.012a.246.246 0 0 1 .008-.01l.01-.011.01-.011.01-.01c.004-.004.008-.008.012-.01l.011-.01.012-.01a.34.34 0 0 1 .012-.009l.012-.008a.345.345 0 0 1 .013-.008l.013-.008.013-.007.013-.006.014-.006a.643.643 0 0 1 .013-.005l.014-.005c.005 0 .01-.003.014-.004a.227.227 0 0 1 .013-.003l.014-.002a.27.27 0 0 1 .014-.001l.013-.001zm0 1.211h-.448v.766h.448v-.113h-.013l-.014-.002-.013-.002a.33.33 0 0 1-.041-.012l-.014-.004-.014-.006a.389.389 0 0 1-.012-.007l-.014-.006-.013-.008a.338.338 0 0 1-.012-.008l-.013-.009-.012-.009a.337.337 0 0 1-.012-.009l-.011-.01-.011-.01-.01-.01-.01-.01-.01-.011-.01-.011-.008-.011-.008-.012-.007-.01-.006-.013a.212.212 0 0 1-.006-.011l-.005-.012-.004-.011-.003-.012-.002-.012a.11.11 0 0 1-.002-.022v-.011l.002-.012c0-.003 0-.007.002-.011l.003-.011a.11.11 0 0 1 .004-.012l.005-.012a.306.306 0 0 1 .006-.012l.006-.01.007-.013a.24.24 0 0 1 .008-.011l.009-.011a.246.246 0 0 1 .008-.011l.01-.011.01-.011.01-.01a.38.38 0 0 1 .035-.03l.012-.009.012-.008a.345.345 0 0 1 .013-.008l.013-.007.013-.008.013-.006.014-.005a.643.643 0 0 1 .027-.01l.014-.004a.227.227 0 0 1 .013-.003l.014-.003a.27.27 0 0 1 .014-.001h.013zm0 1.212h-.448v.765h.448v-.112h-.013a.19.19 0 0 1-.014-.002l-.013-.002a.223.223 0 0 1-.014-.004c-.005 0-.01-.002-.014-.004l-.013-.004a.374.374 0 0 1-.028-.01l-.012-.007-.014-.007-.013-.008a.338.338 0 0 1-.012-.008l-.013-.008-.012-.01a.337.337 0 0 1-.012-.009l-.011-.009-.011-.01-.01-.01-.01-.01-.01-.012-.01-.01a.541.541 0 0 1-.008-.012l-.008-.011-.007-.012-.006-.012a.212.212 0 0 1-.006-.01l-.005-.012a.598.598 0 0 1-.004-.012l-.003-.012-.002-.01a.11.11 0 0 1-.002-.024v-.011l.002-.011c0-.004 0-.008.002-.012l.003-.011a.11.11 0 0 1 .004-.012l.005-.011a.306.306 0 0 1 .006-.012l.006-.012.007-.011.008-.012.009-.01.008-.012.01-.011.01-.01.01-.011a.38.38 0 0 1 .047-.038l.012-.009.013-.007.013-.008a.31.31 0 0 1 .013-.007l.013-.007.014-.005a.643.643 0 0 1 .054-.017.334.334 0 0 1 .028-.004h.013zm0 1.211h-.448v.766h.448v-.112l-.013-.001a.19.19 0 0 1-.014-.002l-.013-.002a.33.33 0 0 1-.028-.007l-.013-.004a.374.374 0 0 1-.04-.018l-.014-.007-.013-.007-.012-.008-.013-.009-.012-.008a.337.337 0 0 1-.012-.01l-.011-.01-.011-.01-.01-.01a.336.336 0 0 1-.01-.01l-.01-.011-.01-.011a.541.541 0 0 1-.008-.011l-.008-.012-.007-.011-.006-.012-.006-.011-.005-.012a.598.598 0 0 1-.004-.012l-.003-.011-.002-.011a.11.11 0 0 1-.002-.023v-.011l.002-.011c0-.004 0-.008.002-.012l.003-.012a.101.101 0 0 1 .004-.011l.005-.012.006-.011.006-.012.007-.012a.24.24 0 0 1 .008-.01l.009-.012.008-.012.01-.01.01-.01.01-.011.012-.01a.416.416 0 0 1 .035-.028l.012-.009a.345.345 0 0 1 .013-.008l.013-.008a.31.31 0 0 1 .013-.007l.013-.006.014-.006a.643.643 0 0 1 .054-.016l.014-.003a.27.27 0 0 1 .014-.001l.013-.001zm0 1.212h-.448v.765h.448v-.112h-.013a.19.19 0 0 1-.014-.002l-.013-.003a.223.223 0 0 1-.028-.007c-.004 0-.009-.003-.013-.004a.374.374 0 0 1-.04-.017l-.014-.007-.013-.008-.012-.008-.013-.008-.012-.009a.337.337 0 0 1-.012-.01l-.011-.01-.011-.009-.01-.01a.336.336 0 0 1-.01-.011l-.01-.01-.01-.012a.541.541 0 0 1-.008-.011l-.008-.011a.256.256 0 0 1-.007-.012l-.006-.011a.212.212 0 0 1-.006-.012l-.005-.012-.004-.01-.003-.013-.002-.011a.11.11 0 0 1-.002-.022v-.012l.002-.011c0-.004 0-.008.002-.012l.003-.011a.101.101 0 0 1 .004-.012l.005-.012.006-.011.006-.012.007-.011a.24.24 0 0 1 .008-.012l.009-.011a.246.246 0 0 1 .008-.01l.01-.012.01-.01.01-.01.012-.011.011-.01a.357.357 0 0 1 .012-.009l.012-.01.012-.007a.345.345 0 0 1 .013-.009l.013-.007.013-.007.013-.006.014-.007a.643.643 0 0 1 .013-.005l.014-.004.014-.004a.227.227 0 0 1 .013-.003l.014-.002a.27.27 0 0 1 .014-.002h.013zm0 1.211h-.448v.765h.448v-.112h-.013a.19.19 0 0 1-.014-.002l-.013-.003c-.005 0-.01 0-.014-.002l-.014-.004-.013-.004a.374.374 0 0 1-.014-.006c-.005-.001-.01-.004-.014-.006a.389.389 0 0 1-.012-.006l-.014-.007-.013-.007a.338.338 0 0 1-.012-.008l-.013-.009-.012-.009a.337.337 0 0 1-.012-.01l-.011-.009-.011-.01-.01-.01-.01-.01-.01-.011-.01-.012-.008-.01-.008-.012-.007-.011-.006-.012a.212.212 0 0 1-.006-.011l-.005-.012-.004-.012-.003-.011-.002-.012a.1.1 0 0 1-.002-.022v-.012l.002-.01c0-.005 0-.008.002-.012l.003-.012a.11.11 0 0 1 .004-.012l.005-.01a.306.306 0 0 1 .006-.013l.006-.011.007-.012a.24.24 0 0 1 .008-.011l.009-.012a.246.246 0 0 1 .008-.01l.01-.011.01-.011.01-.01a.38.38 0 0 1 .047-.038l.012-.01.013-.007.013-.008.013-.007.013-.006.014-.006a.643.643 0 0 1 .013-.005l.014-.005a.235.235 0 0 1 .041-.01.27.27 0 0 1 .014 0l.013-.001zm0 1.212h-.448v.765h.448v-.113h-.013a.19.19 0 0 1-.014-.002c-.004 0-.009 0-.013-.002a.223.223 0 0 1-.014-.003l-.014-.004-.013-.004a.374.374 0 0 1-.028-.011l-.012-.007-.014-.006-.013-.008a.338.338 0 0 1-.012-.008l-.013-.008-.012-.01a.337.337 0 0 1-.012-.009l-.011-.01c-.004-.002-.008-.006-.011-.01l-.01-.01-.01-.01-.01-.011-.01-.01a.541.541 0 0 1-.008-.012l-.008-.012-.007-.011-.006-.011-.006-.012-.005-.012a.598.598 0 0 1-.004-.011l-.003-.012-.002-.011a.11.11 0 0 1-.002-.023v-.011l.002-.011c0-.004 0-.008.002-.012l.003-.011a.11.11 0 0 1 .004-.012l.005-.012a.306.306 0 0 1 .006-.012l.006-.01.007-.012a.24.24 0 0 1 .008-.012l.009-.011.008-.011.01-.011.01-.01.01-.01.012-.011a.416.416 0 0 1 .035-.028l.012-.009.013-.008.013-.008a.31.31 0 0 1 .013-.006l.013-.007.014-.006a.643.643 0 0 1 .013-.005l.014-.005a.235.235 0 0 1 .041-.009.27.27 0 0 1 .014-.001l.013-.001zm0 1.211h-.448v.765h.448v-.112h-.013l-.014-.002-.013-.002a.33.33 0 0 1-.028-.007l-.013-.005a.374.374 0 0 1-.04-.017l-.014-.007-.013-.007-.012-.009-.013-.008-.012-.009a.337.337 0 0 1-.012-.009l-.011-.01-.011-.01-.01-.01a.336.336 0 0 1-.01-.01l-.01-.012-.01-.01a.541.541 0 0 1-.008-.012l-.008-.011-.007-.012-.006-.01-.006-.013-.005-.011a.598.598 0 0 1-.004-.012l-.003-.011-.002-.012a.11.11 0 0 1-.002-.022v-.011l.002-.012c0-.004 0-.007.002-.011l.003-.012a.101.101 0 0 1 .004-.011l.005-.012.006-.012.006-.011.007-.012a.24.24 0 0 1 .008-.011l.009-.012a.246.246 0 0 1 .008-.01l.01-.012.01-.01.01-.01.012-.01a.416.416 0 0 1 .035-.029l.012-.008a.345.345 0 0 1 .013-.008l.013-.008a.31.31 0 0 1 .013-.007l.013-.007.014-.005a.643.643 0 0 1 .054-.017l.014-.002a.27.27 0 0 1 .014-.001l.013-.001zm0 1.211h-.448v.766h.448v-.112h-.013a.19.19 0 0 1-.014-.003l-.013-.002a.223.223 0 0 1-.028-.007l-.013-.004a.374.374 0 0 1-.04-.018l-.014-.007-.013-.007a.338.338 0 0 1-.012-.008l-.013-.009-.012-.008a.337.337 0 0 1-.012-.01l-.011-.01-.011-.01-.01-.01c-.004-.003-.008-.006-.01-.01l-.01-.01-.01-.012-.008-.011-.008-.011-.007-.012-.006-.012a.212.212 0 0 1-.006-.011l-.005-.012-.004-.011-.003-.012-.002-.011a.11.11 0 0 1-.002-.023v-.011l.002-.011c0-.004 0-.008.002-.012l.003-.012a.101.101 0 0 1 .004-.011l.005-.012.006-.011.006-.012.007-.012a.24.24 0 0 1 .008-.01l.009-.012a.246.246 0 0 1 .008-.011l.01-.011.01-.01.01-.011a.38.38 0 0 1 .035-.03l.012-.008.012-.009a.345.345 0 0 1 .013-.008l.013-.007.013-.007.013-.007.014-.006a.643.643 0 0 1 .013-.005l.014-.004.014-.004a.227.227 0 0 1 .013-.003l.014-.002a.27.27 0 0 1 .014-.002h.013zm0 1.212h-.448v.765h.448v-.112h-.013l-.014-.002-.013-.002a.33.33 0 0 1-.014-.003l-.014-.005a.374.374 0 0 1-.027-.01c-.005 0-.01-.003-.014-.005a.389.389 0 0 1-.012-.006l-.014-.007-.013-.008a.338.338 0 0 1-.012-.008l-.013-.008-.012-.01a.337.337 0 0 1-.012-.008l-.011-.01-.011-.01-.01-.01-.01-.01-.01-.012-.01-.01a.541.541 0 0 1-.008-.012l-.008-.011-.007-.012-.006-.011a.212.212 0 0 1-.006-.012l-.005-.012-.004-.011-.003-.011-.002-.012a.11.11 0 0 1-.002-.023v-.01l.002-.012c0-.004 0-.008.002-.012l.003-.011a.11.11 0 0 1 .004-.012l.005-.011a.314.314 0 0 1 .006-.012l.006-.012.007-.011a.24.24 0 0 1 .008-.012l.009-.01.008-.012.01-.01.01-.012.01-.01a.38.38 0 0 1 .047-.038l.012-.009.013-.007.013-.008.013-.007.013-.007.014-.005a.643.643 0 0 1 .054-.017.334.334 0 0 1 .028-.004h.013zm-2.745 1.6v-.448h-.765v.448h.112v-.014l.001-.013.003-.014.003-.013.004-.014.004-.014.006-.013a.342.342 0 0 1 .005-.013l.007-.014.007-.013.007-.013.008-.013.009-.012a.238.238 0 0 1 .008-.012l.01-.012.01-.011.01-.012a.504.504 0 0 1 .01-.01l.01-.01.011-.01a.249.249 0 0 1 .011-.008l.012-.01a.318.318 0 0 1 .01-.007c.005-.002.009-.004.012-.007l.012-.006a.262.262 0 0 1 .011-.006l.012-.005.011-.004a.16.16 0 0 1 .024-.005.193.193 0 0 1 .022-.003.13.13 0 0 1 .022.003c.004 0 .008 0 .012.002l.012.003.011.004.012.005.011.006.012.006.012.007a.338.338 0 0 1 .01.008l.012.008.011.01.011.009.01.01.011.01.01.011.01.012.01.012a.267.267 0 0 1 .008.012l.009.012a.149.149 0 0 1 .008.013l.007.013a.274.274 0 0 1 .014.027l.005.013.006.013.004.014a.64.64 0 0 1 .004.014l.003.013.003.014v.013l.001.014zm-1.211 0v-.448h-.766v.448h.112v-.014l.002-.013c0-.005.002-.01.003-.014l.002-.013.004-.014.004-.014.006-.013.006-.013.006-.014a.233.233 0 0 1 .007-.013l.007-.013.008-.013.01-.012a.238.238 0 0 1 .008-.012l.01-.012.009-.011.01-.012a.504.504 0 0 1 .01-.01l.01-.01.011-.01.012-.008.01-.01a.318.318 0 0 1 .012-.007l.011-.007a.203.203 0 0 1 .024-.012l.011-.005.012-.004a.151.151 0 0 1 .023-.005l.01-.002a.146.146 0 0 1 .035.002c.004 0 .007 0 .011.002l.012.003a.184.184 0 0 1 .035.015.287.287 0 0 1 .011.006l.012.007a.338.338 0 0 1 .011.008l.012.008.01.01.012.009.01.01.01.01.01.011.01.012.01.012.008.012.01.012.007.013.008.013a.274.274 0 0 1 .013.027l.006.013.005.013.005.014.003.014.004.013a.154.154 0 0 1 .004.04zm-1.212 0v-.448h-.766v.448h.113v-.014l.002-.013.002-.014.003-.013.004-.014.004-.014.006-.013a.342.342 0 0 1 .005-.013l.007-.014a.233.233 0 0 1 .007-.013l.007-.013.008-.013.009-.012.009-.012.01-.012.008-.011a.412.412 0 0 1 .021-.022l.01-.01.011-.01.011-.008.012-.01a.445.445 0 0 1 .01-.007l.012-.007.012-.006.012-.006.01-.005a.188.188 0 0 1 .058-.012.13.13 0 0 1 .023.003c.004 0 .007 0 .011.002l.012.003a.184.184 0 0 1 .035.015.287.287 0 0 1 .011.006l.012.007a.338.338 0 0 1 .01.008l.012.008a.399.399 0 0 1 .012.01l.01.009.01.01.011.01.01.011.01.012.01.012.008.012.01.012.007.013.008.013.007.013.006.014.006.013.005.013.005.014.003.014.004.013a.153.153 0 0 1 .004.04zm-1.211 0v-.448h-.766v.448h.112l.001-.014.002-.013c0-.005 0-.01.002-.014l.003-.013.004-.014.004-.014.006-.013a.342.342 0 0 1 .005-.013l.007-.014.007-.013.007-.013.008-.013.009-.012.008-.012.01-.012.01-.011.01-.012a.504.504 0 0 1 .01-.01l.01-.01.011-.01.011-.008.012-.01a.318.318 0 0 1 .01-.007l.012-.007.012-.006.011-.006.012-.005a.188.188 0 0 1 .057-.012.12.12 0 0 1 .022.003c.004 0 .008 0 .012.002l.012.003.011.004.012.005.011.006.012.006.012.007a.338.338 0 0 1 .01.008l.012.008.011.01.011.009.01.01.011.01.01.011.01.012.01.012.008.012.009.012a.149.149 0 0 1 .008.013l.007.013a.274.274 0 0 1 .014.027l.006.013.005.013.004.014a.64.64 0 0 1 .004.014l.003.013.003.014v.013l.002.014zm-1.212 0v-.448h-.765v.448h.112v-.014l.002-.013.002-.014.003-.013.004-.014.005-.014.005-.013a.342.342 0 0 1 .006-.013l.006-.014.007-.013.007-.013.009-.013.008-.012a.238.238 0 0 1 .009-.012l.009-.012.01-.011.01-.012a.504.504 0 0 1 .01-.01l.01-.01.011-.01.011-.008.011-.01a.318.318 0 0 1 .012-.007l.012-.007.011-.006a.262.262 0 0 1 .011-.006l.012-.005.012-.004a.16.16 0 0 1 .023-.005.193.193 0 0 1 .022-.003.13.13 0 0 1 .023.003c.004 0 .007 0 .011.002l.012.003.011.004.012.005.012.006.012.006.01.007a.338.338 0 0 1 .012.008l.012.008.01.01c.004.003.008.005.011.009l.011.01.01.01.01.011.01.012.01.012a.267.267 0 0 1 .009.012l.008.012a.149.149 0 0 1 .008.013l.008.013a.274.274 0 0 1 .013.027l.006.013a.643.643 0 0 1 .005.013l.005.014a.64.64 0 0 1 .004.014l.003.013.002.014a.154.154 0 0 1 .002.027zm-1.211 0v-.448h-.765v.448h.112v-.014l.001-.013.003-.014.003-.013c0-.005.003-.01.004-.014l.004-.014.005-.013.006-.013.007-.014a.233.233 0 0 1 .006-.013l.008-.013.008-.013.009-.012a.238.238 0 0 1 .008-.012l.01-.012.01-.011a.297.297 0 0 1 .02-.022l.01-.01.011-.01.011-.008.011-.01a.318.318 0 0 1 .012-.007l.01-.007a.203.203 0 0 1 .024-.012l.012-.005.011-.004a.166.166 0 0 1 .069-.005c.003 0 .007 0 .01.002.005 0 .008.002.012.003a.184.184 0 0 1 .035.015.287.287 0 0 1 .012.006l.012.007a.338.338 0 0 1 .011.008l.01.008a.399.399 0 0 1 .012.01c.004.003.008.005.011.009l.011.01.01.01.01.011.01.012.01.012.008.012.009.012.008.013.007.013.007.013.007.014.006.013a.643.643 0 0 1 .005.013l.004.014.004.014.003.013a.156.156 0 0 1 .004.04zm-1.212 0v-.448h-.765v.448h.112v-.014l.002-.013.002-.014.003-.013.004-.014.005-.014.005-.013a.342.342 0 0 1 .006-.013l.006-.014a.233.233 0 0 1 .007-.013l.008-.013.008-.013.008-.012.01-.012.008-.012.01-.011a.412.412 0 0 1 .01-.012l.01-.01.01-.01.012-.01.01-.008.012-.01a.445.445 0 0 1 .011-.007l.012-.007.011-.006.012-.006.011-.005a.188.188 0 0 1 .058-.012.12.12 0 0 1 .022.003c.004 0 .008 0 .012.002.004 0 .007.002.011.003a.184.184 0 0 1 .035.015.287.287 0 0 1 .012.006l.011.007a.338.338 0 0 1 .011.008l.012.008a.399.399 0 0 1 .011.01l.01.009c.005.003.008.007.011.01l.01.01.011.011.01.012.01.012.008.012.008.012a.149.149 0 0 1 .008.013l.008.013.007.013.007.014.005.013a.643.643 0 0 1 .006.013l.004.014.004.014.003.013a.156.156 0 0 1 .004.04zm-1.211 0v-.448h-.766v.448h.113v-.014l.002-.013.002-.014.003-.013.004-.014.005-.014.005-.013a.342.342 0 0 1 .006-.013l.006-.014.007-.013.007-.013.009-.013.008-.012a.238.238 0 0 1 .009-.012l.009-.012.01-.011.01-.012a.504.504 0 0 1 .01-.01l.01-.01.012-.01.01-.008.012-.01a.318.318 0 0 1 .011-.007l.012-.007.01-.006.013-.006.011-.005.012-.004a.16.16 0 0 1 .023-.005.193.193 0 0 1 .022-.003.119.119 0 0 1 .023.003c.004 0 .007 0 .011.002l.012.003.011.004.012.005.012.006.011.006.012.007a.338.338 0 0 1 .011.008l.012.008.01.01c.004.003.008.005.011.009l.011.01.01.01.01.011.01.012.01.012a.267.267 0 0 1 .009.012l.008.012a.149.149 0 0 1 .008.013l.008.013a.274.274 0 0 1 .013.027l.006.013a.643.643 0 0 1 .005.013l.004.014a.64.64 0 0 1 .005.014l.003.013.002.014.001.013.001.014zm-1.211 0v-.448h-.766v.448h.112v-.014l.002-.013c0-.005.002-.01.003-.014l.003-.013c0-.005.002-.01.003-.014l.005-.014.005-.013a.342.342 0 0 1 .006-.013l.006-.014.007-.013.008-.013.007-.013.01-.012.008-.012.01-.012c.002-.004.006-.007.01-.011l.009-.012a.504.504 0 0 1 .01-.01l.01-.01.011-.01.012-.008.01-.01a.318.318 0 0 1 .012-.007l.012-.007.011-.006a.262.262 0 0 1 .012-.006l.012-.005.01-.004a.16.16 0 0 1 .024-.005.193.193 0 0 1 .022-.003.13.13 0 0 1 .023.003c.004 0 .008 0 .011.002l.012.003a.184.184 0 0 1 .012.004l.012.005.01.006a.287.287 0 0 1 .012.006l.012.007a.338.338 0 0 1 .012.008l.01.008.012.01.01.009.012.01.01.01.01.011.01.012.009.012.009.012.008.012.009.013.007.013a.274.274 0 0 1 .013.027l.006.013.005.013.005.014a.64.64 0 0 1 .004.014l.003.013.002.014a.154.154 0 0 1 .002.027zm-1.212 0v-.448h-.766v.448h.113v-.014l.002-.013c0-.005 0-.01.002-.014l.003-.013.004-.014.004-.014.005-.013a.342.342 0 0 1 .006-.013l.007-.014a.233.233 0 0 1 .007-.013l.007-.013.008-.013.009-.012a.238.238 0 0 1 .009-.012l.01-.012.008-.011a.297.297 0 0 1 .021-.022l.01-.01.011-.01.011-.008.012-.01a.445.445 0 0 1 .01-.007l.012-.007a.203.203 0 0 1 .023-.012l.012-.005a.188.188 0 0 1 .057-.012.13.13 0 0 1 .023.003c.004 0 .007 0 .011.002l.012.003a.184.184 0 0 1 .035.015.287.287 0 0 1 .011.006l.011.007.012.008.011.008a.399.399 0 0 1 .012.01l.01.009.01.01.012.01.01.011.01.012.009.012.008.012.01.012.007.013.008.013.006.013.007.014.006.013.005.013.005.014.003.014.004.013a.156.156 0 0 1 .004.04zm-3.51-.835h.447v-.765h-.447v.11l.013.001a.19.19 0 0 1 .014.002l.013.003a.22.22 0 0 1 .014.003l.014.003.013.005a.26.26 0 0 1 .027.01l.013.007.013.007.013.008.013.008.012.009.013.008.011.01.012.01.011.01.01.01a.336.336 0 0 1 .01.01l.01.011.009.012.009.01a.22.22 0 0 1 .007.012l.007.012.007.011.005.012a.19.19 0 0 1 .01.023l.002.012a.11.11 0 0 1 .004.034v.011l-.001.011-.003.012c0 .004-.001.007-.003.011a.101.101 0 0 1-.004.012l-.005.011-.005.012a.44.44 0 0 1-.007.012l-.007.011a.24.24 0 0 1-.008.011l-.008.012a.246.246 0 0 1-.009.01l-.01.012a.265.265 0 0 1-.01.01l-.01.01-.011.01-.012.01a.357.357 0 0 1-.012.01l-.012.008-.012.009-.013.008-.013.007a.31.31 0 0 1-.013.007l-.013.006c-.005.002-.009.005-.014.006l-.013.006-.014.004-.013.004-.014.003-.013.002a.27.27 0 0 1-.014.002h-.013zm0-1.211h.447v-.766h-.447v.111l.013.001a.19.19 0 0 1 .014.002.22.22 0 0 1 .027.005l.014.004.013.004a.26.26 0 0 1 .013.005l.014.006.013.007.013.007.013.007a.362.362 0 0 1 .013.008l.012.009.013.009.011.01.012.009.011.01.01.01a.336.336 0 0 1 .01.011l.01.01a.246.246 0 0 1 .009.012l.009.011a.22.22 0 0 1 .007.011l.007.012.007.012a.212.212 0 0 1 .005.011l.005.012.004.011.003.012a.11.11 0 0 1 .004.034v.011l-.001.012-.003.01c0 .005-.001.009-.003.013a.101.101 0 0 1-.004.011l-.005.012-.005.011-.007.012a.241.241 0 0 1-.015.023l-.008.01-.009.012-.01.011a.265.265 0 0 1-.01.01l-.01.01a.38.38 0 0 1-.011.01l-.012.01a.357.357 0 0 1-.012.01c-.004.003-.007.006-.012.008l-.012.01-.013.007-.013.007-.013.007-.013.007a.356.356 0 0 1-.014.005l-.013.006a.244.244 0 0 1-.027.008c-.005 0-.01.002-.014.003l-.013.002a.27.27 0 0 1-.014.002h-.013zm0-1.212h.447v-.765h-.447v.11l.013.002a.19.19 0 0 1 .014.001l.013.002a.22.22 0 0 1 .014.003l.014.004a.223.223 0 0 1 .026.01.237.237 0 0 1 .014.006l.013.006.013.007.013.008a.362.362 0 0 1 .013.008l.012.008.013.01.011.009.012.01.011.01.01.01.01.01.01.012a.246.246 0 0 1 .009.01l.009.012a.22.22 0 0 1 .007.011l.007.012.007.012a.212.212 0 0 1 .005.011l.005.012.004.011.003.012a.11.11 0 0 1 .004.034v.011l-.001.011-.003.012c0 .004-.001.007-.003.011a.11.11 0 0 1-.004.012l-.005.011-.005.012-.007.012-.007.011a.24.24 0 0 1-.008.011l-.008.012a.246.246 0 0 1-.009.01l-.01.012-.01.01-.01.01a.38.38 0 0 1-.011.01l-.012.01a.357.357 0 0 1-.012.01l-.012.008-.012.009a.345.345 0 0 1-.013.008l-.013.007-.013.007-.013.007a.356.356 0 0 1-.014.005l-.013.005a.362.362 0 0 1-.027.009c-.005 0-.01.002-.014.003l-.013.002a.27.27 0 0 1-.014.002h-.013zm0-1.21h.447v-.766h-.447v.11h.013a.19.19 0 0 1 .014.003l.013.002a.22.22 0 0 1 .014.003l.014.004.013.004a.26.26 0 0 1 .027.011l.013.007.013.007.013.008.013.007.012.009.013.009.011.01.012.009.011.01.01.01.01.01.01.012.009.011.009.012a.22.22 0 0 1 .007.01l.007.012.007.012.005.012a.19.19 0 0 1 .01.023l.002.011a.1.1 0 0 1 .004.034v.012l-.001.011c0 .004-.002.007-.003.011l-.003.012a.11.11 0 0 1-.004.012l-.005.011-.005.012-.007.011-.007.012a.24.24 0 0 1-.008.011l-.008.011a.246.246 0 0 1-.009.011l-.01.011a.265.265 0 0 1-.01.01l-.01.01-.011.011-.012.01a.357.357 0 0 1-.012.009l-.012.009-.012.008-.013.008-.013.008a.31.31 0 0 1-.013.007l-.013.006a.356.356 0 0 1-.014.006l-.013.005-.014.004-.013.004-.014.003-.013.003a.27.27 0 0 1-.014.001h-.013zm0-1.213h.447v-.765h-.447v.111h.013a.19.19 0 0 1 .014.002l.013.003a.22.22 0 0 1 .014.003l.014.004c.004 0 .008.003.013.004a.26.26 0 0 1 .027.011l.013.006.013.007.013.008.013.008.012.009c.005.003.009.005.013.009l.011.009.012.01.011.01.01.01a.336.336 0 0 1 .01.01l.01.011a.246.246 0 0 1 .009.011l.009.012a.22.22 0 0 1 .007.011l.007.012.007.011.005.012a.19.19 0 0 1 .01.023l.002.012a.11.11 0 0 1 .004.034v.011l-.001.011-.003.012c0 .004-.001.008-.003.011a.101.101 0 0 1-.004.012l-.005.012-.005.011a.425.425 0 0 1-.007.012l-.007.011a.24.24 0 0 1-.008.012l-.008.01-.009.012-.01.01a.265.265 0 0 1-.01.011l-.01.01a.38.38 0 0 1-.011.01l-.012.01a.357.357 0 0 1-.012.01l-.012.008-.012.009-.013.008-.013.007a.31.31 0 0 1-.013.007l-.013.006-.014.007-.013.005-.014.004-.013.004-.014.003-.013.002a.27.27 0 0 1-.014.002h-.013zm0-1.211h.447v-.765h-.447v.11l.013.001a.19.19 0 0 1 .014.002l.013.002a.22.22 0 0 1 .014.003l.014.004.013.004a.26.26 0 0 1 .013.006c.005.001.01.004.014.006l.013.006.013.007.013.007a.362.362 0 0 1 .013.009l.012.008.013.01.011.009.012.009.011.01.01.01a.336.336 0 0 1 .01.011l.01.011a.246.246 0 0 1 .009.011l.009.011a.22.22 0 0 1 .007.012l.007.011.007.012a.212.212 0 0 1 .005.011l.005.012.004.012.003.012a.11.11 0 0 1 .004.034v.01l-.001.012c0 .004-.002.007-.003.011l-.003.012a.101.101 0 0 1-.004.011l-.005.012-.005.012-.007.011a.246.246 0 0 1-.007.012l-.008.01-.008.012-.009.012-.01.01-.01.01-.01.011a.38.38 0 0 1-.011.01l-.012.01a.357.357 0 0 1-.012.009l-.012.009-.012.008a.345.345 0 0 1-.013.008l-.013.008-.013.007-.013.006a.356.356 0 0 1-.014.006l-.013.005a.244.244 0 0 1-.027.008l-.014.003-.013.003a.27.27 0 0 1-.014.001l-.013.001zm0-1.211h.447v-.766h-.447v.111l.013.001a.19.19 0 0 1 .014.002.22.22 0 0 1 .027.005l.014.003.013.005a.26.26 0 0 1 .027.01l.013.008.013.006.013.008a.362.362 0 0 1 .013.008l.012.009.013.008.011.01.012.01.011.01.01.01.01.01.01.011.009.012.009.011a.22.22 0 0 1 .007.012l.007.01.007.013a.212.212 0 0 1 .005.011l.005.012.004.011.003.012a.11.11 0 0 1 .004.034v.011l-.001.012-.003.011c0 .004-.001.008-.003.011a.11.11 0 0 1-.004.012l-.005.012-.005.012-.007.01-.007.012a.24.24 0 0 1-.008.012l-.008.011a.246.246 0 0 1-.009.01l-.01.012-.01.01-.01.01a.38.38 0 0 1-.011.01l-.012.01a.357.357 0 0 1-.012.01l-.012.009-.012.008a.345.345 0 0 1-.013.008l-.013.007-.013.008-.013.006a.356.356 0 0 1-.014.005l-.013.006a.244.244 0 0 1-.027.008l-.014.003-.013.002a.27.27 0 0 1-.014.002h-.013zm0-1.212h.447v-.765h-.447v.11l.013.001a.19.19 0 0 1 .014.002l.013.002a.22.22 0 0 1 .014.004l.014.003a.223.223 0 0 1 .026.01.237.237 0 0 1 .014.006l.013.006.013.007.013.008.013.008.012.009.013.008.011.01.012.01.011.01.01.01.01.01.01.011.009.012.009.01.007.012.007.012.007.011.005.012a.19.19 0 0 1 .01.023l.002.012a.11.11 0 0 1 .004.034v.011l-.001.011-.003.012c0 .004-.001.007-.003.011a.11.11 0 0 1-.004.012l-.005.011-.005.012-.007.012-.007.011a.24.24 0 0 1-.008.011l-.008.012a.246.246 0 0 1-.009.01l-.01.012a.265.265 0 0 1-.01.01l-.01.01-.011.01-.012.01a.357.357 0 0 1-.012.01c-.004.002-.007.006-.012.008l-.012.009-.013.008-.013.007a.31.31 0 0 1-.013.007l-.013.007a.356.356 0 0 1-.014.005l-.013.006-.014.004-.013.004c-.005 0-.01.002-.014.003l-.013.002a.27.27 0 0 1-.014.002h-.013zm0-1.211h.447v-.766h-.447v.111h.013a.19.19 0 0 1 .014.003.22.22 0 0 1 .027.005c.004 0 .009.003.014.004l.013.004a.26.26 0 0 1 .027.011l.013.007.013.007.013.007a.362.362 0 0 1 .013.008l.012.009c.005.002.009.006.013.009l.011.01.012.009.011.01.01.01a.336.336 0 0 1 .01.01l.01.012a.246.246 0 0 1 .009.01l.009.012a.22.22 0 0 1 .007.011l.007.012.007.012.005.011a.19.19 0 0 1 .01.024l.002.011a.11.11 0 0 1 .004.034v.011l-.001.011-.003.012-.003.012a.101.101 0 0 1-.004.011l-.005.012-.005.011-.007.012-.007.012a.24.24 0 0 1-.008.01l-.008.012-.009.011-.01.011a.265.265 0 0 1-.01.01l-.01.01a.38.38 0 0 1-.011.01l-.012.01a.357.357 0 0 1-.012.01l-.012.008-.012.01-.013.007-.013.008a.31.31 0 0 1-.013.006l-.013.007-.014.006-.013.004a.362.362 0 0 1-.027.009c-.005 0-.01.002-.014.003l-.013.002a.27.27 0 0 1-.014.002h-.013zm0-1.212h.447v-.765h-.447v.11l.013.002.014.001.013.002a.22.22 0 0 1 .014.003l.014.004.013.005a.26.26 0 0 1 .013.005l.014.006.013.006.013.007.013.008a.362.362 0 0 1 .013.008l.012.008.013.009.011.01.012.01c.004.002.007.006.011.01l.01.01a.336.336 0 0 1 .01.01l.01.011a.246.246 0 0 1 .009.011l.009.012a.22.22 0 0 1 .007.011l.007.011.007.012a.212.212 0 0 1 .005.012l.005.012.004.01.003.013a.11.11 0 0 1 .004.034v.01l-.001.012-.003.012c0 .003-.001.008-.003.011a.101.101 0 0 1-.004.012l-.005.011-.005.012-.007.011-.007.012a.24.24 0 0 1-.008.011l-.008.011a.246.246 0 0 1-.009.011l-.01.011-.01.011-.01.01a.38.38 0 0 1-.011.01l-.012.01a.357.357 0 0 1-.012.01l-.012.008-.012.008a.345.345 0 0 1-.013.009l-.013.007-.013.007-.013.006a.356.356 0 0 1-.014.006l-.013.005a.244.244 0 0 1-.027.008l-.014.003-.013.003-.014.001-.013.001z"/>
        <rect x="36.703" y="48.326" width="15.494" height="16.774" rx=".256" ry=".256" fill="#999" stroke="#fff" stroke-width=".168"/>
        <circle cx="38.303" cy="63.499" r=".512"/>
        <path d="M50.4 47.686V42.18h-4.29v2.817h-2.304V42.18h-2.241v2.817h-2.369V42.18h-1.985v4.546m11.076-4.546v5.506" fill="none" stroke="#4d4d4d" stroke-width=".572"/>
        <text transform="scale(.94679 1.0562)" x="39.411" y="50.151" fill="#e6e6e6" font-family="Arial" font-size="1.145" font-weight="bold" stroke-width=".061"><tspan font-size="1.681" style="font-variant-caps:normal;font-variant-east-asian:normal;font-variant-ligatures:normal;font-variant-numeric:normal">ESP32-WROOM-32</tspan></text>
        <g fill="#fff39d" stroke="#000" stroke-linecap="round" stroke-linejoin="round" stroke-miterlimit="3.7" stroke-width=".021">
            <path d="M35.881 48.391v.165a.261.218 0 0 1 .255.218.261.218 0 0 1-.255.217v.165h.448v-.765zM35.881 49.603v.165a.261.218 0 0 1 .255.218.261.218 0 0 1-.255.217v.165h.448v-.765zM35.881 50.814v.165a.261.218 0 0 1 .255.218.261.218 0 0 1-.255.217v.165h.448v-.765zM35.881 52.026v.165a.261.218 0 0 1 .255.218.261.218 0 0 1-.255.217v.165h.448v-.765zM35.881 53.237v.165a.261.218 0 0 1 .255.218.261.218 0 0 1-.255.217v.165h.448v-.765zM35.881 54.448v.165a.261.218 0 0 1 .255.218.261.218 0 0 1-.255.217v.165h.448v-.765zM35.881 55.66v.165a.261.218 0 0 1 .255.218.261.218 0 0 1-.255.217v.165h.448v-.765zM35.881 56.871v.165a.261.218 0 0 1 .255.218.261.218 0 0 1-.255.217v.165h.448v-.765zM35.881 58.083v.165a.261.218 0 0 1 .255.218.261.218 0 0 1-.255.217v.165h.448v-.765zM35.881 59.294v.165a.261.218 0 0 1 .255.218.261.218 0 0 1-.255.217v.165h.448v-.765zM35.881 60.505v.165a.261.218 0 0 1 .255.218.261.218 0 0 1-.255.217v.165h.448v-.765zM35.881 61.717v.165a.261.218 0 0 1 .255.218.261.218 0 0 1-.255.217v.165h.448v-.765zM35.881 62.928v.165a.261.218 0 0 1 .255.218.261.218 0 0 1-.255.217v.165h.448v-.765zM35.881 64.14v.165a.261.218 0 0 1 .255.218.261.218 0 0 1-.255.217v.165h.448v-.765zM53.019 48.391v.165a.261.218 0 0 0-.255.218.261.218 0 0 0 .255.217v.165h-.448v-.765zM53.019 49.603v.165a.261.218 0 0 0-.255.218.261.218 0 0 0 .255.217v.165h-.448v-.765zM53.019 50.814v.165a.261.218 0 0 0-.255.218.261.218 0 0 0 .255.217v.165h-.448v-.765zM53.019 52.026v.165a.261.218 0 0 0-.255.218.261.218 0 0 0 .255.217v.165h-.448v-.765zM53.019 53.237v.165a.261.218 0 0 0-.255.218.261.218 0 0 0 .255.217v.165h-.448v-.765zM53.019 54.448v.165a.261.218 0 0 0-.255.218.261.218 0 0 0 .255.217v.165h-.448v-.765zM53.019 55.66v.165a.261.218 0 0 0-.255.218.261.218 0 0 0 .255.217v.165h-.448v-.765zM53.019 56.871v.165a.261.218 0 0 0-.255.218.261.218 0 0 0 .255.217v.165h-.448v-.765zM53.019 58.083v.165a.261.218 0 0 0-.255.218.261.218 0 0 0 .255.217v.165h-.448v-.765zM53.019 59.294v.165a.261.218 0 0 0-.255.218.261.218 0 0 0 .255.217v.165h-.448v-.765zM53.019 60.505v.165a.261.218 0 0 0-.255.218.261.218 0 0 0 .255.217v.165h-.448v-.765zM53.019 61.717v.165a.261.218 0 0 0-.255.218.261.218 0 0 0 .255.217v.165h-.448v-.765zM53.019 62.928v.165a.261.218 0 0 0-.255.218.261.218 0 0 0 .255.217v.165h-.448v-.765zM53.019 64.14v.165a.261.218 0 0 0-.255.218.261.218 0 0 0 .255.217v.165h-.448v-.765zM38.616 65.73h.165a.218.261 0 0 1 .218-.255.218.261 0 0 1 .217.255h.165v-.448h-.765zM39.828 65.73h.165a.218.261 0 0 1 .218-.255.218.261 0 0 1 .217.255h.165v-.448h-.765zM43.462 65.73h.165a.218.261 0 0 1 .218-.255.218.261 0 0 1 .217.255h.165v-.448h-.765zM41.039 65.73h.165a.218.261 0 0 1 .218-.255.218.261 0 0 1 .217.255h.165v-.448h-.765zM42.251 65.73h.165a.218.261 0 0 1 .218-.255.218.261 0 0 1 .217.255h.165v-.448h-.765zM44.673 65.73h.165a.218.261 0 0 1 .218-.255.218.261 0 0 1 .217.255h.165v-.448h-.765zM45.885 65.73h.165a.218.261 0 0 1 .218-.255.218.261 0 0 1 .217.255h.165v-.448h-.765zM47.096 65.73h.165a.218.261 0 0 1 .218-.255.218.261 0 0 1 .217.255h.165v-.448h-.765zM48.308 65.73h.165a.218.261 0 0 1 .218-.255.218.261 0 0 1 .217.255h.165v-.448h-.765zM49.519 65.73h.165a.218.261 0 0 1 .218-.255.218.261 0 0 1 .217.255h.165v-.448h-.765z" style="paint-order:stroke fill markers"/>
        </g>
        <path d="M47.829 56.713h-1.076m1.19-1.19c-.68 0-1.19.567-1.19 1.19m1.19 1.19c-.68 0-1.19-.567-1.19-1.19M45.733 55.495c-.623 0-1.133.51-1.19 1.133 0 .736.51 1.303 1.19 1.303" fill="none" stroke="#e6e6e6" stroke-width=".337"/>
        <rect x="37.366" y="55.327" width="6.177" height="2.773" ry=".964" fill="#e6e6e6"/>
        <g fill="#999" stroke-width=".247">
            <path d="M37.948 57.356c-.01-.03-.308-1.328-.308-1.342 0-.01.045-.014.186-.014.102 0 .186.004.185.008 0 .015.106.704.113.735.006.027.007.027.015.006.004-.013.042-.187.083-.387l.074-.363.336.007.076.367c.042.203.08.371.083.375.01.01.011 0 .07-.397l.05-.34h.183c.1 0 .183.004.183.008 0 .008-.3 1.3-.309 1.33-.005.02-.024.021-.178.021-.155 0-.174-.002-.18-.02a19.732 19.732 0 0 1-.076-.391 8.953 8.953 0 0 0-.075-.376c-.01-.01-.015.015-.09.404l-.074.377-.171.004c-.13.002-.172 0-.176-.012zM39.475 56.876v-.494h.325v.988h-.325zM39.571 56.254a.246.246 0 0 1-.077-.05c-.077-.072-.065-.174.028-.236.04-.026.062-.032.12-.033.268 0 .285.31.018.327a.305.305 0 0 1-.089-.008zM40.058 57.802c.136-.143.222-.281.277-.45.026-.078.027-.098.034-.609.007-.568.006-.56.073-.69.038-.078.132-.197.216-.276a.828.828 0 0 1 .292-.186l.075-.027h.72c.793 0 .781 0 .941.074.203.096.39.325.441.539.026.108.026 1.007 0 1.107a.871.871 0 0 1-.414.518c-.163.097-.06.09-1.481.09h-1.26l.086-.09zm2.553-.925v-.506h-.349v1.01h.349zm-1.382.29v-.203h.731v-.325h-.731v-.314h.824v-.337H40.83l.008.194c.004.106.007.417.007.69v.498h.383zm1.303-.9c.125-.035.177-.188.092-.274-.098-.1-.267-.096-.354.006-.058.07-.055.15.008.214.06.06.158.08.254.053z"/>
        </g>
        <g fill="#e6e6e6">
            <path transform="matrix(.02545 0 0 -.02545 49.686 57.388)" d="M0 0a7.655 7.655 0 0 0-15.31 0 7.654 7.654 0 0 0 7.655 7.653A7.652 7.652 0 0 0 0 0" clip-path="url(#a)"/>
            <path transform="matrix(.02545 0 0 -.02545 51.387 57.185)" d="M0 0c-4.905 34.796-32.499 62.392-67.297 67.295a49.833 49.833 0 0 1-11.102-8.019v-7.405c34.723 0 62.974-28.251 62.974-62.975h7.406A49.931 49.931 0 0 1 0 0" clip-path="url(#b)"/>
            <path transform="matrix(.02545 0 0 -.02545 51.533 56.594)" d="M0 0c0 27.51-22.302 49.811-49.813 49.811a50.83 50.83 0 0 1-5.131-.284l-1.136-3.27c24.488-8.554 43.896-27.973 52.476-52.45l3.327 1.164C-.112-3.375 0-1.701 0 0" clip-path="url(#c)"/>
            <path transform="matrix(.02545 0 0 -.02545 50.28 58.1)" d="M0 0c-15.816 0-30.687 6.159-41.872 17.342-11.183 11.185-17.342 26.054-17.342 41.871 0 15.816 6.159 30.685 17.342 41.87l3.164-3.164C-49.045 87.58-54.742 73.834-54.742 59.213c0-14.62 5.697-28.368 16.034-38.706C-28.37 10.166-14.622 4.473 0 4.473s28.367 5.693 38.705 16.034l3.164-3.165C30.686 6.159 15.815 0 0 0" clip-path="url(#d)"/>
            <path transform="matrix(.02545 0 0 -.02545 50.263 57.555)" d="M0 0c1.222 12.362-4.279 23.871-13.523 30.88a34.115 34.115 0 0 1-17.326 6.784c-1.698.179-2.937 1.684-2.773 3.369.196 1.848 1.722 2.944 3.385 2.774 7.066-.722 13.537-3.192 19.009-6.994C.522 28.687 7.649 14.597 6.128-.611A40.556 40.556 0 0 0 4.77-7.608l8.988-2.535a49.477 49.477 0 0 1 7.787 2.926c.642 3.446 1 6.994 1 10.633 0 28.491-21.068 52.14-48.443 56.194-3.282.47-6.613.509-9.061-.107a19.37 19.37 0 0 1-9.793-5.99 19.3 19.3 0 0 1-4.837-12.807c0-8.657 5.669-15.992 13.504-18.477 1.469-.468 3.753-.67 4.878-.878h.046c8.558-1.477 15.103-8.959 15.103-17.935 0-3.611-1.072-6.969-2.895-9.802l6.232-3.987a50.12 50.12 0 0 1 9.276-1.556A34.459 34.459 0 0 1 0 0" clip-path="url(#e)"/>
        </g>
    </g>
</svg>
