<svg width="25.786" height="46.311" xmlns="http://www.w3.org/2000/svg">
    <defs>
        <clipPath id="e"/>
        <clipPath id="d"/>
        <clipPath id="c"/>
        <clipPath id="b"/>
        <clipPath id="a"/>
    </defs>
    <g transform="translate(-70.379 -79.375)">
        <path d="M71.394 85.474c-.56 0-1.015.454-1.015 1.015v37.474c0 .56.454 1.015 1.015 1.015H95.15c.56 0 1.015-.455 1.015-1.015V86.489c0-.56-.454-1.015-1.015-1.015zm.274.979a.723.723 0 0 1 .723.723.723.723 0 0 1-.723.723.723.723 0 0 1-.723-.723.723.723 0 0 1 .723-.723zm23.207 0a.723.723 0 0 1 .723.723.723.723 0 0 1-.723.723.723.723 0 0 1-.723-.723.723.723 0 0 1 .723-.723zM71.668 89.03a.723.723 0 0 1 .723.723.723.723 0 0 1-.723.724.723.723 0 0 1-.723-.724.723.723 0 0 1 .723-.723zm23.207 0a.723.723 0 0 1 .723.723.723.723 0 0 1-.723.724.723.723 0 0 1-.723-.724.723.723 0 0 1 .723-.723zM71.668 91.61a.723.723 0 0 1 .723.723.723.723 0 0 1-.723.723.723.723 0 0 1-.723-.723.723.723 0 0 1 .723-.723zm23.207 0a.723.723 0 0 1 .723.723.723.723 0 0 1-.723.723.723.723 0 0 1-.723-.723.723.723 0 0 1 .723-.723zm-23.207 2.578a.723.723 0 0 1 .723.724.723.723 0 0 1-.723.723.723.723 0 0 1-.723-.723.723.723 0 0 1 .723-.724zm23.207 0a.723.723 0 0 1 .723.724.723.723 0 0 1-.723.723.723.723 0 0 1-.723-.723.723.723 0 0 1 .723-.724zm-23.207 2.579a.723.723 0 0 1 .723.723.723.723 0 0 1-.723.723.723.723 0 0 1-.723-.723.723.723 0 0 1 .723-.723zm23.207 0a.723.723 0 0 1 .723.723.723.723 0 0 1-.723.723.723.723 0 0 1-.723-.723.723.723 0 0 1 .723-.723zm-23.207 2.579a.723.723 0 0 1 .723.723.723.723 0 0 1-.723.723.723.723 0 0 1-.723-.723.723.723 0 0 1 .723-.723zm23.207 0a.723.723 0 0 1 .723.723.723.723 0 0 1-.723.723.723.723 0 0 1-.723-.723.723.723 0 0 1 .723-.723zm-23.207 2.578a.723.723 0 0 1 .723.723.723.723 0 0 1-.723.724.723.723 0 0 1-.723-.724.723.723 0 0 1 .723-.723zm23.207 0a.723.723 0 0 1 .723.723.723.723 0 0 1-.723.724.723.723 0 0 1-.723-.724.723.723 0 0 1 .723-.723zm-23.207 2.579a.723.723 0 0 1 .723.723.723.723 0 0 1-.723.723.723.723 0 0 1-.723-.723.723.723 0 0 1 .723-.723zm23.207 0a.723.723 0 0 1 .723.723.723.723 0 0 1-.723.723.723.723 0 0 1-.723-.723.723.723 0 0 1 .723-.723zm-23.207 2.579a.723.723 0 0 1 .723.723.723.723 0 0 1-.723.723.723.723 0 0 1-.723-.723.723.723 0 0 1 .723-.723zm23.207 0a.723.723 0 0 1 .723.723.723.723 0 0 1-.723.723.723.723 0 0 1-.723-.723.723.723 0 0 1 .723-.723zm-23.207 2.578a.723.723 0 0 1 .723.723.723.723 0 0 1-.723.723.723.723 0 0 1-.723-.723.723.723 0 0 1 .723-.723zm23.207 0a.723.723 0 0 1 .723.723.723.723 0 0 1-.723.723.723.723 0 0 1-.723-.723.723.723 0 0 1 .723-.723zm-23.207 2.578a.723.723 0 0 1 .723.724.723.723 0 0 1-.723.723.723.723 0 0 1-.723-.723.723.723 0 0 1 .723-.724zm23.207 0a.723.723 0 0 1 .723.724.723.723 0 0 1-.723.723.723.723 0 0 1-.723-.723.723.723 0 0 1 .723-.724zm-23.207 2.579a.723.723 0 0 1 .723.724.723.723 0 0 1-.723.722.723.723 0 0 1-.723-.722.723.723 0 0 1 .723-.724zm23.207 0a.723.723 0 0 1 .723.724.723.723 0 0 1-.723.722.723.723 0 0 1-.723-.722.723.723 0 0 1 .723-.724zm-23.207 2.579a.723.723 0 0 1 .723.723.723.723 0 0 1-.723.723.723.723 0 0 1-.723-.723.723.723 0 0 1 .723-.723zm23.207 0a.723.723 0 0 1 .723.723.723.723 0 0 1-.723.723.723.723 0 0 1-.723-.723.723.723 0 0 1 .723-.723zm-23.207 2.578a.723.723 0 0 1 .723.723.723.723 0 0 1-.723.724.723.723 0 0 1-.723-.724.723.723 0 0 1 .723-.723zm23.207 0a.723.723 0 0 1 .723.723.723.723 0 0 1-.723.724.723.723 0 0 1-.723-.724.723.723 0 0 1 .723-.723zm-23.207 2.579a.723.723 0 0 1 .723.723.723.723 0 0 1-.723.723.723.723 0 0 1-.723-.723.723.723 0 0 1 .723-.723zm23.207 0a.723.723 0 0 1 .723.723.723.723 0 0 1-.723.723.723.723 0 0 1-.723-.723.723.723 0 0 1 .723-.723z" fill="#3c3c3c"/>
        <g fill="none" stroke="#b4b4b4" stroke-width=".529">
            <circle class="pad-d2" cx="71.668" cy="87.176" r=".723"/>
            <circle class="pad-d2" cx="71.668" cy="123.28" r=".723"/>
            <circle class="pad-d2" cx="71.668" cy="89.754" r=".723"/>
            <circle class="pad-d2" cx="71.668" cy="92.333" r=".723"/>
            <circle class="pad-d2" cx="71.668" cy="94.911" r=".723"/>
            <circle class="pad-d2" cx="71.668" cy="97.49" r=".723"/>
            <circle class="pad-d2" cx="71.668" cy="100.07" r=".723"/>
            <circle class="pad-d2" cx="71.668" cy="102.65" r=".723"/>
            <circle class="pad-d2" cx="71.668" cy="105.23" r=".723"/>
            <circle class="pad-d2" cx="71.668" cy="107.8" r=".723"/>
            <circle class="pad-d2" cx="71.668" cy="110.38" r=".723"/>
            <circle class="pad-d2" cx="71.668" cy="112.96" r=".723"/>
            <circle class="pad-d2" cx="71.668" cy="115.54" r=".723"/>
            <circle class="pad-d2" cx="71.668" cy="118.12" r=".723"/>
            <circle class="pad-d2" cx="71.668" cy="120.7" r=".723"/>
            <circle class="pad-d2" cx="94.876" cy="87.176" r=".723"/>
            <circle class="pad-d2" cx="94.876" cy="123.28" r=".723"/>
            <circle class="pad-d2" cx="94.876" cy="89.754" r=".723"/>
            <circle class="pad-d2" cx="94.876" cy="92.333" r=".723"/>
            <circle class="pad-d2" cx="94.876" cy="94.911" r=".723"/>
            <circle class="pad-d2" cx="94.876" cy="97.49" r=".723"/>
            <circle class="pad-d2" cx="94.876" cy="100.07" r=".723"/>
            <circle class="pad-d2" cx="94.876" cy="102.65" r=".723"/>
            <circle class="pad-d2" cx="94.876" cy="105.23" r=".723"/>
            <circle class="pad-d2" cx="94.876" cy="107.8" r=".723"/>
            <circle class="pad-d2" cx="94.876" cy="110.38" r=".723"/>
            <circle class="pad-d2" cx="94.876" cy="112.96" r=".723"/>
            <circle class="pad-d2" cx="94.876" cy="115.54" r=".723"/>
            <circle class="pad-d2" cx="94.876" cy="118.12" r=".723"/>
            <circle class="pad-d2" cx="94.876" cy="120.7" r=".723"/>
        </g>
        <g fill="#fff" font-family="Arial" font-size="1.058" font-weight="bold" stroke-width=".353">
            <text x="-88.35" y="73.613" style="font-variant-caps:normal;font-variant-east-asian:normal;font-variant-ligatures:normal;font-variant-numeric:normal" transform="rotate(-90)">GND</text>
            <text x="-106.4" y="93.687" style="font-variant-caps:normal;font-variant-east-asian:normal;font-variant-ligatures:normal;font-variant-numeric:normal" transform="rotate(-90)">GND</text>
            <text x="-101.243" y="93.687" style="font-variant-caps:normal;font-variant-east-asian:normal;font-variant-ligatures:normal;font-variant-numeric:normal" transform="rotate(-90)">GND</text>
            <text x="-88.35" y="93.687" style="font-variant-caps:normal;font-variant-east-asian:normal;font-variant-ligatures:normal;font-variant-numeric:normal" transform="rotate(-90)">GND</text>
            <text x="-114.136" y="93.687" style="font-variant-caps:normal;font-variant-east-asian:normal;font-variant-ligatures:normal;font-variant-numeric:normal" transform="rotate(-90)">GND</text>
            <text x="-121.872" y="93.687" style="font-variant-caps:normal;font-variant-east-asian:normal;font-variant-ligatures:normal;font-variant-numeric:normal" transform="rotate(-90)">GND</text>
            <text x="-124.451" y="93.687" style="font-variant-caps:normal;font-variant-east-asian:normal;font-variant-ligatures:normal;font-variant-numeric:normal" transform="rotate(-90)">GND</text>
            <text x="-124.451" y="73.613" style="font-variant-caps:normal;font-variant-east-asian:normal;font-variant-ligatures:normal;font-variant-numeric:normal" transform="rotate(-90)">GND</text>
            <text x="-111.558" y="73.613" style="font-variant-caps:normal;font-variant-east-asian:normal;font-variant-ligatures:normal;font-variant-numeric:normal" transform="rotate(-90)">GND</text>
            <text x="-98.665" y="73.613" style="font-variant-caps:normal;font-variant-east-asian:normal;font-variant-ligatures:normal;font-variant-numeric:normal" transform="rotate(-90)">GND</text>
            <text x="-90.693" y="73.604" style="font-variant-caps:normal;font-variant-east-asian:normal;font-variant-ligatures:normal;font-variant-numeric:normal" transform="rotate(-90)">3V3</text>
            <text x="-93.271" y="73.604" style="font-variant-caps:normal;font-variant-east-asian:normal;font-variant-ligatures:normal;font-variant-numeric:normal" transform="rotate(-90)">3V3</text>
            <text x="-121.367" y="73.601" style="font-variant-caps:normal;font-variant-east-asian:normal;font-variant-ligatures:normal;font-variant-numeric:normal" transform="rotate(-90)">5V</text>
            <text x="-118.789" y="73.601" style="font-variant-caps:normal;font-variant-east-asian:normal;font-variant-ligatures:normal;font-variant-numeric:normal" transform="rotate(-90)">5V</text>
            <text x="-95.998" y="73.613" style="font-variant-caps:normal;font-variant-east-asian:normal;font-variant-ligatures:normal;font-variant-numeric:normal" transform="rotate(-90)">RST</text>
            <text x="-108.097" y="73.59" style="font-variant-caps:normal;font-variant-east-asian:normal;font-variant-ligatures:normal;font-variant-numeric:normal" transform="rotate(-90)">7</text>
            <text x="-105.524" y="73.604" style="font-variant-caps:normal;font-variant-east-asian:normal;font-variant-ligatures:normal;font-variant-numeric:normal" transform="rotate(-90)">6</text>
            <text x="-102.949" y="73.59" style="font-variant-caps:normal;font-variant-east-asian:normal;font-variant-ligatures:normal;font-variant-numeric:normal" transform="rotate(-90)">5</text>
            <text x="-100.36" y="73.604" style="font-variant-caps:normal;font-variant-east-asian:normal;font-variant-ligatures:normal;font-variant-numeric:normal" transform="rotate(-90)">4</text>
            <text x="-115.826" y="73.604" style="font-variant-caps:normal;font-variant-east-asian:normal;font-variant-ligatures:normal;font-variant-numeric:normal" transform="rotate(-90)">9</text>
            <text x="-113.253" y="73.604" style="font-variant-caps:normal;font-variant-east-asian:normal;font-variant-ligatures:normal;font-variant-numeric:normal" transform="rotate(-90)">8</text>
            <text x="-95.192" y="93.7" style="font-variant-caps:normal;font-variant-east-asian:normal;font-variant-ligatures:normal;font-variant-numeric:normal" transform="rotate(-90)">2</text>
            <text x="-92.583" y="93.7" style="font-variant-caps:normal;font-variant-east-asian:normal;font-variant-ligatures:normal;font-variant-numeric:normal" transform="rotate(-90)">1</text>
            <text x="-97.781" y="93.687" style="font-variant-caps:normal;font-variant-east-asian:normal;font-variant-ligatures:normal;font-variant-numeric:normal" transform="rotate(-90)">3</text>
            <text x="-90.045" y="93.687" style="font-variant-caps:normal;font-variant-east-asian:normal;font-variant-ligatures:normal;font-variant-numeric:normal" transform="rotate(-90)">0</text>
            <text x="-103.251" y="93.687" style="font-variant-caps:normal;font-variant-east-asian:normal;font-variant-ligatures:normal;font-variant-numeric:normal" transform="rotate(-90)">10</text>
            <text x="-108.577" y="93.7" style="font-variant-caps:normal;font-variant-east-asian:normal;font-variant-ligatures:normal;font-variant-numeric:normal" transform="rotate(-90)">RX</text>
            <text x="-111.07" y="93.7" style="font-variant-caps:normal;font-variant-east-asian:normal;font-variant-ligatures:normal;font-variant-numeric:normal" transform="rotate(-90)">TX</text>
            <text x="-116.147" y="93.687" style="font-variant-caps:normal;font-variant-east-asian:normal;font-variant-ligatures:normal;font-variant-numeric:normal" transform="rotate(-90)">18</text>
            <text x="-118.724" y="93.687" style="font-variant-caps:normal;font-variant-east-asian:normal;font-variant-ligatures:normal;font-variant-numeric:normal" transform="rotate(-90)">19</text>
        </g>
        <path d="M74.09 79.375v6.787h.645v.94h-.645v.582h.645v.94h-.645v.582h.645v.94h-.645v.582h.645v.94h-.645v.583h.645v.94h-.645v.582h.645v.94h-.645v.582h.645v.94h-.645v.582h.645v.94h-.645v.582h.645v.94h-.645v.492h18.364v-.492h-.645v-.94h.645v-.582h-.645v-.94h.645v-.583h-.645v-.939h.645v-.583h-.645v-.94h.645v-.582h-.645v-.94h.645v-.582h-.645v-.94h.645v-.582h-.645v-.94h.645v-.582h-.645v-.94h.645v-.582h-.645v-.94h.645v-6.787zm18.364 6.787h-.645v.94h.645v-.144h-.02l-.018-.003a.322.322 0 0 1-.037-.006l-.018-.004-.017-.006a.326.326 0 0 1-.017-.006l-.017-.007-.016-.007-.016-.008-.016-.01a.337.337 0 0 1-.029-.02l-.014-.01-.013-.011-.013-.011-.012-.012-.011-.013-.012-.013-.01-.013-.01-.013a.315.315 0 0 1-.016-.027l-.007-.014-.007-.014-.006-.014-.005-.014a.257.257 0 0 1-.007-.029l-.002-.014-.001-.014a.2.2 0 0 1 0-.027v-.014l.003-.014a.28.28 0 0 1 .007-.028l.006-.015a.255.255 0 0 1 .02-.042l.008-.015.008-.013.01-.014a.411.411 0 0 1 .02-.026l.012-.013.013-.013.012-.012.013-.01.014-.012.015-.01a.394.394 0 0 1 .03-.02l.016-.009.016-.007.017-.008.017-.006a.363.363 0 0 1 .018-.005l.018-.005.018-.004.018-.003.019-.002h.019zm0 1.522h-.645v.94h.645v-.144h-.02l-.018-.002-.018-.003a.56.56 0 0 1-.019-.004l-.018-.004-.017-.006a.326.326 0 0 1-.017-.006l-.017-.006-.016-.008-.016-.009-.016-.008-.014-.01-.015-.01a.495.495 0 0 1-.014-.01l-.013-.012a.568.568 0 0 1-.013-.012l-.012-.011-.011-.013-.012-.013-.01-.013-.01-.013a.315.315 0 0 1-.008-.014l-.008-.013-.007-.014-.007-.014-.006-.014-.005-.014a.255.255 0 0 1-.007-.028l-.002-.014-.001-.014v-.041l.003-.014.003-.015a.28.28 0 0 1 .004-.014l.006-.014.005-.015a.437.437 0 0 1 .051-.083l.01-.013.012-.013.013-.012.012-.013.013-.011.014-.01.015-.011.015-.01a.478.478 0 0 1 .015-.01l.016-.008a.5.5 0 0 1 .016-.008l.017-.007.017-.007a.363.363 0 0 1 .018-.005l.018-.005.018-.004.018-.003.019-.001.019-.001zm0 1.523h-.645v.939h.645v-.144h-.02L92.417 90a.322.322 0 0 1-.055-.011l-.017-.005a.326.326 0 0 1-.017-.007l-.017-.007-.016-.007-.016-.008-.016-.01a.337.337 0 0 1-.029-.02l-.014-.01-.013-.01-.013-.012-.012-.012-.011-.013-.012-.013-.01-.012-.01-.014a.321.321 0 0 1-.016-.027l-.007-.014-.007-.014-.006-.014-.005-.014a.257.257 0 0 1-.007-.028l-.002-.014-.001-.014a.2.2 0 0 1 0-.028v-.014l.003-.014a.28.28 0 0 1 .007-.028l.006-.015a.255.255 0 0 1 .012-.028l.007-.014.009-.014.008-.014.01-.014a.423.423 0 0 1 .02-.026l.012-.013.013-.012.012-.012.013-.012.014-.011.015-.01a.394.394 0 0 1 .03-.02l.016-.008.016-.008.017-.007.017-.007a.363.363 0 0 1 .018-.005l.018-.005.018-.004.018-.003.019-.002h.019zm0 1.521h-.645v.94h.645v-.143l-.02-.001-.018-.002-.018-.003a.56.56 0 0 1-.019-.003l-.018-.005-.017-.005a.326.326 0 0 1-.017-.006l-.017-.007-.016-.008-.016-.008-.016-.01c-.005-.002-.01-.006-.014-.009l-.015-.01a.495.495 0 0 1-.014-.01l-.013-.011a.404.404 0 0 1-.013-.012l-.012-.012-.011-.013-.012-.012-.01-.013-.01-.013-.008-.014-.008-.014-.007-.014-.007-.014-.006-.014-.005-.014a.257.257 0 0 1-.007-.028l-.002-.014-.001-.014v-.041l.003-.014.003-.015a.254.254 0 0 1 .004-.014l.006-.014.005-.014a.437.437 0 0 1 .007-.015l.007-.014a.31.31 0 0 1 .027-.041.423.423 0 0 1 .01-.014l.01-.013.012-.012.013-.013.012-.012.013-.012.014-.01.015-.01.015-.011a.478.478 0 0 1 .015-.01l.016-.008.016-.008.017-.007.017-.006a.363.363 0 0 1 .018-.006l.018-.005.018-.003.018-.004.019-.001.019-.001zm0 1.523h-.645v.94h.645v-.144h-.02l-.018-.003a.322.322 0 0 1-.055-.01c-.005-.003-.011-.004-.017-.006a.326.326 0 0 1-.017-.006l-.017-.007-.016-.008-.016-.008-.016-.01a.337.337 0 0 1-.029-.019l-.014-.01-.013-.012-.013-.011-.012-.012-.011-.012-.012-.013-.01-.013-.01-.014a.315.315 0 0 1-.016-.027l-.007-.014-.007-.014-.006-.014-.005-.014a.257.257 0 0 1-.007-.028l-.002-.014-.001-.014a.2.2 0 0 1 0-.027v-.014l.003-.014a.28.28 0 0 1 .007-.029l.006-.014a.255.255 0 0 1 .02-.043l.008-.014.008-.014.01-.013a.423.423 0 0 1 .02-.027l.012-.013.013-.012.012-.012.013-.011.014-.012.015-.01a.394.394 0 0 1 .03-.02l.016-.008.016-.008.017-.007.017-.006a.363.363 0 0 1 .018-.006l.018-.005.018-.004.018-.002.019-.002h.019zm0 1.522h-.645v.94h.645v-.144l-.02-.001c-.005 0-.012 0-.018-.002l-.018-.003a.56.56 0 0 1-.019-.003l-.018-.004-.017-.006a.326.326 0 0 1-.017-.006l-.017-.007-.016-.008-.016-.008-.016-.009-.014-.01-.015-.01a.495.495 0 0 1-.014-.01l-.013-.011a.546.546 0 0 1-.013-.012l-.012-.012-.011-.012-.012-.013-.01-.013-.01-.013-.008-.014-.008-.013-.007-.014-.007-.014-.006-.014-.005-.015a.257.257 0 0 1-.007-.028l-.002-.014-.001-.014v-.041l.003-.014.003-.014a.254.254 0 0 1 .004-.015l.006-.014.005-.014.007-.014.007-.015a.31.31 0 0 1 .009-.014l.008-.014a.435.435 0 0 1 .02-.026l.01-.014.012-.012.013-.013.012-.012.013-.011.014-.011.015-.01.015-.011a.478.478 0 0 1 .015-.01l.016-.008a.5.5 0 0 1 .016-.008l.017-.007.017-.006a.363.363 0 0 1 .018-.006l.018-.005.018-.003.018-.003.019-.002h.019zm0 1.522h-.645v.94h.645v-.144h-.02l-.018-.003a.322.322 0 0 1-.055-.01l-.017-.006a.326.326 0 0 1-.017-.006l-.017-.007-.016-.007-.016-.009-.016-.009a.337.337 0 0 1-.029-.02l-.014-.01-.013-.011-.013-.012-.012-.012-.011-.012-.012-.013-.01-.013-.01-.013a.315.315 0 0 1-.023-.041l-.007-.015-.006-.014-.005-.013a.255.255 0 0 1-.007-.029l-.002-.014-.001-.013a.214.214 0 0 1 0-.028v-.014l.003-.014a.28.28 0 0 1 .007-.028l.006-.015a.255.255 0 0 1 .02-.042l.008-.015.008-.013.01-.014a.411.411 0 0 1 .02-.027l.012-.012.013-.013.012-.012.013-.011.014-.011.015-.01a.394.394 0 0 1 .03-.02l.016-.009.016-.008.017-.007.017-.006a.363.363 0 0 1 .018-.006l.018-.004.018-.004.018-.003.019-.002h.019zm0 1.522h-.645v.94h.645v-.144h-.02l-.018-.002-.018-.003a.56.56 0 0 1-.019-.004l-.018-.004-.017-.006a.326.326 0 0 1-.017-.006l-.017-.007-.016-.007-.016-.009-.016-.008-.014-.01-.015-.01a.495.495 0 0 1-.014-.01l-.013-.012a.546.546 0 0 1-.013-.012l-.012-.012-.011-.012-.012-.012-.01-.014-.01-.013-.008-.014-.008-.013-.007-.014-.007-.014-.006-.014-.005-.014a.257.257 0 0 1-.007-.028l-.002-.014-.001-.014v-.042l.003-.013.003-.015a.254.254 0 0 1 .004-.014l.006-.014.005-.015.007-.014.007-.014a.31.31 0 0 1 .027-.042.423.423 0 0 1 .01-.013l.01-.013.012-.013.013-.012.012-.012.013-.012.014-.01c.005-.005.01-.008.015-.011l.015-.01.015-.01.016-.008a.5.5 0 0 1 .016-.008l.017-.007.017-.007a.363.363 0 0 1 .018-.006l.018-.004.018-.004.018-.003.019-.001.019-.001zm0 1.522h-.645v.94h.645v-.144h-.02l-.018-.002a.322.322 0 0 1-.055-.011l-.017-.005a.326.326 0 0 1-.017-.007l-.017-.006-.016-.008-.016-.008-.016-.01a.337.337 0 0 1-.014-.01c-.005-.002-.01-.006-.015-.01l-.014-.01-.013-.011-.013-.011-.012-.012L92.17 99l-.012-.013-.01-.013-.01-.013a.315.315 0 0 1-.023-.04l-.007-.015-.006-.014-.005-.014a.257.257 0 0 1-.007-.029l-.002-.014-.001-.013a.214.214 0 0 1 0-.028v-.014l.003-.014a.283.283 0 0 1 .007-.028l.006-.015a.255.255 0 0 1 .012-.028l.007-.014.009-.015.008-.013.01-.014a.423.423 0 0 1 .02-.026l.012-.013.013-.013.012-.012.013-.01.014-.012.015-.01a.394.394 0 0 1 .03-.02l.016-.009.016-.007.017-.008.017-.006a.363.363 0 0 1 .018-.005l.018-.005.018-.004.018-.003.019-.002h.019zm-18.364.94h.645v-.94h-.645v.136h.02l.018.002.018.003.018.004.018.005a.35.35 0 0 1 .018.005l.017.007.017.007.016.008a.417.417 0 0 1 .031.018l.015.01.014.01.014.011.014.012.012.012.012.012.012.013a.494.494 0 0 1 .03.04l.01.014.007.014.008.014.006.015.006.013.005.015a.269.269 0 0 1 .007.028l.003.014a.2.2 0 0 1 .001.042l-.001.014-.002.014-.004.014a.257.257 0 0 1-.004.014l-.005.014a.255.255 0 0 1-.012.028l-.007.014a.445.445 0 0 1-.017.027l-.01.014-.01.013a.39.39 0 0 1-.022.025l-.013.012-.013.011-.012.011-.014.01a.34.34 0 0 1-.015.011l-.015.01-.015.009-.016.008-.016.008-.017.007a.323.323 0 0 1-.017.006l-.018.005a.19.19 0 0 1-.036.008l-.018.003-.019.002h-.019zm0-1.522h.645v-.94h-.645v.135l.02.001.018.002.018.003a.361.361 0 0 1 .054.014l.017.007.017.006c.006.002.01.006.016.009l.016.009.015.008.015.01.014.011.014.01.014.013.012.012.012.012.012.012.01.014a.435.435 0 0 1 .01.013l.01.014.01.014.007.014.008.014.006.014.006.015.005.014a.269.269 0 0 1 .007.028l.003.014a.2.2 0 0 1 0 .056l-.002.014-.004.014a.236.236 0 0 1-.004.014l-.005.014a.255.255 0 0 1-.005.014l-.007.014a.41.41 0 0 1-.007.014l-.009.013-.008.014a.404.404 0 0 1-.01.013l-.01.014-.01.012a.354.354 0 0 1-.012.012l-.013.012-.013.012a.37.37 0 0 1-.012.011l-.014.01-.015.01-.015.01-.015.01-.016.008-.016.007-.017.007a.323.323 0 0 1-.017.006l-.018.006-.018.004a.274.274 0 0 1-.018.004l-.018.003-.019.001-.019.001zm0-1.522h.645v-.94h-.645v.135l.02.001.018.002.018.003c.006 0 .012.002.018.004l.018.004a.35.35 0 0 1 .018.006l.017.006.017.008.016.007a.417.417 0 0 1 .031.018l.015.01.014.01.014.012.014.011.012.012.012.013.012.013a.494.494 0 0 1 .03.04l.01.013.007.015.008.014.006.014.006.014.005.015a.269.269 0 0 1 .007.028l.003.014a.2.2 0 0 1 .001.042l-.001.013-.002.014-.004.015a.233.233 0 0 1-.004.014l-.005.014a.255.255 0 0 1-.012.028l-.007.013a.445.445 0 0 1-.017.028l-.01.013-.01.013a.39.39 0 0 1-.022.026l-.013.011-.013.012-.012.011-.014.01a.33.33 0 0 1-.015.01l-.015.01-.015.01-.016.008-.016.007-.017.007a.323.323 0 0 1-.017.006l-.018.006a.19.19 0 0 1-.036.008l-.018.002-.019.003h-.019zm0-1.523h.645v-.94h-.645v.136l.02.001c.005 0 .012 0 .018.002l.018.003a.361.361 0 0 1 .054.014l.017.006.017.007.016.008.016.009.015.009.015.01.014.01.014.011.014.012.012.012.012.013.012.012.01.013a.435.435 0 0 1 .01.014l.01.013a.323.323 0 0 1 .017.028l.008.015.006.014.006.014.005.014a.269.269 0 0 1 .007.029l.003.014a.2.2 0 0 1 0 .055l-.002.014-.004.014a.233.233 0 0 1-.004.014l-.005.015a.255.255 0 0 1-.005.013l-.007.014a.41.41 0 0 1-.007.014l-.009.014-.008.014a.404.404 0 0 1-.01.013l-.01.013a.39.39 0 0 1-.022.025l-.013.012-.013.012a.37.37 0 0 1-.012.01l-.014.011-.015.01-.015.01-.015.009-.016.008-.016.008-.017.007a.323.323 0 0 1-.017.006l-.018.005-.018.005a.359.359 0 0 1-.018.003l-.018.003-.019.002h-.019zm0-1.522h.645v-.94h-.645v.136h.02l.018.003.018.002.018.004.018.005a.35.35 0 0 1 .018.006l.017.006.017.007.016.008a.417.417 0 0 1 .031.018l.015.01.014.01.014.012.014.011.012.012.012.012.012.013a.494.494 0 0 1 .03.04l.01.014.007.014.008.014.006.015.006.014.005.014a.269.269 0 0 1 .007.029l.003.014a.2.2 0 0 1 .002.028v.013l-.002.014-.002.014-.004.014a.233.233 0 0 1-.004.014l-.005.014a.255.255 0 0 1-.005.014l-.007.014a.41.41 0 0 1-.024.042l-.01.013-.01.013a.39.39 0 0 1-.022.025l-.013.012-.013.011-.012.012-.014.01a.33.33 0 0 1-.015.01l-.015.01-.015.01-.016.007-.016.008-.017.007a.323.323 0 0 1-.017.006l-.018.005-.018.005a.359.359 0 0 1-.018.004l-.018.002-.019.002h-.019zm0-1.522h.645v-.94h-.645v.136h.02l.018.002.018.003a.361.361 0 0 1 .054.014l.017.007.017.007.016.008.016.008.015.01.015.01.014.01.014.011.014.012.012.012.012.012.012.013.01.013a.435.435 0 0 1 .01.014l.01.013.01.014.007.014.008.014.006.015.006.014.005.014a.269.269 0 0 1 .007.029l.003.014a.2.2 0 0 1 0 .055l-.002.014-.004.014a.233.233 0 0 1-.004.014l-.005.014a.255.255 0 0 1-.005.014l-.007.014a.41.41 0 0 1-.007.014l-.009.014-.008.014a.404.404 0 0 1-.01.013l-.01.013a.39.39 0 0 1-.022.025l-.013.012-.013.012a.37.37 0 0 1-.012.01l-.014.011-.015.01-.015.01-.015.009-.016.008-.016.008-.017.006a.323.323 0 0 1-.017.007l-.018.005-.018.004a.274.274 0 0 1-.018.004l-.018.003-.019.002h-.019zm0-1.522h.645v-.94h-.645v.136h.02l.018.002.018.003.018.004.018.005a.35.35 0 0 1 .018.006l.017.006.017.007.016.008a.417.417 0 0 1 .031.018l.015.01.014.01.014.011.014.012.012.012.012.012.012.013a.494.494 0 0 1 .03.04l.01.014.007.014.008.014.006.015c.002.004.005.009.006.014l.005.014a.269.269 0 0 1 .007.028l.003.014a.2.2 0 0 1 .002.028v.014l-.002.014-.002.014-.004.014a.233.233 0 0 1-.004.014l-.005.014a.255.255 0 0 1-.005.014l-.007.014a.41.41 0 0 1-.024.041l-.01.014-.01.013a.39.39 0 0 1-.022.025l-.013.012-.013.011-.012.012-.014.01a.33.33 0 0 1-.015.01l-.015.01-.015.009-.016.008-.016.007-.017.008a.323.323 0 0 1-.017.006l-.018.005a.19.19 0 0 1-.036.008l-.018.003-.019.002h-.019zm0-1.522h.645v-.94h-.645v.135l.02.001.018.002.018.003a.361.361 0 0 1 .054.014l.017.007.017.006c.006.002.01.006.016.009l.016.008.015.01.015.01.014.01.014.01.014.012a.398.398 0 0 1 .012.013l.012.012.012.012.01.014a.435.435 0 0 1 .01.013l.01.014a.323.323 0 0 1 .017.028l.008.014.006.014.006.015.005.014a.269.269 0 0 1 .007.028l.003.014a.2.2 0 0 1 0 .056l-.002.014-.004.014a.233.233 0 0 1-.004.014l-.005.014a.255.255 0 0 1-.005.014l-.007.014a.41.41 0 0 1-.007.014l-.009.013a.303.303 0 0 1-.008.014l-.01.013-.01.013a.39.39 0 0 1-.022.025l-.013.012-.013.012a.37.37 0 0 1-.012.011l-.014.01-.015.01-.015.01-.015.01-.016.008-.016.007-.017.007a.323.323 0 0 1-.017.006l-.018.006-.018.004a.274.274 0 0 1-.018.004l-.018.003-.019.001-.019.001zm0-1.522h.645v-.94h-.645v.136h.02l.018.002.018.003c.006 0 .012.002.018.004l.018.005a.35.35 0 0 1 .018.005l.017.006.017.008.016.007a.417.417 0 0 1 .031.019l.015.01.014.01.014.011.014.011.012.012.012.013.012.013a.494.494 0 0 1 .03.04l.01.013.007.015.008.014.006.014.006.014.005.015a.269.269 0 0 1 .007.028l.003.014a.2.2 0 0 1 .002.028v.013l-.002.014-.002.014-.004.015a.236.236 0 0 1-.004.014l-.005.014a.255.255 0 0 1-.005.014l-.007.014a.41.41 0 0 1-.024.041l-.01.013-.01.013a.39.39 0 0 1-.022.026l-.013.012-.013.01-.012.012-.014.01a.33.33 0 0 1-.015.01l-.015.01-.015.01-.016.008-.016.007-.017.007a.323.323 0 0 1-.017.006l-.018.006a.19.19 0 0 1-.036.008l-.018.003-.019.002h-.019z" fill="#1a1a1a" style="paint-order:stroke fill markers"/>
        <path d="M89.513 85.48v-5.222h-4.588v2.672h-2.466v-2.672h-2.397v2.672h-2.534v-2.672h-2.123v4.311m11.847-4.311v5.222" fill="none" stroke="#4d4d4d" stroke-width=".823"/>
        <rect x="75.371" y="86.527" width="15.802" height="12.399" rx=".261" ry=".189" fill="#999" stroke="#fff" stroke-width=".146"/>
        <g fill="#fff39d" stroke="#4b4b4b" stroke-linecap="round" stroke-linejoin="round" stroke-miterlimit="3.7" stroke-width=".049">
            <path d="M74.114 87.08v-.194a.276.258 0 0 0 .27-.258.276.258 0 0 0-.27-.257v-.195h.473v.904zM74.114 88.602v-.194a.276.258 0 0 0 .27-.258.276.258 0 0 0-.27-.257v-.195h.473v.904zM74.114 90.124v-.194a.276.258 0 0 0 .27-.258.276.258 0 0 0-.27-.257v-.195h.473v.904zM74.114 91.646v-.194a.276.258 0 0 0 .27-.258.276.258 0 0 0-.27-.257v-.195h.473v.904zM74.114 93.169v-.194a.276.258 0 0 0 .27-.258.276.258 0 0 0-.27-.257v-.195h.473v.904zM74.114 94.691v-.194a.276.258 0 0 0 .27-.258.276.258 0 0 0-.27-.257v-.195h.473v.904zM74.114 96.213v-.194a.276.258 0 0 0 .27-.258.276.258 0 0 0-.27-.257v-.195h.473v.904zM74.114 97.735v-.194a.276.258 0 0 0 .27-.258.276.258 0 0 0-.27-.257v-.195h.473v.904zM74.114 99.257v-.194a.276.258 0 0 0 .27-.258.276.258 0 0 0-.27-.257v-.195h.473v.904zM92.43 99.257v-.194a.276.258 0 0 1-.27-.258.276.258 0 0 1 .27-.257v-.195h-.473v.904zM92.43 97.735v-.194a.276.258 0 0 1-.27-.258.276.258 0 0 1 .27-.257v-.195h-.473v.904zM92.43 96.213v-.194a.276.258 0 0 1-.27-.258.276.258 0 0 1 .27-.257v-.195h-.473v.904zM92.43 94.691v-.194a.276.258 0 0 1-.27-.258.276.258 0 0 1 .27-.257v-.195h-.473v.904zM92.43 93.169v-.194a.276.258 0 0 1-.27-.258.276.258 0 0 1 .27-.257v-.195h-.473v.904zM92.43 91.646v-.194a.276.258 0 0 1-.27-.258.276.258 0 0 1 .27-.257v-.195h-.473v.904zM92.43 90.124v-.194a.276.258 0 0 1-.27-.258.276.258 0 0 1 .27-.257v-.195h-.473v.904zM92.43 88.602v-.194a.276.258 0 0 1-.27-.258.276.258 0 0 1 .27-.257v-.195h-.473v.904zM92.43 87.08v-.194a.276.258 0 0 1-.27-.258.276.258 0 0 1 .27-.257v-.195h-.473v.904z" style="paint-order:stroke fill markers"/>
        </g>
        <g fill="#e6e6e6">
            <text transform="scale(.94679 1.0562)" x="80.486" y="88.379" font-family="Arial" font-size="1.117" font-weight="bold" stroke-width=".059"><tspan font-size="1.638" style="font-variant-caps:normal;font-variant-east-asian:normal;font-variant-ligatures:normal;font-variant-numeric:normal">ESP32-C3-WROOM</tspan></text>
            <text transform="scale(.94679 1.0562)" x="86.396" y="84.993" font-family="Arial" font-size=".901" font-weight="bold" stroke-width=".048"><tspan font-size="1.322" style="font-variant-caps:normal;font-variant-east-asian:normal;font-variant-ligatures:normal;font-variant-numeric:normal">ESPRESSIF</tspan></text>
            <path transform="matrix(.0302 0 0 -.0302 77.4 90.071)" d="M0 0a7.655 7.655 0 0 0-15.31 0 7.654 7.654 0 0 0 7.655 7.653A7.652 7.652 0 0 0 0 0" clip-path="url(#a)"/>
            <path transform="matrix(.0302 0 0 -.0302 79.419 89.831)" d="M0 0c-4.905 34.796-32.499 62.392-67.297 67.295a49.833 49.833 0 0 1-11.102-8.019v-7.405c34.723 0 62.974-28.251 62.974-62.975h7.406A49.931 49.931 0 0 1 0 0" clip-path="url(#b)"/>
            <path transform="matrix(.0302 0 0 -.0302 79.593 89.129)" d="M0 0c0 27.51-22.302 49.811-49.813 49.811a50.83 50.83 0 0 1-5.131-.284l-1.136-3.27c24.488-8.554 43.896-27.973 52.476-52.45l3.327 1.164C-.112-3.375 0-1.701 0 0" clip-path="url(#c)"/>
            <path transform="matrix(.0302 0 0 -.0302 78.105 90.916)" d="M0 0c-15.816 0-30.687 6.159-41.872 17.342-11.183 11.185-17.342 26.054-17.342 41.871 0 15.816 6.159 30.685 17.342 41.87l3.164-3.164C-49.045 87.58-54.742 73.834-54.742 59.213c0-14.62 5.697-28.368 16.034-38.706C-28.37 10.166-14.622 4.473 0 4.473s28.367 5.693 38.705 16.034l3.164-3.165C30.686 6.159 15.815 0 0 0" clip-path="url(#d)"/>
            <path transform="matrix(.0302 0 0 -.0302 78.086 90.269)" d="M0 0c1.222 12.362-4.279 23.871-13.523 30.88a34.115 34.115 0 0 1-17.326 6.784c-1.698.179-2.937 1.684-2.773 3.369.196 1.848 1.722 2.944 3.385 2.774 7.066-.722 13.537-3.192 19.009-6.994C.522 28.687 7.649 14.597 6.128-.611A40.556 40.556 0 0 0 4.77-7.608l8.988-2.535a49.477 49.477 0 0 1 7.787 2.926c.642 3.446 1 6.994 1 10.633 0 28.491-21.068 52.14-48.443 56.194-3.282.47-6.613.509-9.061-.107a19.37 19.37 0 0 1-9.793-5.99 19.3 19.3 0 0 1-4.837-12.807c0-8.657 5.669-15.992 13.504-18.477 1.469-.468 3.753-.67 4.878-.878h.046c8.558-1.477 15.103-8.959 15.103-17.935 0-3.611-1.072-6.969-2.895-9.802l6.232-3.987a50.12 50.12 0 0 1 9.276-1.556A34.459 34.459 0 0 1 0 0" clip-path="url(#e)"/>
        </g>
        <g fill="#ccc" stroke-width=".303">
            <path d="M75.665 119.02v.987h-.493v-.987zM76.351 119.02v.987h-.493v-.987zM77.21 119.02v.987h-.236v-.987zM78.068 119.02v.987h-.236v-.987zM78.497 119.02v.987h-.236v-.987zM79.355 119.02v.987h-.236v-.987zM81.157 119.02v.987h-.493v-.987zM80.47 119.02v.987h-.493v-.987zM79.784 119.02v.987h-.236v-.987zM78.926 119.02v.987h-.236v-.987zM77.639 119.02v.987h-.236v-.987zM76.78 119.02v.987h-.236v-.987z"/>
        </g>
        <circle transform="rotate(-90)" cx="-120.01" cy="74.457" r=".366" fill="none" stroke="#ccc" stroke-width=".218"/>
        <path d="M74.091 120.85v-1.685h.733v1.685h-.733m.366-.476a.366.366 0 1 0 0-.733.366.366 0 0 0 0 .733z" fill="#ccc"/>
        <circle transform="rotate(-90)" cx="-120.01" cy="81.872" r=".366" fill="none" stroke="#ccc" stroke-width=".218"/>
        <path d="M81.505 120.85v-1.685h.733v1.685h-.733m.366-.476a.366.366 0 1 0 0-.733.366.366 0 0 0 0 .733z" fill="#ccc"/>
        <circle transform="rotate(-90)" cx="-123.6" cy="74.457" r=".366" fill="none" stroke="#ccc" stroke-width=".218"/>
        <path d="M74.091 124.44v-1.685h.733v1.685h-.733m.366-.476a.366.366 0 1 0 0-.733.366.366 0 0 0 0 .733z" fill="#ccc"/>
        <circle transform="rotate(-90)" cx="-123.6" cy="81.872" r=".366" fill="none" stroke="#ccc" stroke-width=".218"/>
        <path d="M81.505 124.44v-1.685h.733v1.685h-.733m.366-.476a.366.366 0 1 0 0-.733.366.366 0 0 0 0 .733z" fill="#ccc"/>
        <g stroke-width=".303">
            <path fill="#dcdcdc" d="M82 119.38v6.307h-7.672v-6.307z"/>
            <path d="M75.375 119.55h-.172v-.395h.172zm.258-.395h-.172v.395h.172zm.429 0h-.172v.395h.172zm.257 0h-.172v.395h.172zm.43 0h-.172v.395h.171zm.428 0h-.172v.395h.172zm.43 0h-.173v.395h.172zm.428 0h-.171v.395h.171zm.43 0h-.172v.395h.171zm.428 0h-.171v.395h.171zm.43 0h-.172v.395h.172zm.428 0h-.171v.395h.171zm.43 0h-.172v.395h.171zm.257 0h-.172v.395h.172zm.429 0h-.172v.395h.172zm.257 0h-.171v.395h.171z" fill="#dcdcdc"/>
            <path fill="#f0f0f0" d="M75.34 119.38v6.307h-.393v-6.307z"/>
            <path fill="#bebebe" d="M81.381 119.38v6.307h-.393v-6.307z"/>
        </g>
        <g fill="#8c8c8c" stroke-width=".303">
            <path d="M82 119.38v.605h-.086a.189.189 0 0 1-.189-.19v-.16a.189.189 0 0 0-.188-.189h-.857a.189.189 0 0 0-.19.189v.612a.189.189 0 0 1-.188.189h-1.033a.189.189 0 0 1-.19-.19v-.014c0-.104.085-.188.19-.188h.464a.189.189 0 0 0 .19-.19v-.22a.189.189 0 0 0-.19-.188h-3.139a.189.189 0 0 0-.189.189v.22c0 .104.085.189.19.189h.464c.104 0 .19.084.19.189v.014a.189.189 0 0 1-.19.189h-1.033a.189.189 0 0 1-.189-.19v-.611a.189.189 0 0 0-.189-.189h-.857a.189.189 0 0 0-.188.189v.161a.189.189 0 0 1-.19.19h-.085v-.606H82zM77.16 121.14v.431h-1.048v-.431zM80.217 121.14v.431h-1.048v-.431z"/>
        </g>
        <g fill="#ccc" stroke-width=".303">
            <path d="M85.88 119.02v.987h-.493v-.987zM86.566 119.02v.987h-.493v-.987zM87.424 119.02v.987h-.236v-.987zM88.283 119.02v.987h-.236v-.987zM88.712 119.02v.987h-.236v-.987zM89.57 119.02v.987h-.236v-.987zM91.372 119.02v.987h-.493v-.987zM90.685 119.02v.987h-.493v-.987zM89.999 119.02v.987h-.236v-.987zM89.141 119.02v.987h-.236v-.987zM87.854 119.02v.987h-.236v-.987zM86.995 119.02v.987h-.236v-.987z"/>
        </g>
        <circle transform="rotate(-90)" cx="-120.01" cy="84.672" r=".366" fill="none" stroke="#ccc" stroke-width=".218"/>
        <path d="M84.306 120.85v-1.685h.733v1.685h-.733m.366-.476a.366.366 0 1 0 0-.733.366.366 0 0 0 0 .733z" fill="#ccc"/>
        <circle transform="rotate(-90)" cx="-120.01" cy="92.086" r=".366" fill="none" stroke="#ccc" stroke-width=".218"/>
        <path d="M91.72 120.85v-1.685h.733v1.685h-.733m.366-.476a.366.366 0 1 0 0-.733.366.366 0 0 0 0 .733z" fill="#ccc"/>
        <circle transform="rotate(-90)" cx="-123.6" cy="84.672" r=".366" fill="none" stroke="#ccc" stroke-width=".218"/>
        <path d="M84.306 124.44v-1.685h.733v1.685h-.733m.366-.476a.366.366 0 1 0 0-.733.366.366 0 0 0 0 .733z" fill="#ccc"/>
        <circle transform="rotate(-90)" cx="-123.6" cy="92.086" r=".366" fill="none" stroke="#ccc" stroke-width=".218"/>
        <path d="M91.72 124.44v-1.685h.733v1.685h-.733m.366-.476a.366.366 0 1 0 0-.733.366.366 0 0 0 0 .733z" fill="#ccc"/>
        <g stroke-width=".303">
            <path fill="#dcdcdc" d="M92.215 119.38v6.307h-7.672v-6.307z"/>
            <path d="M85.59 119.55h-.172v-.395h.172zm.258-.395h-.172v.395h.172zm.429 0h-.172v.395h.172zm.257 0h-.172v.395h.172zm.43 0h-.172v.395h.171zm.428 0h-.172v.395h.172zm.43 0h-.173v.395h.172zm.428 0h-.171v.395h.171zm.43 0h-.172v.395h.171zm.428 0h-.171v.395h.171zm.43 0h-.172v.395h.172zm.428 0h-.171v.395h.171zm.43 0h-.172v.395h.171zm.257 0h-.172v.395h.172zm.429 0h-.172v.395h.172zm.257 0h-.171v.395h.171z" fill="#dcdcdc"/>
            <path fill="#f0f0f0" d="M85.555 119.38v6.307h-.393v-6.307z"/>
            <path fill="#bebebe" d="M91.596 119.38v6.307h-.393v-6.307z"/>
        </g>
        <g fill="#8c8c8c" stroke-width=".303">
            <path d="M92.215 119.38v.605h-.086a.189.189 0 0 1-.189-.19v-.16a.189.189 0 0 0-.188-.189h-.857a.189.189 0 0 0-.19.189v.612a.189.189 0 0 1-.188.189h-1.033a.189.189 0 0 1-.19-.19v-.014c0-.104.085-.188.19-.188h.465a.189.189 0 0 0 .188-.19v-.22a.189.189 0 0 0-.189-.188H86.81a.189.189 0 0 0-.189.189v.22c0 .104.085.189.19.189h.464c.104 0 .19.084.19.189v.014a.189.189 0 0 1-.19.189h-1.033a.189.189 0 0 1-.189-.19v-.611a.189.189 0 0 0-.189-.189h-.857a.189.189 0 0 0-.188.189v.161a.189.189 0 0 1-.19.19h-.085v-.606h7.672zM87.375 121.14v.431h-1.048v-.431zM90.432 121.14v.431h-1.048v-.431z"/>
        </g>
        <g fill="#c6c6c5" stroke-width=".063">
            <path d="M85.931 115.44v.203h-.525v-.203zM85.931 114.94v.203h-.525v-.203zM85.931 114.44v.203h-.525v-.203zM85.931 113.94v.203h-.525v-.203zM85.931 113.44v.203h-.525v-.203zM85.931 112.94v.203h-.525v-.203zM85.931 115.94v.203h-.525v-.203zM91.353 115.44v.203h-.525v-.203zM91.353 114.94v.203h-.525v-.203zM91.353 114.44v.203h-.525v-.203zM91.353 113.94v.203h-.525v-.203zM91.353 113.44v.203h-.525v-.203zM91.353 112.94v.203h-.525v-.203zM91.353 115.94v.203h-.525v-.203zM87.482 112.09h-.203v-.525h.203zM87.982 112.09h-.203v-.525h.203zM88.482 112.09h-.203v-.525h.203zM88.982 112.09h-.203v-.525h.203zM89.482 112.09h-.203v-.525h.203zM89.982 112.09h-.203v-.525h.203zM86.982 112.09h-.203v-.525h.203zM87.482 117.51h-.203v-.525h.203zM87.982 117.51h-.203v-.525h.203zM88.482 117.51h-.203v-.525h.203zM88.982 117.51h-.203v-.525h.203zM89.482 117.51h-.203v-.525h.203zM89.982 117.51h-.203v-.525h.203zM86.982 117.51h-.203v-.525h.203z"/>
        </g>
        <path fill="#333" stroke="#000" stroke-width=".076" d="M85.894 112.05h4.973v4.973h-4.973z"/>
        <circle cx="90.107" cy="112.81" r=".269" fill="#1a1a1a"/>
        <path fill="#ccc" d="M81.954 112.85v-4.171h.622v4.171zM83.967 112.85v-4.171h.622v4.171z"/>
        <path fill="#f2f2f2" d="M81.572 112.45v-3.373h3.399v3.373z"/>
        <path fill="#ccc" d="M82.961 111.12v-.703h.622v.703z"/>
        <path fill="#303030" d="M83.864 101.16h-1.19v2.518h1.19z"/>
        <path fill="#3d3e3d" d="m82.706 101.135-.134-.067v2.755l.134-.134z"/>
        <path d="M83.983 103.689v-2.621l-.134.067v2.554l.134.134z"/>
        <path fill="#1e1f1f" d="m82.706 103.689-.134.134h1.411l-.134-.134zM82.706 101.135h1.143l.134-.067h-1.411z"/>
        <g stroke-width=".031">
            <path fill="#bdbfc1" d="M82.59 101.35h-.712v.304h.712z"/>
            <path fill="#666766" d="M82.303 101.35H82.1v.304h.203z"/>
            <path fill="#bdbfc1" d="M83.954 102.28h.712v.304h-.712z"/>
            <path fill="#666766" d="M84.241 102.28h.203v.304h-.203z"/>
            <path fill="#bdbfc1" d="M82.59 103.25h-.712v.304h.712z"/>
            <path fill="#666766" d="M82.303 103.25H82.1v.304h.203z"/>
        </g>
        <path fill="#303030" d="M83.864 104.84h-1.19v2.518h1.19z"/>
        <path fill="#3d3e3d" d="m82.706 104.815-.134-.067v2.755l.134-.134z"/>
        <path d="m83.983 104.748-.134.067v2.554l.134.134V104.815z"/>
        <path fill="#1e1f1f" d="m82.706 107.369-.134.134h1.411l-.134-.134zM82.706 104.815h1.143l.134-.067h-1.411z"/>
        <g stroke-width=".031">
            <path fill="#bdbfc1" d="M82.59 105.04h-.712v.304h.712z"/>
            <path fill="#666766" d="M82.303 105.04H82.1v.304h.203z"/>
            <path fill="#bdbfc1" d="M83.954 105.97h.712v.304h-.712z"/>
            <path fill="#666766" d="M84.241 105.97h.203v.304h-.203z"/>
            <path fill="#bdbfc1" d="M82.59 106.94h-.712v.304h.712z"/>
            <path fill="#666766" d="M82.303 106.94H82.1v.304h.203z"/>
        </g>
        <path fill="#303030" d="M76.878 108.93v1.19h2.518v-1.19z"/>
        <path fill="#3d3e3d" d="m79.542 110.222-.134-.134h-2.554l-.067.134z"/>
        <path d="m79.408 108.945.134-.134h-2.755l.067.134z"/>
        <path fill="#1e1f1f" d="m79.542 108.811-.134.134v1.143l.134.134zM76.787 108.811v1.411l.067-.134v-1.143z"/>
        <g stroke-width=".031">
            <path fill="#bdbfc1" d="M77.074 110.2v.712h.304v-.712z"/>
            <path fill="#666766" d="M77.074 110.49v.203h.304v-.203z"/>
            <path fill="#bdbfc1" d="M78.001 108.84v-.712h.304v.712z"/>
            <path fill="#666766" d="M78.001 108.55v-.203h.304v.203z"/>
            <path fill="#bdbfc1" d="M78.972 110.2v.712h.304v-.712z"/>
            <path fill="#666766" d="M78.972 110.49v.203h.304v-.203z"/>
            <path fill="#bdbfc1" d="M79.276 108.84v-.712h-.304v.712z"/>
            <path fill="#666766" d="M79.276 108.55v-.203h-.304v.203z"/>
            <path fill="#bdbfc1" d="M77.379 108.84v-.712h-.304v.712z"/>
            <path fill="#666766" d="M77.379 108.55v-.203h-.304v.203z"/>
        </g>
        <path fill="#ccc" d="M78.332 116.08h-.336v-.538h.336zM78.332 113.95h-.336v-.538h.336z"/>
        <path fill="#1a1a1a" d="M78.702 115.56h-1.075v-1.613h1.075z"/>
        <path fill="#ccc" d="M80.218 116.08h-.336v-.538h.336zM80.218 113.95h-.336v-.538h.336z"/>
        <path fill="#1a1a1a" d="M80.587 115.56h-1.075v-1.613h1.075z"/>
        <path fill="#ccc" d="M76.447 116.08h-.336v-.538h.336zM76.447 113.95h-.336v-.538h.336z"/>
        <path fill="#1a1a1a" d="M76.817 115.56h-1.075v-1.613h1.075z"/>
        <path fill="#ccc" d="M76.001 102.51h1.261v3.543h-1.261z"/>
        <path fill="#f5b03b" d="M75.734 102.73h1.794v3.111h-1.794z"/>
        <path fill="#ccc" d="M79.067 102.51h1.261v3.543h-1.261z"/>
        <path fill="#f5b03b" d="M78.801 102.73h1.794v3.111h-1.794z"/>
        <path fill="#ccc" d="M90.294 101v2.889h-3.83V101z"/>
        <g fill="#333" stroke-width=".067">
            <path d="M90.294 101v.202h-.538V101zM90.294 103.68v.202h-.538v-.202zM87.002 101v.202h-.538V101zM87.002 103.68v.202h-.538v-.202zM90.294 101.74v.336h-.202v-.336zM90.294 102.81v.336h-.202v-.336z"/>
        </g>
        <path fill="#e6e6e6" d="M90.966 101.8v1.344h-.672V101.8zM86.464 101.8v1.344h-.672V101.8z"/>
        <circle transform="rotate(90)" cx="102.41" cy="-88.346" r=".941" fill="#333" stroke="#1a1a1a" stroke-width=".076"/>
        <path d="M88.01 101.6c.134-.067.202-.067.336-.067.336 0 .605.134.74.403" fill="none" stroke="#fff" stroke-width=".076"/>
        <g stroke-width=".067">
            <path fill="#333" d="M86.599 101.74v.336h-.202v-.336zM86.599 102.81v.336h-.202v-.336z"/>
            <path fill="#ccc" d="M90.294 104.68v2.889h-3.83v-2.889z"/>
        </g>
        <g fill="#333" stroke-width=".067">
            <path d="M90.294 104.68v.202h-.538v-.202zM90.294 107.37v.202h-.538v-.202zM87.002 104.68v.202h-.538v-.202zM87.002 107.37v.202h-.538v-.202zM90.294 105.42v.336h-.202v-.336zM90.294 106.5v.336h-.202v-.336z"/>
        </g>
        <path fill="#e6e6e6" d="M90.966 105.49v1.344h-.672v-1.344zM86.464 105.49v1.344h-.672v-1.344z"/>
        <circle transform="rotate(90)" cx="106.1" cy="-88.346" r=".941" fill="#333" stroke="#1a1a1a" stroke-width=".076"/>
        <path d="M88.01 105.29c.134-.067.202-.067.336-.067.336 0 .605.134.74.403" fill="none" stroke="#fff" stroke-width=".076"/>
        <path fill="#333" d="M86.599 105.42v.336h-.202v-.336zM86.599 106.5v.336h-.202v-.336z"/>
        <text transform="rotate(90)" x="101.355" y="-91.218" fill="#fff" font-family="Arial" font-size="1.058" font-weight="bold" stroke-width=".067" style="font-variant-caps:normal;font-variant-east-asian:normal;font-variant-ligatures:normal;font-variant-numeric:normal">RST</text>
        <text transform="rotate(90)" x="104.573" y="-91.218" fill="#fff" font-family="Arial" font-size="1.058" font-weight="bold" stroke-width=".067" style="font-variant-caps:normal;font-variant-east-asian:normal;font-variant-ligatures:normal;font-variant-numeric:normal">BOOT</text>
        <path class="led-outer" d="M87.727 110.01c0 .12-.068.217-.152.217v.166h1.608v-.166c-.084 0-.152-.097-.152-.217s.068-.217.152-.217v-.166h-1.608v.166c.084 0 .152.097.152.217z" fill="#cdcccc"/>
        <path class="led-blue" fill="#00f" d="M88.915 110.39h-1.072v-.766h1.072z"/>
        <text x="87.109" y="109.229" fill="#fff" font-family="Arial" font-size="1.058" font-weight="bold" stroke-width=".067" style="font-variant-caps:normal;font-variant-east-asian:normal;font-variant-ligatures:normal;font-variant-numeric:normal">PWR</text>
    </g>
</svg>
