<svg width="28.115" height="61.23" xmlns="http://www.w3.org/2000/svg">
    <defs>
        <clipPath id="a"/>
        <clipPath id="b"/>
        <clipPath id="c"/>
        <clipPath id="d"/>
        <clipPath id="e"/>
    </defs>
    <g transform="translate(-75.935 -70.644)">
        <path d="M103.51 76.989a.589.589 0 0 0-.14.005H76.796a.771.771 0 0 0-.851.852v52.807a.554.554 0 0 0 .582.582H103.5a.575.575 0 0 0 .548-.549V77.671a.593.593 0 0 0-.537-.682zm-26.305.814a.723.723 0 0 1 .723.724.723.723 0 0 1-.723.723.723.723 0 0 1-.723-.723.723.723 0 0 1 .723-.724zm25.584 0a.723.723 0 0 1 .723.724.723.723 0 0 1-.723.723.723.723 0 0 1-.723-.723.723.723 0 0 1 .723-.724zm-25.584 2.559a.723.723 0 0 1 .723.723.723.723 0 0 1-.723.723.723.723 0 0 1-.723-.723.723.723 0 0 1 .723-.723zm25.584 0a.723.723 0 0 1 .723.723.723.723 0 0 1-.723.723.723.723 0 0 1-.723-.723.723.723 0 0 1 .723-.723zM77.205 82.92a.723.723 0 0 1 .723.724.723.723 0 0 1-.723.723.723.723 0 0 1-.723-.723.723.723 0 0 1 .723-.724zm25.584 0a.723.723 0 0 1 .723.724.723.723 0 0 1-.723.723.723.723 0 0 1-.723-.723.723.723 0 0 1 .723-.724zM77.205 85.48a.723.723 0 0 1 .723.723.723.723 0 0 1-.723.723.723.723 0 0 1-.723-.723.723.723 0 0 1 .723-.723zm25.584 0a.723.723 0 0 1 .723.723.723.723 0 0 1-.723.723.723.723 0 0 1-.723-.723.723.723 0 0 1 .723-.723zm-25.584 2.558a.723.723 0 0 1 .723.723.723.723 0 0 1-.723.724.723.723 0 0 1-.723-.724.723.723 0 0 1 .723-.723zm25.584 0a.723.723 0 0 1 .723.723.723.723 0 0 1-.723.724.723.723 0 0 1-.723-.724.723.723 0 0 1 .723-.723zm-25.584 2.559a.723.723 0 0 1 .723.723.723.723 0 0 1-.723.723.723.723 0 0 1-.723-.723.723.723 0 0 1 .723-.723zm25.584 0a.723.723 0 0 1 .723.723.723.723 0 0 1-.723.723.723.723 0 0 1-.723-.723.723.723 0 0 1 .723-.723zm-25.584 2.558a.723.723 0 0 1 .723.723.723.723 0 0 1-.723.724.723.723 0 0 1-.723-.724.723.723 0 0 1 .723-.723zm25.584 0a.723.723 0 0 1 .723.723.723.723 0 0 1-.723.724.723.723 0 0 1-.723-.724.723.723 0 0 1 .723-.723zm-25.584 2.559a.723.723 0 0 1 .723.723.723.723 0 0 1-.723.723.723.723 0 0 1-.723-.723.723.723 0 0 1 .723-.723zm25.584 0a.723.723 0 0 1 .723.723.723.723 0 0 1-.723.723.723.723 0 0 1-.723-.723.723.723 0 0 1 .723-.723zM77.205 98.27a.723.723 0 0 1 .723.723.723.723 0 0 1-.723.724.723.723 0 0 1-.723-.724.723.723 0 0 1 .723-.723zm25.584 0a.723.723 0 0 1 .723.723.723.723 0 0 1-.723.724.723.723 0 0 1-.723-.724.723.723 0 0 1 .723-.723zm-25.584 2.558a.723.723 0 0 1 .723.724.723.723 0 0 1-.723.723.723.723 0 0 1-.723-.723.723.723 0 0 1 .723-.724zm25.584 0a.723.723 0 0 1 .723.724.723.723 0 0 1-.723.723.723.723 0 0 1-.723-.723.723.723 0 0 1 .723-.724zm-25.584 2.559a.723.723 0 0 1 .723.723.723.723 0 0 1-.723.723.723.723 0 0 1-.723-.723.723.723 0 0 1 .723-.723zm25.584 0a.723.723 0 0 1 .723.723.723.723 0 0 1-.723.723.723.723 0 0 1-.723-.723.723.723 0 0 1 .723-.723zm-25.584 2.558a.723.723 0 0 1 .723.724.723.723 0 0 1-.723.723.723.723 0 0 1-.723-.723.723.723 0 0 1 .723-.724zm25.584 0a.723.723 0 0 1 .723.724.723.723 0 0 1-.723.723.723.723 0 0 1-.723-.723.723.723 0 0 1 .723-.724zm-25.584 2.559a.723.723 0 0 1 .723.723.723.723 0 0 1-.723.723.723.723 0 0 1-.723-.723.723.723 0 0 1 .723-.723zm25.584 0a.723.723 0 0 1 .723.723.723.723 0 0 1-.723.723.723.723 0 0 1-.723-.723.723.723 0 0 1 .723-.723zm-25.584 2.558a.723.723 0 0 1 .723.723.723.723 0 0 1-.723.724.723.723 0 0 1-.723-.724.723.723 0 0 1 .723-.723zm25.584 0a.723.723 0 0 1 .723.723.723.723 0 0 1-.723.724.723.723 0 0 1-.723-.724.723.723 0 0 1 .723-.723zm-25.584 2.559a.723.723 0 0 1 .723.723.723.723 0 0 1-.723.723.723.723 0 0 1-.723-.723.723.723 0 0 1 .723-.723zm25.584 0a.723.723 0 0 1 .723.723.723.723 0 0 1-.723.723.723.723 0 0 1-.723-.723.723.723 0 0 1 .723-.723zm-25.584 2.558a.723.723 0 0 1 .723.723.723.723 0 0 1-.723.724.723.723 0 0 1-.723-.724.723.723 0 0 1 .723-.723zm25.584 0a.723.723 0 0 1 .723.723.723.723 0 0 1-.723.724.723.723 0 0 1-.723-.724.723.723 0 0 1 .723-.723zm-25.584 2.559a.723.723 0 0 1 .723.723.723.723 0 0 1-.723.723.723.723 0 0 1-.723-.723.723.723 0 0 1 .723-.723zm25.584 0a.723.723 0 0 1 .723.723.723.723 0 0 1-.723.723.723.723 0 0 1-.723-.723.723.723 0 0 1 .723-.723zm-25.584 2.558a.723.723 0 0 1 .723.723.723.723 0 0 1-.723.724.723.723 0 0 1-.723-.724.723.723 0 0 1 .723-.723zm25.584 0a.723.723 0 0 1 .723.723.723.723 0 0 1-.723.724.723.723 0 0 1-.723-.724.723.723 0 0 1 .723-.723zm-25.584 2.558a.723.723 0 0 1 .723.724.723.723 0 0 1-.723.723.723.723 0 0 1-.723-.723.723.723 0 0 1 .723-.724zm25.584 0a.723.723 0 0 1 .723.724.723.723 0 0 1-.723.723.723.723 0 0 1-.723-.723.723.723 0 0 1 .723-.724zm-25.584 2.559a.723.723 0 0 1 .723.723.723.723 0 0 1-.723.723.723.723 0 0 1-.723-.723.723.723 0 0 1 .723-.723zm25.584 0a.723.723 0 0 1 .723.723.723.723 0 0 1-.723.723.723.723 0 0 1-.723-.723.723.723 0 0 1 .723-.723zm-25.584 2.558a.723.723 0 0 1 .723.724.723.723 0 0 1-.723.723.723.723 0 0 1-.723-.723.723.723 0 0 1 .723-.724zm25.584 0a.723.723 0 0 1 .723.724.723.723 0 0 1-.723.723.723.723 0 0 1-.723-.723.723.723 0 0 1 .723-.724z" fill="#3c3c3c"/>
        <path fill="#303030" d="M97.409 113.77v-1.19h-2.518v1.19z"/>
        <path fill="#3d3e3d" d="M94.88 112.61h2.553l.067-.134h-2.755z"/>
        <path d="M97.433 113.753h-2.554l-.134.134H97.5z"/>
        <path fill="#1e1f1f" d="M94.88 113.753v-1.143l-.135-.134v1.411zM97.5 112.476l-.067.134v1.143l.067.134z"/>
        <g stroke-width=".031">
            <path fill="#bdbfc1" d="M97.213 112.49v-.712h-.304v.712z"/>
            <path fill="#666766" d="M97.213 112.21v-.203h-.304v.203z"/>
            <path fill="#bdbfc1" d="M96.287 113.86v.712h-.304v-.712z"/>
            <path fill="#666766" d="M96.287 114.14v.203h-.304v-.203z"/>
            <path fill="#bdbfc1" d="M95.315 112.49v-.712h-.304v.712z"/>
            <path fill="#666766" d="M95.315 112.21v-.203h-.304v.203z"/>
        </g>
        <path fill="#303030" d="M97.409 120.06v-1.19h-2.518v1.19z"/>
        <path fill="#3d3e3d" d="M97.5 118.765h-2.755l.134.134h2.554z"/>
        <path d="M97.433 120.042h-2.554l-.134.134H97.5z"/>
        <path fill="#1e1f1f" d="M94.745 118.765v1.411l.134-.134v-1.143zM97.433 120.042l.067.134v-1.411l-.067.134z"/>
        <g stroke-width=".031">
            <path fill="#bdbfc1" d="M97.213 118.78v-.712h-.304v.712z"/>
            <path fill="#666766" d="M97.213 118.5v-.203h-.304v.203z"/>
            <path fill="#bdbfc1" d="M96.287 120.15v.712h-.304v-.712z"/>
            <path fill="#666766" d="M96.287 120.43v.203h-.304v-.203z"/>
            <path fill="#bdbfc1" d="M95.315 118.78v-.712h-.304v.712z"/>
            <path fill="#666766" d="M95.315 118.5v-.203h-.304v.203z"/>
        </g>
        <path fill="#ccc" d="M81.297 125.99h2.889v3.83h-2.889z"/>
        <g fill="#333" stroke-width=".067">
            <path d="M81.297 125.99h.202v.538h-.202zM83.985 125.99h.202v.538h-.202zM81.297 129.28h.202v.538h-.202zM83.985 129.28h.202v.538h-.202zM82.036 125.99h.336v.202h-.336zM83.111 125.99h.336v.202h-.336z"/>
        </g>
        <path fill="#e6e6e6" d="M82.103 125.32h1.344v.672h-1.344zM82.103 129.82h1.344v.672h-1.344z"/>
        <circle cx="82.708" cy="127.94" r=".941" fill="#333" stroke="#1a1a1a" stroke-width=".076"/>
        <path d="M81.902 128.28c-.067-.134-.067-.202-.067-.336 0-.336.134-.605.403-.74" fill="none" stroke="#fff" stroke-width=".076"/>
        <g stroke-width=".067">
            <path fill="#333" d="M82.036 129.69h.336v.202h-.336zM83.111 129.69h.336v.202h-.336z"/>
            <path fill="#ccc" d="M95.799 125.99h2.889v3.83h-2.889z"/>
        </g>
        <g fill="#333" stroke-width=".067">
            <path d="M95.799 125.99h.202v.538h-.202zM98.487 125.99h.202v.538h-.202zM95.799 129.28h.202v.538h-.202zM98.487 129.28h.202v.538h-.202zM96.538 125.99h.336v.202h-.336zM97.613 125.99h.336v.202h-.336z"/>
        </g>
        <path fill="#e6e6e6" d="M96.605 125.32h1.344v.672h-1.344zM96.605 129.82h1.344v.672h-1.344z"/>
        <circle cx="97.21" cy="127.94" r=".941" fill="#333" stroke="#1a1a1a" stroke-width=".076"/>
        <path d="M96.404 128.28c-.067-.134-.067-.202-.067-.336 0-.336.134-.605.403-.74" fill="none" stroke="#fff" stroke-width=".076"/>
        <path fill="#333" d="M96.538 129.69h.336v.202h-.336zM97.613 129.69h.336v.202h-.336z"/>
        <path fill="#ccc" d="M81.91 120.08v-4.315h.622v4.315zM84.036 120.08v-4.315h.622v4.315z"/>
        <path fill="#f2f2f2" d="M81.584 119.61v-3.373h3.399v3.373z"/>
        <g fill="#ccc">
            <path d="M82.973 118.27v-.703h.622v.703zM87.422 122.44v.336h-.538v-.336zM85.301 122.44v.336h-.538v-.336z"/>
        </g>
        <path fill="#1a1a1a" d="M86.901 122.07v1.075h-1.613v-1.075z"/>
        <path class="led-outer" d="M96.123 108.77c.12 0 .217.068.217.152h.166v-1.608h-.166c0 .084-.097.152-.217.152s-.217-.068-.217-.152h-.166v1.608h.166c0-.084.097-.152.217-.152z" fill="#cdcccc"/>
        <path class="led-blue" fill="#ff2000" d="M96.506 107.58v1.072h-.766v-1.072z"/>
        <path fill="#c6c6c5" d="M82.76 108.45h1.415v.894H82.76z"/>
        <path fill="#b7a283" d="M83.041 108.45h.86v.894h-.86z"/>
        <path fill="#c6c6c5" d="M82.744 106.89h1.415v.894h-1.415z"/>
        <path fill="#b7a283" d="M83.026 106.89h.86v.894h-.86z"/>
        <path fill="#c6c6c5" d="M82.576 114h1.415v.894h-1.415z"/>
        <path fill="#b7a283" d="M82.858 114h.86v.894h-.86z"/>
        <path fill="#c6c6c5" d="M81.734 122.16h1.415v.894h-1.415z"/>
        <path fill="#b7a283" d="M82.015 122.16h.86v.894h-.86z"/>
        <path fill="#c6c6c5" d="M84.766 110.97v1.415h-.894v-1.415z"/>
        <path fill="#b7a283" d="M84.766 111.25v.86h-.894v-.86z"/>
        <g fill="#c6c6c5" stroke-width=".063">
            <path d="M87.544 117.23v.203h-.525v-.203zM87.544 116.73v.203h-.525v-.203zM87.544 116.23v.203h-.525v-.203zM87.544 115.73v.203h-.525v-.203zM87.544 115.23v.203h-.525v-.203zM87.544 114.73v.203h-.525v-.203zM87.544 117.73v.203h-.525v-.203zM92.966 117.23v.203h-.525v-.203zM92.966 116.73v.203h-.525v-.203zM92.966 116.23v.203h-.525v-.203zM92.966 115.73v.203h-.525v-.203zM92.966 115.23v.203h-.525v-.203zM92.966 114.73v.203h-.525v-.203zM92.966 117.73v.203h-.525v-.203zM89.095 113.88h-.203v-.525h.203zM89.595 113.88h-.203v-.525h.203zM90.095 113.88h-.203v-.525h.203zM90.595 113.88h-.203v-.525h.203zM91.095 113.88h-.203v-.525h.203zM91.595 113.88h-.203v-.525h.203zM88.595 113.88h-.203v-.525h.203zM89.095 119.3h-.203v-.525h.203zM89.595 119.3h-.203v-.525h.203zM90.095 119.3h-.203v-.525h.203zM90.595 119.3h-.203v-.525h.203zM91.095 119.3h-.203v-.525h.203zM91.595 119.3h-.203v-.525h.203zM88.595 119.3h-.203v-.525h.203z"/>
        </g>
        <path fill="#333" stroke="#000" stroke-width=".076" d="M87.507 113.84h4.973v4.973h-4.973z"/>
        <circle cx="91.72" cy="114.6" r=".269" fill="#1a1a1a"/>
        <g fill="none" stroke="#b4b4b4" stroke-width=".529">
            <circle class="pad-d2" cx="102.78" cy="78.527" r=".723"/>
            <circle class="pad-d2" cx="102.78" cy="81.085" r=".723"/>
            <circle class="pad-d2" cx="102.78" cy="83.644" r=".723"/>
            <circle class="pad-d2" cx="102.78" cy="86.202" r=".723"/>
            <circle class="pad-d2" cx="102.78" cy="88.761" r=".723"/>
            <circle class="pad-d2" cx="102.78" cy="91.319" r=".723"/>
            <circle class="pad-d2" cx="102.78" cy="93.877" r=".723"/>
            <circle class="pad-d2" cx="102.78" cy="96.436" r=".723"/>
            <circle class="pad-d2" cx="102.78" cy="98.994" r=".723"/>
            <circle class="pad-d2" cx="102.78" cy="101.55" r=".723"/>
            <circle class="pad-d2" cx="102.78" cy="104.11" r=".723"/>
            <circle class="pad-d2" cx="102.78" cy="106.67" r=".723"/>
            <circle class="pad-d2" cx="102.78" cy="109.23" r=".723"/>
            <circle class="pad-d2" cx="102.78" cy="111.79" r=".723"/>
            <circle class="pad-d2" cx="102.78" cy="114.34" r=".723"/>
            <circle class="pad-d2" cx="102.78" cy="116.9" r=".723"/>
            <circle class="pad-d2" cx="102.78" cy="119.46" r=".723"/>
            <circle class="pad-d2" cx="102.78" cy="122.02" r=".723"/>
            <circle class="pad-d2" cx="102.78" cy="124.58" r=".723"/>
            <circle class="pad-d2" cx="102.78" cy="127.14" r=".723"/>
            <circle class="pad-d2" cx="102.78" cy="129.7" r=".723"/>
            <circle class="pad-d2" cx="77.2" cy="129.7" r=".723"/>
            <circle class="pad-d2" cx="77.2" cy="78.527" r=".723"/>
            <circle class="pad-d2" cx="77.2" cy="81.085" r=".723"/>
            <circle class="pad-d2" cx="77.2" cy="83.644" r=".723"/>
            <circle class="pad-d2" cx="77.2" cy="86.202" r=".723"/>
            <circle class="pad-d2" cx="77.2" cy="88.761" r=".723"/>
            <circle class="pad-d2" cx="77.2" cy="91.319" r=".723"/>
            <circle class="pad-d2" cx="77.2" cy="93.877" r=".723"/>
            <circle class="pad-d2" cx="77.2" cy="96.436" r=".723"/>
            <circle class="pad-d2" cx="77.2" cy="98.994" r=".723"/>
            <circle class="pad-d2" cx="77.2" cy="101.55" r=".723"/>
            <circle class="pad-d2" cx="77.2" cy="104.11" r=".723"/>
            <circle class="pad-d2" cx="77.2" cy="106.67" r=".723"/>
            <circle class="pad-d2" cx="77.2" cy="109.23" r=".723"/>
            <circle class="pad-d2" cx="77.2" cy="111.79" r=".723"/>
            <circle class="pad-d2" cx="77.2" cy="114.34" r=".723"/>
            <circle class="pad-d2" cx="77.2" cy="116.9" r=".723"/>
            <circle class="pad-d2" cx="77.2" cy="119.46" r=".723"/>
            <circle class="pad-d2" cx="77.2" cy="122.02" r=".723"/>
            <circle class="pad-d2" cx="77.2" cy="124.58" r=".723"/>
            <circle class="pad-d2" cx="77.2" cy="127.14" r=".723"/>
        </g>
        <g fill="#fff" font-family="Arial" font-size="1.058" font-weight="bold">
            <text x="81.185" y="124.982" stroke-width=".067" style="font-variant-caps:normal;font-variant-east-asian:normal;font-variant-ligatures:normal;font-variant-numeric:normal">BOOT</text>
            <text x="96.158" y="124.982" stroke-width=".067" style="font-variant-caps:normal;font-variant-east-asian:normal;font-variant-ligatures:normal;font-variant-numeric:normal">RST</text>
            <g stroke-width=".353">
                <text x="78.402" y="130.074" style="font-variant-caps:normal;font-variant-east-asian:normal;font-variant-ligatures:normal;font-variant-numeric:normal">GND</text>
                <text x="99.506" y="81.464" style="font-variant-caps:normal;font-variant-east-asian:normal;font-variant-ligatures:normal;font-variant-numeric:normal">RST</text>
                <text x="78.412" y="78.901" style="font-variant-caps:normal;font-variant-east-asian:normal;font-variant-ligatures:normal;font-variant-numeric:normal">3V3</text>
                <text x="78.405" y="127.509" style="font-variant-caps:normal;font-variant-east-asian:normal;font-variant-ligatures:normal;font-variant-numeric:normal">5V</text>
                <text x="100.25" y="91.698" style="font-variant-caps:normal;font-variant-east-asian:normal;font-variant-ligatures:normal;font-variant-numeric:normal">TX</text>
                <text x="100.132" y="89.139" style="font-variant-caps:normal;font-variant-east-asian:normal;font-variant-ligatures:normal;font-variant-numeric:normal">RX</text>
                <text x="100.461" y="84.018" style="font-variant-caps:normal;font-variant-east-asian:normal;font-variant-ligatures:normal;font-variant-numeric:normal">46</text>
                <text x="100.456" y="86.576" style="font-variant-caps:normal;font-variant-east-asian:normal;font-variant-ligatures:normal;font-variant-numeric:normal">45</text>
                <text x="100.471" y="130.069" style="font-variant-caps:normal;font-variant-east-asian:normal;font-variant-ligatures:normal;font-variant-numeric:normal">18</text>
                <text x="78.368" y="124.959" style="font-variant-caps:normal;font-variant-east-asian:normal;font-variant-ligatures:normal;font-variant-numeric:normal">17</text>
                <text x="78.368" y="122.394" style="font-variant-caps:normal;font-variant-east-asian:normal;font-variant-ligatures:normal;font-variant-numeric:normal">16</text>
                <text x="78.368" y="119.836" style="font-variant-caps:normal;font-variant-east-asian:normal;font-variant-ligatures:normal;font-variant-numeric:normal">15</text>
                <text x="78.368" y="117.284" style="font-variant-caps:normal;font-variant-east-asian:normal;font-variant-ligatures:normal;font-variant-numeric:normal">14</text>
                <text x="78.368" y="114.719" style="font-variant-caps:normal;font-variant-east-asian:normal;font-variant-ligatures:normal;font-variant-numeric:normal">13</text>
                <text x="78.368" y="112.167" style="font-variant-caps:normal;font-variant-east-asian:normal;font-variant-ligatures:normal;font-variant-numeric:normal">12</text>
                <text x="78.368" y="109.608" style="font-variant-caps:normal;font-variant-east-asian:normal;font-variant-ligatures:normal;font-variant-numeric:normal">11</text>
                <text x="78.368" y="107.043" style="font-variant-caps:normal;font-variant-east-asian:normal;font-variant-ligatures:normal;font-variant-numeric:normal">10</text>
                <text x="78.419" y="104.485" style="font-variant-caps:normal;font-variant-east-asian:normal;font-variant-ligatures:normal;font-variant-numeric:normal">9</text>
                <text x="78.409" y="101.926" style="font-variant-caps:normal;font-variant-east-asian:normal;font-variant-ligatures:normal;font-variant-numeric:normal">8</text>
                <text x="78.407" y="99.368" style="font-variant-caps:normal;font-variant-east-asian:normal;font-variant-ligatures:normal;font-variant-numeric:normal">7</text>
                <text x="78.407" y="96.81" style="font-variant-caps:normal;font-variant-east-asian:normal;font-variant-ligatures:normal;font-variant-numeric:normal">6</text>
                <text x="78.405" y="94.245" style="font-variant-caps:normal;font-variant-east-asian:normal;font-variant-ligatures:normal;font-variant-numeric:normal">5</text>
                <text x="78.433" y="91.699" style="font-variant-caps:normal;font-variant-east-asian:normal;font-variant-ligatures:normal;font-variant-numeric:normal">4</text>
                <text x="78.412" y="89.134" style="font-variant-caps:normal;font-variant-east-asian:normal;font-variant-ligatures:normal;font-variant-numeric:normal">3</text>
                <text x="78.426" y="86.582" style="font-variant-caps:normal;font-variant-east-asian:normal;font-variant-ligatures:normal;font-variant-numeric:normal">2</text>
                <text x="78.368" y="84.024" style="font-variant-caps:normal;font-variant-east-asian:normal;font-variant-ligatures:normal;font-variant-numeric:normal">1</text>
                <text x="78.408" y="81.459" style="font-variant-caps:normal;font-variant-east-asian:normal;font-variant-ligatures:normal;font-variant-numeric:normal">0</text>
                <text x="100.473" y="127.511" style="font-variant-caps:normal;font-variant-east-asian:normal;font-variant-ligatures:normal;font-variant-numeric:normal">19</text>
                <text x="100.476" y="124.953" style="font-variant-caps:normal;font-variant-east-asian:normal;font-variant-ligatures:normal;font-variant-numeric:normal">20</text>
                <text x="100.596" y="122.401" style="font-variant-caps:normal;font-variant-east-asian:normal;font-variant-ligatures:normal;font-variant-numeric:normal">21</text>
                <text x="100.461" y="119.836" style="font-variant-caps:normal;font-variant-east-asian:normal;font-variant-ligatures:normal;font-variant-numeric:normal">26</text>
                <text x="100.469" y="117.277" style="font-variant-caps:normal;font-variant-east-asian:normal;font-variant-ligatures:normal;font-variant-numeric:normal">33</text>
                <text x="100.448" y="114.719" style="font-variant-caps:normal;font-variant-east-asian:normal;font-variant-ligatures:normal;font-variant-numeric:normal">34</text>
                <text x="100.456" y="112.16" style="font-variant-caps:normal;font-variant-east-asian:normal;font-variant-ligatures:normal;font-variant-numeric:normal">35</text>
                <text x="100.461" y="109.602" style="font-variant-caps:normal;font-variant-east-asian:normal;font-variant-ligatures:normal;font-variant-numeric:normal">36</text>
                <text x="100.471" y="107.043" style="font-variant-caps:normal;font-variant-east-asian:normal;font-variant-ligatures:normal;font-variant-numeric:normal">37</text>
                <text x="100.471" y="104.485" style="font-variant-caps:normal;font-variant-east-asian:normal;font-variant-ligatures:normal;font-variant-numeric:normal">38</text>
                <text x="100.473" y="101.926" style="font-variant-caps:normal;font-variant-east-asian:normal;font-variant-ligatures:normal;font-variant-numeric:normal">39</text>
                <text x="100.476" y="99.368" style="font-variant-caps:normal;font-variant-east-asian:normal;font-variant-ligatures:normal;font-variant-numeric:normal">40</text>
                <text x="100.596" y="96.816" style="font-variant-caps:normal;font-variant-east-asian:normal;font-variant-ligatures:normal;font-variant-numeric:normal">41</text>
                <text x="100.477" y="94.258" style="font-variant-caps:normal;font-variant-east-asian:normal;font-variant-ligatures:normal;font-variant-numeric:normal">42</text>
            </g>
        </g>
        <g fill="#ccc" stroke-width=".353">
            <path d="M87.08 124.11v1.15h-.575v-1.15zM87.88 124.11v1.15h-.575v-1.15zM88.88 124.11v1.15h-.275v-1.15zM89.88 124.11v1.15h-.275v-1.15zM90.38 124.11v1.15h-.275v-1.15zM91.38 124.11v1.15h-.275v-1.15zM93.48 124.11v1.15h-.575v-1.15zM92.68 124.11v1.15h-.575v-1.15zM91.88 124.11v1.15h-.275v-1.15zM90.88 124.11v1.15h-.275v-1.15zM89.38 124.11v1.15h-.275v-1.15zM88.38 124.11v1.15h-.275v-1.15z"/>
        </g>
        <circle transform="rotate(-90)" cx="-125.26" cy="85.673" r=".427" fill="none" stroke="#ccc" stroke-width=".254"/>
        <path d="M85.246 126.24v-1.964h.854v1.964h-.854m.427-.555a.427.427 0 1 0 0-.854.427.427 0 0 0 0 .854z" fill="#ccc"/>
        <circle transform="rotate(-90)" cx="-125.26" cy="94.313" r=".427" fill="none" stroke="#ccc" stroke-width=".254"/>
        <path d="M93.886 126.24v-1.964h.854v1.964h-.854m.427-.555a.427.427 0 1 0 0-.854.427.427 0 0 0 0 .854z" fill="#ccc"/>
        <circle transform="rotate(-90)" cx="-129.44" cy="85.673" r=".427" fill="none" stroke="#ccc" stroke-width=".254"/>
        <path d="M85.246 130.42v-1.964h.854v1.964h-.854m.427-.555a.427.427 0 1 0 0-.854.427.427 0 0 0 0 .854z" fill="#ccc"/>
        <circle transform="rotate(-90)" cx="-129.44" cy="94.313" r=".427" fill="none" stroke="#ccc" stroke-width=".254"/>
        <g stroke-width=".353">
            <path d="M93.886 130.42v-1.964h.854v1.964h-.854m.427-.555a.427.427 0 1 0 0-.854.427.427 0 0 0 0 .854z" fill="#ccc"/>
            <path fill="#dcdcdc" d="M94.462 124.52v7.35h-8.94v-7.35z"/>
            <path d="M86.743 124.72h-.2v-.46h.2zm.3-.46h-.2v.46h.2zm.5 0h-.2v.46h.2zm.3 0h-.2v.46h.2zm.5 0h-.2v.46h.2zm.5 0h-.2v.46h.2zm.5 0h-.2v.46h.2zm.5 0h-.2v.46h.2zm.5 0h-.2v.46h.2zm.5 0h-.2v.46h.2zm.5 0h-.2v.46h.2zm.5 0h-.2v.46h.2zm.5 0h-.2v.46h.2zm.3 0h-.2v.46h.2zm.5 0h-.2v.46h.2zm.3 0h-.2v.46h.2z" fill="#dcdcdc"/>
            <path fill="#f0f0f0" d="M86.701 124.52v7.35h-.458v-7.35z"/>
            <path fill="#bebebe" d="M93.741 124.52v7.35h-.458v-7.35z"/>
        </g>
        <g fill="#8c8c8c" stroke-width=".353">
            <path d="M94.463 124.52v.705h-.1a.22.22 0 0 1-.22-.22v-.188a.22.22 0 0 0-.22-.22h-.999a.22.22 0 0 0-.22.22v.713a.22.22 0 0 1-.22.22H91.28a.22.22 0 0 1-.22-.22v-.017a.22.22 0 0 1 .22-.22h.542a.22.22 0 0 0 .22-.22v-.256a.22.22 0 0 0-.22-.22h-3.659a.22.22 0 0 0-.22.22v.256c0 .122.099.22.22.22h.542a.22.22 0 0 1 .22.22v.017a.22.22 0 0 1-.22.22h-1.204a.22.22 0 0 1-.22-.22v-.713a.22.22 0 0 0-.22-.22h-.998a.22.22 0 0 0-.22.22v.188a.22.22 0 0 1-.22.22h-.1v-.705h8.94zM88.822 126.58v.502H87.6v-.502zM92.384 126.58v.502h-1.222v-.502z"/>
        </g>
        <path fill="#303030" d="M88.679 105.25h2.648v5.674h-2.648z"/>
        <path fill="#3d3e3d" d="M88.49 111.174v-6.116l.19.19v5.674z"/>
        <path d="M91.517 110.922v.252l-.19-.252v-5.675l.19-.189v.19z"/>
        <path fill="#1e1f1f" d="M88.49 105.058h3.027l-.19.19H88.68zM91.327 110.922l.19.252H88.49l.19-.252z"/>
        <g stroke-width=".063">
            <path fill="#bdbfc1" d="M87.166 109.79h1.324v.694h-1.324z"/>
            <path fill="#666766" d="M87.544 109.79h.378v.694h-.378z"/>
            <path fill="#bdbfc1" d="M91.516 106.57h1.639v2.837h-1.639z"/>
            <path fill="#666766" d="M92.336 106.57h.378v2.837h-.378z"/>
            <path fill="#bdbfc1" d="M87.166 107.71h1.324v.694h-1.324z"/>
            <path fill="#666766" d="M87.544 107.71h.378v.694h-.378z"/>
            <path fill="#bdbfc1" d="M87.166 105.5h1.324v.694h-1.324z"/>
            <path fill="#666766" d="M87.544 105.5h.378v.694h-.378z"/>
        </g>
        <g fill="none">
            <g stroke="#b3b3b3">
                <g stroke-width=".075">
                    <path d="M92.399 109.41v-2.84M87.86 110.48v-.69M87.86 108.4v-.69"/>
                </g>
                <path stroke-width=".072" d="M87.861 106.19v-.69"/>
            </g>
            <g stroke="#333">
                <g stroke-width=".075">
                    <path d="M92.588 109.41v-2.84M87.671 110.48v-.69M87.671 108.4v-.69"/>
                </g>
                <path stroke-width=".072" d="M87.669 106.19v-.69"/>
            </g>
        </g>
        <path d="M80.894 70.644v7.306h.015l.014.002.015.002.014.003.015.003.014.005.014.005a.283.283 0 0 1 .027.012l.013.006.012.008.012.007.012.009.012.008.011.01.01.009a.335.335 0 0 1 .011.01l.01.01a.273.273 0 0 1 .009.012l.009.01.008.012.007.012.007.011.006.013.006.012.005.013.004.013a.204.204 0 0 1 .004.013l.003.013.002.013.001.013a.199.199 0 0 1 0 .027l-.001.013a.164.164 0 0 1-.002.013l-.003.013a.28.28 0 0 1-.004.013c0 .004-.003.009-.004.013l-.005.012a.278.278 0 0 1-.012.024l-.007.012a.213.213 0 0 1-.008.012l-.008.012-.008.01-.01.011a.357.357 0 0 1-.02.02l-.01.01a.389.389 0 0 1-.011.01l-.012.008-.012.008-.012.007-.013.008-.013.006-.013.007-.013.005-.014.005a.301.301 0 0 1-.029.008l-.014.002a.29.29 0 0 1-.015.002l-.014.002h-.015v.947h.015l.014.002.015.002.014.003.015.003.014.005.014.005a.283.283 0 0 1 .027.012l.012.006.013.007.012.008.012.009.012.008.01.01a.286.286 0 0 1 .022.02l.01.01a.273.273 0 0 1 .009.01l.008.011.009.012.007.012.007.011.006.013.006.012.005.013.004.013a.204.204 0 0 1 .004.013l.003.012.002.014.001.013a.199.199 0 0 1 0 .027l-.001.013-.002.013-.003.013a.28.28 0 0 1-.004.013c0 .004-.003.009-.004.013l-.005.012-.006.013-.006.011-.007.012a.217.217 0 0 1-.008.012l-.008.012-.008.01-.01.011a.357.357 0 0 1-.02.02l-.01.01a.389.389 0 0 1-.012.01l-.01.008-.013.008a.258.258 0 0 1-.012.007l-.013.008-.013.006-.013.006-.013.006-.014.004-.014.005-.015.003-.014.003a.29.29 0 0 1-.015.002l-.014.002h-.015v.946l.015.001.014.001.015.003c.005 0 .01.002.014.003a.329.329 0 0 1 .029.007l.014.006a.283.283 0 0 1 .026.011c.005.003.01.004.013.007l.013.007a.26.26 0 0 1 .024.017l.012.008.01.01a.286.286 0 0 1 .012.009l.01.01.01.01a.273.273 0 0 1 .009.011l.008.011.009.012.007.012.007.011.006.013.006.012.005.013.004.013a.204.204 0 0 1 .004.013l.003.012.002.014.001.013a.214.214 0 0 1 0 .027l-.001.013-.002.013-.003.013a.28.28 0 0 1-.004.013l-.004.012-.005.013a.278.278 0 0 1-.012.024l-.007.012a.217.217 0 0 1-.008.012l-.008.012-.008.01-.01.01a.357.357 0 0 1-.01.011l-.01.01-.01.01a.389.389 0 0 1-.012.01l-.011.007-.012.009-.012.007-.013.008-.013.006-.013.006-.013.006-.014.004a.301.301 0 0 1-.029.008l-.014.003a.29.29 0 0 1-.015.002l-.014.002h-.015v.947h.015l.014.002c.005 0 .01 0 .015.002.005 0 .01.002.014.003a.329.329 0 0 1 .029.008l.014.005a.283.283 0 0 1 .013.005l.013.006.013.007.013.007.012.008.012.009.012.008.01.01a.286.286 0 0 1 .012.01l.01.009.01.01.009.011a.343.343 0 0 1 .008.011l.009.012.007.012.007.012.006.012.006.012.005.013.004.013a.204.204 0 0 1 .004.013l.002.013.003.013.001.013a.214.214 0 0 1 0 .027l-.001.013-.003.013-.002.013a.28.28 0 0 1-.004.013l-.004.012-.005.013a.278.278 0 0 1-.012.025l-.007.011a.213.213 0 0 1-.016.023l-.009.012-.009.01a.357.357 0 0 1-.01.01l-.01.01-.01.01a.389.389 0 0 1-.012.01l-.011.007-.012.009-.012.008-.013.007-.013.006-.013.006-.014.006-.013.005a.301.301 0 0 1-.029.007l-.014.003a.29.29 0 0 1-.015.002l-.014.002h-.015v.947h.015l.014.002c.005 0 .01 0 .015.002.005 0 .01.002.014.003a.329.329 0 0 1 .029.008l.013.005.014.005.013.006.013.007.013.007c.005.002.008.005.012.008l.012.008.012.009.01.01a.286.286 0 0 1 .012.01l.01.009.01.01a.273.273 0 0 1 .017.022l.009.012.007.012.007.012.006.012.006.012.005.013.004.013a.204.204 0 0 1 .004.013l.002.013.002.013.002.013a.214.214 0 0 1 0 .027l-.002.013c0 .004 0 .009-.002.013l-.002.013a.28.28 0 0 1-.004.013l-.004.012-.005.013-.006.012-.006.013-.007.011-.008.012-.008.011-.009.012-.009.01a.357.357 0 0 1-.02.02l-.01.01a.389.389 0 0 1-.012.01l-.011.007-.012.009-.012.008-.013.007c-.004.003-.009.004-.013.006l-.013.006-.014.006-.014.004a.301.301 0 0 1-.028.008l-.014.003a.29.29 0 0 1-.015.002l-.014.002h-.015v.947h.015l.014.002c.005 0 .01 0 .015.002.005 0 .01.002.014.003a.329.329 0 0 1 .028.007l.014.006.014.005.013.006.013.007.013.007a.256.256 0 0 1 .024.016l.012.009.01.01a.286.286 0 0 1 .011.009l.01.01.01.01a.273.273 0 0 1 .018.022l.009.012.007.012.007.011a.274.274 0 0 1 .006.012l.006.013.005.013.004.013a.204.204 0 0 1 .004.012l.002.013.002.014.002.013a.214.214 0 0 1 0 .027l-.002.013a.164.164 0 0 1-.002.012l-.002.014a.28.28 0 0 1-.004.013l-.004.012-.005.013-.006.012-.006.012-.007.012-.008.012-.008.011-.009.011-.009.01a.357.357 0 0 1-.02.02l-.01.01-.012.01-.011.008-.012.009-.012.007-.013.008c-.004.003-.009.004-.013.006l-.013.006-.014.006-.014.004a.301.301 0 0 1-.028.008l-.014.003a.29.29 0 0 1-.015.002l-.014.002h-.015v.947h.015l.014.002c.005 0 .01 0 .015.002.005 0 .01.002.014.003a.329.329 0 0 1 .028.007l.014.006.014.005.013.006.013.007.013.007a.377.377 0 0 1 .024.016l.012.009.01.009a.286.286 0 0 1 .011.01l.01.01.01.01a.273.273 0 0 1 .018.022l.008.012.008.011.007.012a.28.28 0 0 1 .017.038l.004.012a.204.204 0 0 1 .004.013l.002.013.002.013.002.014v.026l-.002.013a.164.164 0 0 1-.002.013l-.002.014-.004.012-.005.013-.004.012-.006.013-.006.012-.007.012-.008.012-.008.01-.009.012-.01.01a.357.357 0 0 1-.02.02l-.01.01-.01.01c-.005.002-.008.005-.012.008l-.012.008-.013.008-.012.007-.013.007-.013.006-.014.006-.014.004a.301.301 0 0 1-.028.008l-.015.003a.29.29 0 0 1-.014.002l-.015.001-.014.001v.946h.014l.015.002.015.002.014.003a.329.329 0 0 1 .028.008l.014.005a.283.283 0 0 1 .027.012l.013.006.012.008.013.007.012.009.012.009.01.009a.286.286 0 0 1 .011.01l.01.01.01.01a.273.273 0 0 1 .018.022l.008.011a.293.293 0 0 1 .032.061l.004.013a.204.204 0 0 1 .004.013l.002.013.002.013.002.013v.027l-.002.013a.164.164 0 0 1-.002.013l-.002.013a.28.28 0 0 1-.004.013l-.005.013-.004.012-.006.013-.006.012-.007.012-.008.011-.008.012-.009.01-.01.011a.357.357 0 0 1-.02.02l-.01.01-.011.01-.011.008-.012.008-.013.008-.012.007c-.004.002-.01.004-.013.007l-.013.006-.014.005-.014.005a.301.301 0 0 1-.028.008l-.015.002-.014.003-.015.001-.015.001v.946a.293.293 0 0 1 .03.002l.015.002.014.004a.329.329 0 0 1 .028.007l.014.005a.283.283 0 0 1 .027.012l.013.007.012.007.013.008.012.008.012.009.01.009.011.01a.335.335 0 0 1 .01.01l.01.01a.273.273 0 0 1 .018.022l.008.011a.293.293 0 0 1 .04.087l.002.013.002.013.002.014v.026l-.002.013a.164.164 0 0 1-.002.013.32.32 0 0 1-.006.026l-.005.013-.004.012-.006.013-.006.012-.008.012-.007.011-.008.012-.009.01-.01.012a.357.357 0 0 1-.02.02l-.01.01-.011.008-.011.01-.012.007-.013.008-.012.007-.014.007-.012.006-.014.005-.014.005a.301.301 0 0 1-.028.008l-.015.002-.014.003-.015.001-.015.001v.946a.293.293 0 0 1 .03.002l.015.002.014.004a.329.329 0 0 1 .028.007l.014.005a.283.283 0 0 1 .027.012l.013.007.012.007.013.008.012.008.011.009.011.009.011.01a.335.335 0 0 1 .01.01l.01.01a.273.273 0 0 1 .01.01l.008.012a.325.325 0 0 1 .015.023l.008.012.006.012a.234.234 0 0 1 .018.05l.003.014.002.013.002.014v.026l-.002.013a.164.164 0 0 1-.002.013.28.28 0 0 1-.006.026l-.005.013-.004.013c-.001.005-.004.008-.006.012l-.006.012-.008.012a.217.217 0 0 1-.007.012l-.008.01-.009.012-.01.01a.37.37 0 0 1-.02.02l-.01.01a.389.389 0 0 1-.011.01l-.011.008-.012.008-.013.008-.012.007-.014.007-.013.006-.013.005-.014.005a.301.301 0 0 1-.028.008l-.015.002a.29.29 0 0 1-.014.003l-.015.001-.015.001v.946h.015l.015.002.015.002.014.003.014.004c.005 0 .01.003.014.004l.014.005a.283.283 0 0 1 .027.012l.013.007.012.007.013.008.012.008.011.009.011.009.011.01a.335.335 0 0 1 .01.01l.01.01a.273.273 0 0 1 .01.01l.008.012.008.011.007.012.008.012.006.012a.234.234 0 0 1 .018.05l.003.014.002.013.002.014a.199.199 0 0 1 0 .026l-.002.013a.164.164 0 0 1-.002.013c0 .005-.002.009-.003.013a.28.28 0 0 1-.003.013l-.005.013-.005.012a.278.278 0 0 1-.011.025l-.008.012a.217.217 0 0 1-.007.012l-.008.01-.009.012-.01.01a.37.37 0 0 1-.02.02l-.01.01a.389.389 0 0 1-.011.01l-.012.008-.011.008-.013.008-.012.007-.014.007-.013.006-.013.005-.014.005a.301.301 0 0 1-.028.008l-.015.002a.29.29 0 0 1-.014.003l-.015.001h-.015v.947h.015l.015.002.015.002.014.003.014.004.014.004.014.005a.283.283 0 0 1 .027.012l.013.007.012.007.013.008.011.008.012.009.011.009.011.01a.335.335 0 0 1 .01.01l.01.01a.273.273 0 0 1 .009.01l.009.012.008.011.007.012.007.012.007.012.005.013c.001.005.004.008.006.012l.004.013a.204.204 0 0 1 .003.013l.003.013.002.013.001.014a.199.199 0 0 1 0 .026l-.001.013a.164.164 0 0 1-.002.013c0 .005-.002.009-.003.013a.28.28 0 0 1-.003.013l-.005.013-.005.013a.278.278 0 0 1-.012.024l-.007.012a.213.213 0 0 1-.008.012l-.007.01-.01.012-.008.01a.357.357 0 0 1-.02.02l-.01.01a.389.389 0 0 1-.012.01l-.012.008-.011.008-.013.008-.012.007-.014.007-.013.006-.013.005-.014.005a.301.301 0 0 1-.028.008l-.015.003a.29.29 0 0 1-.014.002l-.015.001h-.015v.947h.015l.015.002.015.002.014.003.014.004.014.004.014.005a.283.283 0 0 1 .027.012l.013.007.012.007.013.008.011.008.012.009.011.008a.286.286 0 0 1 .021.02l.01.01a.273.273 0 0 1 .009.012l.009.01.008.012.007.012.007.012.007.012.005.013c.001.005.004.008.006.012l.004.013a.204.204 0 0 1 .003.013l.003.013.002.013.001.014a.199.199 0 0 1 0 .026l-.001.013-.002.013-.003.013a.28.28 0 0 1-.003.013l-.005.013-.005.012-.005.013a.32.32 0 0 1-.007.012l-.007.012a.217.217 0 0 1-.008.012l-.007.01-.01.012-.008.01a.37.37 0 0 1-.02.02l-.01.01a.389.389 0 0 1-.012.01l-.012.008-.012.008a.258.258 0 0 1-.012.008l-.012.007-.014.007-.013.006-.013.005-.014.005-.014.004-.015.003-.014.003a.29.29 0 0 1-.014.003l-.015.001h-.015v.947h.015l.015.002.015.002.013.003a.329.329 0 0 1 .029.008l.014.005a.283.283 0 0 1 .027.012l.013.006.012.008.012.007.012.009.012.009.011.008a.286.286 0 0 1 .01.01l.011.01.01.01a.273.273 0 0 1 .009.012l.009.01.008.012.007.012.007.012.007.012.005.012.005.013.005.013a.204.204 0 0 1 .003.013l.003.013.002.013.001.013a.214.214 0 0 1 0 .027l-.001.013-.002.013-.003.013a.28.28 0 0 1-.003.013l-.005.012-.005.013a.278.278 0 0 1-.012.025l-.007.012a.213.213 0 0 1-.008.011l-.007.012-.01.01-.009.011a.357.357 0 0 1-.01.01l-.01.01-.01.01a.389.389 0 0 1-.011.01l-.012.008-.012.008-.012.008-.012.007-.014.007-.013.005-.013.006-.014.005a.301.301 0 0 1-.029.007l-.014.003a.29.29 0 0 1-.015.003l-.014.001h-.015v.947h.015l.014.002c.005 0 .01 0 .015.002.005 0 .01.002.014.003a.329.329 0 0 1 .029.008l.014.005a.283.283 0 0 1 .013.006l.014.005.013.007.012.007.012.008.012.009.012.008.011.01a.286.286 0 0 1 .01.01l.011.009.01.01.009.011a.343.343 0 0 1 .009.011l.008.012.007.012.007.012.006.012.006.012.005.013.004.013a.204.204 0 0 1 .004.013l.003.013.002.013.001.013a.214.214 0 0 1 0 .027l-.001.013-.002.013-.003.013a.28.28 0 0 1-.004.013c0 .004-.003.008-.004.012l-.005.013a.278.278 0 0 1-.012.025l-.007.012a.213.213 0 0 1-.016.022l-.008.012-.01.01a.357.357 0 0 1-.01.01l-.01.01-.01.01a.389.389 0 0 1-.011.01l-.012.008-.012.008-.012.008-.013.007-.013.007-.013.005-.013.006-.014.005a.301.301 0 0 1-.029.007l-.014.003a.29.29 0 0 1-.015.002l-.014.002h-.015v.947a.286.286 0 0 1 .03.002l.014.002.014.003.015.004.014.004.014.005.013.005.014.006a.079.079 0 0 1 .013.007l.012.007.012.008.012.008.012.01.01.008.012.01a.082.082 0 0 1 .01.01l.01.01.009.011.009.012a.346.346 0 0 0 .008.011l.007.012.007.012a.18.18 0 0 1 .012.025.178.178 0 0 1 .005.012l.004.013a.228.228 0 0 1 .004.013l.003.013.002.013.001.013a.203.203 0 0 1 0 .027l-.001.013-.002.013-.003.013-.004.013c0 .004-.003.008-.004.012l-.005.013a.26.26 0 0 1-.006.012l-.006.013-.007.011a.109.109 0 0 1-.008.012l-.008.011a.132.132 0 0 1-.008.012l-.01.01-.01.01-.01.01-.01.01-.012.01-.01.007-.013.008-.012.008-.013.007-.013.007-.013.006-.013.006-.014.005-.014.004-.015.004-.014.003-.015.002-.014.002h-.015v.766h1.858v-.5h.916v.5h.593v-.5h.915v.5h.594v-.5h.915v.5h.594v-.5h.915v.5h.593v-.5h.916v.5h.593v-.5h.916v.5h.593v-.5h.916v.5h.593v-.5h.916v.5h.593v-.5h.916v.5h.593v-.5h.916v.5h1.858v-.765h-.015a.11.11 0 0 1-.015-.003c-.005 0-.01 0-.014-.002l-.015-.003a.072.072 0 0 1-.014-.004c-.004 0-.01-.003-.014-.004l-.014-.005-.013-.006-.013-.006a.079.079 0 0 1-.013-.007l-.013-.007-.012-.008-.013-.008-.01-.008-.012-.009-.01-.01-.011-.01-.01-.01-.01-.01-.007-.012a.346.346 0 0 0-.009-.011l-.007-.012-.007-.011a.18.18 0 0 1-.012-.025l-.005-.013a.18.18 0 0 1-.004-.012l-.004-.013a.219.219 0 0 1-.005-.026l-.001-.013a.204.204 0 0 1 0-.027v-.013l.003-.013c0-.004.001-.01.003-.013l.003-.013a.199.199 0 0 1 .005-.013l.004-.012.006-.013.006-.012.008-.012.007-.012a.129.129 0 0 1 .008-.011.132.132 0 0 1 .009-.012l.01-.01c.002-.005.006-.008.009-.01l.01-.01.01-.01.012-.01.011-.009.012-.008.013-.008a.13.13 0 0 1 .013-.007l.012-.007.013-.006.014-.005.014-.005a.07.07 0 0 1 .014-.004c.004 0 .01-.003.014-.004l.015-.003c.004 0 .01 0 .014-.002.005 0 .01 0 .015-.002h.015v-.947h-.015a.37.37 0 0 1-.03-.004l-.014-.003a.336.336 0 0 1-.014-.003l-.014-.004-.014-.005-.013-.006-.014-.005-.012-.007a.417.417 0 0 1-.013-.007l-.012-.008-.013-.008-.011-.009-.01-.01-.012-.008-.01-.01-.01-.011-.01-.01-.007-.012-.009-.01-.008-.012-.006-.012a.274.274 0 0 1-.025-.063l-.003-.013a.286.286 0 0 1-.002-.013l-.001-.013a.215.215 0 0 1 0-.027v-.013a.25.25 0 0 1 .003-.013l.002-.013a.32.32 0 0 1 .004-.013l.005-.013.004-.013.006-.012.006-.012.007-.012.008-.012.008-.012a.29.29 0 0 1 .009-.01c.003-.005.006-.008.01-.011l.009-.011.01-.01.01-.01a.389.389 0 0 1 .012-.009l.011-.008.012-.01.013-.007a.313.313 0 0 1 .012-.007l.013-.007.013-.005.014-.006.014-.005a.301.301 0 0 1 .028-.008l.015-.003.014-.002.015-.002h.015v-.946l-.015-.001a.367.367 0 0 1-.03-.004l-.014-.003a.336.336 0 0 1-.014-.003l-.014-.004-.014-.005-.013-.006-.014-.005-.013-.007a.417.417 0 0 1-.012-.007l-.012-.008-.013-.008-.011-.009-.01-.01c-.005-.002-.008-.005-.012-.008l-.01-.01-.01-.011-.01-.01-.008-.011-.008-.012-.008-.011-.006-.012a.274.274 0 0 1-.025-.063l-.003-.013a.307.307 0 0 1-.002-.013l-.001-.013a.215.215 0 0 1 0-.027v-.013a.25.25 0 0 1 .003-.013l.002-.013a.32.32 0 0 1 .004-.013l.005-.013.004-.013.006-.012.006-.012.007-.012.008-.012.008-.012.009-.01a.273.273 0 0 1 .009-.011l.01-.011.01-.01.01-.01.012-.008a.565.565 0 0 1 .011-.01l.012-.008.012-.007a.313.313 0 0 1 .013-.008l.013-.006.013-.006.014-.006.014-.005a.301.301 0 0 1 .028-.008l.015-.003.014-.002.015-.001.014-.001v-.946l-.014-.001a.366.366 0 0 1-.03-.004l-.014-.003c-.005 0-.01-.001-.014-.003l-.014-.004-.014-.005-.013-.005a.294.294 0 0 1-.014-.006l-.013-.007a.417.417 0 0 1-.013-.007l-.011-.008-.013-.008-.011-.009-.011-.009-.01-.01a.37.37 0 0 1-.011-.01c-.004-.002-.007-.006-.01-.01a.273.273 0 0 1-.01-.01l-.008-.011-.008-.011a.507.507 0 0 1-.008-.012l-.006-.012a.28.28 0 0 1-.012-.025l-.006-.012-.004-.013a.303.303 0 0 1-.003-.013c-.001-.004-.003-.008-.003-.013a.285.285 0 0 1-.002-.013l-.001-.013v-.04l.003-.013.002-.013a.32.32 0 0 1 .004-.013l.005-.013.004-.012.006-.013.006-.012.007-.012.007-.012.009-.011.009-.011a.273.273 0 0 1 .009-.011l.01-.01a.325.325 0 0 1 .01-.01l.01-.01.012-.01a.565.565 0 0 1 .011-.008l.012-.008.012-.008a.313.313 0 0 1 .013-.007l.013-.007.013-.006.014-.006.014-.005.013-.004a.351.351 0 0 1 .015-.004l.014-.003.015-.002.015-.001.014-.001v-.946h-.014a.37.37 0 0 1-.03-.004l-.014-.003a.336.336 0 0 1-.014-.004c-.005 0-.01-.002-.014-.004l-.014-.005-.013-.005a.294.294 0 0 1-.014-.006l-.013-.007a.417.417 0 0 1-.013-.007l-.012-.008-.012-.008-.011-.009-.011-.009-.011-.01a.265.265 0 0 1-.01-.009l-.01-.01a.273.273 0 0 1-.01-.011l-.008-.011-.008-.011-.008-.012-.007-.012a.274.274 0 0 1-.017-.037l-.004-.013a.303.303 0 0 1-.003-.013c-.001-.004-.003-.008-.003-.013a.268.268 0 0 1-.003-.013v-.013l-.001-.013v-.013l.001-.014.003-.013.002-.013a.32.32 0 0 1 .004-.013l.004-.013.005-.012.006-.013.006-.012.007-.012.007-.012.009-.011.008-.011a.273.273 0 0 1 .01-.011l.01-.01a.325.325 0 0 1 .043-.038l.012-.008.012-.008a.313.313 0 0 1 .013-.007l.013-.007.013-.006.014-.006.013-.005.014-.004a.351.351 0 0 1 .015-.004l.014-.003c.005 0 .01 0 .015-.002a.36.36 0 0 1 .015-.001l.014-.001v-.946h-.014a.366.366 0 0 1-.03-.005l-.014-.002a.336.336 0 0 1-.014-.004l-.015-.004-.013-.005-.013-.005a.294.294 0 0 1-.014-.006l-.013-.007a.417.417 0 0 1-.013-.007l-.012-.008-.012-.008a.49.49 0 0 1-.011-.009l-.011-.009-.011-.01a.265.265 0 0 1-.01-.009l-.01-.01a.273.273 0 0 1-.01-.011l-.008-.011-.008-.011a.507.507 0 0 1-.008-.012l-.007-.012a.274.274 0 0 1-.017-.037l-.004-.013a.303.303 0 0 1-.003-.013l-.004-.013a.268.268 0 0 1-.002-.013v-.013l-.001-.013v-.013l.001-.014.002-.013.003-.013a.32.32 0 0 1 .004-.013l.004-.013.005-.012.006-.013.006-.012.007-.012.007-.012.009-.011.008-.011a.273.273 0 0 1 .01-.011l.01-.01a.325.325 0 0 1 .043-.038l.012-.008.012-.008a.313.313 0 0 1 .013-.007l.013-.007.013-.006.014-.006.013-.005.014-.004a.351.351 0 0 1 .015-.004l.014-.003.015-.002.015-.001.014-.001v-.946l-.014-.001a.37.37 0 0 1-.03-.004.336.336 0 0 1-.028-.006l-.015-.004-.013-.005-.014-.006a.294.294 0 0 1-.013-.006l-.013-.007a.417.417 0 0 1-.013-.007l-.012-.007-.012-.008a.49.49 0 0 1-.011-.009l-.011-.01a.265.265 0 0 1-.021-.02.273.273 0 0 1-.02-.021c-.003-.002-.005-.006-.008-.01l-.008-.01a.507.507 0 0 1-.008-.013l-.007-.012a.274.274 0 0 1-.012-.024l-.005-.012-.004-.013a.303.303 0 0 1-.003-.013l-.004-.013a.268.268 0 0 1-.002-.013v-.013a.2.2 0 0 1 0-.027v-.013l.002-.013.003-.014a.32.32 0 0 1 .004-.012c0-.005.003-.009.004-.013l.005-.013.006-.012.006-.013.007-.011a.253.253 0 0 1 .016-.024l.008-.01a.273.273 0 0 1 .01-.011l.01-.01a.325.325 0 0 1 .043-.039l.012-.008.012-.008a.313.313 0 0 1 .013-.007l.013-.007.013-.006.014-.005.013-.005a.301.301 0 0 1 .029-.008l.014-.003.015-.002a.36.36 0 0 1 .015-.002h.014v-.946l-.014-.001-.015-.001-.015-.003a.336.336 0 0 1-.028-.006l-.015-.004-.013-.005-.014-.006a.294.294 0 0 1-.013-.006l-.013-.007-.013-.006-.012-.008-.012-.008c-.004-.002-.008-.006-.012-.01a.378.378 0 0 1-.032-.028l-.01-.01a.273.273 0 0 1-.009-.01l-.008-.012-.008-.01-.008-.012-.007-.012-.006-.013-.006-.012-.005-.012-.004-.013a.303.303 0 0 1-.004-.013c0-.005-.002-.009-.003-.013a.268.268 0 0 1-.002-.013v-.013a.2.2 0 0 1 0-.027v-.013l.002-.013.003-.013.004-.014c0-.004.003-.008.004-.012l.005-.013.006-.012a.442.442 0 0 1 .02-.036l.008-.011a.29.29 0 0 1 .019-.023l.01-.01a.325.325 0 0 1 .043-.038l.012-.008.012-.008a.313.313 0 0 1 .013-.007l.013-.007.013-.006.014-.005.013-.005a.301.301 0 0 1 .029-.008l.014-.003.015-.002a.36.36 0 0 1 .015-.002h.014v-.946l-.014-.001-.015-.001-.015-.003a.336.336 0 0 1-.028-.006l-.015-.004-.013-.005-.014-.006a.294.294 0 0 1-.013-.006l-.013-.007-.013-.006-.012-.008-.012-.008c-.004-.002-.008-.006-.012-.01a.378.378 0 0 1-.032-.028l-.01-.01a.273.273 0 0 1-.009-.01l-.008-.012-.008-.011-.008-.011-.007-.012-.006-.013a.278.278 0 0 1-.006-.012l-.005-.012-.004-.013a.303.303 0 0 1-.004-.013c0-.005-.002-.009-.003-.013a.268.268 0 0 1-.002-.013v-.014a.2.2 0 0 1 0-.026v-.013l.002-.013.003-.013a.32.32 0 0 1 .003-.013l.005-.013.005-.013.005-.012a.427.427 0 0 1 .021-.036l.008-.011a.29.29 0 0 1 .018-.023l.01-.01.01-.01.01-.01a.389.389 0 0 1 .024-.018l.012-.008.012-.008a.313.313 0 0 1 .013-.007l.013-.007.013-.006.014-.006.013-.004a.301.301 0 0 1 .028-.008l.015-.003.014-.002.015-.002h.015v-.946l-.015-.001-.015-.001a.245.245 0 0 1-.014-.002l-.015-.003a.336.336 0 0 1-.013-.004l-.015-.004-.013-.005-.014-.005a.294.294 0 0 1-.013-.007c-.005-.002-.009-.003-.013-.006a.417.417 0 0 1-.013-.007l-.012-.008-.012-.008a.49.49 0 0 1-.044-.037l-.01-.01a.273.273 0 0 1-.009-.011l-.008-.011-.008-.012-.008-.011-.007-.012-.006-.012a.234.234 0 0 1-.011-.025l-.004-.013-.004-.012-.003-.014a.268.268 0 0 1-.002-.013l-.001-.013a.2.2 0 0 1 0-.027l.001-.013.002-.013.003-.013a.32.32 0 0 1 .003-.013l.005-.013.005-.013.005-.012a.427.427 0 0 1 .007-.012l.007-.012.007-.012.008-.011a.29.29 0 0 1 .018-.022l.01-.01.01-.01.01-.01a.389.389 0 0 1 .024-.018l.011-.009.013-.007.013-.008.013-.006c.004-.002.008-.005.013-.006l.014-.006.013-.005a.301.301 0 0 1 .028-.008l.015-.003.014-.002.015-.001h.015v-.947h-.015a.366.366 0 0 1-.03-.004l-.014-.003a.336.336 0 0 1-.014-.004l-.014-.004-.013-.005-.014-.005a.294.294 0 0 1-.013-.006l-.013-.007a.417.417 0 0 1-.013-.007l-.012-.008-.012-.008-.012-.009a.378.378 0 0 1-.032-.028l-.01-.01-.009-.01-.008-.012-.009-.012-.007-.01-.007-.013-.006-.012a.278.278 0 0 1-.006-.013l-.005-.012a.257.257 0 0 1-.013-.052l-.001-.013a.215.215 0 0 1 0-.026v-.013a.25.25 0 0 1 .003-.014l.003-.013a.32.32 0 0 1 .003-.013l.005-.013.005-.012.005-.013.006-.012.008-.012.007-.012.008-.01a.29.29 0 0 1 .018-.023l.01-.01.01-.01.01-.01a.389.389 0 0 1 .023-.018l.012-.008.013-.008a.313.313 0 0 1 .013-.007l.013-.007.013-.006.013-.006.014-.005a.301.301 0 0 1 .028-.007l.015-.004.014-.002.015-.001h.015v-.947h-.015a.37.37 0 0 1-.03-.004l-.014-.003a.336.336 0 0 1-.014-.004l-.014-.004-.014-.004-.013-.006-.013-.006-.013-.006a.417.417 0 0 1-.013-.008l-.012-.007-.013-.009-.01-.008-.012-.01a.408.408 0 0 1-.02-.019l-.01-.01-.01-.01-.008-.012-.009-.011-.007-.012-.007-.012-.006-.012-.006-.012a.335.335 0 0 1-.013-.038l-.003-.013a.285.285 0 0 1-.002-.014l-.001-.012a.215.215 0 0 1 0-.027v-.013a.25.25 0 0 1 .003-.014l.003-.013a.32.32 0 0 1 .003-.013l.005-.012.004-.013.006-.012.006-.013.008-.012.007-.011.008-.012a.29.29 0 0 1 .018-.022l.01-.01.01-.01.01-.01a.389.389 0 0 1 .023-.018l.012-.008.013-.008a.313.313 0 0 1 .013-.007l.012-.007.013-.006.014-.005.014-.006a.301.301 0 0 1 .028-.007l.015-.003.014-.003.015-.001h.015v-.947h-.015a.367.367 0 0 1-.03-.004l-.014-.003a.336.336 0 0 1-.014-.004l-.014-.004-.014-.005-.013-.005-.014-.006-.012-.007a.417.417 0 0 1-.013-.007c-.005-.002-.008-.005-.012-.008l-.013-.008-.011-.008-.01-.01-.012-.009-.01-.01-.01-.01-.01-.01-.007-.012-.009-.011-.008-.012-.006-.012a.28.28 0 0 1-.025-.062l-.003-.013a.307.307 0 0 1-.002-.014l-.001-.013a.215.215 0 0 1 0-.027v-.012a.25.25 0 0 1 .003-.014l.002-.013a.32.32 0 0 1 .004-.013l.005-.013.004-.012.006-.012.006-.013.007-.012.008-.012.008-.011a.29.29 0 0 1 .009-.011l.01-.01.009-.012.01-.01.01-.01a.389.389 0 0 1 .012-.008l.011-.009.012-.009.013-.007a.313.313 0 0 1 .012-.008l.013-.006.013-.006.014-.006.014-.005a.301.301 0 0 1 .028-.008l.015-.003.014-.002.015-.001h.015v-.947h-.015a.249.249 0 0 1-.03-.004l-.014-.003a.336.336 0 0 1-.014-.004l-.014-.004-.014-.005-.013-.005-.014-.006-.013-.007a.417.417 0 0 1-.012-.007c-.005-.002-.008-.005-.012-.008l-.013-.008-.011-.008-.01-.01-.012-.009-.01-.01-.01-.01-.01-.01c-.002-.005-.005-.008-.008-.012l-.008-.011a.507.507 0 0 1-.008-.012l-.006-.012a.274.274 0 0 1-.025-.062l-.003-.013a.285.285 0 0 1-.002-.014l-.001-.013a.215.215 0 0 1 0-.027v-.013a.25.25 0 0 1 .003-.013l.002-.013a.32.32 0 0 1 .004-.013l.005-.013.004-.012.006-.013.006-.012.007-.012.008-.012.008-.011.009-.01a.273.273 0 0 1 .009-.012l.01-.01.01-.01.01-.01.012-.009a.565.565 0 0 1 .011-.009l.012-.008.012-.008.013-.008.013-.006.013-.006.014-.006.014-.005a.301.301 0 0 1 .028-.008l.015-.002.014-.003h.015l.014-.002v-.946h-.014a.366.366 0 0 1-.03-.004l-.014-.003-.014-.003-.014-.005-.014-.004-.013-.006a.294.294 0 0 1-.014-.006l-.013-.007a.417.417 0 0 1-.013-.007l-.011-.007-.013-.008-.011-.009-.011-.01a.265.265 0 0 1-.021-.02.273.273 0 0 1-.02-.021l-.008-.01-.008-.01a.507.507 0 0 1-.008-.013l-.006-.012a.274.274 0 0 1-.012-.024l-.006-.012-.004-.013a.303.303 0 0 1-.003-.013l-.003-.013a.307.307 0 0 1-.002-.013l-.001-.013v-.04a.25.25 0 0 1 .003-.014l.002-.013a.32.32 0 0 1 .004-.012l.005-.013.004-.013.006-.012.006-.013.007-.011.007-.012.009-.012.009-.01a.273.273 0 0 1 .009-.011l.01-.01a.336.336 0 0 1 .01-.011l.01-.01.012-.009a.565.565 0 0 1 .011-.009l.012-.008.012-.008a.313.313 0 0 1 .013-.007l.013-.007.013-.006.014-.005.014-.005.013-.005a.351.351 0 0 1 .015-.003l.014-.003.015-.003h.015l.014-.002v-.946h-.014a.367.367 0 0 1-.03-.004l-.014-.002a.336.336 0 0 1-.014-.004l-.014-.004-.014-.005-.013-.006a.294.294 0 0 1-.014-.006l-.013-.006a.417.417 0 0 1-.013-.008l-.011-.007-.013-.008-.011-.009-.011-.01a.265.265 0 0 1-.021-.02.273.273 0 0 1-.02-.021l-.008-.01-.008-.01-.008-.013-.007-.012a.274.274 0 0 1-.017-.036l-.004-.013a.303.303 0 0 1-.003-.013l-.003-.013a.268.268 0 0 1-.003-.013v-.013l-.001-.014v-.013l.001-.013.003-.013.002-.014a.32.32 0 0 1 .004-.012l.004-.013.005-.013.006-.012.006-.013.007-.011.007-.012.009-.012.008-.01a.273.273 0 0 1 .01-.011l.01-.01a.325.325 0 0 1 .043-.038l.012-.009.012-.008a.313.313 0 0 1 .013-.007l.013-.006.013-.007.014-.005.013-.005.014-.005a.351.351 0 0 1 .015-.003l.014-.003.015-.002.015-.002h.014v-7.306zm16.354 31.267v-.5h-.916v.5h.178a.258.258 0 0 1 .002-.03l.002-.014.003-.015.003-.013.005-.014.005-.014.005-.014.006-.013.007-.013.007-.012.008-.013.008-.012.008-.012.01-.01c.003-.005.006-.008.01-.011l.01-.01.01-.01.01-.009.01-.009a.07.07 0 0 1 .012-.008l.012-.008.012-.007.012-.006.012-.006.013-.005.013-.004c.004 0 .008-.003.013-.004l.013-.003c.004 0 .009 0 .013-.002h.013l.013-.001h.013l.014.001.013.002.013.003a.064.064 0 0 1 .013.004l.013.004.012.005.013.006.012.007a.073.073 0 0 1 .012.007.077.077 0 0 1 .012.008l.011.008.011.01a.692.692 0 0 1 .021.018l.01.01.01.01c.003.005.006.009.01.012l.008.012.008.012a.24.24 0 0 1 .008.012l.007.013.007.013a.208.208 0 0 1 .006.013l.006.014.005.013.004.015.004.013.002.015.003.014.001.015.001.015zm-1.509 0v-.5h-.916v.5h.178v-.015l.002-.014.002-.015.003-.015.004-.013.004-.014.005-.014.005-.014.006-.013c.002-.004.004-.01.007-.013l.007-.012.008-.013.008-.012.008-.012.01-.01.009-.011.01-.01.01-.01.011-.009.011-.009.011-.008.012-.008.012-.007.012-.006.012-.006a.068.068 0 0 1 .013-.005l.013-.004c.005 0 .008-.003.012-.004.005 0 .01-.002.013-.003.005 0 .01 0 .014-.002h.013l.013-.001h.014l.013.001.013.002.013.003a.064.064 0 0 1 .013.004l.013.004.012.005.013.006.012.007a.073.073 0 0 1 .012.007.077.077 0 0 1 .012.008l.011.008.011.01a.692.692 0 0 1 .01.008l.012.01.01.01c.003.004.006.008.01.01.002.005.005.009.008.012l.009.012.008.012.008.012.008.013.006.013.006.013.006.014.005.013.004.015.004.013.002.015.003.014.001.015v.015zm-1.509 0v-.5h-.916v.5h.178a.258.258 0 0 1 .002-.03l.002-.014.003-.015.004-.013.004-.014.005-.014.005-.014.006-.013.007-.013.007-.012.008-.013.008-.012.008-.012.01-.01c.003-.005.006-.008.01-.011l.01-.01a.681.681 0 0 1 .01-.01l.01-.009.011-.009a.07.07 0 0 1 .012-.008l.011-.008.012-.007.012-.006.012-.006a.068.068 0 0 1 .013-.005l.013-.004c.005 0 .008-.003.013-.004l.013-.003c.004 0 .009 0 .013-.002h.013l.013-.001h.014l.013.001.013.002.013.003a.064.064 0 0 1 .013.004l.013.004.012.005.013.006.012.007a.073.073 0 0 1 .012.007.076.076 0 0 1 .012.008l.011.008.012.01.01.008.01.01.01.01.01.01a.239.239 0 0 0 .01.012c.003.004.006.007.008.012l.009.012a.24.24 0 0 1 .008.012l.007.013.006.013c.003.004.004.009.006.013l.006.014.005.013.004.015.004.013.003.015.002.014.001.015v.015zm-1.509 0v-.5h-.916v.5h.178v-.015l.002-.014.002-.015.003-.015.004-.013.004-.014.005-.014.005-.014.006-.013c.002-.004.004-.01.007-.013l.007-.012.008-.013.008-.012a.332.332 0 0 1 .009-.012l.009-.01c.003-.005.006-.008.01-.011l.01-.01a.681.681 0 0 1 .01-.01l.01-.009.011-.009a.07.07 0 0 1 .012-.008l.011-.008.012-.007.012-.006.012-.006a.068.068 0 0 1 .013-.005l.012-.004c.004 0 .009-.003.013-.004.005 0 .009-.002.013-.003.005 0 .01 0 .014-.002h.013l.013-.001h.014l.012.001.014.002.013.003a.064.064 0 0 1 .013.004l.013.004.012.005.012.006.013.007a.073.073 0 0 1 .012.007.076.076 0 0 1 .012.008l.011.008.011.01a.692.692 0 0 1 .022.018l.01.01c.003.004.006.008.01.01a.239.239 0 0 0 .008.012l.01.012.008.012a.24.24 0 0 1 .007.012l.008.013.006.013a.208.208 0 0 1 .006.013l.006.014.005.013.004.015.004.013.003.015.002.014.001.015v.015zm-1.509 0v-.5h-.916v.5h.178v-.015l.002-.014.002-.015.003-.015.004-.013.004-.014.005-.014.005-.014.006-.013c.003-.004.004-.01.007-.013l.007-.012.008-.013.008-.012a.332.332 0 0 1 .009-.012l.009-.01c.003-.005.006-.008.01-.011l.01-.01.01-.01.01-.009.011-.009a.07.07 0 0 1 .012-.008l.01-.008.013-.007.012-.006.013-.006.012-.005.012-.004c.004 0 .009-.003.013-.004.005 0 .01-.002.014-.003.004 0 .008 0 .013-.002h.013l.013-.001h.014l.012.001.014.002.013.003a.064.064 0 0 1 .013.004l.013.004.012.005.013.006.012.007a.073.073 0 0 1 .012.007.077.077 0 0 1 .012.008l.011.008.011.01a.692.692 0 0 1 .022.018l.01.01c.003.004.006.008.01.01a.239.239 0 0 0 .008.012l.01.012.008.012a.24.24 0 0 1 .007.012l.008.013.006.013a.208.208 0 0 1 .006.013l.006.014.005.013.004.015.004.013.003.015.002.014.001.015v.015zm-1.509 0v-.5h-.916v.5h.178l.001-.015.001-.014c0-.006.002-.01.003-.015l.002-.015.004-.013.004-.014.005-.014.005-.014.006-.013c.003-.004.004-.01.007-.013l.007-.012.008-.013.008-.012a.332.332 0 0 1 .009-.012l.009-.01c.003-.005.006-.008.01-.011l.01-.01.01-.01.01-.009.011-.009a.07.07 0 0 1 .012-.008l.01-.008.013-.007.012-.006.013-.006.012-.005.013-.004c.004 0 .008-.003.012-.004l.014-.003c.004 0 .008 0 .013-.002h.013l.013-.001h.013l.014.001.013.002.013.003a.064.064 0 0 1 .013.004l.013.004.013.005.012.006.012.007a.073.073 0 0 1 .012.007.077.077 0 0 1 .012.008l.011.008.011.01a.692.692 0 0 1 .022.018l.01.01c.003.004.006.008.01.01a.239.239 0 0 0 .008.012l.01.012.008.012a.24.24 0 0 1 .007.012l.008.013.006.013a.208.208 0 0 1 .006.013l.006.014.005.013.004.015.004.013.003.015.002.014.001.015v.015zm-1.509 0v-.5h-.916v.5h.178l.001-.015.001-.014c0-.006.002-.01.003-.015l.002-.015.004-.013.004-.014.005-.014a.17.17 0 0 1 .005-.014l.007-.013.006-.013.007-.012.008-.013.008-.012a.332.332 0 0 1 .009-.012l.009-.01c.003-.005.006-.008.01-.011l.01-.01.01-.01.01-.009.011-.009a.07.07 0 0 1 .012-.008l.011-.008.012-.007.012-.006.013-.006a.06.06 0 0 1 .012-.005l.013-.004c.004 0 .009-.003.013-.004l.013-.003c.004 0 .008 0 .013-.002h.013l.013-.001h.014l.013.001.013.002.013.003a.064.064 0 0 1 .013.004l.013.004.013.005.012.006.012.007.012.007.012.008.011.008.011.01a.692.692 0 0 1 .022.018l.01.01c.003.004.006.008.01.01a.239.239 0 0 0 .009.012l.008.012.009.012a.24.24 0 0 1 .007.012l.008.013.006.013a.208.208 0 0 1 .007.013l.005.014.005.013.004.015.004.013.003.015.002.014.001.015v.015zm-1.509 0v-.5h-.916v.5h.178l.001-.015.001-.014c0-.006.002-.01.003-.015l.002-.015.004-.013.004-.014.005-.014a.17.17 0 0 1 .005-.014l.007-.013.006-.013.007-.012.008-.013.008-.012a.332.332 0 0 1 .009-.012l.009-.01c.003-.005.006-.008.01-.011l.01-.01.01-.01.01-.009.011-.009a.07.07 0 0 1 .012-.008l.011-.008.012-.007.012-.006.013-.006.012-.005.013-.004c.004 0 .009-.003.013-.004l.013-.003c.004 0 .008 0 .013-.002h.013l.013-.001h.014l.013.001.013.002.013.003.013.004.013.004.013.005.012.006.012.007.012.007.012.008.011.008.011.01a.692.692 0 0 1 .022.018l.01.01c.003.004.006.008.01.01a.239.239 0 0 0 .009.012l.008.012.009.012a.24.24 0 0 1 .007.012l.008.013.006.013a.208.208 0 0 1 .007.013l.005.014.005.013.004.015.004.013.003.015.002.014.001.015v.015zm-1.509 0v-.5h-.916v.5h.178l.001-.015.002-.014c0-.006 0-.01.002-.015l.002-.015.004-.013.004-.014.005-.014a.139.139 0 0 1 .005-.014l.007-.013.006-.013.007-.012.008-.013.008-.012a.332.332 0 0 1 .009-.012l.01-.01c.002-.005.005-.008.008-.011l.01-.01a.681.681 0 0 1 .01-.01l.011-.009.011-.009a.07.07 0 0 1 .012-.008l.011-.008.012-.007.012-.006.013-.006.012-.005.013-.004c.004 0 .009-.003.013-.004l.013-.003c.004 0 .008 0 .013-.002h.013l.013-.001h.013l.014.001.013.002.013.003a.064.064 0 0 1 .013.004l.013.004.013.005.012.006.012.007a.073.073 0 0 1 .012.007l.012.008.011.008.011.01a.692.692 0 0 1 .022.018l.01.01c.003.004.006.008.01.01a.239.239 0 0 0 .008.012l.01.012.008.012a.24.24 0 0 1 .007.012l.008.013.006.013a.208.208 0 0 1 .006.013l.006.014.005.013.004.015.004.013.003.015.002.014.001.015v.015zm-1.508 0v-.5h-.916v.5h.178a.258.258 0 0 1 .002-.03l.002-.014.002-.015.004-.013.004-.014.005-.014a.17.17 0 0 1 .006-.014l.006-.013.006-.013.008-.012.007-.013.008-.012a.332.332 0 0 1 .01-.012l.008-.01c.003-.005.006-.008.01-.011l.01-.01.01-.01.01-.009.011-.009a.07.07 0 0 1 .012-.008l.012-.008.012-.007.012-.006.012-.006.012-.005.013-.004c.005 0 .009-.003.013-.004l.013-.003c.004 0 .009 0 .013-.002h.013l.014-.001h.013l.013.001.013.002.014.003a.064.064 0 0 1 .013.004l.012.004.013.005.012.006.013.007a.073.073 0 0 1 .012.007.077.077 0 0 1 .011.008l.012.008.01.01a.692.692 0 0 1 .022.018l.01.01c.003.004.006.008.01.01a.239.239 0 0 0 .009.012l.009.012.008.012a.24.24 0 0 1 .008.012l.007.013.007.013a.208.208 0 0 1 .006.013l.005.014.005.013.005.015.003.013.003.015.002.014.002.015v.015z" fill="#1a1a1a"/>
        <path d="M92.129 77.638h-9.516c-.14 0-.388.016-.456.131a.433.433 0 0 0-.058.221v22.36c0 .195.117.351.261.351h15.254c.144 0 .26-.156.26-.351V81.78a.253.253 0 0 0-.253-.253H92.7a.272.272 0 0 1-.271-.272V77.94a.3.3 0 0 0-.301-.3z" fill="#999" stroke="#fff" stroke-width=".17779999999999999"/>
        <path d="M96.454 76.918V71.42H91.94v2.813h-2.425V71.42h-2.358v2.813h-2.493V71.42h-2.089v4.54m11.656-4.54v5.498" fill="none" stroke="#4d4d4d" stroke-width=".586"/>
        <g fill="#e6e6e6">
            <text transform="scale(.94679 1.0562)" x="87.431" y="85.027" font-family="Arial" font-size="1.145" font-weight="bold" stroke-width=".061"><tspan font-size="1.681" style="font-variant-caps:normal;font-variant-east-asian:normal;font-variant-ligatures:normal;font-variant-numeric:normal">ESP32-S2-WROOM</tspan></text>
            <text transform="scale(.94679 1.0562)" x="93.855" y="80.473" font-family="Arial" font-size=".901" font-weight="bold" stroke-width=".048"><tspan font-size="1.322" style="font-variant-caps:normal;font-variant-east-asian:normal;font-variant-ligatures:normal;font-variant-numeric:normal">ESPRESSIF</tspan></text>
            <path transform="matrix(.03497 0 0 -.03497 84.696 85.424)" d="M0 0a7.655 7.655 0 0 0-15.31 0 7.654 7.654 0 0 0 7.655 7.653A7.652 7.652 0 0 0 0 0" clip-path="url(#a)"/>
            <path transform="matrix(.03497 0 0 -.03497 87.033 85.145)" d="M0 0c-4.905 34.796-32.499 62.392-67.297 67.295a49.833 49.833 0 0 1-11.102-8.019v-7.405c34.723 0 62.974-28.251 62.974-62.975h7.406A49.931 49.931 0 0 1 0 0" clip-path="url(#b)"/>
            <path transform="matrix(.03497 0 0 -.03497 87.234 84.333)" d="M0 0c0 27.51-22.302 49.811-49.813 49.811a50.83 50.83 0 0 1-5.131-.284l-1.136-3.27c24.488-8.554 43.896-27.973 52.476-52.45l3.327 1.164C-.112-3.375 0-1.701 0 0" clip-path="url(#c)"/>
            <path transform="matrix(.03497 0 0 -.03497 85.512 86.401)" d="M0 0c-15.816 0-30.687 6.159-41.872 17.342-11.183 11.185-17.342 26.054-17.342 41.871 0 15.816 6.159 30.685 17.342 41.87l3.164-3.164C-49.045 87.58-54.742 73.834-54.742 59.213c0-14.62 5.697-28.368 16.034-38.706C-28.37 10.166-14.622 4.473 0 4.473s28.367 5.693 38.705 16.034l3.164-3.165C30.686 6.159 15.815 0 0 0" clip-path="url(#d)"/>
            <path transform="matrix(.03497 0 0 -.03497 85.489 85.652)" d="M0 0c1.222 12.362-4.279 23.871-13.523 30.88a34.115 34.115 0 0 1-17.326 6.784c-1.698.179-2.937 1.684-2.773 3.369.196 1.848 1.722 2.944 3.385 2.774 7.066-.722 13.537-3.192 19.009-6.994C.522 28.687 7.649 14.597 6.128-.611A40.556 40.556 0 0 0 4.77-7.608l8.988-2.535a49.477 49.477 0 0 1 7.787 2.926c.642 3.446 1 6.994 1 10.633 0 28.491-21.068 52.14-48.443 56.194-3.282.47-6.613.509-9.061-.107a19.37 19.37 0 0 1-9.793-5.99 19.3 19.3 0 0 1-4.837-12.807c0-8.657 5.669-15.992 13.504-18.477 1.469-.468 3.753-.67 4.878-.878h.046c8.558-1.477 15.103-8.959 15.103-17.935 0-3.611-1.072-6.969-2.895-9.802l6.232-3.987a50.12 50.12 0 0 1 9.276-1.556A34.459 34.459 0 0 1 0 0" clip-path="url(#e)"/>
        </g>
        <g fill="#fff39d" stroke="#1a1a1a" stroke-linecap="round" stroke-linejoin="round" stroke-miterlimit="3.7" stroke-width=".025">
            <path d="M80.906 77.773v.197a.292.261 0 0 1 .285.26.292.261 0 0 1-.285.261v.198h.5v-.916zM80.906 79.282v.197a.292.261 0 0 1 .285.26.292.261 0 0 1-.285.261v.198h.5v-.916zM80.906 80.791v.197a.292.261 0 0 1 .285.26.292.261 0 0 1-.285.261v.198h.5v-.916zM80.906 82.3v.197a.292.261 0 0 1 .285.26.292.261 0 0 1-.285.261v.198h.5V82.3zM80.906 83.809v.197a.292.261 0 0 1 .285.26.292.261 0 0 1-.285.261v.198h.5v-.916zM80.906 85.318v.197a.292.261 0 0 1 .285.26.292.261 0 0 1-.285.261v.198h.5v-.916zM80.906 86.826v.197a.292.261 0 0 1 .285.26.292.261 0 0 1-.285.261v.198h.5v-.916zM80.906 88.335v.197a.292.261 0 0 1 .285.26.292.261 0 0 1-.285.261v.198h.5v-.916zM80.906 89.844v.197a.292.261 0 0 1 .285.26.292.261 0 0 1-.285.261v.198h.5v-.916zM80.906 91.353v.197a.292.261 0 0 1 .285.26.292.261 0 0 1-.285.261v.198h.5v-.916zM80.906 92.862v.197a.292.261 0 0 1 .285.26.292.261 0 0 1-.285.261v.198h.5v-.916zM80.906 94.371v.197a.292.261 0 0 1 .285.26.292.261 0 0 1-.285.261v.198h.5v-.916zM80.906 95.88v.197a.292.261 0 0 1 .285.26.292.261 0 0 1-.285.261v.198h.5v-.916zM80.906 97.389v.197a.292.261 0 0 1 .285.26.292.261 0 0 1-.285.261v.198h.5v-.916zM80.906 98.898v.197a.292.261 0 0 1 .285.26.292.261 0 0 1-.285.261v.198h.5v-.916zM80.906 100.41v.197a.292.261 0 0 1 .285.26.292.261 0 0 1-.285.261v.198h.5v-.916zM99.093 77.773v.197a.292.261 0 0 0-.285.26.292.261 0 0 0 .285.261v.198h-.5v-.916zM99.093 79.282v.197a.292.261 0 0 0-.285.26.292.261 0 0 0 .285.261v.198h-.5v-.916zM99.093 80.791v.197a.292.261 0 0 0-.285.26.292.261 0 0 0 .285.261v.198h-.5v-.916zM99.093 82.3v.197a.292.261 0 0 0-.285.26.292.261 0 0 0 .285.261v.198h-.5V82.3zM99.093 83.809v.197a.292.261 0 0 0-.285.26.292.261 0 0 0 .285.261v.198h-.5v-.916zM99.093 85.318v.197a.292.261 0 0 0-.285.26.292.261 0 0 0 .285.261v.198h-.5v-.916zM99.093 86.826v.197a.292.261 0 0 0-.285.26.292.261 0 0 0 .285.261v.198h-.5v-.916zM99.093 88.335v.197a.292.261 0 0 0-.285.26.292.261 0 0 0 .285.261v.198h-.5v-.916zM99.093 89.844v.197a.292.261 0 0 0-.285.26.292.261 0 0 0 .285.261v.198h-.5v-.916zM99.093 91.353v.197a.292.261 0 0 0-.285.26.292.261 0 0 0 .285.261v.198h-.5v-.916zM99.093 92.862v.197a.292.261 0 0 0-.285.26.292.261 0 0 0 .285.261v.198h-.5v-.916zM99.093 94.371v.197a.292.261 0 0 0-.285.26.292.261 0 0 0 .285.261v.198h-.5v-.916zM99.093 95.88v.197a.292.261 0 0 0-.285.26.292.261 0 0 0 .285.261v.198h-.5v-.916zM99.093 97.389v.197a.292.261 0 0 0-.285.26.292.261 0 0 0 .285.261v.198h-.5v-.916zM99.093 98.898v.197a.292.261 0 0 0-.285.26.292.261 0 0 0 .285.261v.198h-.5v-.916zM99.093 100.41v.197a.292.261 0 0 0-.285.26.292.261 0 0 0 .285.261v.198h-.5v-.916zM82.751 101.9h.197a.261.292 0 0 1 .26-.285.261.292 0 0 1 .261.285h.198v-.5h-.916zM84.26 101.9h.197a.261.292 0 0 1 .26-.285.261.292 0 0 1 .261.285h.198v-.5h-.916zM85.769 101.9h.197a.261.292 0 0 1 .26-.285.261.292 0 0 1 .261.285h.198v-.5h-.916zM87.278 101.9h.197a.261.292 0 0 1 .26-.285.261.292 0 0 1 .261.285h.198v-.5h-.916zM88.787 101.9h.197a.261.292 0 0 1 .26-.285.261.292 0 0 1 .261.285h.198v-.5h-.916zM90.296 101.9h.197a.261.292 0 0 1 .26-.285.261.292 0 0 1 .261.285h.198v-.5h-.916zM91.805 101.9h.197a.261.292 0 0 1 .26-.285.261.292 0 0 1 .261.285h.198v-.5h-.916zM93.314 101.9h.197a.261.292 0 0 1 .26-.285.261.292 0 0 1 .261.285h.198v-.5h-.916zM94.823 101.9h.197a.261.292 0 0 1 .26-.285.261.292 0 0 1 .261.285h.198v-.5h-.916zM96.332 101.9h.197a.261.292 0 0 1 .26-.285.261.292 0 0 1 .261.285h.198v-.5h-.916z" style="paint-order:stroke fill markers"/>
        </g>
        <text x="99.302" y="78.906" fill="#fff" font-family="Arial" font-size="1.058" font-weight="bold" stroke-width=".353" style="font-variant-caps:normal;font-variant-east-asian:normal;font-variant-ligatures:normal;font-variant-numeric:normal">GND</text>
    </g>
</svg>
