<svg viewBox="21.4 22.1 32 32" xml:space="preserve" width="32" height="32" xmlns="http://www.w3.org/2000/svg">
    <path fill="#1476c6" d="M33.842 36.466c-1.943-2.512-4.637-4.714-7.698-6.246a3.29 3.29 0 0 0-1.521-.36c-1.192 0-2.273.601-2.842 1.6-.843 1.462-.238 3.302 1.32 4.077 4.71 2.374 7.754 6.881 8.12 12.111v-.017a3.01 3.01 0 0 1 .33-1.686c.037-.069.092-.155.147-.24a13.938 13.938 0 0 0 2.254-7.57c0-.568-.055-1.119-.11-1.67" style="stroke-width:.17758"/>
    <path fill="#47ae33" d="M52.502 30.788a31.307 31.307 0 0 0-2.511-6.778c-.587-1.153-1.852-1.91-3.208-1.91a3.55 3.55 0 0 0-1.521.327c-1.778.791-2.53 2.787-1.687 4.439 1.797 3.578 2.695 7.346 2.695 11.268 0 3.923-.898 7.69-2.658 11.2-.018.052-.33.671-.33 1.394 0 .206.018.499.092.774.238.946.88 1.807 1.943 2.271.476.207.99.327 1.521.327 1.301 0 2.493-.671 3.116-1.738.715-1.256 1.43-2.89 2.053-5.006.202-.637.367-1.239.513-1.875a31.65 31.65 0 0 0 .88-7.347 32.804 32.804 0 0 0-.898-7.346" style="stroke-width:.17758"/>
    <path fill="#ed114c" d="M37.49 27.296a1.56 1.56 0 0 0-.202-.276 3.004 3.004 0 0 0-.843-.722 3.524 3.524 0 0 0-1.833-.516c-.55 0-.825.069-1.21.206-.403.155-.824.361-1.21.74a3.256 3.256 0 0 0-.77 1.17c-.33.808-.274 1.858.276 2.718 1.173 1.772 1.87 3.802 2.126 5.884.073.55.11 1.118.11 1.669 0 2.684-.77 5.299-2.255 7.57-.055.086-.091.155-.146.24a2.944 2.944 0 0 0-.33 1.704c.092.963.66 1.875 1.613 2.426.238.137.513.24.77.326.311.087.641.138.971.138 1.192 0 2.273-.568 2.896-1.531a19.999 19.999 0 0 0 3.19-9.497 19.773 19.773 0 0 0-3.153-12.25" style="stroke-width:.17758"/>
    <path fill="#fbbf16" d="M43.594 49.334a24.558 24.558 0 0 0 2.676-11.2c0-1.342-.092-2.322-.165-2.959-2.328-3.492-5.7-6.623-9.66-8.894 0 0 .092.051.092.068.275.19.495.379.751.671.055.07.147.172.202.276a19.924 19.924 0 0 1 3.208 10.838c0 .465-.019.912-.055 1.36a20.449 20.449 0 0 1 2.602 10.03v1.084a3.33 3.33 0 0 1 .257-1.119c.055-.051.073-.103.092-.155" style="stroke-width:.17758"/>
</svg>
