<svg width="25.612" height="34.22" xmlns="http://www.w3.org/2000/svg">
    <defs>
        <clipPath id="a"/>
        <clipPath id="b"/>
        <clipPath id="c"/>
        <clipPath id="d"/>
        <clipPath id="e"/>
    </defs>
    <g transform="translate(-71.967 -77.788)">
        <path d="M72.752 107.07h1.298v2.469h-1.298z"/>
        <path class="Board" d="M76.482 77.788a4.524 4.524 0 0 0-4.516 4.516v21.766c0 .071.036.141.106.177l1.764.811c.07.035.106.106.106.177v6.067c.07.388.388.706.776.706h4.798a.228.228 0 0 0 .212-.212v-.846c0-.177.14-.283.282-.283h8.184c.177 0 .318.142.318.283v.81c0 .107.13.248.236.248h8.105c.388 0 .725-.353.725-.741V82.304a4.502 4.502 0 0 0-4.515-4.516zm-3.094 6.432a.723.723 0 0 1 .723.724.723.723 0 0 1-.723.723.723.723 0 0 1-.723-.723.723.723 0 0 1 .723-.724zm22.77 0a.723.723 0 0 1 .723.724.723.723 0 0 1-.724.723.723.723 0 0 1-.723-.723.723.723 0 0 1 .723-.724zm-22.77 2.546a.723.723 0 0 1 .723.723.723.723 0 0 1-.723.724.723.723 0 0 1-.723-.724.723.723 0 0 1 .723-.723zm22.77 0a.723.723 0 0 1 .723.723.723.723 0 0 1-.724.724.723.723 0 0 1-.723-.724.723.723 0 0 1 .723-.723zm-22.77 2.546a.723.723 0 0 1 .723.723.723.723 0 0 1-.723.723.723.723 0 0 1-.723-.723.723.723 0 0 1 .723-.723zm22.77 0a.723.723 0 0 1 .723.723.723.723 0 0 1-.724.723.723.723 0 0 1-.723-.723.723.723 0 0 1 .723-.723zm-22.77 2.545a.723.723 0 0 1 .723.723.723.723 0 0 1-.723.724.723.723 0 0 1-.723-.724.723.723 0 0 1 .723-.723zm22.77 0a.723.723 0 0 1 .723.723.723.723 0 0 1-.724.724.723.723 0 0 1-.723-.724.723.723 0 0 1 .723-.723zm-22.77 2.546a.723.723 0 0 1 .723.723.723.723 0 0 1-.723.724.723.723 0 0 1-.723-.724.723.723 0 0 1 .723-.723zm22.77 0a.723.723 0 0 1 .723.723.723.723 0 0 1-.724.724.723.723 0 0 1-.723-.724.723.723 0 0 1 .723-.723zm-22.77 2.546a.723.723 0 0 1 .723.723.723.723 0 0 1-.723.723.723.723 0 0 1-.723-.723.723.723 0 0 1 .723-.723zm22.77 0a.723.723 0 0 1 .723.723.723.723 0 0 1-.724.723.723.723 0 0 1-.723-.723.723.723 0 0 1 .723-.723zm-22.77 2.545a.723.723 0 0 1 .723.724.723.723 0 0 1-.723.723.723.723 0 0 1-.723-.723.723.723 0 0 1 .723-.724zm22.77 0a.723.723 0 0 1 .723.724.723.723 0 0 1-.724.723.723.723 0 0 1-.723-.723.723.723 0 0 1 .723-.724zm-22.77 2.546a.723.723 0 0 1 .723.723.723.723 0 0 1-.723.723.723.723 0 0 1-.723-.723.723.723 0 0 1 .723-.723zm22.77 0a.723.723 0 0 1 .723.723.723.723 0 0 1-.724.723.723.723 0 0 1-.723-.723.723.723 0 0 1 .723-.723z" fill="#0d4c75"/>
        <path fill="#b3b3b3" d="m80.588 111.347-.233.381h-.133l.366-.55z"/>
        <path fill="#ccc" d="M80.588 111.347v.19l-.233.191.233-.381z"/>
        <path fill="#b3b3b3" d="m87.85 111.728-.233-.381v-.169l.366.55z"/>
        <path fill="#ccc" d="M87.617 111.537v-.19l.234.381z"/>
        <path fill="#e6e6e6" d="M80.588 110.67h7.028v.638h-7.028z"/>
        <path fill="#f2f2f2" d="M80.589 110.67v.638h.147l.046-.638z"/>
        <path fill="#b3b3b3" d="M80.933 111h6.34v.233h-6.34z"/>
        <path fill="#ccc" d="M80.933 111.19h6.34v.11h-6.34z"/>
        <g fill="none" stroke="#b4b4b4" stroke-width=".529">
            <circle class="pad-5v" cx="96.157" cy="102.76" r=".723"/>
            <circle class="pad-g" cx="96.157" cy="100.22" r=".723"/>
            <circle class="pad-d4" cx="96.157" cy="97.671" r=".723"/>
            <circle class="pad-d3" cx="96.157" cy="95.126" r=".723"/>
            <circle class="pad-d2" cx="96.157" cy="92.58" r=".723"/>
            <circle class="pad-d1" cx="96.157" cy="90.034" r=".723"/>
            <circle class="pad-rx" cx="96.157" cy="87.489" r=".723"/>
            <circle class="pad-tx" cx="96.157" cy="84.943" r=".723"/>
            <circle class="pad-5v" cx="73.388" cy="102.76" r=".723"/>
            <circle class="pad-g" cx="73.388" cy="100.22" r=".723"/>
            <circle class="pad-d4" cx="73.388" cy="97.671" r=".723"/>
            <circle class="pad-d3" cx="73.388" cy="95.126" r=".723"/>
            <circle class="pad-d2" cx="73.388" cy="92.58" r=".723"/>
            <circle class="pad-d1" cx="73.388" cy="90.034" r=".723"/>
            <circle class="pad-rx" cx="73.388" cy="87.489" r=".723"/>
            <circle class="pad-tx" cx="73.388" cy="84.943" r=".723"/>
        </g>
        <g stroke-width=".353">
            <circle class="pad" cx="74.789" cy="107.42" r=".529" fill="#b4b4b4"/>
            <circle class="pin" cx="74.789" cy="107.42" r=".265" fill="#333"/>
            <circle class="pad" cx="74.789" cy="109.18" r=".529" fill="#b4b4b4"/>
            <circle class="pin" cx="74.789" cy="109.18" r=".265" fill="#333"/>
        </g>
        <g fill="#b4b4b4" stroke-width=".353">
            <circle class="pad-a" cx="81.139" cy="109.18" r=".529"/>
            <circle class="pad-b" cx="81.139" cy="109.54" r=".529"/>
            <circle class="pad-c" cx="81.139" cy="109.36" r=".529"/>
        </g>
        <circle class="pin" cx="81.139" cy="109.36" r=".265" fill="#333"/>
        <g fill="#b4b4b4" stroke-width=".353">
            <circle class="pad-a" cx="87.136" cy="109.18" r=".529"/>
            <circle class="pad-b" cx="87.136" cy="109.54" r=".529"/>
            <circle class="pad-c" cx="87.136" cy="109.36" r=".529"/>
        </g>
        <circle class="pin" cx="87.136" cy="109.36" r=".265" fill="#333"/>
        <g fill="#b4b4b4" stroke-width=".353">
            <circle class="pad-a" cx="81.844" cy="106.01" r=".529"/>
            <circle class="pad-b" cx="82.197" cy="106.01" r=".529"/>
            <circle class="pad-c" cx="82.021" cy="106.01" r=".529"/>
        </g>
        <circle class="pin" cx="82.021" cy="106.01" r=".265" fill="#333"/>
        <g fill="#b4b4b4" stroke-width=".353">
            <circle class="pad-a" cx="86.431" cy="106.01" r=".529"/>
            <circle class="pad-b" cx="86.078" cy="106.01" r=".529"/>
            <circle class="pad-c" cx="86.254" cy="106.01" r=".529"/>
        </g>
        <circle class="pin" cx="86.254" cy="106.01" r=".265" fill="#333"/>
        <g fill="#fff" font-family="Arial" font-weight="bold">
            <g font-size="1.279" stroke-width=".426">
                <text x="74.584" y="87.941" style="font-variant-caps:normal;font-variant-east-asian:normal;font-variant-ligatures:normal;font-variant-numeric:normal">A0</text>
                <text x="74.491" y="90.486" style="font-variant-caps:normal;font-variant-east-asian:normal;font-variant-ligatures:normal;font-variant-numeric:normal">D0</text>
                <text x="74.491" y="93.03" style="font-variant-caps:normal;font-variant-east-asian:normal;font-variant-ligatures:normal;font-variant-numeric:normal">D5</text>
                <text x="74.491" y="95.578" style="font-variant-caps:normal;font-variant-east-asian:normal;font-variant-ligatures:normal;font-variant-numeric:normal">D6</text>
                <text x="74.491" y="98.129" style="font-variant-caps:normal;font-variant-east-asian:normal;font-variant-ligatures:normal;font-variant-numeric:normal">D7</text>
                <text x="74.491" y="100.669" style="font-variant-caps:normal;font-variant-east-asian:normal;font-variant-ligatures:normal;font-variant-numeric:normal">D8</text>
                <text x="93.467" y="90.494" style="font-variant-caps:normal;font-variant-east-asian:normal;font-variant-ligatures:normal;font-variant-numeric:normal">D1</text>
                <text x="93.324" y="93.04" style="font-variant-caps:normal;font-variant-east-asian:normal;font-variant-ligatures:normal;font-variant-numeric:normal">D2</text>
                <text x="93.314" y="95.578" style="font-variant-caps:normal;font-variant-east-asian:normal;font-variant-ligatures:normal;font-variant-numeric:normal">D3</text>
                <text x="93.289" y="98.131" style="font-variant-caps:normal;font-variant-east-asian:normal;font-variant-ligatures:normal;font-variant-numeric:normal">D4</text>
                <text x="93.977" y="100.675" style="font-variant-caps:normal;font-variant-east-asian:normal;font-variant-ligatures:normal;font-variant-numeric:normal">G</text>
                <text x="93.331" y="103.213" style="font-variant-caps:normal;font-variant-east-asian:normal;font-variant-ligatures:normal;font-variant-numeric:normal">5V</text>
                <text x="93.119" y="87.947" style="font-variant-caps:normal;font-variant-east-asian:normal;font-variant-ligatures:normal;font-variant-numeric:normal">RX</text>
                <text x="93.262" y="85.401" style="font-variant-caps:normal;font-variant-east-asian:normal;font-variant-ligatures:normal;font-variant-numeric:normal">TX</text>
                <text x="74.536" y="103.215" style="font-variant-caps:normal;font-variant-east-asian:normal;font-variant-ligatures:normal;font-variant-numeric:normal">3V3</text>
            </g>
            <text x="75.577" y="108.704" font-size="1.121" stroke-width=".374" style="font-variant-caps:normal;font-variant-east-asian:normal;font-variant-ligatures:normal;font-variant-numeric:normal">RESET</text>
            <text x="87.875" y="110.287" font-size="2.445" stroke-width=".815" style="font-variant-caps:normal;font-variant-east-asian:normal;font-variant-ligatures:normal;font-variant-numeric:normal">D1 mini</text>
        </g>
        <g fill="#fff" stroke-width=".306">
            <path class="wemos-logo-w" d="M86.182 104.36h.19c.075.102.135.227.053.345-.315.628-.51 1.343-.404 2.048.05.28.145.588.397.75.269.16.61.05.841-.129.13-.09.135-.26.19-.395.04-.143.261-.155.345-.047.085.16.111.359.254.484.207.199.568.254.795.057.211-.193.277-.494.29-.77a2.773 2.773 0 0 0-.373-1.482c-.109-.192-.284-.336-.391-.53-.037-.147.13-.285.267-.212.265.132.418.409.55.66.272.589.45 1.249.343 1.898-.083.462-.418.918-.91.983h-.325a1.219 1.219 0 0 1-.674-.406c-.22.194-.476.36-.772.406h-.235a1.004 1.004 0 0 1-.632-.309c-.29-.313-.391-.75-.422-1.166v-.415c.072-.51.202-1.012.401-1.487a.714.714 0 0 1 .222-.283z"/>
            <path class="wemos-logo-e" d="M90.275 106.63c-.435.182-.528.846-.18 1.153.274.214.657.168.965.063l.008-.283c-.263.131-.73.18-.806-.197.309-.012.618-.001.926-.005-.005-.19.002-.397-.117-.556-.172-.25-.533-.28-.796-.175zm.317.203c.157-.003.206.164.24.286-.189.005-.378.005-.568.001.052-.14.152-.313.328-.287z"/>
            <path class="wemos-logo-m" d="M91.475 106.09c.199-.002.397-.002.595-.002.168.44.34.878.49 1.323.16-.444.327-.884.497-1.323h.578v1.811c-.136 0-.272 0-.409-.003.004-.497.01-.995.01-1.492-.129.514-.354.997-.529 1.495h-.324c-.187-.497-.413-.983-.545-1.499.003.498.006.997.012 1.496-.124.002-.249.003-.374.003.002-.602.004-1.205-.001-1.808z"/>
            <path class="wemos-logo-o" d="M94.385 106.74c.364-.195.861.17.746.577-.088.41-.685.533-.934.2-.226-.239-.108-.66.188-.777z"/>
            <path class="wemos-logo-wifi-fan-3" d="M92.989 105.17c.356-.357.813-.622 1.317-.69.707-.112 1.438.171 1.93.682-.089.09-.175.182-.262.273a1.875 1.875 0 0 0-1.441-.59 1.91 1.91 0 0 0-1.28.597l-.264-.272z"/>
            <path class="wemos-logo-wifi-fan-2" d="M93.431 105.64a1.604 1.604 0 0 1 1.4-.51c.373.037.7.242.97.491-.098.1-.195.203-.29.307-.265-.27-.647-.431-1.028-.38-.293.025-.555.181-.764.383-.094-.098-.19-.195-.288-.291z"/>
            <path class="wemos-logo-wifi-fan-1" d="M93.892 106.12c.194-.173.433-.313.7-.313.281-.015.544.122.745.309a10.74 10.74 0 0 0-.28.297.61.61 0 0 0-.876.004c-.095-.1-.19-.2-.289-.297z"/>
            <path class="wemos-logo-s" d="M95.671 106.68c.236-.152.533-.11.794-.063 0 .099 0 .199.003.297-.196-.077-.431-.134-.61.017.172.243.578.177.68.486v.201c-.176.373-.679.355-1.015.252-.018-.102-.018-.206-.024-.308.176.063.367.142.557.088.084-.012.12-.062.103-.148-.174-.134-.426-.133-.58-.3-.122-.158-.084-.418.092-.522z"/>
        </g>
        <path d="M92.457 85.665v-7.878h-15.37v7.878a.288.288 0 1 1 0 .576v1.345a.288.288 0 1 1 0 .577v1.344a.288.288 0 1 1 0 .577v1.345a.288.288 0 1 1 0 .576v1.345a.288.288 0 1 1 0 .576v1.345a.288.288 0 1 1 0 .577v1.345a.288.288 0 1 1 0 .576v1.345a.288.288 0 1 1 0 .577v1.153h2.604c-.003-.017-.01-.031-.01-.048a.288.288 0 1 1 .576 0c0 .017-.007.032-.01.048h1.365c-.003-.017-.01-.031-.01-.048a.288.288 0 1 1 .576 0c0 .017-.006.032-.01.048h1.365c-.003-.017-.01-.031-.01-.048a.288.288 0 1 1 .576 0c0 .017-.006.032-.01.048h1.365c-.003-.017-.01-.031-.01-.048a.288.288 0 1 1 .577 0c0 .017-.007.032-.01.048h1.364c-.003-.017-.01-.031-.01-.048a.288.288 0 1 1 .577 0c0 .017-.007.032-.01.048h1.364c-.002-.017-.01-.031-.01-.048a.288.288 0 1 1 .577 0c0 .017-.007.032-.01.048h2.603V99.69a.288.288 0 0 1 0-.576v-1.346a.288.288 0 0 1 0-.576v-1.345a.288.288 0 0 1 0-.577v-1.345a.288.288 0 0 1 0-.576v-1.346a.288.288 0 0 1 0-.576v-1.345a.288.288 0 0 1 0-.577V88.16a.288.288 0 0 1 0-.576v-1.346a.287.287 0 1 1 .002-.573zM78.048 99.691a.288.288 0 1 1 0-.577.288.288 0 0 1 0 .577zm0-1.922a.288.288 0 1 1 0-.577.288.288 0 0 1 0 .577zm0-1.921a.288.288 0 1 1 0-.577.288.288 0 0 1 0 .577zm0-1.922a.288.288 0 1 1 0-.576.288.288 0 0 1 0 .576zm0-1.92a.288.288 0 1 1 0-.578.288.288 0 0 1 0 .577zm0-1.922a.288.288 0 1 1 0-.577.288.288 0 0 1 0 .577zm0-1.922a.288.288 0 1 1 0-.576.288.288 0 0 1 0 .576zm0-1.921a.288.288 0 1 1 0-.577.288.288 0 0 1 0 .577zm13.45 13.449a.288.288 0 1 1 0-.576.288.288 0 0 1 0 .576zm0-1.922a.288.288 0 1 1 0-.576.288.288 0 0 1 0 .576zm0-1.92a.288.288 0 1 1 0-.577.288.288 0 0 1 0 .576zm0-1.922a.288.288 0 1 1 0-.577.288.288 0 0 1 0 .577zm0-1.922a.288.288 0 1 1 0-.576.288.288 0 0 1 0 .576zm0-1.921a.288.288 0 1 1 0-.576.288.288 0 0 1 0 .576zm0-1.922a.288.288 0 1 1 0-.576.288.288 0 0 1 0 .576zm0-1.92a.288.288 0 1 1 0-.577.288.288 0 0 1 0 .576z"/>
        <g fill="#9a916c">
            <g stroke="#000" stroke-width=".013">
                <path class="pad1-rst" d="M77.087 85.391v.274a.288.288 0 1 1 0 .576v.274h1.518v-1.124zm.96.85a.288.288 0 1 1 0-.576.288.288 0 0 1 0 .576z"/>
                <path class="pad2-adc" d="M77.087 87.312v.274a.288.288 0 1 1 0 .576v.274h1.518v-1.124zm.96.85a.288.288 0 1 1 0-.576.288.288 0 0 1 0 .576z"/>
                <path class="pad3-en" d="M77.087 89.234v.274a.288.288 0 1 1 0 .576v.274h1.518v-1.124zm.96.85a.288.288 0 1 1 0-.576.288.288 0 0 1 0 .576z"/>
                <path class="pad4-gpio16" d="M77.087 91.155v.274a.288.288 0 1 1 0 .576v.274h1.518v-1.124zm.96.85a.288.288 0 1 1 0-.577.288.288 0 0 1 0 .577z"/>
                <path class="pad5-gpio14" d="M77.087 93.077v.274a.288.288 0 1 1 0 .576v.274h1.518v-1.124zm.96.85a.288.288 0 1 1 0-.577.288.288 0 0 1 0 .577z"/>
                <path class="pad6-gpio12" d="M77.087 94.998v.274a.288.288 0 1 1 0 .576v.274h1.518v-1.124zm.96.85a.288.288 0 1 1 0-.576.288.288 0 0 1 0 .576z"/>
                <path class="pad7-gpio13" d="M77.087 96.919v.274a.288.288 0 1 1 0 .576v.274h1.518V96.92zm.96.85a.288.288 0 1 1 0-.576.288.288 0 0 1 0 .576z"/>
                <path class="pad8-vcc" d="M77.087 98.84v.274a.288.288 0 1 1 0 .577v.274h1.518V98.84h-1.518zm.96.85a.288.288 0 1 1 0-.576.288.288 0 0 1 0 .577z"/>
                <path class="pad9-cso" d="M79.407 100.29v.557h.284c-.003-.016-.01-.031-.01-.048a.288.288 0 1 1 .576 0c0 .017-.006.032-.01.048h.284v-.557z"/>
                <path class="pad10-miso" d="M81.328 100.29v.557h.284c-.003-.016-.01-.031-.01-.048a.288.288 0 1 1 .576 0c0 .017-.006.032-.01.048h.284v-.557z"/>
                <path class="pad11-gpio9" d="M83.249 100.29v.557h.284c-.003-.016-.01-.031-.01-.048a.288.288 0 1 1 .576 0c0 .017-.006.032-.01.048h.284v-.557z"/>
                <path class="pad12-gpio10" d="M85.171 100.29v.557h.284c-.003-.016-.01-.031-.01-.048a.288.288 0 1 1 .576 0c0 .017-.006.032-.01.048h.284v-.557z"/>
                <path class="pad13-mosi" d="M87.092 100.29v.557h.284c-.003-.016-.01-.031-.01-.048a.288.288 0 1 1 .576 0c0 .017-.006.032-.01.048h.284v-.557z"/>
                <path class="pad14-sclk" d="M89.014 100.29v.557h.284c-.003-.016-.01-.031-.01-.048a.288.288 0 1 1 .577 0c0 .017-.007.032-.01.048h.284v-.557z"/>
                <path class="pad15-gnd" d="M92.17 99.402c0-.16.13-.288.288-.288v-.274H90.94v1.124h1.518v-.274a.288.288 0 0 1-.288-.288zm-.672.288a.288.288 0 1 1 0-.576.288.288 0 0 1 0 .576z"/>
                <path class="pad16-gpio15" d="M92.17 97.481c0-.16.13-.288.288-.288v-.274H90.94v1.124h1.518v-.274a.288.288 0 0 1-.288-.288zm-.672.288a.288.288 0 1 1 0-.576.288.288 0 0 1 0 .576z"/>
                <path class="pad17-gpio2" d="M92.17 95.56c0-.16.13-.288.288-.288v-.274H90.94v1.124h1.518v-.274a.288.288 0 0 1-.288-.288zm-.672.288a.288.288 0 1 1 0-.576.288.288 0 0 1 0 .576z"/>
                <path class="pad18-gpio0" d="M92.17 93.638c0-.16.13-.288.288-.288v-.274H90.94V94.2h1.518v-.274a.288.288 0 0 1-.288-.288zm-.672.288a.288.288 0 1 1 0-.576.288.288 0 0 1 0 .576z"/>
                <path class="pad19-gpio4" d="M92.17 91.717c0-.16.13-.288.288-.288v-.274H90.94v1.124h1.518v-.274a.288.288 0 0 1-.288-.288zm-.672.288a.288.288 0 1 1 0-.576.288.288 0 0 1 0 .576z"/>
                <path class="pad20-gpio5" d="M92.17 89.796c0-.16.13-.288.288-.288v-.274H90.94v1.124h1.518v-.274a.288.288 0 0 1-.288-.288zm-.672.288a.288.288 0 1 1 0-.576.288.288 0 0 1 0 .576z"/>
                <path class="pad21-rxd0" d="M92.17 87.875c0-.16.13-.288.288-.288v-.274H90.94v1.124h1.518v-.274a.288.288 0 0 1-.288-.288zm-.672.288a.288.288 0 1 1 0-.576.288.288 0 0 1 0 .576z"/>
                <path class="pad22-txd0" d="M92.17 85.953c0-.16.13-.288.288-.288v-.274H90.94v1.124h1.518v-.274a.288.288 0 0 1-.288-.288zm-.672.288a.288.288 0 1 1 0-.576.288.288 0 0 1 0 .576z"/>
            </g>
            <path d="M77.781 82.97v-4.488h4.83v2.61h1.979v-2.61h2.61v2.61h2v-2.61h2.563v4.488h-.414v-4.074h-1.735v2.61h-2.828v-2.61h-1.783v2.61h-2.806v-2.61h-1.734v4.073h-.414v-4.073H78.34v4.074z"/>
        </g>
        <path class="led-outer" d="M91.649 84.03c0-.102.082-.184.184-.184v-.14h-1.947v.14a.184.184 0 0 1 0 .368v.14h1.947v-.14a.184.184 0 0 1-.184-.184z" fill="#cdcccc"/>
        <path class="led-blue" fill="#00f" d="M90.211 83.705h1.298v.649h-1.298z"/>
        <circle transform="rotate(-90)" cx="-84.03" cy="90.86" r=".147" fill="#18157f"/>
        <path class="main" fill="#999" d="M78.977 85.184h11.591v14.641H78.977z"/>
        <path class="bottom-right" fill="#ccc" d="m90.643 85.089-.244.308v14.258H79.147v-.044l-.244.308.074.075H90.57l.169-.17v-14.64z"/>
        <path class="top-left" fill="#666" d="M79.147 99.61V85.354h11.252v.044l.244-.308-.074-.075H78.977l-.169.17v14.64l.095.095z"/>
        <text transform="rotate(90)" x="86.951" y="-82.1" fill="#fff" font-family="Arial" font-size="1.321" font-weight="bold" stroke-width=".44" style="font-variant-caps:normal;font-variant-east-asian:normal;font-variant-ligatures:normal;font-variant-numeric:normal">MODEL ESP8266</text>
        <rect transform="rotate(90)" x="91.813" y="-88.157" width="7.122" height="3.197" ry="1.111" fill="#fff"/>
        <g fill="#999" stroke-width=".284">
            <path d="M85.818 92.484c.035-.012 1.53-.355 1.547-.355.013 0 .017.052.017.214 0 .118-.005.214-.01.214-.017 0-.812.121-.847.13-.031.007-.032.008-.007.017.015.005.215.048.445.095l.42.086-.004.194-.004.193-.424.088a8.073 8.073 0 0 0-.433.096c-.01.01.001.013.458.08l.392.057v.212c0 .117-.004.212-.008.212-.01 0-1.499-.346-1.535-.357-.021-.006-.023-.028-.023-.206s.002-.2.023-.206l.451-.088c.235-.044.43-.084.434-.087.01-.01-.018-.017-.467-.104l-.435-.085-.003-.197c-.003-.15 0-.199.013-.203zM86.37 94.244h.57v.375H85.8v-.375zM87.087 94.355a.285.285 0 0 1 .057-.09c.084-.088.202-.074.273.033.03.047.037.072.037.139.001.308-.356.329-.376.021a.346.346 0 0 1 .01-.103zM85.304 94.917c.164.157.324.256.518.32.09.03.114.03.703.039.655.008.645.007.797.083.088.045.226.153.317.25.101.107.17.215.214.336l.031.087v.83c0 .914 0 .9-.085 1.085-.11.234-.374.45-.621.509-.125.03-1.162.029-1.276 0-.238-.062-.45-.231-.598-.478-.112-.188-.105-.07-.105-1.708v-1.453l.105.1zm1.067 2.943h.582v-.402h-1.165v.402zm-.335-1.593h.234v.843h.375v-.844h.362v.951h.388v-1.41l-.223.009c-.123.005-.481.009-.797.009h-.573v.441zm1.039 1.503c.04.144.216.203.314.106.115-.114.112-.309-.006-.408-.08-.068-.173-.065-.247.009-.069.069-.092.181-.061.293z"/>
        </g>
        <g fill="#fff">
            <path transform="matrix(0 .04272 .04272 0 85.425 87.718)" d="M0 0a7.655 7.655 0 0 0-15.31 0 7.654 7.654 0 0 0 7.655 7.653A7.652 7.652 0 0 0 0 0" clip-path="url(#a)"/>
            <path transform="matrix(0 .04272 .04272 0 85.765 90.574)" d="M0 0c-4.905 34.796-32.499 62.392-67.297 67.295a49.833 49.833 0 0 1-11.102-8.019v-7.405c34.723 0 62.974-28.251 62.974-62.975h7.406A49.931 49.931 0 0 1 0 0" clip-path="url(#b)"/>
            <path transform="matrix(0 .04272 .04272 0 86.758 90.82)" d="M0 0c0 27.51-22.302 49.811-49.813 49.811a50.83 50.83 0 0 1-5.131-.284l-1.136-3.27c24.488-8.554 43.896-27.973 52.476-52.45l3.327 1.164C-.112-3.375 0-1.701 0 0" clip-path="url(#c)"/>
            <path transform="matrix(0 .04272 .04272 0 84.231 88.716)" d="M0 0c-15.816 0-30.687 6.159-41.872 17.342-11.183 11.185-17.342 26.054-17.342 41.871 0 15.816 6.159 30.685 17.342 41.87l3.164-3.164C-49.045 87.58-54.742 73.834-54.742 59.213c0-14.62 5.697-28.368 16.034-38.706C-28.37 10.166-14.622 4.473 0 4.473s28.367 5.693 38.705 16.034l3.164-3.165C30.686 6.159 15.815 0 0 0" clip-path="url(#d)"/>
            <path transform="matrix(0 .04272 .04272 0 85.145 88.688)" d="M0 0c1.222 12.362-4.279 23.871-13.523 30.88a34.115 34.115 0 0 1-17.326 6.784c-1.698.179-2.937 1.684-2.773 3.369.196 1.848 1.722 2.944 3.385 2.774 7.066-.722 13.537-3.192 19.009-6.994C.522 28.687 7.649 14.597 6.128-.611A40.556 40.556 0 0 0 4.77-7.608l8.988-2.535a49.477 49.477 0 0 1 7.787 2.926c.642 3.446 1 6.994 1 10.633 0 28.491-21.068 52.14-48.443 56.194-3.282.47-6.613.509-9.061-.107a19.37 19.37 0 0 1-9.793-5.99 19.3 19.3 0 0 1-4.837-12.807c0-8.657 5.669-15.992 13.504-18.477 1.469-.468 3.753-.67 4.878-.878h.046c8.558-1.477 15.103-8.959 15.103-17.935 0-3.611-1.072-6.969-2.895-9.802l6.232-3.987a50.12 50.12 0 0 1 9.276-1.556A34.459 34.459 0 0 1 0 0" clip-path="url(#e)"/>
        </g>
        <text x="74.49" y="85.401" fill="#fff" font-family="Arial" font-size="1.279" font-weight="bold" stroke-width=".426" style="font-variant-caps:normal;font-variant-east-asian:normal;font-variant-ligatures:normal;font-variant-numeric:normal">RST</text>
    </g>
</svg>
