<svg width="25.674" height="64.186" xmlns="http://www.w3.org/2000/svg">
    <defs>
        <clipPath id="a"/>
        <clipPath id="b"/>
        <clipPath id="c"/>
        <clipPath id="d"/>
        <clipPath id="e"/>
    </defs>
    <g transform="translate(-78.052 -78.317)">
        <path d="M78.557 84.449c-.28 0-.505.204-.505.457v56.544c0 .252.226.457.505.457h24.663c.279 0 .505-.205.505-.457V84.906c0-.253-.226-.457-.505-.457zm.778 1.048a.723.723 0 0 1 .724.723.723.723 0 0 1-.724.723.723.723 0 0 1-.723-.723.723.723 0 0 1 .723-.723zm23.107 0a.723.723 0 0 1 .723.723.723.723 0 0 1-.723.723.723.723 0 0 1-.723-.723.723.723 0 0 1 .723-.723zm-23.107 2.567a.723.723 0 0 1 .724.723.723.723 0 0 1-.724.724.723.723 0 0 1-.723-.724.723.723 0 0 1 .723-.723zm23.107 0a.723.723 0 0 1 .723.723.723.723 0 0 1-.723.724.723.723 0 0 1-.723-.724.723.723 0 0 1 .723-.723zm-23.107 2.568a.723.723 0 0 1 .724.723.723.723 0 0 1-.724.723.723.723 0 0 1-.723-.723.723.723 0 0 1 .723-.723zm23.107 0a.723.723 0 0 1 .723.723.723.723 0 0 1-.723.723.723.723 0 0 1-.723-.723.723.723 0 0 1 .723-.723zm-23.107 2.567a.723.723 0 0 1 .724.723.723.723 0 0 1-.724.723.723.723 0 0 1-.723-.723.723.723 0 0 1 .723-.723zm23.107 0a.723.723 0 0 1 .723.723.723.723 0 0 1-.723.723.723.723 0 0 1-.723-.723.723.723 0 0 1 .723-.723zm-23.107 2.568a.723.723 0 0 1 .724.723.723.723 0 0 1-.724.723.723.723 0 0 1-.723-.723.723.723 0 0 1 .723-.723zm23.107 0a.723.723 0 0 1 .723.723.723.723 0 0 1-.723.723.723.723 0 0 1-.723-.723.723.723 0 0 1 .723-.723zm-23.107 2.567a.723.723 0 0 1 .724.723.723.723 0 0 1-.724.723.723.723 0 0 1-.723-.723.723.723 0 0 1 .723-.723zm23.107 0a.723.723 0 0 1 .723.723.723.723 0 0 1-.723.723.723.723 0 0 1-.723-.723.723.723 0 0 1 .723-.723zm-23.107 2.567a.723.723 0 0 1 .724.723.723.723 0 0 1-.724.724.723.723 0 0 1-.723-.724.723.723 0 0 1 .723-.723zm23.107 0a.723.723 0 0 1 .723.723.723.723 0 0 1-.723.724.723.723 0 0 1-.723-.724.723.723 0 0 1 .723-.723zm-23.107 2.568a.723.723 0 0 1 .724.723.723.723 0 0 1-.724.723.723.723 0 0 1-.723-.723.723.723 0 0 1 .723-.723zm23.107 0a.723.723 0 0 1 .723.723.723.723 0 0 1-.723.723.723.723 0 0 1-.723-.723.723.723 0 0 1 .723-.723zm-23.107 2.567a.723.723 0 0 1 .724.723.723.723 0 0 1-.724.723.723.723 0 0 1-.723-.723.723.723 0 0 1 .723-.723zm23.107 0a.723.723 0 0 1 .723.723.723.723 0 0 1-.723.723.723.723 0 0 1-.723-.723.723.723 0 0 1 .723-.723zm-23.107 2.568a.723.723 0 0 1 .724.723.723.723 0 0 1-.724.723.723.723 0 0 1-.723-.723.723.723 0 0 1 .723-.723zm23.107 0a.723.723 0 0 1 .723.723.723.723 0 0 1-.723.723.723.723 0 0 1-.723-.723.723.723 0 0 1 .723-.723zm-23.107 2.567a.723.723 0 0 1 .724.723.723.723 0 0 1-.724.723.723.723 0 0 1-.723-.723.723.723 0 0 1 .723-.723zm23.107 0a.723.723 0 0 1 .723.723.723.723 0 0 1-.723.723.723.723 0 0 1-.723-.723.723.723 0 0 1 .723-.723zm-23.107 2.567a.723.723 0 0 1 .724.723.723.723 0 0 1-.724.724.723.723 0 0 1-.723-.724.723.723 0 0 1 .723-.723zm23.107 0a.723.723 0 0 1 .723.723.723.723 0 0 1-.723.724.723.723 0 0 1-.723-.724.723.723 0 0 1 .723-.723zm-23.107 2.568a.723.723 0 0 1 .724.723.723.723 0 0 1-.724.723.723.723 0 0 1-.723-.723.723.723 0 0 1 .723-.723zm23.107 0a.723.723 0 0 1 .723.723.723.723 0 0 1-.723.723.723.723 0 0 1-.723-.723.723.723 0 0 1 .723-.723zm-23.107 2.567a.723.723 0 0 1 .724.723.723.723 0 0 1-.724.723.723.723 0 0 1-.723-.723.723.723 0 0 1 .723-.723zm23.107 0a.723.723 0 0 1 .723.723.723.723 0 0 1-.723.723.723.723 0 0 1-.723-.723.723.723 0 0 1 .723-.723zm-23.107 2.568a.723.723 0 0 1 .724.723.723.723 0 0 1-.724.723.723.723 0 0 1-.723-.723.723.723 0 0 1 .723-.723zm23.107 0a.723.723 0 0 1 .723.723.723.723 0 0 1-.723.723.723.723 0 0 1-.723-.723.723.723 0 0 1 .723-.723zm-23.107 2.567a.723.723 0 0 1 .724.723.723.723 0 0 1-.724.723.723.723 0 0 1-.723-.723.723.723 0 0 1 .723-.723zm23.107 0a.723.723 0 0 1 .723.723.723.723 0 0 1-.723.723.723.723 0 0 1-.723-.723.723.723 0 0 1 .723-.723zm-23.107 2.567a.723.723 0 0 1 .724.723.723.723 0 0 1-.724.724.723.723 0 0 1-.723-.724.723.723 0 0 1 .723-.723zm23.107 0a.723.723 0 0 1 .723.723.723.723 0 0 1-.723.724.723.723 0 0 1-.723-.724.723.723 0 0 1 .723-.723zm-23.107 2.568a.723.723 0 0 1 .724.723.723.723 0 0 1-.724.723.723.723 0 0 1-.723-.723.723.723 0 0 1 .723-.723zm23.107 0a.723.723 0 0 1 .723.723.723.723 0 0 1-.723.723.723.723 0 0 1-.723-.723.723.723 0 0 1 .723-.723zm-23.107 2.567a.723.723 0 0 1 .724.723.723.723 0 0 1-.724.723.723.723 0 0 1-.723-.723.723.723 0 0 1 .723-.723zm23.107 0a.723.723 0 0 1 .723.723.723.723 0 0 1-.723.723.723.723 0 0 1-.723-.723.723.723 0 0 1 .723-.723zm-23.107 2.568a.723.723 0 0 1 .724.723.723.723 0 0 1-.724.723.723.723 0 0 1-.723-.723.723.723 0 0 1 .723-.723zm23.107 0a.723.723 0 0 1 .723.723.723.723 0 0 1-.723.723.723.723 0 0 1-.723-.723.723.723 0 0 1 .723-.723zm-23.107 2.567a.723.723 0 0 1 .724.723.723.723 0 0 1-.724.723.723.723 0 0 1-.723-.723.723.723 0 0 1 .723-.723zm23.107 0a.723.723 0 0 1 .723.723.723.723 0 0 1-.723.723.723.723 0 0 1-.723-.723.723.723 0 0 1 .723-.723zm-23.107 2.567a.723.723 0 0 1 .724.724.723.723 0 0 1-.724.723.723.723 0 0 1-.723-.723.723.723 0 0 1 .723-.724zm23.107 0a.723.723 0 0 1 .723.724.723.723 0 0 1-.723.723.723.723 0 0 1-.723-.723.723.723 0 0 1 .723-.724z" fill="#3c3c3c"/>
        <path fill="#c6c6c5" d="M82.491 118.82v-1.002H83v1.002z"/>
        <path fill="#b7a283" d="M82.491 118.62v-.609H83v.609z"/>
        <g stroke-width=".32">
            <path class="led-outer" d="M94.185 123.62c.12 0 .217.068.217.152h.166v-1.608h-.166c0 .084-.097.152-.217.152s-.217-.068-.217-.152h-.166v1.608h.166c0-.084.097-.152.217-.152z" fill="#cdcccc"/>
            <path class="led-blue" fill="#ff2000" d="M94.568 122.43v1.072h-.766v-1.072z"/>
            <path class="led-outer" d="M95.925 123.62c.12 0 .217.068.217.152h.166v-1.608h-.166c0 .084-.097.152-.217.152s-.217-.068-.217-.152h-.166v1.608h.166c0-.084.097-.152.217-.152z" fill="#cdcccc"/>
            <path class="led-blue" fill="#00f" d="M96.308 122.43v1.072h-.766v-1.072z"/>
            <path class="led-outer" d="M97.666 123.62c.12 0 .217.068.217.152h.166v-1.608h-.166c0 .084-.097.152-.217.152s-.217-.068-.217-.152h-.166v1.608h.166c0-.084.097-.152.217-.152z" fill="#cdcccc"/>
            <path class="led-blue" fill="#00cf1a" d="M98.049 122.43v1.072h-.766v-1.072z"/>
        </g>
        <g fill="none" stroke="#b4b4b4" stroke-width=".529">
            <circle class="pad-d2" cx="79.336" cy="86.22" r=".723"/>
            <circle class="pad-d2" cx="102.44" cy="86.22" r=".723"/>
            <circle class="pad-d2" cx="79.336" cy="140.13" r=".723"/>
            <circle class="pad-d2" cx="79.336" cy="88.787" r=".723"/>
            <circle class="pad-d2" cx="79.336" cy="91.355" r=".723"/>
            <circle class="pad-d2" cx="79.336" cy="93.922" r=".723"/>
            <circle class="pad-d2" cx="79.336" cy="96.489" r=".723"/>
            <circle class="pad-d2" cx="79.336" cy="99.057" r=".723"/>
            <circle class="pad-d2" cx="79.336" cy="101.62" r=".723"/>
            <circle class="pad-d2" cx="79.336" cy="104.19" r=".723"/>
            <circle class="pad-d2" cx="79.336" cy="106.76" r=".723"/>
            <circle class="pad-d2" cx="79.336" cy="109.33" r=".723"/>
            <circle class="pad-d2" cx="79.336" cy="111.89" r=".723"/>
            <circle class="pad-d2" cx="79.336" cy="114.46" r=".723"/>
            <circle class="pad-d2" cx="79.336" cy="117.03" r=".723"/>
            <circle class="pad-d2" cx="79.336" cy="119.6" r=".723"/>
            <circle class="pad-d2" cx="79.336" cy="122.16" r=".723"/>
            <circle class="pad-d2" cx="79.336" cy="124.73" r=".723"/>
            <circle class="pad-d2" cx="79.336" cy="127.3" r=".723"/>
            <circle class="pad-d2" cx="79.336" cy="129.87" r=".723"/>
            <circle class="pad-d2" cx="79.336" cy="132.43" r=".723"/>
            <circle class="pad-d2" cx="79.336" cy="135" r=".723"/>
            <circle class="pad-d2" cx="79.336" cy="137.57" r=".723"/>
            <circle class="pad-d2" cx="102.44" cy="140.13" r=".723"/>
            <circle class="pad-d2" cx="102.44" cy="88.787" r=".723"/>
            <circle class="pad-d2" cx="102.44" cy="91.355" r=".723"/>
            <circle class="pad-d2" cx="102.44" cy="93.922" r=".723"/>
            <circle class="pad-d2" cx="102.44" cy="96.489" r=".723"/>
            <circle class="pad-d2" cx="102.44" cy="99.057" r=".723"/>
            <circle class="pad-d2" cx="102.44" cy="101.62" r=".723"/>
            <circle class="pad-d2" cx="102.44" cy="104.19" r=".723"/>
            <circle class="pad-d2" cx="102.44" cy="106.76" r=".723"/>
            <circle class="pad-d2" cx="102.44" cy="109.33" r=".723"/>
            <circle class="pad-d2" cx="102.44" cy="111.89" r=".723"/>
            <circle class="pad-d2" cx="102.44" cy="114.46" r=".723"/>
            <circle class="pad-d2" cx="102.44" cy="117.03" r=".723"/>
            <circle class="pad-d2" cx="102.44" cy="119.6" r=".723"/>
            <circle class="pad-d2" cx="102.44" cy="122.16" r=".723"/>
            <circle class="pad-d2" cx="102.44" cy="124.73" r=".723"/>
            <circle class="pad-d2" cx="102.44" cy="127.3" r=".723"/>
            <circle class="pad-d2" cx="102.44" cy="129.87" r=".723"/>
            <circle class="pad-d2" cx="102.44" cy="132.43" r=".723"/>
            <circle class="pad-d2" cx="102.44" cy="135" r=".723"/>
            <circle class="pad-d2" cx="102.44" cy="137.57" r=".723"/>
        </g>
        <g fill="#ccc" stroke-width=".303">
            <path d="M83.353 135.84v.987h-.493v-.987zM84.04 135.84v.987h-.493v-.987zM84.898 135.84v.987h-.236v-.987zM85.756 135.84v.987h-.236v-.987zM86.185 135.84v.987h-.236v-.987zM87.043 135.84v.987h-.236v-.987zM88.845 135.84v.987h-.493v-.987zM88.159 135.84v.987h-.493v-.987zM87.472 135.84v.987h-.236v-.987zM86.614 135.84v.987h-.236v-.987zM85.327 135.84v.987h-.236v-.987zM84.469 135.84v.987h-.236v-.987z"/>
        </g>
        <circle transform="rotate(-90)" cx="-136.83" cy="82.146" r=".366" fill="none" stroke="#ccc" stroke-width=".218"/>
        <path d="M81.779 137.67v-1.685h.733v1.685h-.733m.366-.476a.366.366 0 1 0 0-.733.366.366 0 0 0 0 .733z" fill="#ccc"/>
        <circle transform="rotate(-90)" cx="-136.83" cy="89.56" r=".366" fill="none" stroke="#ccc" stroke-width=".218"/>
        <path d="M89.193 137.67v-1.685h.733v1.685h-.733m.366-.476a.366.366 0 1 0 0-.733.366.366 0 0 0 0 .733z" fill="#ccc"/>
        <circle transform="rotate(-90)" cx="-140.41" cy="82.146" r=".366" fill="none" stroke="#ccc" stroke-width=".218"/>
        <path d="M81.779 141.26v-1.685h.733v1.685h-.733m.366-.476a.366.366 0 1 0 0-.733.366.366 0 0 0 0 .733z" fill="#ccc"/>
        <circle transform="rotate(-90)" cx="-140.41" cy="89.56" r=".366" fill="none" stroke="#ccc" stroke-width=".218"/>
        <path d="M89.193 141.26v-1.685h.733v1.685h-.733m.366-.476a.366.366 0 1 0 0-.733.366.366 0 0 0 0 .733z" fill="#ccc"/>
        <g stroke-width=".303">
            <path fill="#dcdcdc" d="M89.688 136.2v6.307h-7.672V136.2z"/>
            <path d="M83.064 136.37h-.172v-.395h.172zm.258-.395h-.172v.395h.172zm.429 0h-.172v.395h.172zm.257 0h-.172v.395h.172zm.43 0h-.172v.395h.171zm.428 0h-.172v.395h.172zm.43 0h-.173v.395h.172zm.428 0h-.171v.395h.171zm.43 0h-.172v.395h.171zm.428 0h-.171v.395h.171zm.43 0h-.172v.395h.172zm.428 0h-.171v.395h.171zm.43 0h-.172v.395h.171zm.257 0h-.172v.395h.172zm.429 0h-.172v.395h.172zm.257 0h-.171v.395h.171z" fill="#dcdcdc"/>
            <path fill="#f0f0f0" d="M83.028 136.2v6.307h-.393V136.2z"/>
            <path fill="#bebebe" d="M89.069 136.2v6.307h-.393V136.2z"/>
        </g>
        <g fill="#8c8c8c" stroke-width=".303">
            <path d="M89.689 136.2v.605h-.086a.189.189 0 0 1-.189-.19v-.16a.189.189 0 0 0-.188-.189h-.857a.189.189 0 0 0-.19.189v.612a.189.189 0 0 1-.188.189h-1.033a.189.189 0 0 1-.19-.19v-.013c0-.105.085-.19.19-.19h.464a.189.189 0 0 0 .19-.188v-.22a.189.189 0 0 0-.19-.189h-3.139a.189.189 0 0 0-.189.189v.22c0 .104.085.189.19.189h.464c.104 0 .19.084.19.189v.014a.189.189 0 0 1-.19.189h-1.033a.189.189 0 0 1-.189-.19v-.611a.189.189 0 0 0-.189-.189h-.857a.189.189 0 0 0-.188.189v.161a.189.189 0 0 1-.19.19h-.085v-.606h7.672zM84.848 137.96v.431H83.8v-.431zM87.905 137.96v.431h-1.048v-.431z"/>
        </g>
        <g fill="#ccc" stroke-width=".303">
            <path d="M93.426 135.84v.987h-.493v-.987zM94.112 135.84v.987h-.493v-.987zM94.97 135.84v.987h-.236v-.987zM95.828 135.84v.987h-.236v-.987zM96.258 135.84v.987h-.236v-.987zM97.116 135.84v.987h-.236v-.987zM98.918 135.84v.987h-.493v-.987zM98.231 135.84v.987h-.493v-.987zM97.545 135.84v.987h-.236v-.987zM96.687 135.84v.987h-.236v-.987zM95.399 135.84v.987h-.236v-.987zM94.541 135.84v.987h-.236v-.987z"/>
        </g>
        <circle transform="rotate(-90)" cx="-136.83" cy="92.218" r=".366" fill="none" stroke="#ccc" stroke-width=".218"/>
        <path d="M91.852 137.67v-1.685h.733v1.685h-.733m.366-.476a.366.366 0 1 0 0-.733.366.366 0 0 0 0 .733z" fill="#ccc"/>
        <circle transform="rotate(-90)" cx="-136.83" cy="99.632" r=".366" fill="none" stroke="#ccc" stroke-width=".218"/>
        <path d="M99.266 137.67v-1.685h.733v1.685h-.733m.366-.476a.366.366 0 1 0 0-.733.366.366 0 0 0 0 .733z" fill="#ccc"/>
        <circle transform="rotate(-90)" cx="-140.41" cy="92.218" r=".366" fill="none" stroke="#ccc" stroke-width=".218"/>
        <path d="M91.852 141.26v-1.685h.733v1.685h-.733m.366-.476a.366.366 0 1 0 0-.733.366.366 0 0 0 0 .733z" fill="#ccc"/>
        <circle transform="rotate(-90)" cx="-140.41" cy="99.632" r=".366" fill="none" stroke="#ccc" stroke-width=".218"/>
        <path d="M99.266 141.26v-1.685h.733v1.685h-.733m.366-.476a.366.366 0 1 0 0-.733.366.366 0 0 0 0 .733z" fill="#ccc"/>
        <g stroke-width=".303">
            <path fill="#dcdcdc" d="M99.761 136.2v6.307h-7.672V136.2z"/>
            <path d="M93.136 136.37h-.172v-.395h.172zm.258-.395h-.172v.395h.172zm.429 0h-.172v.395h.172zm.257 0h-.172v.395h.172zm.43 0h-.172v.395h.171zm.428 0h-.172v.395h.172zm.43 0h-.173v.395h.172zm.428 0h-.171v.395h.171zm.43 0h-.172v.395h.171zm.428 0h-.171v.395h.171zm.43 0h-.172v.395h.172zm.428 0h-.171v.395h.171zm.43 0h-.172v.395h.171zm.257 0h-.172v.395h.172zm.429 0h-.172v.395h.172zm.257 0h-.171v.395h.171z" fill="#dcdcdc"/>
            <path fill="#f0f0f0" d="M93.101 136.2v6.307h-.393V136.2z"/>
            <path fill="#bebebe" d="M99.142 136.2v6.307h-.393V136.2z"/>
        </g>
        <g fill="#8c8c8c" stroke-width=".303">
            <path d="M99.761 136.2v.605h-.086a.189.189 0 0 1-.189-.19v-.16a.189.189 0 0 0-.188-.189h-.857a.189.189 0 0 0-.19.189v.612a.189.189 0 0 1-.188.189H97.03a.189.189 0 0 1-.19-.19v-.013c0-.105.085-.19.19-.19h.464a.189.189 0 0 0 .19-.188v-.22a.189.189 0 0 0-.19-.189h-3.139a.189.189 0 0 0-.189.189v.22c0 .104.085.189.19.189h.464c.104 0 .19.084.19.189v.014a.189.189 0 0 1-.19.189h-1.033a.189.189 0 0 1-.189-.19v-.611a.189.189 0 0 0-.189-.189h-.857a.189.189 0 0 0-.188.189v.161a.189.189 0 0 1-.19.19h-.085v-.606h7.672zM94.921 137.96v.431h-1.048v-.431zM97.978 137.96v.431H96.93v-.431z"/>
        </g>
        <g fill="#fff" font-family="Arial" font-size="1.058" font-weight="bold" stroke-width=".353">
            <text x="-141.31" y="81.271" style="font-variant-caps:normal;font-variant-east-asian:normal;font-variant-ligatures:normal;font-variant-numeric:normal" transform="rotate(-90)">GND</text>
            <text x="-141.31" y="101.273" style="font-variant-caps:normal;font-variant-east-asian:normal;font-variant-ligatures:normal;font-variant-numeric:normal" transform="rotate(-90)">GND</text>
            <text x="-138.742" y="101.273" style="font-variant-caps:normal;font-variant-east-asian:normal;font-variant-ligatures:normal;font-variant-numeric:normal" transform="rotate(-90)">GND</text>
            <text x="-138.238" y="81.258" style="font-variant-caps:normal;font-variant-east-asian:normal;font-variant-ligatures:normal;font-variant-numeric:normal" transform="rotate(-90)">5V</text>
            <text x="-87.395" y="101.273" style="font-variant-caps:normal;font-variant-east-asian:normal;font-variant-ligatures:normal;font-variant-numeric:normal" transform="rotate(-90)">GND</text>
            <text x="-87.158" y="81.261" style="font-variant-caps:normal;font-variant-east-asian:normal;font-variant-ligatures:normal;font-variant-numeric:normal" transform="rotate(-90)">3V3</text>
            <text x="-89.726" y="81.261" style="font-variant-caps:normal;font-variant-east-asian:normal;font-variant-ligatures:normal;font-variant-numeric:normal" transform="rotate(-90)">3V3</text>
            <text x="-92.128" y="101.286" style="font-variant-caps:normal;font-variant-east-asian:normal;font-variant-ligatures:normal;font-variant-numeric:normal" transform="rotate(-90)">RX</text>
            <text x="-89.474" y="101.286" style="font-variant-caps:normal;font-variant-east-asian:normal;font-variant-ligatures:normal;font-variant-numeric:normal" transform="rotate(-90)">TX</text>
            <text x="-96.77" y="101.286" style="font-variant-caps:normal;font-variant-east-asian:normal;font-variant-ligatures:normal;font-variant-numeric:normal" transform="rotate(-90)">2</text>
            <text x="-94.172" y="101.286" style="font-variant-caps:normal;font-variant-east-asian:normal;font-variant-ligatures:normal;font-variant-numeric:normal" transform="rotate(-90)">1</text>
            <text x="-135.619" y="81.261" style="font-variant-caps:normal;font-variant-east-asian:normal;font-variant-ligatures:normal;font-variant-numeric:normal" transform="rotate(-90)">14</text>
            <text x="-133.041" y="81.261" style="font-variant-caps:normal;font-variant-east-asian:normal;font-variant-ligatures:normal;font-variant-numeric:normal" transform="rotate(-90)">13</text>
            <text x="-130.469" y="81.261" style="font-variant-caps:normal;font-variant-east-asian:normal;font-variant-ligatures:normal;font-variant-numeric:normal" transform="rotate(-90)">12</text>
            <text x="-127.813" y="81.261" style="font-variant-caps:normal;font-variant-east-asian:normal;font-variant-ligatures:normal;font-variant-numeric:normal" transform="rotate(-90)">11</text>
            <text x="-125.335" y="81.261" style="font-variant-caps:normal;font-variant-east-asian:normal;font-variant-ligatures:normal;font-variant-numeric:normal" transform="rotate(-90)">10</text>
            <text x="-122.45" y="81.261" style="font-variant-caps:normal;font-variant-east-asian:normal;font-variant-ligatures:normal;font-variant-numeric:normal" transform="rotate(-90)">9</text>
            <text x="-114.753" y="81.261" style="font-variant-caps:normal;font-variant-east-asian:normal;font-variant-ligatures:normal;font-variant-numeric:normal" transform="rotate(-90)">8</text>
            <text x="-101.917" y="81.247" style="font-variant-caps:normal;font-variant-east-asian:normal;font-variant-ligatures:normal;font-variant-numeric:normal" transform="rotate(-90)">7</text>
            <text x="-99.355" y="81.261" style="font-variant-caps:normal;font-variant-east-asian:normal;font-variant-ligatures:normal;font-variant-numeric:normal" transform="rotate(-90)">6</text>
            <text x="-96.791" y="81.247" style="font-variant-caps:normal;font-variant-east-asian:normal;font-variant-ligatures:normal;font-variant-numeric:normal" transform="rotate(-90)">5</text>
            <text x="-94.214" y="81.261" style="font-variant-caps:normal;font-variant-east-asian:normal;font-variant-ligatures:normal;font-variant-numeric:normal" transform="rotate(-90)">4</text>
            <text x="-120.175" y="81.261" style="font-variant-caps:normal;font-variant-east-asian:normal;font-variant-ligatures:normal;font-variant-numeric:normal" transform="rotate(-90)">46</text>
            <text x="-117.32" y="81.261" style="font-variant-caps:normal;font-variant-east-asian:normal;font-variant-ligatures:normal;font-variant-numeric:normal" transform="rotate(-90)">3</text>
            <text x="-112.5" y="81.261" style="font-variant-caps:normal;font-variant-east-asian:normal;font-variant-ligatures:normal;font-variant-numeric:normal" transform="rotate(-90)">18</text>
            <text x="-109.933" y="81.261" style="font-variant-caps:normal;font-variant-east-asian:normal;font-variant-ligatures:normal;font-variant-numeric:normal" transform="rotate(-90)">17</text>
            <text x="-107.37" y="81.261" style="font-variant-caps:normal;font-variant-east-asian:normal;font-variant-ligatures:normal;font-variant-numeric:normal" transform="rotate(-90)">16</text>
            <text x="-104.806" y="81.261" style="font-variant-caps:normal;font-variant-east-asian:normal;font-variant-ligatures:normal;font-variant-numeric:normal" transform="rotate(-90)">15</text>
            <text x="-135.606" y="101.273" style="font-variant-caps:normal;font-variant-east-asian:normal;font-variant-ligatures:normal;font-variant-numeric:normal" transform="rotate(-90)">19</text>
            <text x="-133.008" y="101.273" style="font-variant-caps:normal;font-variant-east-asian:normal;font-variant-ligatures:normal;font-variant-numeric:normal" transform="rotate(-90)">20</text>
            <text x="-130.381" y="101.286" style="font-variant-caps:normal;font-variant-east-asian:normal;font-variant-ligatures:normal;font-variant-numeric:normal" transform="rotate(-90)">21</text>
            <text x="-119.886" y="101.273" style="font-variant-caps:normal;font-variant-east-asian:normal;font-variant-ligatures:normal;font-variant-numeric:normal" transform="rotate(-90)">0</text>
            <text x="-122.746" y="101.273" style="font-variant-caps:normal;font-variant-east-asian:normal;font-variant-ligatures:normal;font-variant-numeric:normal" transform="rotate(-90)">45</text>
            <text x="-125.305" y="101.273" style="font-variant-caps:normal;font-variant-east-asian:normal;font-variant-ligatures:normal;font-variant-numeric:normal" transform="rotate(-90)">48</text>
            <text x="-127.873" y="101.286" style="font-variant-caps:normal;font-variant-east-asian:normal;font-variant-ligatures:normal;font-variant-numeric:normal" transform="rotate(-90)">47</text>
            <text x="-117.621" y="101.273" style="font-variant-caps:normal;font-variant-east-asian:normal;font-variant-ligatures:normal;font-variant-numeric:normal" transform="rotate(-90)">35</text>
            <text x="-115.051" y="101.273" style="font-variant-caps:normal;font-variant-east-asian:normal;font-variant-ligatures:normal;font-variant-numeric:normal" transform="rotate(-90)">36</text>
            <text x="-112.479" y="101.273" style="font-variant-caps:normal;font-variant-east-asian:normal;font-variant-ligatures:normal;font-variant-numeric:normal" transform="rotate(-90)">37</text>
            <text x="-109.911" y="101.273" style="font-variant-caps:normal;font-variant-east-asian:normal;font-variant-ligatures:normal;font-variant-numeric:normal" transform="rotate(-90)">38</text>
            <text x="-107.343" y="101.273" style="font-variant-caps:normal;font-variant-east-asian:normal;font-variant-ligatures:normal;font-variant-numeric:normal" transform="rotate(-90)">39</text>
            <text x="-104.764" y="101.273" style="font-variant-caps:normal;font-variant-east-asian:normal;font-variant-ligatures:normal;font-variant-numeric:normal" transform="rotate(-90)">40</text>
            <text x="-102.136" y="101.286" style="font-variant-caps:normal;font-variant-east-asian:normal;font-variant-ligatures:normal;font-variant-numeric:normal" transform="rotate(-90)">41</text>
            <text x="-99.629" y="101.286" style="font-variant-caps:normal;font-variant-east-asian:normal;font-variant-ligatures:normal;font-variant-numeric:normal" transform="rotate(-90)">42</text>
            <text x="-92.441" y="81.271" style="font-variant-caps:normal;font-variant-east-asian:normal;font-variant-ligatures:normal;font-variant-numeric:normal" transform="rotate(-90)">RST</text>
        </g>
        <path fill="#ccc" d="M95.45 109.22h2.889v3.83H95.45z"/>
        <g fill="#333" stroke-width=".067">
            <path d="M95.45 109.22h.202v.538h-.202zM98.138 109.22h.202v.538h-.202zM95.45 112.51h.202v.538h-.202zM98.138 112.51h.202v.538h-.202zM96.189 109.22h.336v.202h-.336zM97.265 109.22h.336v.202h-.336z"/>
        </g>
        <path fill="#e6e6e6" d="M96.257 108.55h1.344v.672h-1.344zM96.257 113.05h1.344v.672h-1.344z"/>
        <circle cx="96.861" cy="111.17" r=".941" fill="#333" stroke="#1a1a1a" stroke-width=".076"/>
        <path d="M96.055 111.5c-.067-.134-.067-.202-.067-.336 0-.336.134-.605.403-.74" fill="none" stroke="#fff" stroke-width=".076"/>
        <path fill="#333" d="M96.189 112.91h.336v.202h-.336zM97.265 112.91h.336v.202h-.336z"/>
        <text x="95.339" y="108.211" fill="#fff" font-family="Arial" font-size="1.058" font-weight="bold" stroke-width=".067" style="font-variant-caps:normal;font-variant-east-asian:normal;font-variant-ligatures:normal;font-variant-numeric:normal">BOOT</text>
        <path fill="#ccc" d="M90.831 109.1h2.889v3.83h-2.889z"/>
        <g fill="#333" stroke-width=".067">
            <path d="M90.831 109.1h.202v.538h-.202zM93.519 109.1h.202v.538h-.202zM90.831 112.39h.202v.538h-.202zM93.519 112.39h.202v.538h-.202zM91.57 109.1h.336v.202h-.336zM92.645 109.1h.336v.202h-.336z"/>
        </g>
        <path fill="#e6e6e6" d="M91.637 108.43h1.344v.672h-1.344zM91.637 112.93h1.344v.672h-1.344z"/>
        <circle cx="92.242" cy="111.05" r=".941" fill="#333" stroke="#1a1a1a" stroke-width=".076"/>
        <path d="M91.436 111.39c-.067-.134-.067-.202-.067-.336 0-.336.134-.605.403-.74" fill="none" stroke="#fff" stroke-width=".076"/>
        <path fill="#333" d="M91.57 112.8h.336v.202h-.336zM92.645 112.8h.336v.202h-.336z"/>
        <text x="91.189" y="108.093" fill="#fff" font-family="Arial" font-size="1.058" font-weight="bold" stroke-width=".067" style="font-variant-caps:normal;font-variant-east-asian:normal;font-variant-ligatures:normal;font-variant-numeric:normal">RST</text>
        <g fill="#c6c6c5" stroke-width=".063">
            <path d="M93.477 130.49v.203h-.525v-.203zM93.477 129.99v.203h-.525v-.203zM93.477 129.49v.203h-.525v-.203zM93.477 128.99v.203h-.525v-.203zM93.477 128.49v.203h-.525v-.203zM93.477 127.99v.203h-.525v-.203zM93.477 130.99v.203h-.525v-.203zM98.899 130.49v.203h-.525v-.203zM98.899 129.99v.203h-.525v-.203zM98.899 129.49v.203h-.525v-.203zM98.899 128.99v.203h-.525v-.203zM98.899 128.49v.203h-.525v-.203zM98.899 127.99v.203h-.525v-.203zM98.899 130.99v.203h-.525v-.203zM95.028 127.14h-.203v-.525h.203zM95.528 127.14h-.203v-.525h.203zM96.028 127.14h-.203v-.525h.203zM96.528 127.14h-.203v-.525h.203zM97.028 127.14h-.203v-.525h.203zM97.528 127.14h-.203v-.525h.203zM94.528 127.14h-.203v-.525h.203zM95.028 132.57h-.203v-.525h.203zM95.528 132.57h-.203v-.525h.203zM96.028 132.57h-.203v-.525h.203zM96.528 132.57h-.203v-.525h.203zM97.028 132.57h-.203v-.525h.203zM97.528 132.57h-.203v-.525h.203zM94.528 132.57h-.203v-.525h.203z"/>
        </g>
        <path fill="#333" stroke="#000" stroke-width=".076" d="M93.44 127.11h4.973v4.973H93.44z"/>
        <circle cx="97.653" cy="127.87" r=".269" fill="#1a1a1a"/>
        <path fill="#ccc" d="M84.469 126.86v-4.204h.622v4.204zM86.614 126.86v-4.204h.622v4.204z"/>
        <path fill="#f2f2f2" d="M84.153 126.45v-3.373h3.399v3.373z"/>
        <g fill="#ccc">
            <path d="M85.542 125.11v-.703h.622v.703zM86.021 133.25h-.336v-.538h.336zM86.021 131.12h-.336v-.538h.336z"/>
        </g>
        <path fill="#1a1a1a" d="M86.39 132.73h-1.075v-1.613h1.075z"/>
        <path fill="#ccc" d="M88.303 133.25h-.336v-.538h.336zM88.303 131.12h-.336v-.538h.336z"/>
        <path fill="#1a1a1a" d="M88.672 132.73h-1.075v-1.613h1.075z"/>
        <path fill="#ccc" d="M83.739 133.25h-.336v-.538h.336zM83.739 131.12h-.336v-.538h.336z"/>
        <path fill="#1a1a1a" d="M84.108 132.73h-1.075v-1.613h1.075z"/>
        <path fill="#303030" d="M96.379 118.89v1.19h2.518v-1.19z"/>
        <path fill="#3d3e3d" d="m96.355 120.048-.067.134h2.755l-.134-.134z"/>
        <path d="M98.909 118.771h-2.621l.067.134h2.554l.134-.134z"/>
        <path fill="#1e1f1f" d="m98.909 120.048.134.134v-1.411l-.134.134zM96.355 120.048v-1.143l-.067-.134v1.411z"/>
        <g stroke-width=".031">
            <path fill="#bdbfc1" d="M96.576 120.17v.712h.304v-.712z"/>
            <path fill="#666766" d="M96.576 120.45v.203h.304v-.203z"/>
            <path fill="#bdbfc1" d="M97.502 118.8v-.712h.304v.712z"/>
            <path fill="#666766" d="M97.502 118.51v-.203h.304v.203z"/>
            <path fill="#bdbfc1" d="M98.473 120.17v.712h.304v-.712z"/>
            <path fill="#666766" d="M98.473 120.45v.203h.304v-.203z"/>
        </g>
        <path fill="#303030" d="M92.899 118.89v1.19h2.518v-1.19z"/>
        <path fill="#3d3e3d" d="m95.563 120.182-.134-.134h-2.554l-.067.134z"/>
        <path d="M95.429 118.771h-2.621l.067.134h2.554l.134-.134z"/>
        <path fill="#1e1f1f" d="m95.563 118.771-.134.134v1.143l.134.134zM92.808 118.771v1.411l.067-.134v-1.143z"/>
        <g stroke-width=".031">
            <path fill="#bdbfc1" d="M93.095 120.17v.712h.304v-.712z"/>
            <path fill="#666766" d="M93.095 120.45v.203h.304v-.203z"/>
            <path fill="#bdbfc1" d="M94.021 118.8v-.712h.304v.712z"/>
            <path fill="#666766" d="M94.021 118.51v-.203h.304v.203z"/>
            <path fill="#bdbfc1" d="M94.993 120.17v.712h.304v-.712z"/>
            <path fill="#666766" d="M94.993 120.45v.203h.304v-.203z"/>
        </g>
        <path fill="#303030" d="M87.139 118.91v-1.19h-2.518v1.19z"/>
        <path fill="#3d3e3d" d="M84.61 117.753h2.553l.067-.134h-2.755z"/>
        <path d="M87.163 118.896h-2.554l-.134.134h2.755z"/>
        <path fill="#1e1f1f" d="M84.61 118.896v-1.143l-.135-.134v1.411zM87.23 117.619l-.067.134v1.143l.067.134z"/>
        <g stroke-width=".031">
            <path fill="#bdbfc1" d="M86.943 117.64v-.712h-.304v.712z"/>
            <path fill="#666766" d="M86.943 117.35v-.203h-.304v.203z"/>
            <path fill="#bdbfc1" d="M86.017 119v.712h-.304V119z"/>
            <path fill="#666766" d="M86.017 119.29v.203h-.304v-.203z"/>
            <path fill="#bdbfc1" d="M85.045 117.64v-.712h-.304v.712z"/>
            <path fill="#666766" d="M85.045 117.35v-.203h-.304v.203z"/>
            <path fill="#bdbfc1" d="M84.741 119v.712h.304V119z"/>
            <path fill="#666766" d="M84.741 119.29v.203h.304v-.203z"/>
            <path fill="#bdbfc1" d="M86.638 119v.712h.304V119z"/>
            <path fill="#666766" d="M86.638 119.29v.203h.304v-.203z"/>
        </g>
        <path fill="#ccc" d="M86.864 109.25h1.261v3.543h-1.261z"/>
        <path fill="#f5b03b" d="M86.598 109.46h1.794v3.111h-1.794z"/>
        <path fill="#ccc" d="M83.58 109.25h1.261v3.543H83.58z"/>
        <path fill="#f5b03b" d="M83.314 109.46h1.794v3.111h-1.794z"/>
        <path d="M81.766 78.317v7.136h.49v.936h-.49v.347h.49v.937h-.49v.347h.49v.936h-.49v.347h.49v.936h-.49v.348h.49v.936h-.49v.347h.49v.936h-.49v.347h.49v.937h-.49v.346h.49v.937h-.49v.347h.49v.936h-.49v.347h.49v.937h-.49v.346h.49v.937h-.49v.347h.49v.936h-.49v.347h.49v.937h-.49v.346h.49v.937h-.49v1.074h1.597v-.49h.936v.49h.347v-.49h.936v.49h.348v-.49h.936v.49h.347v-.49h.936v.49h.347v-.49h.936v.49h.347v-.49h.937v.49h.347v-.49h.936v.49h.347v-.49h.937v.49h.346v-.49h.937v.49h.347v-.49h.936v.49h.347v-.49h.937v.49h.346v-.49h.937v.49h1.596v-1.074h-.49v-.937h.49v-.346h-.49v-.937h.49v-.347h-.49v-.936h.49v-.347h-.49v-.937h.49v-.346h-.49v-.937h.49v-.347h-.49v-.936h.49v-.347h-.49v-.937h.49v-.346h-.49v-.937h.49v-.347h-.49v-.936h.49v-.347h-.49v-.936h.49v-.348h-.49v-.936h.49v-.347h-.49v-.936h.49v-.347h-.49v-.937h.49v-.347h-.49v-.936h.49v-7.136zm18.246 7.136h-.49v.936h.49v-.072a.385.395 0 0 1-.055-.005.385.395 0 0 1-.054-.011.385.395 0 0 1-.051-.02.385.395 0 0 1-.048-.027.385.395 0 0 1-.044-.034.385.395 0 0 1-.04-.04.385.395 0 0 1-.032-.045.385.395 0 0 1-.026-.05.385.395 0 0 1-.02-.052.385.395 0 0 1-.011-.055.385.395 0 0 1-.004-.057.385.395 0 0 1 .004-.056.385.395 0 0 1 .011-.055.385.395 0 0 1 .02-.053.385.395 0 0 1 .026-.05.385.395 0 0 1 .033-.045.385.395 0 0 1 .039-.04.385.395 0 0 1 .044-.034.385.395 0 0 1 .048-.026.385.395 0 0 1 .051-.02.385.395 0 0 1 .054-.012.385.395 0 0 1 .055-.004zm0 1.283h-.49v.936h.49V87.6a.385.395 0 0 1-.055-.004.385.395 0 0 1-.054-.012.385.395 0 0 1-.051-.02.385.395 0 0 1-.048-.027.385.395 0 0 1-.044-.033.385.395 0 0 1-.04-.04.385.395 0 0 1-.032-.046.385.395 0 0 1-.026-.05.385.395 0 0 1-.02-.052.385.395 0 0 1-.011-.055.385.395 0 0 1-.004-.057.385.395 0 0 1 .004-.056.385.395 0 0 1 .011-.055.385.395 0 0 1 .02-.053.385.395 0 0 1 .026-.05.385.395 0 0 1 .033-.045.385.395 0 0 1 .039-.04.385.395 0 0 1 .044-.033.385.395 0 0 1 .048-.027.385.395 0 0 1 .051-.02.385.395 0 0 1 .054-.012.385.395 0 0 1 .055-.004zm0 1.284h-.49v.936h.49v-.073a.385.395 0 0 1-.055-.004.385.395 0 0 1-.054-.012.385.395 0 0 1-.051-.02.385.395 0 0 1-.048-.027.385.395 0 0 1-.044-.033.385.395 0 0 1-.04-.04.385.395 0 0 1-.032-.045.385.395 0 0 1-.026-.05.385.395 0 0 1-.02-.053.385.395 0 0 1-.011-.055.385.395 0 0 1-.004-.056.385.395 0 0 1 .004-.056.385.395 0 0 1 .011-.056.385.395 0 0 1 .02-.052.385.395 0 0 1 .026-.05.385.395 0 0 1 .033-.045.385.395 0 0 1 .039-.04.385.395 0 0 1 .044-.034.385.395 0 0 1 .048-.027.385.395 0 0 1 .051-.02.385.395 0 0 1 .054-.011.385.395 0 0 1 .055-.004zm0 1.283h-.49v.936h.49v-.073a.385.395 0 0 1-.055-.003.385.395 0 0 1-.054-.013.385.395 0 0 1-.051-.02.385.395 0 0 1-.048-.026.385.395 0 0 1-.044-.034.385.395 0 0 1-.04-.04.385.395 0 0 1-.032-.045.385.395 0 0 1-.026-.05.385.395 0 0 1-.02-.052.385.395 0 0 1-.011-.056.385.395 0 0 1-.004-.056.385.395 0 0 1 .004-.056.385.395 0 0 1 .011-.055.385.395 0 0 1 .02-.053.385.395 0 0 1 .026-.05.385.395 0 0 1 .033-.045.385.395 0 0 1 .039-.04.385.395 0 0 1 .044-.033.385.395 0 0 1 .048-.028.385.395 0 0 1 .051-.02.385.395 0 0 1 .054-.011.385.395 0 0 1 .055-.004zm0 1.283h-.49v.937h.49v-.073a.385.395 0 0 1-.055-.004.385.395 0 0 1-.054-.012.385.395 0 0 1-.051-.02.385.395 0 0 1-.048-.027.385.395 0 0 1-.044-.034.385.395 0 0 1-.04-.04.385.395 0 0 1-.032-.045.385.395 0 0 1-.026-.049.385.395 0 0 1-.02-.053.385.395 0 0 1-.011-.055.385.395 0 0 1-.004-.056.385.395 0 0 1 .004-.057.385.395 0 0 1 .011-.055.385.395 0 0 1 .02-.053.385.395 0 0 1 .026-.05.385.395 0 0 1 .033-.044.385.395 0 0 1 .039-.04.385.395 0 0 1 .044-.034.385.395 0 0 1 .048-.027.385.395 0 0 1 .051-.02.385.395 0 0 1 .054-.012.385.395 0 0 1 .055-.004zm0 1.284h-.49v.936h.49v-.073a.385.395 0 0 1-.055-.004.385.395 0 0 1-.054-.012.385.395 0 0 1-.051-.02.385.395 0 0 1-.048-.026.385.395 0 0 1-.044-.035.385.395 0 0 1-.04-.04.385.395 0 0 1-.032-.044.385.395 0 0 1-.026-.05.385.395 0 0 1-.02-.053.385.395 0 0 1-.011-.055.385.395 0 0 1-.004-.056.385.395 0 0 1 .004-.057.385.395 0 0 1 .011-.054.385.395 0 0 1 .02-.054.385.395 0 0 1 .026-.049.385.395 0 0 1 .033-.045.385.395 0 0 1 .039-.04.385.395 0 0 1 .044-.034.385.395 0 0 1 .048-.027.385.395 0 0 1 .051-.02.385.395 0 0 1 .054-.011.385.395 0 0 1 .055-.005zm0 1.283h-.49v.936h.49v-.072a.385.395 0 0 1-.055-.004.385.395 0 0 1-.054-.012.385.395 0 0 1-.051-.02.385.395 0 0 1-.048-.027.385.395 0 0 1-.044-.034.385.395 0 0 1-.04-.04.385.395 0 0 1-.032-.045.385.395 0 0 1-.026-.05.385.395 0 0 1-.02-.053.385.395 0 0 1-.011-.055.385.395 0 0 1-.004-.056.385.395 0 0 1 .004-.056.385.395 0 0 1 .011-.055.385.395 0 0 1 .02-.053.385.395 0 0 1 .026-.05.385.395 0 0 1 .033-.045.385.395 0 0 1 .039-.04.385.395 0 0 1 .044-.033.385.395 0 0 1 .048-.027.385.395 0 0 1 .051-.02.385.395 0 0 1 .054-.012.385.395 0 0 1 .055-.004zm0 1.283h-.49v.937h.49V95.3a.385.395 0 0 1-.055-.004.385.395 0 0 1-.054-.012.385.395 0 0 1-.051-.02.385.395 0 0 1-.048-.027.385.395 0 0 1-.044-.034.385.395 0 0 1-.04-.04.385.395 0 0 1-.032-.045.385.395 0 0 1-.026-.05.385.395 0 0 1-.02-.052.385.395 0 0 1-.011-.055.385.395 0 0 1-.004-.057.385.395 0 0 1 .004-.056.385.395 0 0 1 .011-.055.385.395 0 0 1 .02-.053.385.395 0 0 1 .026-.05.385.395 0 0 1 .033-.044.385.395 0 0 1 .039-.04.385.395 0 0 1 .044-.034.385.395 0 0 1 .048-.027.385.395 0 0 1 .051-.02.385.395 0 0 1 .054-.012.385.395 0 0 1 .055-.004zm0 1.283h-.49v.937h.49v-.073a.385.395 0 0 1-.055-.004.385.395 0 0 1-.054-.012.385.395 0 0 1-.051-.02.385.395 0 0 1-.048-.027.385.395 0 0 1-.044-.033.385.395 0 0 1-.04-.04.385.395 0 0 1-.032-.046.385.395 0 0 1-.026-.05.385.395 0 0 1-.02-.052.385.395 0 0 1-.011-.055.385.395 0 0 1-.004-.056.385.395 0 0 1 .004-.056.385.395 0 0 1 .011-.056.385.395 0 0 1 .02-.052.385.395 0 0 1 .026-.05.385.395 0 0 1 .033-.045.385.395 0 0 1 .039-.04.385.395 0 0 1 .044-.034.385.395 0 0 1 .048-.027.385.395 0 0 1 .051-.02.385.395 0 0 1 .054-.012.385.395 0 0 1 .055-.004zm0 1.284h-.49v.936h.49v-.073a.385.395 0 0 1-.055-.004.385.395 0 0 1-.054-.012.385.395 0 0 1-.051-.02.385.395 0 0 1-.048-.027.385.395 0 0 1-.044-.033.385.395 0 0 1-.04-.04.385.395 0 0 1-.032-.045.385.395 0 0 1-.026-.05.385.395 0 0 1-.02-.053.385.395 0 0 1-.011-.055.385.395 0 0 1-.004-.056.385.395 0 0 1 .004-.056.385.395 0 0 1 .011-.055.385.395 0 0 1 .02-.053.385.395 0 0 1 .026-.05.385.395 0 0 1 .033-.045.385.395 0 0 1 .039-.04.385.395 0 0 1 .044-.034.385.395 0 0 1 .048-.027.385.395 0 0 1 .051-.02.385.395 0 0 1 .054-.011.385.395 0 0 1 .055-.004zm0 1.283h-.49v.936h.49v-.072a.385.395 0 0 1-.055-.005.385.395 0 0 1-.054-.011.385.395 0 0 1-.051-.02.385.395 0 0 1-.048-.027.385.395 0 0 1-.044-.034.385.395 0 0 1-.04-.04.385.395 0 0 1-.032-.045.385.395 0 0 1-.026-.05.385.395 0 0 1-.02-.052.385.395 0 0 1-.011-.055.385.395 0 0 1-.004-.057.385.395 0 0 1 .004-.056.385.395 0 0 1 .011-.055.385.395 0 0 1 .02-.053.385.395 0 0 1 .026-.05.385.395 0 0 1 .033-.045.385.395 0 0 1 .039-.04.385.395 0 0 1 .044-.033.385.395 0 0 1 .048-.027.385.395 0 0 1 .051-.02.385.395 0 0 1 .054-.012.385.395 0 0 1 .055-.004zm0 1.284h-.49v.936h.49v-.073a.385.395 0 0 1-.055-.004.385.395 0 0 1-.054-.012.385.395 0 0 1-.051-.02.385.395 0 0 1-.048-.027.385.395 0 0 1-.044-.033.385.395 0 0 1-.04-.04.385.395 0 0 1-.032-.046.385.395 0 0 1-.026-.05.385.395 0 0 1-.02-.052.385.395 0 0 1-.011-.055.385.395 0 0 1-.004-.056.385.395 0 0 1 .004-.056.385.395 0 0 1 .011-.056.385.395 0 0 1 .02-.052.385.395 0 0 1 .026-.05.385.395 0 0 1 .033-.045.385.395 0 0 1 .039-.04.385.395 0 0 1 .044-.034.385.395 0 0 1 .048-.027.385.395 0 0 1 .051-.02.385.395 0 0 1 .054-.012.385.395 0 0 1 .055-.003zm0 1.283h-.49v.936h.49v-.073a.385.395 0 0 1-.055-.004.385.395 0 0 1-.054-.012.385.395 0 0 1-.051-.02.385.395 0 0 1-.048-.026.385.395 0 0 1-.044-.034.385.395 0 0 1-.04-.04.385.395 0 0 1-.032-.045.385.395 0 0 1-.026-.05.385.395 0 0 1-.02-.052.385.395 0 0 1-.011-.056.385.395 0 0 1-.004-.056.385.395 0 0 1 .004-.056.385.395 0 0 1 .011-.055.385.395 0 0 1 .02-.053.385.395 0 0 1 .026-.05.385.395 0 0 1 .033-.045.385.395 0 0 1 .039-.04.385.395 0 0 1 .044-.034.385.395 0 0 1 .048-.027.385.395 0 0 1 .051-.02.385.395 0 0 1 .054-.011.385.395 0 0 1 .055-.004zm0 1.283h-.49v.936h.49V103a.385.395 0 0 1-.055-.004.385.395 0 0 1-.054-.012.385.395 0 0 1-.051-.02.385.395 0 0 1-.048-.027.385.395 0 0 1-.044-.033.385.395 0 0 1-.04-.04.385.395 0 0 1-.032-.046.385.395 0 0 1-.026-.05.385.395 0 0 1-.02-.052.385.395 0 0 1-.011-.055.385.395 0 0 1-.004-.057.385.395 0 0 1 .004-.055.385.395 0 0 1 .011-.056.385.395 0 0 1 .02-.052.385.395 0 0 1 .026-.05.385.395 0 0 1 .033-.045.385.395 0 0 1 .039-.04.385.395 0 0 1 .044-.034.385.395 0 0 1 .048-.027.385.395 0 0 1 .051-.02.385.395 0 0 1 .054-.012.385.395 0 0 1 .055-.004zm-1.597 2.01v-.49h-.936v.49h.073a.395.385 0 0 1 .004-.054.395.385 0 0 1 .012-.054.395.385 0 0 1 .02-.052.395.385 0 0 1 .027-.048.395.385 0 0 1 .033-.044.395.385 0 0 1 .04-.04.395.385 0 0 1 .046-.032.395.385 0 0 1 .05-.026.395.385 0 0 1 .052-.02.395.385 0 0 1 .055-.011.395.385 0 0 1 .056-.004.395.385 0 0 1 .02 0 .395.385 0 0 1 .018.002.395.385 0 0 1 .018.003.395.385 0 0 1 .019.003.395.385 0 0 1 .019.004.395.385 0 0 1 .018.005.395.385 0 0 1 .018.006.395.385 0 0 1 .017.006.395.385 0 0 1 .017.007.395.385 0 0 1 .017.008.395.385 0 0 1 .017.009.395.385 0 0 1 .016.009.395.385 0 0 1 .015.01.395.385 0 0 1 .015.011.395.385 0 0 1 .015.012.395.385 0 0 1 .014.012.395.385 0 0 1 .013.013.395.385 0 0 1 .013.014.395.385 0 0 1 .012.014.395.385 0 0 1 .011.014.395.385 0 0 1 .01.016.395.385 0 0 1 .01.015.395.385 0 0 1 .01.016.395.385 0 0 1 .008.017.395.385 0 0 1 .007.017.395.385 0 0 1 .007.017.395.385 0 0 1 .005.017.395.385 0 0 1 .006.018.395.385 0 0 1 .004.018.395.385 0 0 1 .003.018.395.385 0 0 1 .002.018.395.385 0 0 1 .001.019.395.385 0 0 1 0 .018zm-1.283 0v-.49h-.936v.49h.073a.395.385 0 0 1 .004-.054.395.385 0 0 1 .012-.054.395.385 0 0 1 .02-.052.395.385 0 0 1 .026-.048.395.385 0 0 1 .034-.044.395.385 0 0 1 .04-.04.395.385 0 0 1 .045-.032.395.385 0 0 1 .05-.026.395.385 0 0 1 .052-.02.395.385 0 0 1 .056-.011.395.385 0 0 1 .056-.004.395.385 0 0 1 .018 0 .395.385 0 0 1 .02.002.395.385 0 0 1 .018.003.395.385 0 0 1 .019.003.395.385 0 0 1 .018.004.395.385 0 0 1 .018.005.395.385 0 0 1 .018.006.395.385 0 0 1 .018.006.395.385 0 0 1 .017.007.395.385 0 0 1 .017.008.395.385 0 0 1 .017.009.395.385 0 0 1 .016.009.395.385 0 0 1 .015.01.395.385 0 0 1 .015.011.395.385 0 0 1 .015.012.395.385 0 0 1 .014.012.395.385 0 0 1 .013.013.395.385 0 0 1 .013.014.395.385 0 0 1 .011.014.395.385 0 0 1 .012.014.395.385 0 0 1 .01.016.395.385 0 0 1 .01.015.395.385 0 0 1 .01.016.395.385 0 0 1 .008.017.395.385 0 0 1 .007.017.395.385 0 0 1 .006.017.395.385 0 0 1 .006.017.395.385 0 0 1 .005.018.395.385 0 0 1 .004.018.395.385 0 0 1 .003.018.395.385 0 0 1 .003.018.395.385 0 0 1 0 .019.395.385 0 0 1 .001.018zm-1.283 0v-.49h-.936v.49h.072a.395.385 0 0 1 .004-.054.395.385 0 0 1 .012-.054.395.385 0 0 1 .02-.052.395.385 0 0 1 .027-.048.395.385 0 0 1 .034-.044.395.385 0 0 1 .04-.04.395.385 0 0 1 .045-.032.395.385 0 0 1 .05-.026.395.385 0 0 1 .052-.02.395.385 0 0 1 .055-.011.395.385 0 0 1 .057-.004.395.385 0 0 1 .018 0 .395.385 0 0 1 .019.002.395.385 0 0 1 .019.003.395.385 0 0 1 .018.003.395.385 0 0 1 .019.004.395.385 0 0 1 .018.005.395.385 0 0 1 .018.006.395.385 0 0 1 .018.006.395.385 0 0 1 .017.007.395.385 0 0 1 .017.008.395.385 0 0 1 .016.009.395.385 0 0 1 .016.009.395.385 0 0 1 .016.01.395.385 0 0 1 .015.011.395.385 0 0 1 .015.012.395.385 0 0 1 .014.012.395.385 0 0 1 .013.013.395.385 0 0 1 .012.014.395.385 0 0 1 .012.014.395.385 0 0 1 .012.014.395.385 0 0 1 .01.016.395.385 0 0 1 .01.015.395.385 0 0 1 .01.016.395.385 0 0 1 .007.017.395.385 0 0 1 .008.017.395.385 0 0 1 .006.017.395.385 0 0 1 .006.017.395.385 0 0 1 .005.018.395.385 0 0 1 .004.018.395.385 0 0 1 .003.018.395.385 0 0 1 .002.018.395.385 0 0 1 .002.019.395.385 0 0 1 0 .018zm-1.284 0v-.49h-.936v.49h.073a.395.385 0 0 1 .004-.054.395.385 0 0 1 .012-.054.395.385 0 0 1 .02-.052.395.385 0 0 1 .027-.048.395.385 0 0 1 .033-.044.395.385 0 0 1 .04-.04.395.385 0 0 1 .045-.032.395.385 0 0 1 .05-.026.395.385 0 0 1 .053-.02.395.385 0 0 1 .055-.011.395.385 0 0 1 .056-.004.395.385 0 0 1 .02 0 .395.385 0 0 1 .018.002.395.385 0 0 1 .019.003.395.385 0 0 1 .018.003.395.385 0 0 1 .019.004.395.385 0 0 1 .018.005.395.385 0 0 1 .017.006.395.385 0 0 1 .018.006.395.385 0 0 1 .018.007.395.385 0 0 1 .017.008.395.385 0 0 1 .016.009.395.385 0 0 1 .016.009.395.385 0 0 1 .016.01.395.385 0 0 1 .015.011.395.385 0 0 1 .014.012.395.385 0 0 1 .014.012.395.385 0 0 1 .013.013.395.385 0 0 1 .013.014.395.385 0 0 1 .012.014.395.385 0 0 1 .011.014.395.385 0 0 1 .011.016.395.385 0 0 1 .01.015.395.385 0 0 1 .009.016.395.385 0 0 1 .008.017.395.385 0 0 1 .007.017.395.385 0 0 1 .007.017.395.385 0 0 1 .005.017.395.385 0 0 1 .006.018.395.385 0 0 1 .003.018.395.385 0 0 1 .003.018.395.385 0 0 1 .003.018.395.385 0 0 1 .001.019.395.385 0 0 1 0 .018zm-1.283 0v-.49h-.936v.49h.073a.395.385 0 0 1 .003-.054.395.385 0 0 1 .013-.054.395.385 0 0 1 .02-.052.395.385 0 0 1 .026-.048.395.385 0 0 1 .034-.044.395.385 0 0 1 .04-.04.395.385 0 0 1 .045-.032.395.385 0 0 1 .05-.026.395.385 0 0 1 .052-.02.395.385 0 0 1 .056-.011.395.385 0 0 1 .056-.004.395.385 0 0 1 .019 0 .395.385 0 0 1 .018.002.395.385 0 0 1 .02.003.395.385 0 0 1 .018.003.395.385 0 0 1 .018.004.395.385 0 0 1 .018.005.395.385 0 0 1 .018.006.395.385 0 0 1 .018.006.395.385 0 0 1 .017.007.395.385 0 0 1 .017.008.395.385 0 0 1 .017.009.395.385 0 0 1 .016.009.395.385 0 0 1 .015.01.395.385 0 0 1 .016.011.395.385 0 0 1 .014.012.395.385 0 0 1 .014.012.395.385 0 0 1 .013.013.395.385 0 0 1 .013.014.395.385 0 0 1 .012.014.395.385 0 0 1 .011.014.395.385 0 0 1 .01.016.395.385 0 0 1 .01.015.395.385 0 0 1 .01.016.395.385 0 0 1 .008.017.395.385 0 0 1 .007.017.395.385 0 0 1 .007.017.395.385 0 0 1 .005.017.395.385 0 0 1 .005.018.395.385 0 0 1 .004.018.395.385 0 0 1 .003.018.395.385 0 0 1 .002.018.395.385 0 0 1 .002.019.395.385 0 0 1 0 .018zm-1.283 0v-.49h-.937v.49h.073a.395.385 0 0 1 .004-.054.395.385 0 0 1 .012-.054.395.385 0 0 1 .02-.052.395.385 0 0 1 .027-.048.395.385 0 0 1 .034-.044.395.385 0 0 1 .04-.04.395.385 0 0 1 .045-.032.395.385 0 0 1 .05-.026.395.385 0 0 1 .052-.02.395.385 0 0 1 .055-.011.395.385 0 0 1 .056-.004.395.385 0 0 1 .02 0 .395.385 0 0 1 .018.002.395.385 0 0 1 .019.003.395.385 0 0 1 .018.003.395.385 0 0 1 .019.004.395.385 0 0 1 .018.005.395.385 0 0 1 .018.006.395.385 0 0 1 .018.006.395.385 0 0 1 .017.007.395.385 0 0 1 .017.008.395.385 0 0 1 .016.009.395.385 0 0 1 .016.009.395.385 0 0 1 .016.01.395.385 0 0 1 .015.011.395.385 0 0 1 .014.012.395.385 0 0 1 .014.012.395.385 0 0 1 .014.013.395.385 0 0 1 .012.014.395.385 0 0 1 .013.014.395.385 0 0 1 .01.014.395.385 0 0 1 .011.016.395.385 0 0 1 .01.015.395.385 0 0 1 .009.016.395.385 0 0 1 .008.017.395.385 0 0 1 .008.017.395.385 0 0 1 .006.017.395.385 0 0 1 .006.017.395.385 0 0 1 .005.018.395.385 0 0 1 .004.018.395.385 0 0 1 .003.018.395.385 0 0 1 .002.018.395.385 0 0 1 .001.019.395.385 0 0 1 0 .018zm-1.283 0v-.49h-.937v.49h.073a.395.385 0 0 1 .004-.054.395.385 0 0 1 .012-.054.395.385 0 0 1 .02-.052.395.385 0 0 1 .027-.048.395.385 0 0 1 .034-.044.395.385 0 0 1 .04-.04.395.385 0 0 1 .044-.032.395.385 0 0 1 .05-.026.395.385 0 0 1 .053-.02.395.385 0 0 1 .055-.011.395.385 0 0 1 .056-.004.395.385 0 0 1 .019 0 .395.385 0 0 1 .02.002.395.385 0 0 1 .018.003.395.385 0 0 1 .018.003.395.385 0 0 1 .018.004.395.385 0 0 1 .018.005.395.385 0 0 1 .019.006.395.385 0 0 1 .017.006.395.385 0 0 1 .018.007.395.385 0 0 1 .016.008.395.385 0 0 1 .017.009.395.385 0 0 1 .016.009.395.385 0 0 1 .016.01.395.385 0 0 1 .015.011.395.385 0 0 1 .014.012.395.385 0 0 1 .014.012.395.385 0 0 1 .014.013.395.385 0 0 1 .012.014.395.385 0 0 1 .012.014.395.385 0 0 1 .011.014.395.385 0 0 1 .01.016.395.385 0 0 1 .01.015.395.385 0 0 1 .01.016.395.385 0 0 1 .008.017.395.385 0 0 1 .007.017.395.385 0 0 1 .007.017.395.385 0 0 1 .006.017.395.385 0 0 1 .004.018.395.385 0 0 1 .004.018.395.385 0 0 1 .004.018.395.385 0 0 1 .002.018.395.385 0 0 1 .001.019.395.385 0 0 1 0 .018zm-1.284 0v-.49h-.936v.49h.072a.395.385 0 0 1 .005-.054.395.385 0 0 1 .011-.054.395.385 0 0 1 .02-.052.395.385 0 0 1 .027-.048.395.385 0 0 1 .034-.044.395.385 0 0 1 .04-.04.395.385 0 0 1 .045-.032.395.385 0 0 1 .05-.026.395.385 0 0 1 .053-.02.395.385 0 0 1 .055-.011.395.385 0 0 1 .056-.004.395.385 0 0 1 .019 0 .395.385 0 0 1 .018.002.395.385 0 0 1 .02.003.395.385 0 0 1 .018.003.395.385 0 0 1 .018.004.395.385 0 0 1 .018.005.395.385 0 0 1 .018.006.395.385 0 0 1 .018.006.395.385 0 0 1 .017.007.395.385 0 0 1 .017.008.395.385 0 0 1 .017.009.395.385 0 0 1 .016.009.395.385 0 0 1 .015.01.395.385 0 0 1 .015.011.395.385 0 0 1 .015.012.395.385 0 0 1 .014.012.395.385 0 0 1 .013.013.395.385 0 0 1 .013.014.395.385 0 0 1 .012.014.395.385 0 0 1 .011.014.395.385 0 0 1 .01.016.395.385 0 0 1 .01.015.395.385 0 0 1 .01.016.395.385 0 0 1 .007.017.395.385 0 0 1 .008.017.395.385 0 0 1 .006.017.395.385 0 0 1 .006.017.395.385 0 0 1 .005.018.395.385 0 0 1 .004.018.395.385 0 0 1 .004.018.395.385 0 0 1 .002.018.395.385 0 0 1 .001.019.395.385 0 0 1 0 .018zm-1.283 0v-.49h-.936v.49h.072a.395.385 0 0 1 .004-.054.395.385 0 0 1 .012-.054.395.385 0 0 1 .02-.052.395.385 0 0 1 .027-.048.395.385 0 0 1 .034-.044.395.385 0 0 1 .04-.04.395.385 0 0 1 .045-.032.395.385 0 0 1 .05-.026.395.385 0 0 1 .052-.02.395.385 0 0 1 .055-.011.395.385 0 0 1 .057-.004.395.385 0 0 1 .018 0 .395.385 0 0 1 .02.002.395.385 0 0 1 .018.003.395.385 0 0 1 .019.003.395.385 0 0 1 .018.004.395.385 0 0 1 .018.005.395.385 0 0 1 .018.006.395.385 0 0 1 .017.006.395.385 0 0 1 .018.007.395.385 0 0 1 .017.008.395.385 0 0 1 .017.009.395.385 0 0 1 .016.009.395.385 0 0 1 .015.01.395.385 0 0 1 .015.011.395.385 0 0 1 .015.012.395.385 0 0 1 .014.012.395.385 0 0 1 .013.013.395.385 0 0 1 .012.014.395.385 0 0 1 .012.014.395.385 0 0 1 .012.014.395.385 0 0 1 .01.016.395.385 0 0 1 .01.015.395.385 0 0 1 .01.016.395.385 0 0 1 .007.017.395.385 0 0 1 .008.017.395.385 0 0 1 .006.017.395.385 0 0 1 .006.017.395.385 0 0 1 .005.018.395.385 0 0 1 .004.018.395.385 0 0 1 .003.018.395.385 0 0 1 .002.018.395.385 0 0 1 .001.019.395.385 0 0 1 .001.018zm-1.283 0v-.49h-.937v.49h.073a.395.385 0 0 1 .004-.054.395.385 0 0 1 .012-.054.395.385 0 0 1 .02-.052.395.385 0 0 1 .027-.048.395.385 0 0 1 .033-.044.395.385 0 0 1 .04-.04.395.385 0 0 1 .046-.032.395.385 0 0 1 .05-.026.395.385 0 0 1 .052-.02.395.385 0 0 1 .055-.011.395.385 0 0 1 .057-.004.395.385 0 0 1 .018 0 .395.385 0 0 1 .019.002.395.385 0 0 1 .018.003.395.385 0 0 1 .019.003.395.385 0 0 1 .019.004.395.385 0 0 1 .018.005.395.385 0 0 1 .018.006.395.385 0 0 1 .017.006.395.385 0 0 1 .017.007.395.385 0 0 1 .017.008.395.385 0 0 1 .017.009.395.385 0 0 1 .016.009.395.385 0 0 1 .015.01.395.385 0 0 1 .016.011.395.385 0 0 1 .014.012.395.385 0 0 1 .014.012.395.385 0 0 1 .013.013.395.385 0 0 1 .013.014.395.385 0 0 1 .012.014.395.385 0 0 1 .012.014.395.385 0 0 1 .01.016.395.385 0 0 1 .01.015.395.385 0 0 1 .009.016.395.385 0 0 1 .008.017.395.385 0 0 1 .007.017.395.385 0 0 1 .007.017.395.385 0 0 1 .006.017.395.385 0 0 1 .005.018.395.385 0 0 1 .004.018.395.385 0 0 1 .003.018.395.385 0 0 1 .002.018.395.385 0 0 1 .001.019.395.385 0 0 1 0 .018zm-1.284 0v-.49h-.936v.49h.073a.395.385 0 0 1 .004-.054.395.385 0 0 1 .012-.054.395.385 0 0 1 .02-.052.395.385 0 0 1 .027-.048.395.385 0 0 1 .033-.044.395.385 0 0 1 .04-.04.395.385 0 0 1 .046-.032.395.385 0 0 1 .049-.026.395.385 0 0 1 .053-.02.395.385 0 0 1 .055-.011.395.385 0 0 1 .056-.004.395.385 0 0 1 .02 0 .395.385 0 0 1 .018.002.395.385 0 0 1 .018.003.395.385 0 0 1 .019.003.395.385 0 0 1 .019.004.395.385 0 0 1 .018.005.395.385 0 0 1 .017.006.395.385 0 0 1 .018.006.395.385 0 0 1 .017.007.395.385 0 0 1 .017.008.395.385 0 0 1 .017.009.395.385 0 0 1 .016.009.395.385 0 0 1 .015.01.395.385 0 0 1 .015.011.395.385 0 0 1 .015.012.395.385 0 0 1 .014.012.395.385 0 0 1 .013.013.395.385 0 0 1 .013.014.395.385 0 0 1 .012.014.395.385 0 0 1 .01.014.395.385 0 0 1 .012.016.395.385 0 0 1 .01.015.395.385 0 0 1 .008.016.395.385 0 0 1 .009.017.395.385 0 0 1 .007.017.395.385 0 0 1 .007.017.395.385 0 0 1 .005.017.395.385 0 0 1 .005.018.395.385 0 0 1 .004.018.395.385 0 0 1 .003.018.395.385 0 0 1 .003.018.395.385 0 0 1 0 .019.395.385 0 0 1 .001.018zm-1.283 0v-.49h-.936v.49h.073a.395.385 0 0 1 .004-.054.395.385 0 0 1 .012-.054.395.385 0 0 1 .02-.052.395.385 0 0 1 .026-.048.395.385 0 0 1 .034-.044.395.385 0 0 1 .04-.04.395.385 0 0 1 .045-.032.395.385 0 0 1 .05-.026.395.385 0 0 1 .052-.02.395.385 0 0 1 .056-.011.395.385 0 0 1 .056-.004.395.385 0 0 1 .018 0 .395.385 0 0 1 .02.002.395.385 0 0 1 .018.003.395.385 0 0 1 .019.003.395.385 0 0 1 .018.004.395.385 0 0 1 .018.005.395.385 0 0 1 .018.006.395.385 0 0 1 .018.006.395.385 0 0 1 .017.007.395.385 0 0 1 .017.008.395.385 0 0 1 .016.009.395.385 0 0 1 .016.009.395.385 0 0 1 .016.01.395.385 0 0 1 .015.011.395.385 0 0 1 .015.012.395.385 0 0 1 .014.012.395.385 0 0 1 .013.013.395.385 0 0 1 .013.014.395.385 0 0 1 .011.014.395.385 0 0 1 .012.014.395.385 0 0 1 .01.016.395.385 0 0 1 .01.015.395.385 0 0 1 .01.016.395.385 0 0 1 .008.017.395.385 0 0 1 .007.017.395.385 0 0 1 .006.017.395.385 0 0 1 .006.017.395.385 0 0 1 .005.018.395.385 0 0 1 .004.018.395.385 0 0 1 .003.018.395.385 0 0 1 .002.018.395.385 0 0 1 .002.019.395.385 0 0 1 0 .018zm-2.533-1.074h.49v-.936h-.49v.073a.385.395 0 0 1 .055.004.385.395 0 0 1 .053.012.385.395 0 0 1 .052.02.385.395 0 0 1 .048.027.385.395 0 0 1 .044.033.385.395 0 0 1 .04.04.385.395 0 0 1 .032.045.385.395 0 0 1 .027.05.385.395 0 0 1 .019.053.385.395 0 0 1 .011.055.385.395 0 0 1 .004.056.385.395 0 0 1-.004.056.385.395 0 0 1-.011.055.385.395 0 0 1-.02.053.385.395 0 0 1-.026.05.385.395 0 0 1-.033.045.385.395 0 0 1-.039.04.385.395 0 0 1-.044.034.385.395 0 0 1-.048.027.385.395 0 0 1-.052.02.385.395 0 0 1-.053.012.385.395 0 0 1-.055.004zm0-1.283h.49v-.936h-.49v.073a.385.395 0 0 1 .055.004.385.395 0 0 1 .053.011.385.395 0 0 1 .052.02.385.395 0 0 1 .048.027.385.395 0 0 1 .044.034.385.395 0 0 1 .04.04.385.395 0 0 1 .032.045.385.395 0 0 1 .027.05.385.395 0 0 1 .019.053.385.395 0 0 1 .011.054.385.395 0 0 1 .004.057.385.395 0 0 1-.004.056.385.395 0 0 1-.011.055.385.395 0 0 1-.02.053.385.395 0 0 1-.026.05.385.395 0 0 1-.033.045.385.395 0 0 1-.039.04.385.395 0 0 1-.044.034.385.395 0 0 1-.048.026.385.395 0 0 1-.052.02.385.395 0 0 1-.053.012.385.395 0 0 1-.055.004zm0-1.283h.49v-.936h-.49v.072a.385.395 0 0 1 .055.004.385.395 0 0 1 .053.012.385.395 0 0 1 .052.02.385.395 0 0 1 .048.027.385.395 0 0 1 .044.033.385.395 0 0 1 .04.04.385.395 0 0 1 .032.046.385.395 0 0 1 .027.05.385.395 0 0 1 .019.052.385.395 0 0 1 .011.055.385.395 0 0 1 .004.057.385.395 0 0 1-.004.056.385.395 0 0 1-.011.055.385.395 0 0 1-.02.052.385.395 0 0 1-.026.05.385.395 0 0 1-.033.046.385.395 0 0 1-.039.04.385.395 0 0 1-.044.033.385.395 0 0 1-.048.027.385.395 0 0 1-.052.02.385.395 0 0 1-.053.012.385.395 0 0 1-.055.004zm0-1.284h.49v-.936h-.49v.073a.385.395 0 0 1 .055.004.385.395 0 0 1 .053.012.385.395 0 0 1 .052.02.385.395 0 0 1 .048.027.385.395 0 0 1 .044.033.385.395 0 0 1 .04.04.385.395 0 0 1 .032.046.385.395 0 0 1 .027.049.385.395 0 0 1 .019.053.385.395 0 0 1 .011.055.385.395 0 0 1 .004.056.385.395 0 0 1-.004.056.385.395 0 0 1-.011.056.385.395 0 0 1-.02.052.385.395 0 0 1-.026.05.385.395 0 0 1-.033.045.385.395 0 0 1-.039.04.385.395 0 0 1-.044.034.385.395 0 0 1-.048.027.385.395 0 0 1-.052.02.385.395 0 0 1-.053.011.385.395 0 0 1-.055.004zm0-1.283h.49v-.936h-.49v.073a.385.395 0 0 1 .055.004.385.395 0 0 1 .053.012.385.395 0 0 1 .052.02.385.395 0 0 1 .048.026.385.395 0 0 1 .044.034.385.395 0 0 1 .04.04.385.395 0 0 1 .032.045.385.395 0 0 1 .027.05.385.395 0 0 1 .019.052.385.395 0 0 1 .011.056.385.395 0 0 1 .004.056.385.395 0 0 1-.004.056.385.395 0 0 1-.011.055.385.395 0 0 1-.02.053.385.395 0 0 1-.026.05.385.395 0 0 1-.033.045.385.395 0 0 1-.039.04.385.395 0 0 1-.044.033.385.395 0 0 1-.048.028.385.395 0 0 1-.052.02.385.395 0 0 1-.053.011.385.395 0 0 1-.055.004zm0-1.283h.49v-.937h-.49v.073a.385.395 0 0 1 .055.004.385.395 0 0 1 .053.012.385.395 0 0 1 .052.02.385.395 0 0 1 .048.027.385.395 0 0 1 .044.034.385.395 0 0 1 .04.04.385.395 0 0 1 .032.045.385.395 0 0 1 .027.05.385.395 0 0 1 .019.052.385.395 0 0 1 .011.056.385.395 0 0 1 .004.055.385.395 0 0 1-.004.057.385.395 0 0 1-.011.055.385.395 0 0 1-.02.053.385.395 0 0 1-.026.05.385.395 0 0 1-.033.044.385.395 0 0 1-.039.04.385.395 0 0 1-.044.034.385.395 0 0 1-.048.027.385.395 0 0 1-.052.02.385.395 0 0 1-.053.012.385.395 0 0 1-.055.004zm0-1.283h.49v-.937h-.49v.073a.385.395 0 0 1 .055.004.385.395 0 0 1 .053.012.385.395 0 0 1 .052.02.385.395 0 0 1 .048.026.385.395 0 0 1 .044.035.385.395 0 0 1 .04.04.385.395 0 0 1 .032.044.385.395 0 0 1 .027.05.385.395 0 0 1 .019.053.385.395 0 0 1 .011.055.385.395 0 0 1 .004.056.385.395 0 0 1-.004.057.385.395 0 0 1-.011.055.385.395 0 0 1-.02.053.385.395 0 0 1-.026.05.385.395 0 0 1-.033.044.385.395 0 0 1-.039.04.385.395 0 0 1-.044.034.385.395 0 0 1-.048.027.385.395 0 0 1-.052.02.385.395 0 0 1-.053.011.385.395 0 0 1-.055.005zm0-1.284h.49v-.936h-.49v.073a.385.395 0 0 1 .055.003.385.395 0 0 1 .053.013.385.395 0 0 1 .052.02.385.395 0 0 1 .048.026.385.395 0 0 1 .044.034.385.395 0 0 1 .04.04.385.395 0 0 1 .032.045.385.395 0 0 1 .027.05.385.395 0 0 1 .019.053.385.395 0 0 1 .011.055.385.395 0 0 1 .004.056.385.395 0 0 1-.004.056.385.395 0 0 1-.011.055.385.395 0 0 1-.02.053.385.395 0 0 1-.026.05.385.395 0 0 1-.033.045.385.395 0 0 1-.039.04.385.395 0 0 1-.044.033.385.395 0 0 1-.048.027.385.395 0 0 1-.052.02.385.395 0 0 1-.053.012.385.395 0 0 1-.055.004zm0-1.283h.49v-.937h-.49v.073a.385.395 0 0 1 .055.004.385.395 0 0 1 .053.012.385.395 0 0 1 .052.02.385.395 0 0 1 .048.027.385.395 0 0 1 .044.034.385.395 0 0 1 .04.04.385.395 0 0 1 .032.045.385.395 0 0 1 .027.05.385.395 0 0 1 .019.052.385.395 0 0 1 .011.055.385.395 0 0 1 .004.057.385.395 0 0 1-.004.056.385.395 0 0 1-.011.055.385.395 0 0 1-.02.053.385.395 0 0 1-.026.05.385.395 0 0 1-.033.044.385.395 0 0 1-.039.04.385.395 0 0 1-.044.034.385.395 0 0 1-.048.027.385.395 0 0 1-.052.02.385.395 0 0 1-.053.012.385.395 0 0 1-.055.004zm0-1.283h.49v-.937h-.49v.073a.385.395 0 0 1 .055.004.385.395 0 0 1 .053.012.385.395 0 0 1 .052.02.385.395 0 0 1 .048.027.385.395 0 0 1 .044.034.385.395 0 0 1 .04.04.385.395 0 0 1 .032.045.385.395 0 0 1 .027.05.385.395 0 0 1 .019.052.385.395 0 0 1 .011.055.385.395 0 0 1 .004.056.385.395 0 0 1-.004.057.385.395 0 0 1-.011.055.385.395 0 0 1-.02.053.385.395 0 0 1-.026.049.385.395 0 0 1-.033.045.385.395 0 0 1-.039.04.385.395 0 0 1-.044.034.385.395 0 0 1-.048.027.385.395 0 0 1-.052.02.385.395 0 0 1-.053.012.385.395 0 0 1-.055.004zm0-1.284h.49v-.936h-.49v.073a.385.395 0 0 1 .055.004.385.395 0 0 1 .053.012.385.395 0 0 1 .052.02.385.395 0 0 1 .048.027.385.395 0 0 1 .044.033.385.395 0 0 1 .04.04.385.395 0 0 1 .032.045.385.395 0 0 1 .027.05.385.395 0 0 1 .019.053.385.395 0 0 1 .011.055.385.395 0 0 1 .004.056.385.395 0 0 1-.004.056.385.395 0 0 1-.011.056.385.395 0 0 1-.02.052.385.395 0 0 1-.026.05.385.395 0 0 1-.033.045.385.395 0 0 1-.039.04.385.395 0 0 1-.044.034.385.395 0 0 1-.048.027.385.395 0 0 1-.052.02.385.395 0 0 1-.053.012.385.395 0 0 1-.055.003zm0-1.283h.49v-.936h-.49v.072a.385.395 0 0 1 .055.005.385.395 0 0 1 .053.011.385.395 0 0 1 .052.02.385.395 0 0 1 .048.027.385.395 0 0 1 .044.034.385.395 0 0 1 .04.04.385.395 0 0 1 .032.045.385.395 0 0 1 .027.05.385.395 0 0 1 .019.052.385.395 0 0 1 .011.055.385.395 0 0 1 .004.057.385.395 0 0 1-.004.056.385.395 0 0 1-.011.055.385.395 0 0 1-.02.053.385.395 0 0 1-.026.05.385.395 0 0 1-.033.045.385.395 0 0 1-.039.04.385.395 0 0 1-.044.033.385.395 0 0 1-.048.027.385.395 0 0 1-.052.02.385.395 0 0 1-.053.012.385.395 0 0 1-.055.004zm0-1.284h.49v-.936h-.49v.073a.385.395 0 0 1 .055.004.385.395 0 0 1 .053.012.385.395 0 0 1 .052.02.385.395 0 0 1 .048.027.385.395 0 0 1 .044.033.385.395 0 0 1 .04.04.385.395 0 0 1 .032.046.385.395 0 0 1 .027.05.385.395 0 0 1 .019.052.385.395 0 0 1 .011.055.385.395 0 0 1 .004.056.385.395 0 0 1-.004.057.385.395 0 0 1-.011.055.385.395 0 0 1-.02.053.385.395 0 0 1-.026.05.385.395 0 0 1-.033.044.385.395 0 0 1-.039.04.385.395 0 0 1-.044.034.385.395 0 0 1-.048.027.385.395 0 0 1-.052.02.385.395 0 0 1-.053.012.385.395 0 0 1-.055.003zm0-1.283h.49v-.936h-.49v.073a.385.395 0 0 1 .055.004.385.395 0 0 1 .053.012.385.395 0 0 1 .052.02.385.395 0 0 1 .048.026.385.395 0 0 1 .044.034.385.395 0 0 1 .04.04.385.395 0 0 1 .032.045.385.395 0 0 1 .027.05.385.395 0 0 1 .019.052.385.395 0 0 1 .011.056.385.395 0 0 1 .004.056.385.395 0 0 1-.004.056.385.395 0 0 1-.011.056.385.395 0 0 1-.02.052.385.395 0 0 1-.026.05.385.395 0 0 1-.033.045.385.395 0 0 1-.039.04.385.395 0 0 1-.044.034.385.395 0 0 1-.048.027.385.395 0 0 1-.052.02.385.395 0 0 1-.053.011.385.395 0 0 1-.055.004z" fill="#1a1a1a" style="paint-order:stroke fill markers"/>
        <rect x="82.932" y="85.378" width="15.913" height="17.725" rx=".263" ry=".271" fill="#999" stroke="#fff" stroke-width=".175"/>
        <text transform="scale(.94679 1.0562)" x="88.221" y="89.84" fill="#e6e6e6" font-family="Arial" font-size="1.17" font-weight="bold" stroke-width=".062"><tspan font-size="1.717" style="font-variant-caps:normal;font-variant-east-asian:normal;font-variant-ligatures:normal;font-variant-numeric:normal">ESP32-S3-WROOM</tspan></text>
        <text transform="scale(.94679 1.0562)" x="94.425" y="84.808" fill="#e6e6e6" font-family="Arial" font-size=".901" font-weight="bold" stroke-width=".048"><tspan font-size="1.322" style="font-variant-caps:normal;font-variant-east-asian:normal;font-variant-ligatures:normal;font-variant-numeric:normal">ESPRESSIF</tspan></text>
        <g fill="#fff39d" stroke="#1a1a1a" stroke-linecap="round" stroke-linejoin="round" stroke-miterlimit="3.7" stroke-width=".051">
            <path d="M81.791 85.453v.201a.286.267 0 0 1 .28.267.286.267 0 0 1-.28.266v.202h.49v-.936zM81.791 86.736v.201a.286.267 0 0 1 .28.267.286.267 0 0 1-.28.266v.202h.49v-.936zM81.791 88.019v.201a.286.267 0 0 1 .28.267.286.267 0 0 1-.28.266v.202h.49v-.936zM81.791 89.303v.201a.286.267 0 0 1 .28.267.286.267 0 0 1-.28.266v.202h.49v-.936zM81.791 90.586v.201a.286.267 0 0 1 .28.267.286.267 0 0 1-.28.266v.202h.49v-.936zM81.791 91.869v.201a.286.267 0 0 1 .28.267.286.267 0 0 1-.28.266v.202h.49v-.936zM81.791 93.153v.201a.286.267 0 0 1 .28.267.286.267 0 0 1-.28.266v.202h.49v-.936zM81.791 94.436v.201a.286.267 0 0 1 .28.267.286.267 0 0 1-.28.266v.202h.49v-.936zM81.791 95.719v.201a.286.267 0 0 1 .28.267.286.267 0 0 1-.28.266v.202h.49v-.936zM81.791 97.003v.201a.286.267 0 0 1 .28.267.286.267 0 0 1-.28.266v.202h.49v-.936zM81.791 98.286v.201a.286.267 0 0 1 .28.267.286.267 0 0 1-.28.266v.202h.49v-.936zM81.791 99.57v.201a.286.267 0 0 1 .28.267.286.267 0 0 1-.28.266v.202h.49v-.936zM81.791 100.85v.201a.286.267 0 0 1 .28.267.286.267 0 0 1-.28.266v.202h.49v-.936zM81.791 102.14v.201a.286.267 0 0 1 .28.267.286.267 0 0 1-.28.266v.202h.49v-.936zM83.363 104.12h.201a.267.286 0 0 1 .267-.28.267.286 0 0 1 .266.28h.202v-.49h-.936zM84.646 104.12h.201a.267.286 0 0 1 .267-.28.267.286 0 0 1 .266.28h.202v-.49h-.936zM85.929 104.12h.201a.267.286 0 0 1 .267-.28.267.286 0 0 1 .266.28h.202v-.49h-.936zM87.213 104.12h.201a.267.286 0 0 1 .267-.28.267.286 0 0 1 .266.28h.202v-.49h-.936zM88.496 104.12h.201a.267.286 0 0 1 .267-.28.267.286 0 0 1 .266.28h.202v-.49h-.936zM89.779 104.12h.201a.267.286 0 0 1 .267-.28.267.286 0 0 1 .266.28h.202v-.49h-.936zM91.062 104.12h.201a.267.286 0 0 1 .267-.28.267.286 0 0 1 .266.28h.202v-.49h-.936zM92.346 104.12h.201a.267.286 0 0 1 .267-.28.267.286 0 0 1 .266.28h.202v-.49h-.936zM93.629 104.12h.201a.267.286 0 0 1 .267-.28.267.286 0 0 1 .266.28h.202v-.49h-.936zM94.913 104.12h.201a.267.286 0 0 1 .267-.28.267.286 0 0 1 .266.28h.202v-.49h-.936zM96.196 104.12h.201a.267.286 0 0 1 .267-.28.267.286 0 0 1 .266.28h.202v-.49h-.936zM97.479 104.12h.201a.267.286 0 0 1 .267-.28.267.286 0 0 1 .266.28h.202v-.49h-.936zM99.987 103.07v-.201a.286.267 0 0 1-.28-.267.286.267 0 0 1 .28-.266v-.202h-.49v.936zM99.987 101.79v-.201a.286.267 0 0 1-.28-.267.286.267 0 0 1 .28-.266v-.202h-.49v.936zM99.987 100.51v-.201a.286.267 0 0 1-.28-.267.286.267 0 0 1 .28-.266v-.202h-.49v.936zM99.987 99.222v-.201a.286.267 0 0 1-.28-.267.286.267 0 0 1 .28-.266v-.202h-.49v.936zM99.987 97.939v-.201a.286.267 0 0 1-.28-.267.286.267 0 0 1 .28-.266v-.202h-.49v.936zM99.987 96.656v-.201a.286.267 0 0 1-.28-.267.286.267 0 0 1 .28-.266v-.202h-.49v.936zM99.987 95.372v-.201a.286.267 0 0 1-.28-.267.286.267 0 0 1 .28-.266v-.202h-.49v.936zM99.987 94.089v-.201a.286.267 0 0 1-.28-.267.286.267 0 0 1 .28-.266v-.202h-.49v.936zM99.987 92.806v-.201a.286.267 0 0 1-.28-.267.286.267 0 0 1 .28-.266v-.202h-.49v.936zM99.987 91.523v-.201a.286.267 0 0 1-.28-.267.286.267 0 0 1 .28-.266v-.202h-.49v.936zM99.987 90.239v-.201a.286.267 0 0 1-.28-.267.286.267 0 0 1 .28-.266v-.202h-.49v.936zM99.987 88.956v-.201a.286.267 0 0 1-.28-.267.286.267 0 0 1 .28-.266v-.202h-.49v.936zM99.987 87.672v-.201a.286.267 0 0 1-.28-.267.286.267 0 0 1 .28-.266v-.202h-.49v.936zM99.987 86.389v-.201a.286.267 0 0 1-.28-.267.286.267 0 0 1 .28-.266v-.202h-.49v.936z" style="paint-order:stroke fill markers"/>
        </g>
        <path d="M97.433 84.254v-5.225h-4.53v2.673H90.47V79.03h-2.366v2.673h-2.501V79.03h-2.096v4.314m11.696-4.314v5.225" fill="none" stroke="#4d4d4d" stroke-width=".818"/>
        <g fill="#e6e6e6">
            <path transform="matrix(.03567 0 0 -.03567 85.165 90.021)" d="M0 0a7.655 7.655 0 0 0-15.31 0 7.654 7.654 0 0 0 7.655 7.653A7.652 7.652 0 0 0 0 0" clip-path="url(#a)"/>
            <path transform="matrix(.03567 0 0 -.03567 87.549 89.736)" d="M0 0c-4.905 34.796-32.499 62.392-67.297 67.295a49.833 49.833 0 0 1-11.102-8.019v-7.405c34.723 0 62.974-28.251 62.974-62.975h7.406A49.931 49.931 0 0 1 0 0" clip-path="url(#b)"/>
            <path transform="matrix(.03567 0 0 -.03567 87.755 88.907)" d="M0 0c0 27.51-22.302 49.811-49.813 49.811a50.83 50.83 0 0 1-5.131-.284l-1.136-3.27c24.488-8.554 43.896-27.973 52.476-52.45l3.327 1.164C-.112-3.375 0-1.701 0 0" clip-path="url(#c)"/>
            <path transform="matrix(.03567 0 0 -.03567 85.998 91.018)" d="M0 0c-15.816 0-30.687 6.159-41.872 17.342-11.183 11.185-17.342 26.054-17.342 41.871 0 15.816 6.159 30.685 17.342 41.87l3.164-3.164C-49.045 87.58-54.742 73.834-54.742 59.213c0-14.62 5.697-28.368 16.034-38.706C-28.37 10.166-14.622 4.473 0 4.473s28.367 5.693 38.705 16.034l3.164-3.165C30.686 6.159 15.815 0 0 0" clip-path="url(#d)"/>
            <path transform="matrix(.03567 0 0 -.03567 85.975 90.254)" d="M0 0c1.222 12.362-4.279 23.871-13.523 30.88a34.115 34.115 0 0 1-17.326 6.784c-1.698.179-2.937 1.684-2.773 3.369.196 1.848 1.722 2.944 3.385 2.774 7.066-.722 13.537-3.192 19.009-6.994C.522 28.687 7.649 14.597 6.128-.611A40.556 40.556 0 0 0 4.77-7.608l8.988-2.535a49.477 49.477 0 0 1 7.787 2.926c.642 3.446 1 6.994 1 10.633 0 28.491-21.068 52.14-48.443 56.194-3.282.47-6.613.509-9.061-.107a19.37 19.37 0 0 1-9.793-5.99 19.3 19.3 0 0 1-4.837-12.807c0-8.657 5.669-15.992 13.504-18.477 1.469-.468 3.753-.67 4.878-.878h.046c8.558-1.477 15.103-8.959 15.103-17.935 0-3.611-1.072-6.969-2.895-9.802l6.232-3.987a50.12 50.12 0 0 1 9.276-1.556A34.459 34.459 0 0 1 0 0" clip-path="url(#e)"/>
        </g>
    </g>
</svg>
