<svg width="96" xml:space="preserve" height="187.937" viewBox="0 0 72 140.952" xmlns="http://www.w3.org/2000/svg">
    <defs>
        <linearGradient id="a">
            <stop style="stop-color:#b4b4b4;stop-opacity:1" offset="0"/>
            <stop style="stop-color:#b4b4b4;stop-opacity:0" offset="1"/>
        </linearGradient>
        <linearGradient id="b">
            <stop style="stop-color:#fff;stop-opacity:1" offset="0"/>
            <stop style="stop-color:#fff;stop-opacity:0" offset="1"/>
        </linearGradient>
    </defs>
    <rect fill="#4d4d4d" width="72" height="136.762" rx="2.857" ry="2.857" style="stroke-width:.190477"/>
    <g fill="#ccc">
        <path d="M50.476 67.274h2.857v5.714h-2.857zM47.048 67.274h2.857v5.714h-2.857zM43.429 67.274h2.857v5.714h-2.857zM39.81 67.274h2.857v5.714H39.81zM36.19 67.274h2.858v5.714H36.19zM32.571 67.274h2.858v5.714H32.57zM28.952 67.274h2.858v5.714h-2.858zM25.333 67.274h2.858v5.714h-2.858zM21.714 67.274h2.857v5.714h-2.857zM18.095 67.274h2.857v5.714h-2.857z"/>
    </g>
    <g fill="#ccc">
        <path d="M14.826 66.9v2.88h-5.63V66.9zM14.826 63.301v2.88h-5.63V63.3zM14.826 59.702v2.879h-5.63v-2.88zM14.826 56.102v2.88h-5.63v-2.88zM14.826 52.502v2.88h-5.63v-2.88zM14.826 48.903v2.88h-5.63v-2.88zM14.826 45.303v2.88h-5.63v-2.88zM14.826 41.703v2.88h-5.63v-2.88zM14.826 38.104v2.879h-5.63v-2.88zM14.826 34.504v2.88h-5.63v-2.88zM14.826 30.904v2.88h-5.63v-2.88zM14.826 27.305v2.88h-5.63v-2.88zM14.826 23.705v2.88h-5.63v-2.88zM14.826 20.105v2.88h-5.63v-2.88z"/>
    </g>
    <g fill="#ccc">
        <path d="M62.845 66.9v2.88h-5.63V66.9zM62.845 63.301v2.88h-5.63V63.3zM62.845 59.702v2.879h-5.63v-2.88zM62.845 56.102v2.88h-5.63v-2.88zM62.845 52.502v2.88h-5.63v-2.88zM62.845 48.903v2.88h-5.63v-2.88zM62.845 45.303v2.88h-5.63v-2.88zM62.845 41.703v2.88h-5.63v-2.88zM62.845 38.104v2.879h-5.63v-2.88zM62.845 34.504v2.88h-5.63v-2.88zM62.845 30.904v2.88h-5.63v-2.88zM62.845 27.305v2.88h-5.63v-2.88zM62.845 23.705v2.88h-5.63v-2.88zM62.845 20.105v2.88h-5.63v-2.88z"/>
    </g>
    <g transform="matrix(.19048 0 0 .19048 0 0)">
        <path fill="#1a1a1a" d="M55 0h268v378H55z"/>
        <path fill="none" stroke="#4d4d4d" stroke-width="11.16" d="M65 103h248"/>
        <rect fill="#999" stroke="#fff" stroke-width="2.625" x="69" y="106" width="242" height="262" rx="4" ry="4"/>
        <g fill="#fff39d">
            <path d="M266 371h13v7h-3c0-2-1-4-3-4s-3 2-3 4h-3v-7zM247 371h13v7h-3c0-2-1-4-3-4s-3 2-3 4h-3v-7zM228 371h13v7h-3c0-2-1-4-3-4s-3 2-3 4h-3v-7zM210 371h13v7h-3c0-2-1-4-3-4s-3 2-3 4h-3v-7zM191 371h13v7h-3c0-2-1-4-3-4s-3 2-3 4h-3v-7zM172 371h13v7h-3c0-2-1-4-3-4s-3 2-3 4h-3v-7zM153 371h13v7h-3c0-2-1-4-3-4s-3 2-3 4h-3v-7zM134 371h13v7h-3c0-2-1-4-3-4s-3 2-3 4h-3v-7zM115 371h13v7h-3c0-2-1-4-3-4s-3 2-3 4h-3v-7zM96 371h13v7h-3c0-2-1-4-3-4s-3 2-3 4h-3v-7z"/>
        </g>
        <g fill="#fff39d">
            <path d="M62 352v13h-7v-3c2 0 4-1 4-3s-2-3-4-3v-3h7zM62 333v13h-7v-3c2 0 4-1 4-3s-2-3-4-3v-3h7zM62 314v13h-7v-3c2 0 4-1 4-3s-2-3-4-3v-3h7zM62 295v13h-7v-3c2 0 4-1 4-3s-2-3-4-3v-3h7zM62 276v13h-7v-3c2 0 4-1 4-3s-2-3-4-3v-3h7zM62 257v13h-7v-3c2 0 4-1 4-3s-2-3-4-3v-3h7zM62 239v13h-7v-3c2 0 4-1 4-3s-2-3-4-3v-3h7zM62 220v13h-7v-3c2 0 4-1 4-3s-2-3-4-3v-3h7zM62 201v13h-7v-3c2 0 4-1 4-3s-2-3-4-3v-3h7zM62 182v13h-7v-3c2 0 4-1 4-3s-2-3-4-3v-3h7zM62 163v13h-7v-3c2 0 4-1 4-3s-2-3-4-3v-3h7zM62 144v13h-7v-3c2 0 4-1 4-3s-2-3-4-3v-3h7zM62 125v13h-7v-3c2 0 4-1 4-3s-2-3-4-3v-3h7zM62 106v13h-7v-3c2 0 4-1 4-3s-2-3-4-3v-3h7z"/>
        </g>
        <g fill="#fff39d">
            <path d="M317 352v13h7v-3c-2 0-4-1-4-3s2-3 4-3v-3h-7zM317 333v13h7v-3c-2 0-4-1-4-3s2-3 4-3v-3h-7zM317 314v13h7v-3c-2 0-4-1-4-3s2-3 4-3v-3h-7zM317 295v13h7v-3c-2 0-4-1-4-3s2-3 4-3v-3h-7zM317 276v13h7v-3c-2 0-4-1-4-3s2-3 4-3v-3h-7zM317 257v13h7v-3c-2 0-4-1-4-3s2-3 4-3v-3h-7zM317 239v13h7v-3c-2 0-4-1-4-3s2-3 4-3v-3h-7zM317 220v13h7v-3c-2 0-4-1-4-3s2-3 4-3v-3h-7zM317 201v13h7v-3c-2 0-4-1-4-3s2-3 4-3v-3h-7zM317 182v13h7v-3c-2 0-4-1-4-3s2-3 4-3v-3h-7zM317 163v13h7v-3c-2 0-4-1-4-3s2-3 4-3v-3h-7zM317 144v13h7v-3c-2 0-4-1-4-3s2-3 4-3v-3h-7zM317 125v13h7v-3c-2 0-4-1-4-3s2-3 4-3v-3h-7zM317 106v13h7v-3c-2 0-4-1-4-3s2-3 4-3v-3h-7z"/>
        </g>
        <g fill="#e6e6e6">
            <path d="M247 236c3 0 5 2 5 5s-2 5-5 5-5-2-5-5 2-5 5-5z"/>
            <path d="m242 234-4-4c-1-6-1-12 2-17 2-1 5-1 7-1 16 0 29 13 29 29 0 3 0 5-1 7-2 1-3 1-5 2l-4-2c1-2 1-5 1-7 0-12-9-21-21-21-2 0-3 0-5 1v3c2 0 3-1 5-1 10 0 18 8 18 18 0 4-1 7-3 10-2 0-4-1-5-1l-3-3c1-2 2-4 2-6 0-5-4-9-9-9-2 0-4 1-5 2z"/>
            <path d="M247 208v-5c2-1 3-3 5-4 19 2 34 17 36 37-1 2-2 3-3 5h-5v-1c0-18-15-33-33-33h-1z"/>
            <path d="m262 199 1-2h2c15 0 27 12 27 27v2l-2 1c-4-13-15-23-28-28zM244 203c-5 5-9 13-9 21 0 16 13 29 29 29 8 0 16-3 21-9l2 2c-6 6-14 10-23 10-18 0-32-14-32-32 0-9 4-17 9-23l2 2z"/>
        </g>
        <g fill="#e6e6e6" font-weight="bold" font-size="18.898" font-family="Arial">
            <text x="500" y="1014" transform="matrix(.89642 0 0 1 -296.957 -831.678)">ESP</text>
            <text x="540" y="1014" transform="matrix(.89642 0 0 1 -296.957 -831.678)">- </text>
            <text x="552" y="1014" transform="matrix(.89642 0 0 1 -296.957 -831.678)">WROOM</text>
            <text x="631" y="1014" transform="matrix(.89642 0 0 1 -296.957 -831.678)">-32</text>
        </g>
        <path fill="#e6e6e6" d="M92 165h4c4-5 10-9 17-9s13 3 17 9h4c5 0 9 4 9 9v5c0 5-4 9-9 9h-4c-4 5-10 9-17 9s-13-3-17-9h-4c-5 0-9-4-9-9v-5c0-5 4-9 9-9z"/>
        <path fill="#999" d="M106 187h27c4 0 7-3 7-7v-5c0-4-3-7-7-7h-12c-4 0-7 3-7 7v5c0 4-3 7-7 7z"/>
        <path fill="#e6e6e6" d="M122 176h7v3h-7v4h-4v-12h11v3h-7zM131 172v-2h4v4h-4v-1zM135 174v9h-4v-9z"/>
        <path fill="#999" d="M108 174v9h-4v-9zM104 172v-2h4v4h-4v-1zM95 177l-1 6h-3l-3-12h3l1 6 2-7h3l2 7 1-6h3l-3 12h-3l-1-6z"/>
        <text x="500" y="1014" fill="#e6e6e6" font-weight="bold" font-size="18.898" font-family="Arial" transform="matrix(.89642 0 0 1 -254.399 -726.436)">205 - 000519</text>
        <g fill="#e6e6e6" font-weight="bold" font-size="18.898" font-family="Arial">
            <text x="500" y="1014" transform="matrix(.7515 0 0 1 -292.65 -694.067)">FCC</text>
            <text x="541" y="1014" transform="matrix(.7515 0 0 1 -292.65 -694.067)"> 9D:2</text>
            <text x="587" y="1014" transform="matrix(.7515 0 0 1 -292.65 -694.067)">AC</text>
            <text x="616" y="1014" transform="matrix(.7515 0 0 1 -292.65 -694.067)">72-</text>
            <text x="643" y="1014" transform="matrix(.7515 0 0 1 -292.65 -694.067)">ESPWROOM</text>
            <text x="763" y="1014" transform="matrix(.7515 0 0 1 -292.65 -694.067)">32</text>
        </g>
        <rect fill="none" stroke="#e6e6e6" stroke-width="2.232" x="152" y="267" width="32" height="22" rx="3" ry="3"/>
        <text x="161" y="284" fill="#e6e6e6" font-weight="bold" font-size="16.799" font-family="Arial">R</text>
        <circle cx="94" cy="343" r="8"/>
        <path fill="none" stroke="#e6e6e6" stroke-width="5.952" d="M207 225h-19m21-21c-12 0-21 10-21 21m21 21c-12 0-21-10-21-21M170 204c-11 0-20 9-21 20 0 13 9 23 21 23"/>
        <path fill="none" stroke="#e6e6e6" stroke-width="2.625" d="M100 279h22m-11 8v-8m-11-5h22m-32-7 23-5v7l17-5c-3-8-11-15-20-15-12 0-21 9-21 21s9 21 21 21c9 0 16-5 19-13"/>
        <path fill="none" stroke="#4d4d4d" stroke-width="8.928" d="M278 96V10h-67v44h-36V10h-35v44h-37V10H72v71m173-71v86"/>
        <circle fill="#fff39d" cx="245" cy="93" r="3"/>
        <circle fill="#fff39d" cx="278" cy="93" r="3"/>
        <text x="182" y="94" fill="#e6e6e6" font-weight="bold" font-size="15.748" font-family="Arial">C</text>
    </g>
    <g transform="matrix(.19048 0 0 .19048 0 0)">
        <circle fill="none" stroke="#ccc" stroke-width="6.25" transform="rotate(90 -222.982 465.566)" r="11"/>
        <circle fill="none" stroke="#ccc" stroke-width="6.25" transform="rotate(90 -278.02 410.527)" r="11"/>
        <path fill="#666" d="M166.129 648.045v-6.552h5.242v6.552zM175.649 648.045v-6.552h5.242v6.552zM185.148 648.045v-6.552h5.242v6.552zM194.662 648.045v-6.552h5.242v6.552zM204.164 648.045v-6.552h5.242v6.552z"/>
        <path fill="#b3b3b3" d="M236 647v87h-97v-87z"/>
        <path fill="#999" d="M237.452 696.393v-15.725h5.242v15.725zM132.804 696.393v-15.725h5.242v15.725z"/>
        <path fill="#ccc" d="M139.179 647.251v-1.31h96.973v1.31z"/>
        <path fill="#333" d="M161.161 727.142v-79.937h53.728v79.937z"/>
        <path fill="#b3b3b3" d="m133 740 5-8v3l-3 5z"/>
        <path fill="#ccc" d="m138 738-3 2 3-5z"/>
        <path fill="#b3b3b3" d="m237 732 6 8h-2l-4-5z"/>
        <path fill="#ccc" d="M237 738v-3l4 5z"/>
        <path fill="#f2f2f2" d="M208.003 732.421v-3.931h2.62v3.931zM197.236 732.421v-3.931h2.62v3.931zM186.483 732.421v-3.931h2.62v3.931zM175.719 732.421v-3.931h2.62v3.931zM164.963 732.421v-3.931h2.62v3.931z"/>
        <path fill="#4d4d4d" d="M162 733h3v-2h2v2h8v-2h2v2h8v-2h2v2h8v-2h2v2h8v-2h2v2h3s1 0 1-1v-5s0-1-1-1h-52s-1 0-1 1v5s0 1 1 1z"/>
        <path fill="#ccc" d="m138 650 1-3h13l-12 1c0 1 1 1 1 1h-3zM237 650l-1-3h-13l12 1c0 1-1 1-1 1h3z"/>
        <path fill="#ccc" d="M220 647v8h-8v-8h-2v3h-43v-3h-3v8h-8v-8h-17v88h99v-88h-17zm-57 71v4h-8v-5c-2-1-4-4-4-7s1-6 4-7v-23h8v23c3 1 4 4 4 7s-2 6-4 7zm56 0v4h-8v-5c-2-1-4-4-4-7s1-6 4-7v-23h8v23c3 1 4 4 4 7s-2 6-4 7z"/>
        <path fill="#e6e6e6" d="m146 650-6 84h-2v-84z"/>
        <path fill="#999" d="M237 650v84l-3-56-2-28z"/>
        <path fill="#ccc" d="M155.208 681.487v-1.31h7.863v1.31zM211.396 681.487v-1.31h7.863v1.31z"/>
        <path fill="#b3b3b3" d="M142.862 733.292v-3.931h89.11v3.931z"/>
        <path fill="#ccc" d="M142.862 734.339v-1.31h89.11v1.31z"/>
    </g>
    <g transform="matrix(.19048 0 0 .19048 0 0)">
        <g fill="#e6e6e6">
            <path d="M201 532h3v7h-3zM194 532h3v7h-3zM186 532h3v7h-3zM179 532h3v7h-3zM171 532h3v7h-3zM164 532h3v7h-3zM209 532h3v7h-3z"/>
        </g>
        <g fill="#e6e6e6">
            <path d="M201 614h3v7h-3zM194 614h3v7h-3zM186 614h3v7h-3zM179 614h3v7h-3zM171 614h3v7h-3zM164 614h3v7h-3zM209 614h3v7h-3z"/>
        </g>
        <g fill="#e6e6e6">
            <path d="M150.611 589.951v3.023h-7.818v-3.023zM150.611 582.511v3.023h-7.818v-3.023zM150.611 575.071v3.023h-7.818v-3.023zM150.611 567.631v3.023h-7.818v-3.023zM150.611 560.191v3.023h-7.818v-3.023zM150.611 552.75v3.023h-7.818v-3.023zM150.611 597.392v3.023h-7.818v-3.023z"/>
        </g>
        <g fill="#e6e6e6">
            <path d="M232.453 589.951v3.023h-7.818v-3.023zM232.453 582.511v3.023h-7.818v-3.023zM232.453 575.071v3.023h-7.818v-3.023zM232.453 567.631v3.023h-7.818v-3.023zM232.453 560.191v3.023h-7.818v-3.023zM232.453 552.75v3.023h-7.818v-3.023zM232.453 597.392v3.023h-7.818v-3.023z"/>
        </g>
        <path fill="#333" stroke="#000" stroke-width="1.134" d="M151 539h74v74h-74z"/>
        <circle fill="#fff" cx="229" cy="534" r="4"/>
        <circle fill="#1a1a1a" cx="210" cy="554" r="4"/>
    </g>
    <path fill="#303030" d="M58.027 114.224v-3.373h-7.138v3.373z"/>
    <path fill="#3d3e3d" d="m58.095 110.857.19-.19h-7.809l.381.19z"/>
    <path d="m58.286 114.476-.19-.19h-7.239l-.38.19h7.618z"/>
    <path fill="#1e1f1f" d="m50.857 110.857-.38-.19v3.81l.38-.191zM58.095 110.857v3.429l.19.19v-3.81z"/>
    <path fill="#bdbfc1" d="M57.471 110.614v-2.018h-.863v2.018z"/>
    <path fill="#666766" d="M57.471 109.8v-.576h-.863v.576z"/>
    <path fill="#bdbfc1" d="M54.846 114.479v2.018h-.863v-2.018z"/>
    <path fill="#666766" d="M54.846 115.293v.576h-.863v-.576z"/>
    <path fill="#bdbfc1" d="M52.092 110.614v-2.018h-.863v2.018z"/>
    <path fill="#666766" d="M52.092 109.8v-.576h-.863v.576z"/>
    <path fill="#303030" d="M58.027 103.662v-3.373h-7.138v3.373z"/>
    <path fill="#3d3e3d" d="m58.095 100.381.19-.38h-7.809l.381.38z"/>
    <path d="m58.286 104-.19-.38h-7.239l-.38.38h7.618z"/>
    <path fill="#1e1f1f" d="m50.857 100.381-.38-.38v4l.38-.382zM58.095 100.381v3.238l.19.381v-4z"/>
    <path fill="#bdbfc1" d="M57.471 100.053v-2.018h-.863v2.018z"/>
    <path fill="#666766" d="M57.471 99.239v-.577h-.863v.577z"/>
    <path fill="#bdbfc1" d="M54.846 103.917v2.018h-.863v-2.018z"/>
    <path fill="#666766" d="M54.846 104.731v.577h-.863v-.577z"/>
    <path fill="#bdbfc1" d="M52.092 100.053v-2.018h-.863v2.018z"/>
    <path fill="#666766" d="M52.092 99.239v-.577h-.863v.577z"/>
    <path fill="#f5b03b" d="M26.667 80.381h7.428v9.333h-7.428z"/>
    <path fill="#eb8a53" d="M26.667 87.81h7.428v1.714h-7.428z"/>
    <path fill="#ccc" d="M27.238 89.714h6.286v1.715h-6.286zM27.238 78.476h6.286v1.714h-6.286z"/>
    <g transform="matrix(.19048 0 0 .19048 0 0)">
        <path fill="#ccc" d="M60 645h43v57H60z"/>
        <path fill="#333" d="M60 645h3v8h-3zM100 645h3v8h-3zM60 694h3v8h-3zM100 694h3v8h-3zM71 645h5v3h-5zM87 645h5v3h-5z"/>
        <path fill="#e6e6e6" d="M72 635h20v10H72zM72 702h20v10H72z"/>
        <circle fill="#333" stroke="#1a1a1a" stroke-width="1.134" cx="81" cy="674" r="14"/>
        <path fill="none" stroke="#fff" stroke-width="1.134" d="M69 679c-1-2-1-3-1-5 0-5 2-9 6-11"/>
        <path fill="#333" d="M71 700h5v3h-5zM87 700h5v3h-5z"/>
    </g>
    <g transform="matrix(.19048 0 0 .19048 0 0)">
        <path fill="#ccc" d="M273 645h43v57h-43z"/>
        <path fill="#333" d="M273 645h3v8h-3zM313 645h3v8h-3zM273 694h3v8h-3zM313 694h3v8h-3zM283 645h5v3h-5zM300 645h5v3h-5z"/>
        <path fill="#e6e6e6" d="M284 635h20v10h-20zM284 702h20v10h-20z"/>
        <circle fill="#333" stroke="#1a1a1a" stroke-width="1.134" cx="294" cy="674" r="14"/>
        <path fill="none" stroke="#fff" stroke-width="1.134" d="M281 679c-1-2-1-3-1-5 0-5 2-9 6-11"/>
        <path fill="#333" d="M283 700h5v3h-5zM300 700h5v3h-5z"/>
    </g>
    <path fill="#303030" d="M47.466 78.335h7.506V94.42h-7.506z"/>
    <path fill="#3d3e3d" d="m46.93 77.8.536.535V94.42l-.536.715z"/>
    <path d="m54.972 78.335.536-.536V95.135l-.536-.715z"/>
    <path fill="#1e1f1f" d="m55.508 77.8-.536.535h-7.506l-.536-.536zM55.508 95.135H46.93l.536-.715h7.506z"/>
    <path fill="#bdbfc1" d="M43.177 91.203h3.753v1.966h-3.753z"/>
    <path fill="#666766" d="M44.25 91.203h1.071v1.966H44.25z"/>
    <path fill="#bdbfc1" d="M55.508 82.089h4.647v8.042h-4.647z"/>
    <path fill="#666766" d="M57.832 82.089h1.072v8.042h-1.072z"/>
    <path fill="#bdbfc1" d="M43.177 85.305h3.753v1.966h-3.753z"/>
    <path fill="#666766" d="M44.25 85.305h1.071v1.966H44.25z"/>
    <path fill="#bdbfc1" d="M43.177 79.05h3.753v1.966h-3.753z"/>
    <path fill="#666766" d="M44.25 79.05h1.071v1.966H44.25z"/>
    <path fill="none" stroke="#b3b3b3" stroke-width=".21267679999999997" d="M58.01 90.13V82.09M45.143 93.169v-1.966M45.143 87.271v-1.966M45.143 81.195V79.05"/>
    <path fill="none" stroke="#333" stroke-width=".21267679999999997" d="M58.547 90.13V82.09M44.607 93.169v-1.966M44.607 87.271v-1.966M44.607 81.195V79.05"/>
    <path fill="none" d="M17.143 102.476v-4.38"/>
    <path fill="#f2f2f2" d="M17.101 97.986v4.583h-2.35v-4.583z"/>
    <path fill="#22b573" fill-opacity=".702" d="M17.143 99.62s-.381-.382-.19-.572v-.381h.19z"/>
    <path fill="#fff" d="M16.199 100.033v.47h-.588v-.47z"/>
    <path fill="#d1c690" d="M16.571 99.238h.19l.191-.571h-.571zM16.762 99.238c0 .19 0 .19-.19.381 0 .19-.572.381-.381.572 0-.19.38-.381.38-.572 0 0 0-.19.19-.38zM15.429 101.333h-.381v.572h.38z"/>
    <path fill="#d1c690" d="M16 100.381c-.19 0-.762.762-.762 1.143 0-.381.381-1.143.762-1.143zM16 100s0 .19.19.19V100z"/>
    <path fill="#d1c690" d="M15.81 100.381s.19-.19.19 0v.19z"/>
    <path fill="#9d956c" d="M16.19 100c0-.19.381-.38.381-.571 0 0 0-.19.19-.381 0 .19 0 .19-.19.38 0 .191-.571.382-.38.572zM15.429 101.333v.572zM16 100.381c-.19 0-.762.571-.762 1.143 0-.572.572-1.143.762-1.143zM16.19 100.19V100zM16 100.381v-.19z"/>
    <path fill="#fff" fill-opacity=".502" d="M14.857 99.048h-.19v2.476h.19z"/>
    <path fill="#f2f2f2" fill-opacity=".502" d="M14.667 98.667v3.238h2.476v-3.238z"/>
    <path fill="#fff" fill-opacity=".549" d="M15.048 101.905h-.381v-3.048c0-.19 0-.19 0 0v2.667c0 .19 0 .38.19.38h.19c.191 0 .191 0 0 0z"/>
    <path fill-opacity=".031" d="M16.952 98.667v3.047c0 .19 0 .19 0 0v-3.047z"/>
    <path fill="#d1c690" d="M17.143 102.476v-.38h-.381s-.19 0-.19-.191h-1.905v.571h2.285m0 0z"/>
    <path fill="#fff" fill-opacity=".502" d="M14.857 101.905h-.19v.571h.19z"/>
    <path fill="#d1c690" d="M17.143 97.905h-2.286v.571h2.095s0-.19.19-.19v-.572m0 0z"/>
    <path fill="#fff" fill-opacity=".502" d="M14.857 97.905h-.19v.762h.19z"/>
    <path fill="none" d="M24.19 102.476v-4.38"/>
    <path fill="#f2f2f2" d="M24.219 97.986v4.583h-2.35v-4.583z"/>
    <path fill="#22b573" fill-opacity=".702" d="M24.19 99.62s-.38-.382-.19-.572v-.381h.19z"/>
    <path fill="#fff" d="M23.316 100.033v.47h-.588v-.47z"/>
    <path fill="#d1c690" d="M23.62 99.238H24v-.571h-.38zM23.81 99.238c0 .19 0 .19-.19.381 0 .19-.572.381-.382.572 0-.19.381-.381.381-.572 0 0 0-.19.19-.38zM22.476 101.333h-.38v.572h.38z"/>
    <path fill="#d1c690" d="M23.048 100.381c-.19 0-.762.762-.762 1.143 0-.381.38-1.143.762-1.143zM23.048 100s0 .19.19.19V100z"/>
    <path fill="#d1c690" d="M22.857 100.381s.19-.19.19 0v.19z"/>
    <path fill="#9d956c" d="M23.429 100c0-.19.38-.38.38-.571 0 0 0-.19.191-.381 0 .19 0 .19-.19.38 0 .191-.572.382-.381.572zM22.476 101.905v-.572l.19.572zM23.048 100.381c-.19 0-.762.571-.762 1.143 0-.572.571-1.143.762-1.143zM23.429 100.19V100zM23.238 100.381v-.19z"/>
    <path fill="#fff" fill-opacity=".502" d="M21.905 99.048v2.476z"/>
    <path fill="#f2f2f2" fill-opacity=".502" d="M21.905 98.667v3.238h2.286v-3.238z"/>
    <path fill="#fff" fill-opacity=".549" d="M22.286 101.905h-.381v-3.048c0-.19 0-.19 0 0v2.667c0 .19 0 .38.19.38h.19c.191 0 .191 0 0 0z"/>
    <path fill-opacity=".031" d="M24 98.667v3.047c0 .19 0 .19 0 0v-3.047z"/>
    <path fill="#d1c690" d="M24.19 102.476v-.38h-.38s-.19 0-.19-.191h-1.906v.571H24m0 0z"/>
    <path fill="#fff" fill-opacity=".502" d="M21.905 101.905v.571z"/>
    <path fill="#d1c690" d="M24.19 97.905h-2.285v.571H24s0-.19.19-.19v-.572m0 0z"/>
    <path fill="#fff" fill-opacity=".502" d="M21.905 97.905v.762z"/>
    <path fill="#c6c6c5" d="M46.857 120.381h2.857v1.524h-2.857z"/>
    <path fill="#020202" d="M47.429 120.381h1.714v1.524h-1.714z"/>
    <path fill="#c6c6c5" d="M22.427 88.773v-2.841h1.442v2.841z"/>
    <path fill="#b7a283" d="M22.427 88.208v-1.726h1.442v1.726z"/>
    <path fill="#c6c6c5" d="M46.857 117.714h2.857v1.524h-2.857z"/>
    <path fill="#020202" d="M47.429 117.714h1.714v1.524h-1.714z"/>
    <path fill="#c6c6c5" d="M45.524 97.714h2.857v1.524h-2.857z"/>
    <path fill="#020202" d="M46.095 97.714h1.715v1.524h-1.715z"/>
    <path fill="#c6c6c5" d="M26.857 95.238h2.857v1.524h-2.857z"/>
    <path fill="#020202" d="M27.429 95.238h1.714v1.524h-1.714z"/>
    <path fill="#c6c6c5" d="M20.952 112.572h2.858v1.523h-2.858z"/>
    <path fill="#020202" d="M21.524 112.572h1.714v1.523h-1.714z"/>
    <path fill="#c6c6c5" d="M46.956 115.676v-2.841h1.442v2.841z"/>
    <path fill="#020202" d="M46.956 115.112v-1.727h1.442v1.727z"/>
    <path fill="#c6c6c5" d="M46.956 110.177v-2.842h1.442v2.842z"/>
    <path fill="#020202" d="M46.956 109.612v-1.726h1.442v1.726z"/>
    <path fill="#c6c6c5" d="M46.956 104.428v-2.842h1.442v2.842z"/>
    <path fill="#020202" d="M46.956 103.863v-1.727h1.442v1.727z"/>
    <path fill="#c6c6c5" d="M20.396 110.427v-2.842h1.442v2.842z"/>
    <path fill="#b7a283" d="M20.396 109.862v-1.727h1.442v1.727z"/>
    <path fill="#c6c6c5" d="M23.723 109.739v-2.284h1.16v2.284z"/>
    <path fill="#b7a283" d="M23.723 109.285v-1.388h1.16v1.388z"/>
    <path fill="#c6c6c5" d="M27.048 98.095h2.285v1.143h-2.285z"/>
    <path fill="#b7a283" d="M27.429 98.095h1.333v1.143h-1.333z"/>
    <path fill="#c6c6c5" d="M16.92 92.278v-5.535h3.498v5.535z"/>
    <path fill="#b7a283" d="M16.92 91.178v-3.363h3.498v3.363z"/>
    <path fill="#c6c6c5" d="M18.834 103.254v-2.282h1.158v2.282z"/>
    <path fill="#020202" d="M18.834 102.8v-1.387h1.158v1.387z"/>
    <path fill="#1a1a1a" d="M14.476 108.19h3.048v4.572h-3.048z"/>
    <path fill="#ccc" d="M15.62 106.667h.951v1.524h-.952zM15.62 112.762h.951v1.524h-.952z"/>
    <text x="12.762" y="120.381" fill="#fff" font-weight="bold" font-size="4" font-family="Arial" style="stroke-width:.190477">EN</text>
    <text x="52.762" y="120.572" fill="#fff" font-weight="bold" font-size="4" font-family="Arial" style="stroke-width:.190477">IO</text>
    <text x="57.143" y="120.572" fill="#fff" font-weight="bold" font-size="4" font-family="Arial" style="stroke-width:.190477">0</text>
    <g transform="translate(136.601 24.771)" fill="none" stroke="#9a916c" stroke-width="1.5">
        <circle class="pad-d2" cx="-132.982" cy="95.13" r="2.05" style="stroke:#b4b4b4;stroke-opacity:1"/>
        <circle class="pad-d2" cx="-132.982" cy="35.565" r="2.05" style="stroke:#b4b4b4;stroke-opacity:1"/>
        <circle class="pad-d2" cx="-132.982" cy="42.96" r="2.05" style="stroke:#b4b4b4;stroke-opacity:1"/>
        <circle class="pad-d2" cx="-132.982" cy="28.169" r="2.05" style="stroke:#b4b4b4;stroke-opacity:1"/>
        <circle class="pad-d2" cx="-132.982" cy="20.774" r="2.05" style="stroke:#b4b4b4;stroke-opacity:1"/>
        <circle class="pad-d2" cx="-132.982" cy="-8.809" r="2.05" style="stroke:#b4b4b4;stroke-opacity:1"/>
        <circle class="pad-d2" cx="-132.982" cy="5.982" r="2.05" style="stroke:#b4b4b4;stroke-opacity:1"/>
        <circle class="pad-d2" cx="-132.982" cy="13.378" r="2.05" style="stroke:#b4b4b4;stroke-opacity:1"/>
        <circle class="pad-d2" cx="-132.982" cy="-1.413" r="2.05" style="stroke:#b4b4b4;stroke-opacity:1"/>
        <circle class="pad-d2" cx="-132.982" cy="50.356" r="2.05" style="stroke:#b4b4b4;stroke-opacity:1"/>
        <circle class="pad-d2" cx="-132.982" cy="65.147" r="2.05" style="stroke:#b4b4b4;stroke-opacity:1"/>
        <circle class="pad-d2" cx="-132.982" cy="72.542" r="2.05" style="stroke:#b4b4b4;stroke-opacity:1"/>
        <circle class="pad-d2" cx="-132.982" cy="79.938" r="2.05" style="stroke:#b4b4b4;stroke-opacity:1"/>
        <circle class="pad-d2" cx="-132.982" cy="87.334" r="2.05" style="stroke:#b4b4b4;stroke-opacity:1"/>
        <circle class="pad-d2" cx="-132.982" cy="57.751" r="2.05" style="stroke:#b4b4b4;stroke-opacity:1"/>
    </g>
    <circle class="pad-d2" cx="68.381" cy="119.901" r="2.05" fill="none" stroke="#9a916c" stroke-width="1.5" style="stroke:#b4b4b4;stroke-opacity:1"/>
    <circle class="pad-d2" cx="68.381" cy="60.336" r="2.05" fill="none" stroke="#9a916c" stroke-width="1.5" style="stroke:#b4b4b4;stroke-opacity:1"/>
    <circle class="pad-d2" cx="68.381" cy="67.732" r="2.05" fill="none" stroke="#9a916c" stroke-width="1.5" style="stroke:#b4b4b4;stroke-opacity:1"/>
    <circle class="pad-d2" cx="68.381" cy="52.94" r="2.05" fill="none" stroke="#9a916c" stroke-width="1.5" style="stroke:#b4b4b4;stroke-opacity:1"/>
    <circle class="pad-d2" cx="68.381" cy="45.545" r="2.05" fill="none" stroke="#9a916c" stroke-width="1.5" style="stroke:#b4b4b4;stroke-opacity:1"/>
    <circle class="pad-d2" cx="68.381" cy="15.963" r="2.05" fill="none" stroke="#9a916c" stroke-width="1.5" style="stroke:#b4b4b4;stroke-opacity:1"/>
    <circle class="pad-d2" cx="67.205" cy="4.795" r="3.992" fill="none" stroke="#9a916c" stroke-width="1.965" style="stroke:#b4b4b4;stroke-width:.106996;stroke-dasharray:none;stroke-opacity:1"/>
    <circle class="pad-d2" cx="5.529" cy="5.845" r="3.992" fill="none" stroke="#9a916c" stroke-width="1.965" style="stroke:#b4b4b4;stroke-width:.106996;stroke-dasharray:none;stroke-opacity:1"/>
    <circle class="pad-d2" cx="66.366" cy="130.915" r="3.992" fill="none" stroke="#9a916c" stroke-width="1.965" style="stroke:#b4b4b4;stroke-width:.106996;stroke-dasharray:none;stroke-opacity:1"/>
    <circle class="pad-d2" cx="5.095" cy="130.742" r="3.992" fill="none" stroke="#9a916c" stroke-width="1.965" style="stroke:#b4b4b4;stroke-width:.106996;stroke-dasharray:none;stroke-opacity:1"/>
    <circle class="pad-d2" cx="68.381" cy="30.754" r="2.05" fill="none" stroke="#9a916c" stroke-width="1.5" style="stroke:#b4b4b4;stroke-opacity:1"/>
    <circle class="pad-d2" cx="68.381" cy="38.149" r="2.05" fill="none" stroke="#9a916c" stroke-width="1.5" style="stroke:#b4b4b4;stroke-opacity:1"/>
    <circle class="pad-d2" cx="68.381" cy="23.358" r="2.05" fill="none" stroke="#9a916c" stroke-width="1.5" style="stroke:#b4b4b4;stroke-opacity:1"/>
    <circle class="pad-d2" cx="68.381" cy="75.127" r="2.05" fill="none" stroke="#9a916c" stroke-width="1.5" style="stroke:#b4b4b4;stroke-opacity:1"/>
    <circle class="pad-d2" cx="68.381" cy="89.918" r="2.05" fill="none" stroke="#9a916c" stroke-width="1.5" style="stroke:#b4b4b4;stroke-opacity:1"/>
    <circle class="pad-d2" cx="68.381" cy="97.314" r="2.05" fill="none" stroke="#9a916c" stroke-width="1.5" style="stroke:#b4b4b4;stroke-opacity:1"/>
    <circle class="pad-d2" cx="68.381" cy="104.709" r="2.05" fill="none" stroke="#9a916c" stroke-width="1.5" style="stroke:#b4b4b4;stroke-opacity:1"/>
    <circle class="pad-d2" cx="68.381" cy="112.105" r="2.05" fill="none" stroke="#9a916c" stroke-width="1.5" style="stroke:#b4b4b4;stroke-opacity:1"/>
    <circle class="pad-d2" cx="68.381" cy="82.523" r="2.05" fill="none" stroke="#9a916c" stroke-width="1.5" style="stroke:#b4b4b4;stroke-opacity:1"/>
    <text style="font-size:2.5px;font-family:OCRA;fill:#fff" font-size="2.5" x="-19.422" y="65.006" transform="rotate(-90)">D23</text>
    <text style="font-size:2.5px;font-family:OCRA;fill:#fff" font-size="2.5" x="-26.031" y="65.201" transform="rotate(-90)">D22</text>
    <text style="font-size:2.5px;font-family:OCRA;fill:#fff" font-size="2.5" x="-33.512" y="65.008" transform="rotate(-90)">TX0</text>
    <text style="font-size:2.5px;font-family:OCRA;fill:#fff" font-size="2.5" x="-41.265" y="65.008" transform="rotate(-90)">RX0</text>
    <text style="font-size:2.5px;font-family:OCRA;fill:#fff" font-size="2.5" x="-48.554" y="65.043" transform="rotate(-90)">D21</text>
    <text style="font-size:2.5px;font-family:OCRA;fill:#fff" font-size="2.5" x="-54.996" y="65.008" transform="rotate(-90)">D19</text>
    <text style="font-size:2.5px;font-family:OCRA;fill:#fff" font-size="2.5" x="-62.292" y="65.008" transform="rotate(-90)">D18</text>
    <text style="font-size:2.5px;font-family:OCRA;fill:#fff" font-size="2.5" x="-68.847" y="64.973" transform="rotate(-90)">D5</text>
    <text style="font-size:2.5px;font-family:OCRA;fill:#fff" font-size="2.5" x="-77.171" y="65.043" transform="rotate(-90)">TX2</text>
    <text style="font-size:2.5px;font-family:OCRA;fill:#fff" font-size="2.5" x="-84.925" y="65.041" transform="rotate(-90)">RX2</text>
    <text style="font-size:2.5px;font-family:OCRA;fill:#fff" font-size="2.5" x="-91.113" y="65.01" transform="rotate(-90)">D4</text>
    <text style="font-size:2.5px;font-family:OCRA;fill:#fff" font-size="2.5" x="-98.767" y="65.041" transform="rotate(-90)">D2</text>
    <text style="font-size:2.5px;font-family:OCRA;fill:#fff" font-size="2.5" x="-106.892" y="64.975" transform="rotate(-90)">D15</text>
    <text style="font-size:2.5px;font-family:OCRA;fill:#fff" font-size="2.5" x="-114.662" y="64.848" transform="rotate(-90)">GND</text>
    <text style="font-size:2.5px;font-family:OCRA;fill:#fff" font-size="2.5" x="-122.372" y="64.85" transform="rotate(-90)">3V3</text>
    <text style="font-size:2.5px;font-family:OCRA;fill:#fff" font-size="2.5" x="-121.259" y="8.746" transform="rotate(-90)">Vin</text>
    <text style="font-size:2.5px;font-family:OCRA;fill:#fff" font-size="2.5" x="-114.742" y="9.062" transform="rotate(-90)">GND</text>
    <text style="font-size:2.5px;font-family:OCRA;fill:#fff" font-size="2.5" x="-107.436" y="9.22" transform="rotate(-90)">D13</text>
    <text style="font-size:2.5px;font-family:OCRA;fill:#fff" font-size="2.5" x="-99.677" y="8.746" transform="rotate(-90)">D12</text>
    <text style="font-size:2.5px;font-family:OCRA;fill:#fff" font-size="2.5" x="-92.349" y="8.746" transform="rotate(-90)">D14</text>
    <text style="font-size:2.5px;font-family:OCRA;fill:#fff" font-size="2.5" x="-84.569" y="8.746" transform="rotate(-90)">D27</text>
    <text style="font-size:2.5px;font-family:OCRA;fill:#fff" font-size="2.5" x="-77.104" y="8.746" transform="rotate(-90)">D26</text>
    <text style="font-size:2.5px;font-family:OCRA;fill:#fff" font-size="2.5" x="-69.64" y="8.43" transform="rotate(-90)">D25</text>
    <text style="font-size:2.5px;font-family:OCRA;fill:#fff" font-size="2.5" x="-62.647" y="8.588" transform="rotate(-90)">D33</text>
    <text style="font-size:2.5px;font-family:OCRA;fill:#fff" font-size="2.5" x="-55.499" y="8.588" transform="rotate(-90)">D32</text>
    <text style="font-size:2.5px;font-family:OCRA;fill:#fff" font-size="2.5" x="-46.139" y="8.43" transform="rotate(-90)">D35</text>
    <text style="font-size:2.5px;font-family:OCRA;fill:#fff" font-size="2.5" x="-38.99" y="8.43" transform="rotate(-90)">D34</text>
    <text style="font-size:2.5px;font-family:OCRA;fill:#fff" font-size="2.5" x="-31.842" y="8.43" transform="rotate(-90)">VN</text>
    <text style="font-size:2.5px;font-family:OCRA;fill:#fff" font-size="2.5" x="-24.693" y="8.43" transform="rotate(-90)">VP</text>
    <text style="font-size:2.5px;font-family:OCRA;fill:#fff" font-size="2.5" x="-16.461" y="8.43" transform="rotate(-90)">EN</text>
</svg>
