<svg xml:space="preserve" height="209.164" viewBox="0 0 87.875 167.331" width="109.844" xmlns="http://www.w3.org/2000/svg">
    <path style="fill:#3c3c3c;fill-opacity:1;stroke-width:.800001" d="M3.55 0A3.547 3.547 0 0 0 0 3.55v157.325a3.526 3.526 0 0 0 3.55 3.525h80.775a3.526 3.526 0 0 0 3.55-3.525V3.55A3.547 3.547 0 0 0 84.325 0zm4.375 3.675c2.348 0 4.275 1.902 4.275 4.25A4.291 4.291 0 0 1 7.925 12.2c-2.348 0-4.25-1.927-4.25-4.275a4.249 4.249 0 0 1 4.25-4.25zm72 0c2.348 0 4.275 1.902 4.275 4.25a4.291 4.291 0 0 1-4.275 4.275c-2.348 0-4.25-1.927-4.25-4.275a4.249 4.249 0 0 1 4.25-4.25zM4.373 18.833a2.187 2.187 0 0 1 2.188 2.187 2.187 2.187 0 0 1-2.188 2.186 2.187 2.187 0 0 1-2.186-2.186 2.187 2.187 0 0 1 2.186-2.187Zm79.2 0a2.187 2.187 0 0 1 2.188 2.187 2.187 2.187 0 0 1-2.187 2.186 2.187 2.187 0 0 1-2.186-2.186 2.187 2.187 0 0 1 2.186-2.187zm-79.2 8.74a2.187 2.187 0 0 1 2.188 2.186 2.187 2.187 0 0 1-2.188 2.188 2.187 2.187 0 0 1-2.186-2.188 2.187 2.187 0 0 1 2.186-2.186Zm79.2 0a2.187 2.187 0 0 1 2.188 2.186 2.187 2.187 0 0 1-2.187 2.188 2.187 2.187 0 0 1-2.186-2.188 2.187 2.187 0 0 1 2.186-2.186zm-79.2 8.741A2.187 2.187 0 0 1 6.561 38.5a2.187 2.187 0 0 1-2.188 2.186A2.187 2.187 0 0 1 2.187 38.5a2.187 2.187 0 0 1 2.186-2.186Zm79.2 0a2.187 2.187 0 0 1 2.188 2.186 2.187 2.187 0 0 1-2.187 2.186 2.187 2.187 0 0 1-2.186-2.186 2.187 2.187 0 0 1 2.186-2.186zm-79.2 8.74a2.187 2.187 0 0 1 2.188 2.187 2.187 2.187 0 0 1-2.188 2.186 2.187 2.187 0 0 1-2.186-2.186 2.187 2.187 0 0 1 2.186-2.188Zm79.2 0a2.187 2.187 0 0 1 2.188 2.187 2.187 2.187 0 0 1-2.187 2.186 2.187 2.187 0 0 1-2.186-2.186 2.187 2.187 0 0 1 2.186-2.188zm-79.2 8.74a2.187 2.187 0 0 1 2.188 2.186 2.187 2.187 0 0 1-2.188 2.187 2.187 2.187 0 0 1-2.186-2.187 2.187 2.187 0 0 1 2.186-2.186Zm79.2 0a2.187 2.187 0 0 1 2.188 2.186 2.187 2.187 0 0 1-2.187 2.187 2.187 2.187 0 0 1-2.186-2.187 2.187 2.187 0 0 1 2.186-2.186zm-79.2 8.739a2.187 2.187 0 0 1 2.188 2.187 2.187 2.187 0 0 1-2.188 2.186 2.187 2.187 0 0 1-2.186-2.186 2.187 2.187 0 0 1 2.186-2.187Zm79.2 0a2.187 2.187 0 0 1 2.188 2.187 2.187 2.187 0 0 1-2.187 2.186 2.187 2.187 0 0 1-2.186-2.186 2.187 2.187 0 0 1 2.186-2.187zm-79.2 8.74a2.187 2.187 0 0 1 2.188 2.186 2.187 2.187 0 0 1-2.188 2.188 2.187 2.187 0 0 1-2.186-2.188 2.187 2.187 0 0 1 2.186-2.186Zm79.2 0a2.187 2.187 0 0 1 2.188 2.186 2.187 2.187 0 0 1-2.187 2.188 2.187 2.187 0 0 1-2.186-2.188 2.187 2.187 0 0 1 2.186-2.186zm-79.2 8.741A2.187 2.187 0 0 1 6.561 82.2a2.187 2.187 0 0 1-2.188 2.186A2.187 2.187 0 0 1 2.187 82.2a2.187 2.187 0 0 1 2.186-2.186Zm79.2 0a2.187 2.187 0 0 1 2.188 2.186 2.187 2.187 0 0 1-2.187 2.186 2.187 2.187 0 0 1-2.186-2.186 2.187 2.187 0 0 1 2.186-2.186zm-79.2 8.74a2.187 2.187 0 0 1 2.188 2.187 2.187 2.187 0 0 1-2.188 2.186 2.187 2.187 0 0 1-2.186-2.186 2.187 2.187 0 0 1 2.186-2.188Zm79.2 0a2.187 2.187 0 0 1 2.188 2.187 2.187 2.187 0 0 1-2.187 2.186 2.187 2.187 0 0 1-2.186-2.186 2.187 2.187 0 0 1 2.186-2.188zm-79.2 8.74a2.187 2.187 0 0 1 2.188 2.186 2.187 2.187 0 0 1-2.188 2.187 2.187 2.187 0 0 1-2.186-2.187 2.187 2.187 0 0 1 2.186-2.186Zm79.2 0a2.187 2.187 0 0 1 2.188 2.186 2.187 2.187 0 0 1-2.187 2.187 2.187 2.187 0 0 1-2.186-2.187 2.187 2.187 0 0 1 2.186-2.186zm-79.2 8.739a2.187 2.187 0 0 1 2.188 2.187 2.187 2.187 0 0 1-2.188 2.186 2.187 2.187 0 0 1-2.185-2.186 2.187 2.187 0 0 1 2.185-2.187zm79.2 0a2.187 2.187 0 0 1 2.188 2.187 2.187 2.187 0 0 1-2.187 2.186 2.187 2.187 0 0 1-2.186-2.186 2.187 2.187 0 0 1 2.186-2.187zm-79.2 8.74a2.187 2.187 0 0 1 2.188 2.186 2.187 2.187 0 0 1-2.188 2.188 2.187 2.187 0 0 1-2.185-2.188 2.187 2.187 0 0 1 2.185-2.185zm79.2 0a2.187 2.187 0 0 1 2.188 2.186 2.187 2.187 0 0 1-2.187 2.188 2.187 2.187 0 0 1-2.186-2.188 2.187 2.187 0 0 1 2.186-2.185zm-79.2 8.741a2.187 2.187 0 0 1 2.188 2.186 2.187 2.187 0 0 1-2.188 2.186 2.187 2.187 0 0 1-2.185-2.186 2.187 2.187 0 0 1 2.185-2.186zm79.2 0a2.187 2.187 0 0 1 2.188 2.186 2.187 2.187 0 0 1-2.187 2.186 2.187 2.187 0 0 1-2.186-2.186 2.187 2.187 0 0 1 2.186-2.186zm-79.2 8.74a2.187 2.187 0 0 1 2.188 2.187 2.187 2.187 0 0 1-2.188 2.186 2.187 2.187 0 0 1-2.185-2.186 2.187 2.187 0 0 1 2.185-2.188zm79.2 0a2.187 2.187 0 0 1 2.188 2.187 2.187 2.187 0 0 1-2.187 2.186 2.187 2.187 0 0 1-2.186-2.186 2.187 2.187 0 0 1 2.186-2.188zm-79.2 8.74a2.187 2.187 0 0 1 2.188 2.186 2.187 2.187 0 0 1-2.188 2.187 2.187 2.187 0 0 1-2.185-2.187 2.187 2.187 0 0 1 2.185-2.186zm79.2 0a2.187 2.187 0 0 1 2.188 2.186 2.187 2.187 0 0 1-2.187 2.187 2.187 2.187 0 0 1-2.186-2.187 2.187 2.187 0 0 1 2.186-2.186zM7.926 152.225c2.348 0 4.275 1.902 4.275 4.25s-1.927 4.25-4.275 4.25a4.249 4.249 0 0 1-4.25-4.25 4.249 4.249 0 0 1 4.25-4.25zm72 0c2.348 0 4.275 1.902 4.275 4.25s-1.927 4.25-4.275 4.25a4.249 4.249 0 0 1-4.25-4.25 4.249 4.249 0 0 1 4.25-4.25z"/>
    <path d="M59.524 117.645v4.406" stroke="#8c8c8c" stroke-width="1.701" style="stroke-linecap:round;stroke-linejoin:miter;stroke-miterlimit:4;stroke-dasharray:none" fill="none" transform="translate(.004 -.03)"/>
    <path d="M62.01 117.645v4.406M64.282 117.645v4.406" stroke="#8c8c8c" stroke-width="1.134" style="stroke-linecap:round;stroke-linejoin:miter;stroke-miterlimit:4;stroke-dasharray:none" fill="none" transform="translate(.004 -.03)"/>
    <path d="M66.768 117.645v4.406" stroke="#8c8c8c" stroke-width="1.701" style="stroke-linecap:round;stroke-linejoin:miter;stroke-miterlimit:4;stroke-dasharray:none" fill="none" transform="translate(.004 -.03)"/>
    <path fill="#dcdcdc" style="stroke-width:1.04872" transform="rotate(-90 -.013 -.017)" d="M-121.885 58.396h4.074v2.256h-4.074zM-121.885 61.142h4.074v1.735h-4.074zM-121.885 63.415h4.074v1.735h-4.074zM-121.885 65.64h4.074v2.256h-4.074z"/>
    <path fill="#303030" style="fill:#000;stroke-width:1.04872" transform="rotate(-90 -.013 -.017)" d="M-121.404 58.056h3.111v10.185h-3.111z"/>
    <path fill="#8c8c8c" style="stroke-width:.898163" d="M44.422 90.823h6.588v2.881h-6.588zM44.422 84.197h6.588v2.881h-6.588zM44.422 97.448h6.588v2.881h-6.588z" transform="translate(.035 -.53)"/>
    <path fill="#8c8c8c" style="stroke-width:.713256" d="M59.407 87.49h7.018v9.547h-7.018z" transform="translate(.035 -.53)"/>
    <path style="stroke-width:.800001" d="M50.848 83.238h8.644v18.051h-8.644z" transform="translate(.035 -.53)"/>
    <path fill="#8c8c8c" d="M18.483 144.91h4.492v16.187h-4.492z"/>
    <path fill="#c8c8c8" d="M16.576 147.496h8.305v11.017h-8.305z"/>
    <path d="M23.483 153.004a2.754 2.754 0 1 1-5.509 0 2.754 2.754 0 0 1 5.509 0z"/>
    <path fill="#8c8c8c" d="M64.972 144.91h4.492v16.187h-4.492z"/>
    <path fill="#c8c8c8" d="M63.065 147.496h8.305v11.017h-8.305z"/>
    <path d="M69.971 153.004a2.754 2.754 0 1 1-5.508 0 2.754 2.754 0 0 1 5.508 0z"/>
    <path d="M48.168 107.051v4.407" stroke="#8c8c8c" stroke-width="1.701" style="stroke-linecap:round;stroke-linejoin:miter;stroke-miterlimit:4;stroke-dasharray:none" fill="none" transform="translate(.035 -.53)"/>
    <path d="M50.654 107.051v4.407M52.926 107.051v4.407" stroke="#8c8c8c" stroke-width="1.134" style="stroke-linecap:round;stroke-linejoin:miter;stroke-miterlimit:4;stroke-dasharray:none" fill="none" transform="translate(.035 -.53)"/>
    <path d="M55.412 107.051v4.407" stroke="#8c8c8c" stroke-width="1.701" style="stroke-linecap:round;stroke-linejoin:miter;stroke-miterlimit:4;stroke-dasharray:none" fill="none" transform="translate(.035 -.53)"/>
    <path fill="#dcdcdc" style="stroke-width:1.04872" transform="rotate(-90 -.247 -.283)" d="M-111.292 47.04h4.074v2.256h-4.074zM-111.292 49.786h4.074v1.735h-4.074zM-111.292 52.059h4.074v1.735h-4.074zM-111.292 54.284h4.074v2.256h-4.074z"/>
    <path fill="#303030" style="fill:#000;stroke-width:1.04872" transform="rotate(-90 -.247 -.283)" d="M-110.81 46.7h3.111v10.185h-3.111z"/>
    <path fill="#8c8c8c" d="M37.451 104.318h3.559v2.119h-3.559zM37.451 110.269h3.559v2.119h-3.559z"/>
    <path stroke="#fff" stroke-width=".499" style="stroke-miterlimit:4;stroke-dasharray:none" fill="none" d="M36.561 103.47H41.9v9.661h-5.339z"/>
    <path fill="#8c8c8c" d="M18.741 104.318H22.3v2.119h-3.559zM18.741 110.269H22.3v2.119h-3.559z"/>
    <path stroke="#fff" stroke-width=".624" style="stroke-miterlimit:4;stroke-dasharray:none" fill="none" d="M45.657 130h6.674v12.076h-6.674z" transform="matrix(.8 0 0 .8 -18.674 -.53)"/>
    <path fill="#8c8c8c" d="M21.538 72.368h3.559v2.119h-3.559zM21.538 78.32h3.559v2.119h-3.559z"/>
    <path stroke="#fff" stroke-width=".624" style="stroke-miterlimit:4;stroke-dasharray:none" fill="none" d="M45.657 130h6.674v12.076h-6.674z" transform="matrix(.8 0 0 .8 -15.878 -32.48)"/>
    <path fill="#8c8c8c" d="M65.436 74.148v3.559h-2.119v-3.559zM59.484 74.148v3.559h-2.119v-3.559z"/>
    <path stroke="#fff" stroke-width=".624" style="stroke-miterlimit:4;stroke-dasharray:none" fill="none" d="M45.657 130h6.674v12.076h-6.674z" transform="matrix(0 .8 -.8 0 170.284 36.733)"/>
    <path fill="#8c8c8c" d="M30.893 72.368h3.559v2.119h-3.559zM30.893 78.32h3.559v2.119h-3.559z"/>
    <path stroke="#fff" stroke-width=".624" style="stroke-miterlimit:4;stroke-dasharray:none" fill="none" d="M45.657 130h6.674v12.076h-6.674z" transform="matrix(.8 0 0 .8 -6.522 -32.48)"/>
    <path fill="none" d="M4.376 30.616v.003h-.003v-.003z"/>
    <circle class="pad-tx" cx="4.374" cy="21.02" r="2.187" fill="none" stroke="#9a916c" stroke-width="1.6" style="stroke:#b4b4b4;stroke-opacity:1"/>
    <circle class="pad-tx" cx="4.374" cy="29.76" r="2.187" fill="none" stroke="#9a916c" stroke-width="1.6" style="stroke:#b4b4b4;stroke-opacity:1"/>
    <circle class="pad-tx" cx="4.374" cy="38.5" r="2.187" fill="none" stroke="#9a916c" stroke-width="1.6" style="stroke:#b4b4b4;stroke-opacity:1"/>
    <circle class="pad-tx" cx="4.374" cy="47.24" r="2.187" fill="none" stroke="#9a916c" stroke-width="1.6" style="stroke:#b4b4b4;stroke-opacity:1"/>
    <circle class="pad-tx" cx="4.374" cy="55.98" r="2.187" fill="none" stroke="#9a916c" stroke-width="1.6" style="stroke:#b4b4b4;stroke-opacity:1"/>
    <circle class="pad-tx" cx="4.374" cy="64.72" r="2.187" fill="none" stroke="#9a916c" stroke-width="1.6" style="stroke:#b4b4b4;stroke-opacity:1"/>
    <circle class="pad-tx" cx="4.374" cy="73.46" r="2.187" fill="none" stroke="#9a916c" stroke-width="1.6" style="stroke:#b4b4b4;stroke-opacity:1"/>
    <circle class="pad-tx" cx="4.374" cy="82.2" r="2.187" fill="none" stroke="#9a916c" stroke-width="1.6" style="stroke:#b4b4b4;stroke-opacity:1"/>
    <circle class="pad-tx" cx="4.374" cy="90.94" r="2.187" fill="none" stroke="#9a916c" stroke-width="1.6" style="stroke:#b4b4b4;stroke-opacity:1"/>
    <circle class="pad-tx" cx="4.374" cy="99.68" r="2.187" fill="none" stroke="#9a916c" stroke-width="1.6" style="stroke:#b4b4b4;stroke-opacity:1"/>
    <circle class="pad-tx" cx="4.374" cy="108.42" r="2.187" fill="none" stroke="#9a916c" stroke-width="1.6" style="stroke:#b4b4b4;stroke-opacity:1"/>
    <circle class="pad-tx" cx="4.374" cy="117.16" r="2.187" fill="none" stroke="#9a916c" stroke-width="1.6" style="stroke:#b4b4b4;stroke-opacity:1"/>
    <circle class="pad-tx" cx="4.374" cy="125.9" r="2.187" fill="none" stroke="#9a916c" stroke-width="1.6" style="stroke:#b4b4b4;stroke-opacity:1"/>
    <circle class="pad-tx" cx="4.374" cy="134.64" r="2.187" fill="none" stroke="#9a916c" stroke-width="1.6" style="stroke:#b4b4b4;stroke-opacity:1"/>
    <circle class="pad-tx" cx="4.374" cy="143.38" r="2.187" fill="none" stroke="#9a916c" stroke-width="1.6" style="stroke:#b4b4b4;stroke-opacity:1"/>
    <circle class="pad-tx" cx="83.574" cy="143.38" r="2.187" fill="none" stroke="#9a916c" stroke-width="1.6" style="stroke:#b4b4b4;stroke-opacity:1"/>
    <circle class="pad-tx" cx="83.574" cy="21.02" r="2.187" fill="none" stroke="#9a916c" stroke-width="1.6" style="stroke:#b4b4b4;stroke-opacity:1"/>
    <circle class="pad-tx" cx="83.574" cy="29.76" r="2.187" fill="none" stroke="#9a916c" stroke-width="1.6" style="stroke:#b4b4b4;stroke-opacity:1"/>
    <circle class="pad-tx" cx="83.574" cy="38.5" r="2.187" fill="none" stroke="#9a916c" stroke-width="1.6" style="stroke:#b4b4b4;stroke-opacity:1"/>
    <circle class="pad-tx" cx="83.574" cy="47.24" r="2.187" fill="none" stroke="#9a916c" stroke-width="1.6" style="stroke:#b4b4b4;stroke-opacity:1"/>
    <circle class="pad-tx" cx="83.574" cy="55.98" r="2.187" fill="none" stroke="#9a916c" stroke-width="1.6" style="stroke:#b4b4b4;stroke-opacity:1"/>
    <circle class="pad-tx" cx="83.574" cy="64.72" r="2.187" fill="none" stroke="#9a916c" stroke-width="1.6" style="stroke:#b4b4b4;stroke-opacity:1"/>
    <circle class="pad-tx" cx="83.574" cy="73.46" r="2.187" fill="none" stroke="#9a916c" stroke-width="1.6" style="stroke:#b4b4b4;stroke-opacity:1"/>
    <circle class="pad-tx" cx="83.574" cy="82.2" r="2.187" fill="none" stroke="#9a916c" stroke-width="1.6" style="stroke:#b4b4b4;stroke-opacity:1"/>
    <circle class="pad-tx" cx="83.574" cy="90.94" r="2.187" fill="none" stroke="#9a916c" stroke-width="1.6" style="stroke:#b4b4b4;stroke-opacity:1"/>
    <circle class="pad-tx" cx="83.574" cy="99.68" r="2.187" fill="none" stroke="#9a916c" stroke-width="1.6" style="stroke:#b4b4b4;stroke-opacity:1"/>
    <circle class="pad-tx" cx="83.574" cy="108.42" r="2.187" fill="none" stroke="#9a916c" stroke-width="1.6" style="stroke:#b4b4b4;stroke-opacity:1"/>
    <circle class="pad-tx" cx="83.574" cy="117.16" r="2.187" fill="none" stroke="#9a916c" stroke-width="1.6" style="stroke:#b4b4b4;stroke-opacity:1"/>
    <circle class="pad-tx" cx="83.574" cy="125.9" r="2.187" fill="none" stroke="#9a916c" stroke-width="1.6" style="stroke:#b4b4b4;stroke-opacity:1"/>
    <circle class="pad-tx" cx="83.574" cy="134.64" r="2.187" fill="none" stroke="#9a916c" stroke-width="1.6" style="stroke:#b4b4b4;stroke-opacity:1"/>
    <path fill="#8c8c8c" style="stroke-width:.96743" d="M21.229 85.094h6.525v12.135h-6.525z" transform="translate(.035 -.53)"/>
    <path fill="#ff9c01" d="M20.035 85.547h8.983v10.17h-8.983z"/>
    <path fill="#b5940c" transform="rotate(90 .283 -.247)" style="fill:#ad600c;fill-opacity:1;stroke-width:1.10874" d="M94.175-28.983h1.592V-20h-1.592z"/>
    <path fill="#8c8c8c" style="stroke-width:.903121" d="M33.856 89.449h3.814v10.714h-3.814z" transform="translate(.035 -.53)"/>
    <path fill="#ff9c01" style="stroke-width:1.00005" d="M33.051 90.102h5.424v9.407h-5.424z" transform="translate(.035 -.53)"/>
    <path fill="#b5940c" transform="rotate(90 .283 -.247)" style="fill:#ad600c;fill-opacity:1;stroke-width:.675628" d="M98.034-38.475h.979v5.424h-.979z"/>
    <path d="M21.578 79.426v-5.087c0-.156.122-.282.272-.282h2.864c.15 0 .272.126.272.282v5.086a.277.277 0 0 1-.272.282H21.85a.276.276 0 0 1-.272-.281z" fill="#dcdcdc" style="stroke-width:.979197" transform="translate(.035 -.53)"/>
    <path fill="#6e554b" transform="rotate(90 .283 -.247)" style="stroke-width:.979197" d="M75.116-24.986h3.532v3.408h-3.532z"/>
    <path d="M37.526 110.844v-5.086c0-.156.123-.282.273-.282h2.863c.15 0 .272.126.272.282v5.085a.277.277 0 0 1-.272.283H37.8a.276.276 0 0 1-.273-.282Z" fill="#dcdcdc"/>
    <path fill="#6e554b" d="M40.934 106.535v3.532h-3.408v-3.532z"/>
    <path d="M30.969 78.895V73.81c0-.156.122-.283.272-.283h2.864c.15 0 .272.127.272.283v5.085a.277.277 0 0 1-.272.282H31.24a.276.276 0 0 1-.272-.28Z" fill="#dcdcdc"/>
    <path fill="#6e554b" d="M34.377 74.586v3.532h-3.408v-3.532z"/>
    <path d="M58.909 74.224h5.087c.155 0 .282.122.282.272v2.863c0 .15-.127.273-.282.273H58.91a.277.277 0 0 1-.282-.273v-2.863a.276.276 0 0 1 .281-.272Z" fill="#dcdcdc"/>
    <path fill="#6e554b" d="M63.218 77.632h-3.531v-3.408h3.531z"/>
    <path d="M18.817 110.845v-5.087c0-.156.122-.282.272-.282h2.863c.15 0 .273.126.273.282v5.086a.277.277 0 0 1-.273.282H19.09a.276.276 0 0 1-.272-.281Z" fill="#dcdcdc"/>
    <path fill="#6e554b" d="M22.225 106.535v3.532h-3.408v-3.532z"/>
    <g transform="translate(.035 -.53)">
        <path fill="#8c8c8c" d="M24.407 104.848h4.068v3.475h-4.068zM31.21 104.848h4.068v3.475H31.21zM31.21 110.234h4.068v3.475H31.21zM24.406 110.234h4.068v3.475h-4.068z"/>
        <path d="M24.853 112.189v-5.82c0-.598.52-1.081 1.163-1.081h7.652c.64 0 1.162.483 1.162 1.08v5.82c0 .597-.52 1.081-1.162 1.081h-7.652c-.643 0-1.163-.484-1.163-1.08z" fill="#b4b4b4" style="fill:#cba831;fill-opacity:1;stroke-width:1.40784"/>
        <path d="M25.634 106.375c0-.238.208-.433.464-.433h7.627c.256 0 .464.195.464.433v5.772c0 .237-.208.433-.464.433h-7.627c-.256 0-.464-.196-.464-.433z" fill="#dcdcdc" style="stroke-width:1.40784"/>
        <ellipse cx="27.11" cy="107.401" rx=".79" ry=".8" style="fill:#b3b3b3;stroke-width:1.12604"/>
    </g>
    <path d="M67.092 23.735V0H20.783v23.734a.869.869 0 1 1 0 1.737v4.052a.869.869 0 1 1 0 1.737v4.052a.869.869 0 1 1 0 1.737v4.052a.869.869 0 1 1 0 1.737v4.052a.869.869 0 1 1 0 1.737v4.052a.869.869 0 1 1 0 1.737v4.052a.869.869 0 1 1 0 1.737v4.052a.869.869 0 1 1 0 1.738v3.474h7.844c-.008-.05-.03-.093-.03-.144a.869.869 0 1 1 1.738 0c0 .05-.02.096-.03.144h4.11c-.008-.05-.03-.093-.03-.144a.869.869 0 1 1 1.738 0c0 .05-.02.096-.03.144h4.11c-.008-.05-.03-.093-.03-.144a.869.869 0 1 1 1.738 0c0 .05-.02.096-.03.144h4.11c-.008-.05-.03-.093-.03-.144a.869.869 0 1 1 1.737 0c0 .05-.02.096-.03.144h4.111c-.008-.05-.03-.093-.03-.144a.869.869 0 1 1 1.737 0c0 .05-.02.096-.03.144h4.11c-.007-.05-.029-.093-.029-.144a.869.869 0 1 1 1.738 0c0 .05-.02.096-.03.144h7.842v-3.476a.867.867 0 0 1 0-1.736v-4.054a.867.867 0 0 1 0-1.736v-4.054a.867.867 0 0 1 0-1.736v-4.054a.867.867 0 0 1 0-1.736v-4.054a.867.867 0 0 1 0-1.736v-4.054a.867.867 0 0 1 0-1.736v-4.054a.867.867 0 0 1 0-1.736v-4.054a.864.864 0 1 1 .005-1.728zm-43.414 42.26a.869.869 0 1 1 0-1.738.869.869 0 0 1 0 1.738zm0-5.79a.869.869 0 1 1 0-1.738.869.869 0 0 1 0 1.738zm0-5.79a.869.869 0 1 1 0-1.737.869.869 0 0 1 0 1.738zm0-5.788a.869.869 0 1 1 0-1.738.869.869 0 0 1 0 1.738zm0-5.789a.869.869 0 1 1 0-1.737.869.869 0 0 1 0 1.737zm0-5.789a.869.869 0 1 1 0-1.737.869.869 0 0 1 0 1.737zm0-5.789a.869.869 0 1 1 0-1.737.869.869 0 0 1 0 1.737zm0-5.789a.869.869 0 1 1 0-1.737.869.869 0 0 1 0 1.737zm40.523 40.523a.868.868 0 1 1 0-1.737.868.868 0 0 1 0 1.737zm0-5.79a.868.868 0 1 1 0-1.735.868.868 0 0 1 0 1.736zm0-5.788a.868.868 0 1 1 0-1.736.868.868 0 0 1 0 1.736zm0-5.789a.868.868 0 1 1 0-1.736.868.868 0 0 1 0 1.736zm0-5.789a.868.868 0 1 1 0-1.736.868.868 0 0 1 0 1.736zm0-5.789a.868.868 0 1 1 0-1.736.868.868 0 0 1 0 1.736zm0-5.789a.868.868 0 1 1 0-1.736.868.868 0 0 1 0 1.736zm0-5.789a.868.868 0 1 1 0-1.735.868.868 0 0 1 0 1.735z" class="pcb"/>
    <g class="pads" fill="#9a916c">
        <g class="pads-left">
            <path class="pad1-rst" d="M20.781 22.908v.825a.869.869 0 1 1 0 1.737v.825h4.574v-3.387zm2.895 2.562a.869.869 0 1 1 0-1.737.869.869 0 0 1 0 1.737z"/>
            <path class="pad2-adc" d="M20.781 28.697v.825a.869.869 0 1 1 0 1.737v.825h4.574v-3.387zm2.895 2.562a.869.869 0 1 1 0-1.737.869.869 0 0 1 0 1.737z"/>
            <path class="pad3-en" d="M20.781 34.486v.825a.869.869 0 1 1 0 1.737v.825h4.574v-3.387zm2.895 2.562a.869.869 0 1 1 0-1.737.869.869 0 0 1 0 1.737z"/>
            <path class="pad4-gpio16" d="M20.781 40.276v.825a.869.869 0 1 1 0 1.737v.825h4.574v-3.387zm2.895 2.561a.869.869 0 1 1 0-1.737.869.869 0 0 1 0 1.737z"/>
            <path class="pad5-gpio14" d="M20.781 46.065v.825a.869.869 0 1 1 0 1.737v.825h4.574v-3.387zm2.895 2.56a.869.869 0 1 1 0-1.737.869.869 0 0 1 0 1.738z"/>
            <path class="pad6-gpio12" d="M20.781 51.853v.825a.869.869 0 1 1 0 1.737v.825h4.574v-3.387Zm2.895 2.562a.869.869 0 1 1 0-1.738.869.869 0 0 1 0 1.738z"/>
            <path class="pad7-gpio13" d="M20.781 57.642v.825a.869.869 0 1 1 0 1.737v.825h4.574v-3.387zm2.895 2.562a.869.869 0 1 1 0-1.738.869.869 0 0 1 0 1.738z"/>
            <path class="pad8-vcc" d="M20.781 63.43v.826a.869.869 0 1 1 0 1.738v.825h4.574v-3.387H20.78Zm2.895 2.564a.869.869 0 1 1 0-1.738.869.869 0 0 1 0 1.738z"/>
        </g>
        <g class="pads-bot">
            <path class="pad9-cso" d="M27.772 67.79v1.679h.854c-.008-.05-.03-.094-.03-.145a.869.869 0 1 1 1.738 0c0 .05-.02.096-.03.145h.855v-1.68z"/>
            <path class="pad10-miso" d="M33.56 67.79v1.679h.855c-.008-.05-.03-.094-.03-.145a.869.869 0 1 1 1.738 0c0 .05-.02.096-.03.145h.855v-1.68z"/>
            <path class="pad11-gpio9" d="M39.349 67.79v1.679h.854c-.008-.05-.03-.094-.03-.145a.869.869 0 1 1 1.738 0c0 .05-.02.096-.03.145h.855v-1.68z"/>
            <path class="pad12-gpio10" d="M45.137 67.79v1.679h.855c-.008-.05-.03-.094-.03-.145a.869.869 0 1 1 1.737 0c0 .05-.02.096-.03.145h.856v-1.68z"/>
            <path class="pad13-mosi" d="M50.926 67.79v1.679h.855c-.008-.05-.03-.094-.03-.145a.869.869 0 1 1 1.737 0c0 .05-.02.096-.03.145h.855v-1.68z"/>
            <path class="pad14-sclk" d="M56.715 67.79v1.679h.855c-.008-.05-.03-.094-.03-.145a.869.869 0 1 1 1.738 0c0 .05-.02.096-.03.145h.855v-1.68z"/>
        </g>
        <g class="pads-right">
            <path class="pad15-gnd" d="M66.225 65.124c0-.48.39-.87.87-.87v-.824H62.52v3.387h4.574v-.825a.867.867 0 0 1-.869-.868zm-2.026.869a.868.868 0 1 1 0-1.737.868.868 0 0 1 0 1.737z"/>
            <path class="pad16-gpio15" d="M66.225 59.335c0-.48.39-.87.87-.87v-.824H62.52v3.387h4.574v-.825a.867.867 0 0 1-.869-.868zm-2.026.869a.868.868 0 1 1 0-1.737.868.868 0 0 1 0 1.737z"/>
            <path class="pad17-gpio2" d="M66.225 53.546c0-.48.39-.868.87-.868v-.825H62.52v3.387h4.574v-.825a.869.869 0 0 1-.869-.87zm-2.026.869a.868.868 0 1 1 0-1.736.868.868 0 0 1 0 1.736z"/>
            <path class="pad18-gpio0" d="M66.225 47.757c0-.48.39-.868.87-.868v-.825H62.52v3.387h4.574v-.825a.869.869 0 0 1-.869-.87zm-2.026.869a.868.868 0 1 1 0-1.736.868.868 0 0 1 0 1.736z"/>
            <path class="pad19-gpio4" d="M66.225 41.968c0-.48.39-.868.87-.868v-.825H62.52v3.387h4.574v-.825a.869.869 0 0 1-.869-.869zm-2.026.87a.868.868 0 1 1 0-1.737.868.868 0 0 1 0 1.736z"/>
            <path class="pad20-gpio5" d="M66.225 36.18c0-.48.39-.869.87-.869v-.825H62.52v3.387h4.574v-.825a.869.869 0 0 1-.869-.869zm-2.026.868a.868.868 0 1 1 0-1.736.868.868 0 0 1 0 1.736z"/>
            <path class="pad21-rxd0" d="M66.225 30.391c0-.48.39-.869.87-.869v-.825H62.52v3.387h4.574v-.825a.869.869 0 0 1-.869-.868zm-2.026.868a.868.868 0 1 1 0-1.736.868.868 0 0 1 0 1.736z"/>
            <path class="pad22-txd0" d="M66.225 24.602c0-.48.39-.869.87-.869v-.825H62.52v3.387h4.574v-.825a.869.869 0 0 1-.869-.868zm-2.026.868a.868.868 0 1 1 0-1.735.868.868 0 0 1 0 1.735z"/>
        </g>
    </g>
    <path d="M51.251 9.955h6.029V2.092H65v13.52h-1.246V3.338h-5.228v7.863h-8.52V3.338h-5.372v7.863h-8.455V3.338h-5.224v12.271h-1.246V3.338h-5.15v12.274h-1.684V2.092h14.55v7.863h5.963V2.092h7.863z" class="antenna" fill="#9a916c"/>
    <g class="silk" fill="#fff">
        <path d="M61.873 20.51v-.222h-3.227v-2.962h3.227v-.222h-3.467v3.406zM66.154 20.51v-3.406h-3.467v.222h3.227v2.962h-3.227v.222z"/>
    </g>
    <g fill="#9a916c">
        <path class="led-pad-left" transform="rotate(180 .001 0)" style="stroke-width:1.02115" d="M-61.332-20.032h2.451v2.451h-2.451z"/>
        <path class="led-pad-right" transform="rotate(180 .001 0)" style="stroke-width:1.02115" d="M-65.675-20.032h2.451v2.451h-2.451z"/>
    </g>
    <g transform="translate(.003)">
        <path class="led-outer" fill="#cdcccc" d="M64.762 18.807c0-.32.26-.579.579-.579v-.442h-6.127v.442a.58.58 0 0 1 0 1.158v.443h6.127v-.443a.58.58 0 0 1-.58-.579z" style="stroke-width:1.02115"/>
        <path class="led-blue" fill="#3d55a5" style="fill:#00f;fill-opacity:1;stroke-width:1.02115" d="M60.235 17.786h4.085v2.042h-4.085z"/>
        <circle cx="-18.807" cy="62.277" r=".461" fill="#a00000" transform="rotate(-90)" style="fill:#18157f;fill-opacity:1;stroke-width:1.06667"/>
    </g>
    <path class="main" fill="#999" style="stroke-width:1.02115" d="M-69.954 20.143h34.923v44.114h-34.923z" transform="translate(96.43 1.567)"/>
    <g class="shadows" style="fill:#fff">
        <path class="bottom-right" fill="#ccc" d="m26.25 66.108.226.226h34.923l.51-.51V21.708l-.284-.284-.736.929v42.959H26.987v-.135z"/>
        <path class="top-left" fill="#666" d="M61.4 21.199H26.475l-.51.51v44.114l.284.285.737-.93V22.22h33.902v.134l.736-.93z"/>
    </g>
    <g style="fill:#e6e6e6">
        <g class="words" style="fill:#e6e6e6">
            <g class="model" style="fill:#e6e6e6">
                <path class="model-m" d="M23.58 25.248v1.018l-1.525.393 1.525.39v1.018h-2.506v-.634h1.91l-1.91-.488v-.575l1.91-.488h-1.91v-.634z" style="fill:#e6e6e6" transform="matrix(1.02115 0 0 1.02115 20.444 .36)"/>
                <path class="model-o" d="M22.325 28.463c.409 0 .728.114.955.342.229.228.342.545.342.952 0 .417-.111.738-.336.964-.224.226-.537.338-.94.338-.293 0-.533-.049-.721-.148a1.06 1.06 0 0 1-.438-.427c-.104-.186-.156-.418-.156-.696 0-.283.045-.517.135-.702.091-.185.232-.335.428-.45.196-.115.438-.173.731-.173zm-.003.774c-.254 0-.436.047-.546.141a.479.479 0 0 0-.165.384c0 .166.054.295.162.386.108.091.303.137.582.137.236 0 .408-.047.518-.143a.49.49 0 0 0 .163-.387.471.471 0 0 0-.166-.376c-.11-.095-.293-.142-.548-.142z" style="fill:#e6e6e6" transform="matrix(1.02115 0 0 1.02115 20.444 .36)"/>
                <path class="model-d" d="M23.58 31.485v1.15c0 .227-.031.41-.093.549a.892.892 0 0 1-.265.346 1.097 1.097 0 0 1-.402.198 1.855 1.855 0 0 1-.484.062c-.269 0-.476-.031-.623-.092a1.043 1.043 0 0 1-.371-.254.82.82 0 0 1-.199-.349 1.767 1.767 0 0 1-.068-.461v-1.15h2.505zm-.568.775h-1.368v.189c0 .162.018.277.054.345a.37.37 0 0 0 .188.161c.09.039.234.058.436.058.266 0 .447-.043.545-.13.098-.087.146-.23.146-.431v-.192Z" style="fill:#e6e6e6" transform="matrix(1.02115 0 0 1.02115 20.444 .36)"/>
                <path class="model-e" d="M23.58 34.196v2.074h-.535v-1.299h-.398v1.205h-.511v-1.205h-.494v1.337h-.567v-2.112z" style="fill:#e6e6e6" transform="matrix(1.02115 0 0 1.02115 20.444 .36)"/>
                <path class="model-l" d="M23.58 36.725v.774h-1.889v1.208h-.617v-1.982z" style="fill:#e6e6e6" transform="matrix(1.02115 0 0 1.02115 20.444 .36)"/>
            </g>
            <g class="esp-8266" style="fill:#e6e6e6">
                <path class="esp-e" d="M23.58 41.255v2.074h-.535V42.03h-.398v1.205h-.511V42.03h-.494v1.337h-.567v-2.112z" style="fill:#e6e6e6" transform="matrix(1.02115 0 0 1.02115 20.444 .36)"/>
                <path class="esp-s" d="m21.903 43.648.046.736a.57.57 0 0 0-.273.098.407.407 0 0 0-.152.342c0 .11.026.195.078.256.052.06.111.09.18.09a.233.233 0 0 0 .175-.086c.052-.057.1-.189.146-.396.076-.34.178-.582.304-.727a.612.612 0 0 1 .483-.219c.129 0 .251.037.365.112a.747.747 0 0 1 .271.337c.065.149.098.354.098.616 0 .319-.06.563-.179.731-.119.168-.309.269-.568.301l-.042-.73a.4.4 0 0 0 .246-.122.392.392 0 0 0 .077-.257c0-.09-.02-.158-.058-.203a.175.175 0 0 0-.14-.068c-.04 0-.075.019-.107.056-.033.037-.063.123-.092.26-.073.339-.147.581-.222.728a.76.76 0 0 1-.278.319.706.706 0 0 1-.37.101.79.79 0 0 1-.444-.134.847.847 0 0 1-.309-.372 1.511 1.511 0 0 1-.105-.604c0-.427.082-.722.246-.886a.969.969 0 0 1 .624-.279z" style="fill:#e6e6e6" transform="matrix(1.02115 0 0 1.02115 20.444 .36)"/>
                <path class="esp-p" d="M23.58 46.308v1.287c0 .28-.067.49-.2.63-.134.14-.323.209-.569.209-.253 0-.45-.076-.593-.228-.143-.152-.214-.385-.214-.697v-.424h-.93v-.777zm-1.068.777v.19c0 .149.025.254.077.314s.118.09.199.09a.274.274 0 0 0 .2-.078c.054-.053.082-.151.082-.296v-.221h-.558z" style="fill:#e6e6e6" transform="matrix(1.02115 0 0 1.02115 20.444 .36)"/>
                <path class="esp-dash" d="M22.257 48.66v1.012h-.538V48.66Z" style="fill:#e6e6e6" transform="matrix(1.02115 0 0 1.02115 20.444 .36)"/>
                <path class="esp-8" d="M22.421 50.311a.672.672 0 0 1 .194-.239.583.583 0 0 1 .339-.103c.21 0 .381.098.515.295.103.154.153.357.153.61 0 .335-.063.582-.191.742a.59.59 0 0 1-.797.144.777.777 0 0 1-.212-.226.704.704 0 0 1-.258.304.665.665 0 0 1-.355.1.739.739 0 0 1-.352-.086.72.72 0 0 1-.252-.212.854.854 0 0 1-.131-.312 1.885 1.885 0 0 1-.042-.399c0-.266.031-.468.094-.608a.684.684 0 0 1 .277-.319.779.779 0 0 1 .408-.109c.147 0 .271.034.374.103.101.066.18.172.236.315zm-.586.274a.374.374 0 0 0-.271.102.312.312 0 0 0-.104.23.3.3 0 0 0 .106.224c.071.067.161.1.271.1a.38.38 0 0 0 .272-.101.31.31 0 0 0 .105-.231.301.301 0 0 0-.103-.227.384.384 0 0 0-.276-.097zm1.078.038a.275.275 0 0 0-.209.081.291.291 0 0 0-.08.216c0 .08.026.146.079.197.052.051.12.076.203.076a.284.284 0 0 0 .211-.08.273.273 0 0 0 .081-.205.279.279 0 0 0-.079-.206.279.279 0 0 0-.206-.079z" style="fill:#e6e6e6" transform="matrix(1.02115 0 0 1.02115 20.444 .36)"/>
                <path class="esp-2" d="M21.074 54.264v-2.089c.206.024.4.097.582.218.182.122.396.35.644.684.151.203.267.334.345.391a.381.381 0 0 0 .225.086.259.259 0 0 0 .195-.085.296.296 0 0 0 .081-.213.297.297 0 0 0-.084-.218c-.056-.057-.154-.094-.296-.113l.057-.697a1.1 1.1 0 0 1 .459.15c.11.072.194.176.253.309s.088.316.088.551c0 .245-.027.436-.083.571a.697.697 0 0 1-.647.438.803.803 0 0 1-.438-.134c-.139-.09-.292-.252-.458-.488a6.254 6.254 0 0 0-.203-.281 2.72 2.72 0 0 0-.152-.166v1.087h-.568z" style="fill:#e6e6e6" transform="matrix(1.02115 0 0 1.02115 20.444 .36)"/>
                <path class="esp-6" d="m23.016 56.575-.086-.692c.098-.018.166-.049.205-.091a.225.225 0 0 0 .061-.158c0-.113-.058-.201-.171-.264-.082-.045-.258-.079-.526-.101a.898.898 0 0 1 .187.257.705.705 0 0 1 .062.304c0 .224-.08.412-.24.566a.835.835 0 0 1-.606.231.896.896 0 0 1-.452-.117.77.77 0 0 1-.311-.324 1.135 1.135 0 0 1-.105-.521c0-.251.043-.452.129-.604a.904.904 0 0 1 .409-.363c.188-.09.436-.136.744-.136.452 0 .783.096.993.286.211.189.315.453.315.791 0 .199-.022.356-.069.473a.734.734 0 0 1-.202.288.906.906 0 0 1-.337.175zm-1.117-1.281a.458.458 0 0 0-.318.103.322.322 0 0 0-.115.251c0 .091.034.167.104.229.069.062.173.093.311.093.142 0 .249-.032.323-.096a.302.302 0 0 0 .11-.237.314.314 0 0 0-.107-.244c-.071-.067-.174-.099-.308-.099zM23.016 58.91l-.086-.692c.098-.018.166-.049.205-.091a.225.225 0 0 0 .061-.158c0-.113-.058-.201-.171-.264-.082-.045-.258-.079-.526-.101a.898.898 0 0 1 .187.257.705.705 0 0 1 .062.304c0 .224-.08.412-.24.566a.835.835 0 0 1-.606.231.896.896 0 0 1-.452-.117.77.77 0 0 1-.311-.324 1.135 1.135 0 0 1-.105-.521c0-.251.043-.452.129-.604a.904.904 0 0 1 .409-.363c.188-.09.436-.136.744-.136.452 0 .783.096.993.286.211.189.315.453.315.791 0 .199-.022.356-.069.473a.734.734 0 0 1-.202.288.921.921 0 0 1-.337.175zm-1.117-1.281a.458.458 0 0 0-.318.103.322.322 0 0 0-.115.251c0 .091.034.167.104.229.069.062.173.093.311.093.142 0 .249-.032.323-.096a.302.302 0 0 0 .11-.237.314.314 0 0 0-.107-.244c-.071-.067-.174-.099-.308-.099z" style="fill:#e6e6e6" transform="matrix(1.02115 0 0 1.02115 20.444 .36)"/>
            </g>
            <g class="ism" style="fill:#e6e6e6">
                <path class="ism-i" d="M19.067 41.246v.665H16.92v-.665z" style="fill:#e6e6e6" transform="matrix(1.02115 0 0 1.02115 20.444 .36)"/>
                <path class="ism-s" d="m17.631 42.271.039.631a.479.479 0 0 0-.234.084.35.35 0 0 0-.131.293c0 .095.022.167.067.219a.2.2 0 0 0 .154.077.195.195 0 0 0 .149-.073c.044-.049.085-.162.125-.34.064-.291.152-.499.26-.623a.527.527 0 0 1 .415-.188c.11 0 .215.032.312.096.099.064.176.16.231.289.057.128.084.305.084.528 0 .274-.051.483-.152.627-.103.145-.265.23-.487.258l-.036-.626a.35.35 0 0 0 .211-.104.344.344 0 0 0 .065-.221c0-.077-.017-.135-.049-.174a.152.152 0 0 0-.12-.059c-.034 0-.064.016-.092.048-.028.031-.055.105-.079.223-.062.29-.126.498-.189.623a.657.657 0 0 1-.238.274.603.603 0 0 1-.317.086.676.676 0 0 1-.381-.114.713.713 0 0 1-.265-.319 1.279 1.279 0 0 1-.091-.518c0-.365.07-.618.211-.759a.837.837 0 0 1 .538-.238z" style="fill:#e6e6e6" transform="matrix(1.02115 0 0 1.02115 20.444 .36)"/>
                <path class="ism-m" d="M19.067 44.546v.873l-1.307.337 1.307.334v.872H16.92v-.544h1.638l-1.638-.419v-.491l1.638-.418H16.92v-.544z" style="fill:#e6e6e6" transform="matrix(1.02115 0 0 1.02115 20.444 .36)"/>
                <path class="ism-2" d="M16.92 50.035v-1.79c.177.021.343.083.499.187.155.104.339.299.552.585.129.175.229.287.295.336a.333.333 0 0 0 .192.073.227.227 0 0 0 .168-.072.255.255 0 0 0 .069-.183.254.254 0 0 0-.072-.187c-.048-.049-.132-.081-.253-.098l.048-.598a.94.94 0 0 1 .394.129c.095.062.167.15.217.265.051.113.075.271.075.472 0 .21-.023.373-.071.49a.596.596 0 0 1-.554.376.687.687 0 0 1-.375-.115c-.119-.077-.25-.216-.393-.418a5.068 5.068 0 0 0-.174-.241 2.35 2.35 0 0 0-.131-.143v.932z" style="fill:#e6e6e6" transform="matrix(1.02115 0 0 1.02115 20.444 .36)"/>
                <path class="ism-dot" d="M17.518 50.349v.637h-.598v-.637z" style="fill:#e6e6e6" transform="matrix(1.02115 0 0 1.02115 20.444 .36)"/>
                <path class="ism-4" d="M17.321 52.314v-1.087h.491l1.291 1.087v.52h-1.319v.27h-.463v-.27h-.401v-.52zm.463 0h.676l-.676-.574Z" style="fill:#e6e6e6" transform="matrix(1.02115 0 0 1.02115 20.444 .36)"/>
                <path class="ism-g" d="M17.697 54.466h.447v1.025h-.916a2.019 2.019 0 0 1-.272-.521 1.743 1.743 0 0 1-.073-.537c0-.255.044-.463.131-.623a.884.884 0 0 1 .389-.373c.171-.089.369-.133.592-.133.234 0 .438.048.611.145a.942.942 0 0 1 .395.425c.069.146.104.342.104.588 0 .237-.021.414-.064.532a.693.693 0 0 1-.199.293.887.887 0 0 1-.344.175l-.114-.64a.351.351 0 0 0 .187-.134.428.428 0 0 0 .064-.241.434.434 0 0 0-.152-.348c-.101-.087-.261-.13-.479-.13-.232 0-.398.043-.498.131a.458.458 0 0 0-.149.365c0 .074.011.146.032.213s.058.145.11.231h.201v-.443z" style="fill:#e6e6e6" transform="matrix(1.02115 0 0 1.02115 20.444 .36)"/>
                <path class="ism-h" d="M19.067 55.889v.663h-.751v.726h.751v.666H16.92v-.666h.869v-.726h-.869v-.663z" style="fill:#e6e6e6" transform="matrix(1.02115 0 0 1.02115 20.444 .36)"/>
                <path class="ism-z" d="M18.476 58.277v1.443h-.349l-.8-.785v.833h-.407v-1.55h.387l.762.746v-.688h.407z" style="fill:#e6e6e6" transform="matrix(1.02115 0 0 1.02115 20.444 .36)"/>
            </g>
            <g class="pa" style="fill:#e6e6e6">
                <path class="pa-p" d="M15.067 41.217v1.103c0 .24-.058.42-.171.54-.115.119-.277.18-.488.18-.217 0-.387-.065-.508-.195-.123-.131-.184-.33-.184-.598v-.363h-.796v-.666h2.147zm-.915.666v.163c0 .128.021.218.066.27a.212.212 0 0 0 .17.077.238.238 0 0 0 .172-.067c.047-.045.07-.129.07-.253v-.189h-.478z" style="fill:#e6e6e6" transform="matrix(1.02115 0 0 1.02115 20.444 .36)"/>
                <path class="pa-a" d="M13.274 44.451v-.753l-.354-.104v-.678l2.147.807v.724l-2.147.808v-.695Zm.464-.138.772-.237-.772-.234z" style="fill:#e6e6e6" transform="matrix(1.02115 0 0 1.02115 20.444 .36)"/>
                <path class="pa-plus" d="M14.229 46.432v.561h.563v.474h-.563v.563h-.474v-.563h-.562v-.474h.562v-.561z" style="fill:#e6e6e6" transform="matrix(1.02115 0 0 1.02115 20.444 .36)"/>
                <path class="pa-2" d="M12.92 50.095v-1.79c.177.021.343.083.499.187.155.104.339.3.552.586.129.175.229.286.295.335a.333.333 0 0 0 .192.073.227.227 0 0 0 .168-.072.255.255 0 0 0 .069-.183.254.254 0 0 0-.072-.187c-.048-.049-.132-.081-.253-.098l.048-.598a.94.94 0 0 1 .394.129c.095.062.167.15.217.265.051.113.075.271.075.473 0 .21-.023.373-.071.489a.586.586 0 0 1-.221.275.581.581 0 0 1-.333.101.679.679 0 0 1-.375-.115c-.119-.076-.25-.216-.393-.418a5.68 5.68 0 0 0-.174-.241 2.693 2.693 0 0 0-.131-.143v.932z" style="fill:#e6e6e6" transform="matrix(1.02115 0 0 1.02115 20.444 .36)"/>
                <path class="pa-5" d="M15.067 50.592v1.416h-.476v-.959l-.322-.052c.03.066.054.132.07.197a.846.846 0 0 1 .023.192c0 .215-.065.39-.195.523a.658.658 0 0 1-.49.2.818.818 0 0 1-.4-.104.69.69 0 0 1-.293-.293 1.03 1.03 0 0 1-.102-.485c0-.142.014-.263.041-.364a.715.715 0 0 1 .301-.43.936.936 0 0 1 .252-.109l.066.604a.364.364 0 0 0-.221.103.267.267 0 0 0-.076.191c0 .083.032.151.095.206.063.054.157.081.282.081.128 0 .222-.027.281-.082a.284.284 0 0 0 .09-.218.358.358 0 0 0-.043-.167.51.51 0 0 0-.111-.132l.073-.509z" style="fill:#e6e6e6" transform="matrix(1.02115 0 0 1.02115 20.444 .36)"/>
                <path class="pa-d" d="M15.067 54.046H12.92v-.559h.23a.722.722 0 0 1-.198-.214.61.61 0 0 1-.067-.287.55.55 0 0 1 .242-.485.999.999 0 0 1 .587-.168c.258 0 .455.062.592.186.137.123.205.28.205.471a.663.663 0 0 1-.047.253.565.565 0 0 1-.141.201h.744zm-1.365-.598c.122 0 .213-.026.273-.078a.248.248 0 0 0 .09-.196.216.216 0 0 0-.087-.174c-.058-.047-.154-.07-.289-.07-.128 0-.221.023-.279.072a.22.22 0 0 0-.089.18c0 .076.029.14.089.19.06.05.157.076.292.076z" style="fill:#e6e6e6" transform="matrix(1.02115 0 0 1.02115 20.444 .36)"/>
                <path class="pa-b" d="M15.067 54.45v1.242c0 .207-.052.365-.153.477a.504.504 0 0 1-.381.166.48.48 0 0 1-.327-.118.536.536 0 0 1-.144-.231.599.599 0 0 1-.191.34.523.523 0 0 1-.34.109.575.575 0 0 1-.512-.29.698.698 0 0 1-.07-.252 2.726 2.726 0 0 1-.029-.297V54.45Zm-1.686.669v.339c0 .114.021.194.062.241.04.047.095.07.163.07a.191.191 0 0 0 .153-.069c.038-.047.058-.128.058-.244v-.337zm.844 0v.289c0 .104.019.175.054.216.036.04.087.061.155.061a.185.185 0 0 0 .146-.061c.035-.041.053-.111.053-.212v-.293z" style="fill:#e6e6e6" transform="matrix(1.02115 0 0 1.02115 20.444 .36)"/>
                <path class="pa-m" d="M14.476 56.747v.557h-.228c.095.08.162.161.203.242.039.082.06.181.06.296a.576.576 0 0 1-.065.295.503.503 0 0 1-.197.178.907.907 0 0 1 .208.256.67.67 0 0 1 .055.285c0 .167-.05.297-.148.391-.1.094-.255.141-.466.141h-.978v-.598h.887c.07 0 .122-.014.156-.041.054-.04.08-.09.08-.149a.21.21 0 0 0-.076-.169c-.051-.043-.132-.064-.244-.064h-.803v-.598h.857a.535.535 0 0 0 .139-.012.193.193 0 0 0 .095-.066.178.178 0 0 0 .036-.109.214.214 0 0 0-.078-.17c-.052-.044-.137-.065-.255-.065h-.794v-.598h1.556z" style="fill:#e6e6e6" transform="matrix(1.02115 0 0 1.02115 20.444 .36)"/>
            </g>
            <g class="802" style="fill:#e6e6e6">
                <path class="802-8" d="M10.074 41.481a.565.565 0 0 1 .167-.205.492.492 0 0 1 .29-.088c.18 0 .326.085.441.254.088.132.131.306.131.522 0 .287-.055.499-.164.637a.507.507 0 0 1-.683.124.682.682 0 0 1-.182-.193.56.56 0 0 1-.526.346.642.642 0 0 1-.302-.074.603.603 0 0 1-.328-.45 1.633 1.633 0 0 1-.036-.343c0-.228.027-.401.081-.521a.589.589 0 0 1 .237-.273.672.672 0 0 1 .35-.094c.127 0 .233.029.32.088a.552.552 0 0 1 .204.27zm-.502.237a.316.316 0 0 0-.232.086.265.265 0 0 0-.09.198c0 .071.03.135.091.191a.329.329 0 0 0 .232.085.326.326 0 0 0 .233-.085.27.27 0 0 0 .09-.199.253.253 0 0 0-.088-.193.324.324 0 0 0-.236-.083Zm.924.032a.24.24 0 0 0-.18.069.255.255 0 0 0-.068.186c0 .068.022.124.068.168a.237.237 0 0 0 .174.066.246.246 0 0 0 .181-.069.234.234 0 0 0 .069-.176.238.238 0 0 0-.067-.176.239.239 0 0 0-.177-.068z" style="fill:#e6e6e6" transform="matrix(1.02115 0 0 1.02115 20.444 .36)"/>
                <path class="802-0" d="M10.002 43.124c.408 0 .694.073.857.221.163.146.244.37.244.671 0 .145-.018.264-.053.356a.654.654 0 0 1-.14.227.739.739 0 0 1-.401.22c-.16.04-.327.061-.501.061-.39 0-.675-.066-.855-.198-.18-.132-.27-.36-.27-.682 0-.181.029-.327.087-.438a.711.711 0 0 1 .253-.273.945.945 0 0 1 .325-.121c.137-.03.288-.044.454-.044zm-.001.592c-.273 0-.46.024-.561.072-.1.049-.149.118-.149.21 0 .061.021.113.063.158a.402.402 0 0 0 .201.098c.092.021.234.031.429.031.285 0 .478-.023.575-.072.099-.048.147-.121.147-.218 0-.099-.05-.17-.15-.214-.099-.044-.285-.065-.555-.065z" style="fill:#e6e6e6" transform="matrix(1.02115 0 0 1.02115 20.444 .36)"/>
                <path class="802-2" d="M8.92 46.871v-1.79c.177.021.343.083.499.187.155.104.339.299.552.585.129.175.229.287.295.336a.333.333 0 0 0 .192.073.227.227 0 0 0 .168-.072.255.255 0 0 0 .069-.183.254.254 0 0 0-.072-.187c-.048-.049-.132-.081-.253-.098l.048-.598a.94.94 0 0 1 .394.129c.095.062.167.15.217.265.051.113.075.271.075.472 0 .21-.023.373-.071.49a.596.596 0 0 1-.554.376.687.687 0 0 1-.375-.115c-.119-.077-.25-.216-.393-.418a5.068 5.068 0 0 0-.174-.241 2.35 2.35 0 0 0-.131-.143v.932z" style="fill:#e6e6e6" transform="matrix(1.02115 0 0 1.02115 20.444 .36)"/>
                <path class="802-dot" d="M9.518 47.185v.637H8.92v-.637z" style="fill:#e6e6e6" transform="matrix(1.02115 0 0 1.02115 20.444 .36)"/>
                <path class="802-1" d="M11.104 49.477H8.92v-.604h1.432a1.82 1.82 0 0 1-.181-.283 2.227 2.227 0 0 1-.132-.344h.489c.065.203.144.361.235.474.091.113.205.2.34.264v.493zM11.104 51.478H8.92v-.604h1.432a1.82 1.82 0 0 1-.181-.283 2.227 2.227 0 0 1-.132-.344h.489c.065.203.144.361.235.474.091.113.205.2.34.264v.493z" style="fill:#e6e6e6" transform="matrix(1.02115 0 0 1.02115 20.444 .36)"/>
                <path class="802-b" d="M11.067 52.187v.603h-.744a.61.61 0 0 1 .188.454.61.61 0 0 1-.204.47c-.137.124-.332.187-.587.187-.17 0-.319-.028-.449-.085a.644.644 0 0 1-.29-.235.616.616 0 0 1-.096-.333c0-.104.022-.2.067-.287a.753.753 0 0 1 .198-.214h-.23v-.559h2.147zm-1.365.597c-.134 0-.23.025-.291.076a.236.236 0 0 0-.09.19c0 .071.029.132.089.18.059.049.158.072.298.072.123 0 .213-.023.271-.07a.217.217 0 0 0 .087-.173.25.25 0 0 0-.09-.198c-.061-.05-.152-.077-.274-.077z" style="fill:#e6e6e6" transform="matrix(1.02115 0 0 1.02115 20.444 .36)"/>
                <path class="802-slash" d="M11.104 54.542v.305l-2.221-.539v-.302z" style="fill:#e6e6e6" transform="matrix(1.02115 0 0 1.02115 20.444 .36)"/>
                <path class="802-g" d="M10.476 56.101v.559H8.938a.657.657 0 0 1-.494-.227.679.679 0 0 1-.119-.263 1.646 1.646 0 0 1-.036-.363c0-.312.047-.527.141-.645a.46.46 0 0 1 .376-.175l.079.003-.066.579c-.053.015-.09.037-.111.067a.294.294 0 0 0-.045.165c0 .086.023.15.068.192.047.043.127.064.24.064h.236a.602.602 0 0 1-.15-.176.612.612 0 0 1-.074-.298c0-.208.092-.376.273-.504.129-.091.299-.136.511-.136.242 0 .427.059.554.176.127.117.19.271.19.46a.64.64 0 0 1-.062.299.66.66 0 0 1-.203.221h.23zm-.755-.561c-.112 0-.195.023-.249.071a.238.238 0 0 0-.081.189.24.24 0 0 0 .084.187c.056.05.141.075.254.075.113 0 .2-.026.26-.079a.245.245 0 0 0 .09-.193.226.226 0 0 0-.082-.183c-.057-.045-.148-.067-.276-.067Z" style="fill:#e6e6e6" transform="matrix(1.02115 0 0 1.02115 20.444 .36)"/>
                <path class="802-slash" d="M11.104 57.377v.305l-2.221-.54v-.301z" style="fill:#e6e6e6" transform="matrix(1.02115 0 0 1.02115 20.444 .36)"/>
                <path class="802-n" d="M10.476 57.853v.556h-.253a.841.841 0 0 1 .222.252.668.668 0 0 1 .066.311.512.512 0 0 1-.147.388c-.098.093-.25.14-.455.14H8.92v-.6h.855c.098 0 .167-.018.207-.054a.192.192 0 0 0 .061-.152.217.217 0 0 0-.082-.176c-.055-.045-.152-.067-.294-.067H8.92v-.597h1.556z" style="fill:#e6e6e6" transform="matrix(1.02115 0 0 1.02115 20.444 .36)"/>
            </g>
        </g>
        <g class="fcc-logo" style="fill:#e6e6e6">
            <path class="fcc-logo-f" d="M-59.586 362.388V222.066h356.619V81.653h-356.62C-137.163 81.653-200 144.49-200 222.066V1000h140.413V600.674h280.818V476.521H-59.586Z" style="fill:#e6e6e6" transform="rotate(90 5.7 34.141) scale(.01021)"/>
            <path class="fcc-logo-c-outer" d="M938.019 730.976v-.17c-55.172 72.939-141.925 120.868-240.477 120.868-167.023 0-302.466-135.355-302.466-302.548 0-167.028 135.442-302.466 302.466-302.466 98.551 0 185.304 47.841 240.477 120.868h171.403C1039.511 209.261 881.669 98.5 697.542 98.5c-248.98 0-450.709 201.811-450.709 450.791C246.833 798.188 448.65 1000 697.542 1000c184.209 0 341.969-110.761 411.962-269.024z" style="fill:#e6e6e6" transform="rotate(90 5.7 34.141) scale(.01021)"/>
            <path class="fcc-logo-c-inner" d="M694.257 418.655c40.346 0 75.89 18.698 99.898 47.42h160.371c-35.375-110.591-137.884-191.283-260.269-191.283-151.524 0-274.417 122.889-274.417 274.417 0 151.611 122.893 274.499 274.417 274.499 122.384 0 224.807-80.687 260.187-191.283H794.069v-.164c-23.92 28.722-59.547 47.42-99.811 47.42-72.014 0-130.471-58.37-130.471-130.553-.001-72.02 58.456-130.473 130.47-130.473z" style="fill:#e6e6e6" transform="rotate(90 5.7 34.141) scale(.01021)"/>
        </g>
    </g>
    <path d="M-36.401 31.538v.791c-.06 1.337-.477 2.674-1.253 3.769a6.562 6.562 0 0 1-3.042 2.37c-.954.365-1.968.548-2.982.426-.06-.06-.06-.182-.12-.243 0-.06-.06-.122-.06-.244a10.842 10.842 0 0 0 3.46-1.945c1.55-1.277 2.684-2.98 3.4-4.864.06-.06.119-.121.119-.182l.06-.06c.18.121.298.121.418.182m-.754-2.726c0 .061.06.061.06.122a10.389 10.389 0 0 1-1.73 4.681 11.073 11.073 0 0 1-2.624 2.675 9.268 9.268 0 0 1-4.533 1.764c-.06 0-.18.06-.24 0a5.13 5.13 0 0 1-.953-.608c-.12-.122-.239-.183-.358-.304v-1.155c.656 0 1.253-.061 1.909-.183 1.253-.304 2.445-.851 3.4-1.702 1.013-.852 1.849-1.946 2.326-3.161.477-1.034.716-2.189.716-3.405h1.133s.06 0 .06.06c.297.365.595.79.833 1.216m-.328-2.496c0 .06 0 .06 0 0-.12.243-.239.364-.417.486l-.18-.183c-.954-.912-2.147-1.52-3.4-1.824-.476-.06-1.013-.121-1.49-.182h-.417c-1.372.06-2.744.547-3.937 1.398-1.013.73-1.849 1.763-2.385 2.919a7.804 7.804 0 0 0-.657 3.1c0 .912.18 1.885.477 2.736a7.821 7.821 0 0 0 1.432 2.371c.06.061.119.122.179.244l-.418.425a8.229 8.229 0 0 1-2.027-3.587c-.24-.912-.298-1.824-.24-2.736a7.15 7.15 0 0 1 .895-3.1 7.699 7.699 0 0 1 2.267-2.736c1.133-.912 2.564-1.46 3.996-1.58a6.98 6.98 0 0 1 3.16.364c1.193.364 2.267 1.033 3.162 1.885m-2.557 1.027c.06.364.06.73 0 1.094-.12 1.459-.716 2.857-1.61 4.013-.836 1.033-1.968 1.885-3.22 2.31-1.074.425-2.267.547-3.46.425-.239-.06-.537-.06-.776-.121-.06 0-.06 0-.12-.061-.178-.365-.297-.79-.416-1.216 0-.061-.06-.122 0-.183l.357-.912c.477.183.954.304 1.431.304.716.061 1.491-.06 2.207-.304a4.542 4.542 0 0 0 1.55-.911c.478-.426.955-.973 1.253-1.52a4.948 4.948 0 0 0 .656-2.067v-.425c0-.183-.119-.365-.298-.365-.119-.06-.238 0-.357.061-.12.06-.18.183-.18.365a3.83 3.83 0 0 1-.536 1.945 4.476 4.476 0 0 1-1.193 1.399c-.537.425-1.133.73-1.79.851-1.013.365-2.266.122-3.22-.486 0-.425.12-.851.239-1.338 0-.06.06-.121.12-.182.178-.183.297-.365.476-.547h.06c.417.364 1.014.547 1.55.547.657 0 1.313-.304 1.67-.852.358-.425.537-.911.537-1.458 0-.548.24-1.095.597-1.52.417-.547 1.073-.852 1.79-.912.357 0 .655.06 1.013.122a2.482 2.482 0 0 1 1.312 1.033c.12.242.298.607.358.91m-6.17.158c.059.243 0 .547-.12.73-.12.243-.358.486-.656.607-.18.061-.358.061-.597.061-.298-.06-.537-.243-.716-.425-.179-.244-.298-.487-.298-.73 0-.365.18-.669.358-.912.18-.182.358-.303.597-.303.297-.061.656 0 .894.243.299.12.477.425.537.729" fill="#b7b7b7" style="fill:#e6e6e6;stroke-width:.701006" transform="translate(96.43 1.567)"/>
    <path d="M43.253 75.272v4.406" stroke="#8c8c8c" stroke-width="1.701" style="stroke-linecap:round;stroke-linejoin:miter;stroke-miterlimit:4;stroke-dasharray:none" fill="none" transform="translate(.035 -.53)"/>
    <path d="M45.738 75.272v4.406M48.011 75.272v4.406" stroke="#8c8c8c" stroke-width="1.134" style="stroke-linecap:round;stroke-linejoin:miter;stroke-miterlimit:4;stroke-dasharray:none" fill="none" transform="translate(.035 -.53)"/>
    <path d="M50.497 75.272v4.406" stroke="#8c8c8c" stroke-width="1.701" style="stroke-linecap:round;stroke-linejoin:miter;stroke-miterlimit:4;stroke-dasharray:none" fill="none" transform="translate(.035 -.53)"/>
    <path fill="#dcdcdc" style="stroke-width:1.04872" transform="rotate(-90 -.247 -.283)" d="M-79.512 42.125h4.074v2.256h-4.074zM-79.512 44.871h4.074v1.735h-4.074zM-79.512 47.144h4.074v1.735h-4.074zM-79.512 49.368h4.074v2.256h-4.074z"/>
    <path fill="#303030" style="fill:#000;stroke-width:1.04872" transform="rotate(-90 -.247 -.283)" d="M-79.031 41.785h3.111V51.97h-3.111z"/>
    <path fill="#8c8c8c" transform="matrix(-1 0 0 1 126.27 240.168)" style="stroke-width:.752732" d="M62.086-108.477h2.062v2.779h-2.062zM59.393-114.307h2.062v2.779h-2.062zM64.779-114.307h2.062v2.779h-2.062z"/>
    <path d="M67.686 128.513h-9.068v3.305h9.068z"/>
    <path fill="#8c8c8c" transform="matrix(1 0 0 -1 .035 -.53)" style="stroke-width:.752732" d="M62.086-108.477h2.062v2.779h-2.062zM59.393-114.307h2.062v2.779h-2.062zM64.779-114.307h2.062v2.779h-2.062z"/>
    <path d="M58.618 111.125h9.068v-3.305h-9.068z"/>
    <g transform="translate(69.435 -6.13)">
        <path fill="#9a916c" transform="rotate(90)" style="fill:#8c8c8c;fill-opacity:1;stroke-width:.942558" d="M152.712 33.147h3.073v1.536h-3.073zM152.712 31.009h3.073v1.536h-3.073zM152.712 28.337h3.073v.735h-3.073zM152.712 25.665h3.073v.735h-3.073zM152.712 24.329h3.073v.735h-3.073zM152.712 21.658h3.073v.735h-3.073zM152.712 16.047h3.073v1.536h-3.073zM152.712 18.184h3.073v1.536h-3.073zM152.712 20.322h3.073v.735h-3.073zM152.712 22.993h3.073v.735h-3.073zM152.712 27.001h3.073v.735h-3.073zM152.712 29.673h3.073v.735h-3.073z"/>
        <circle stroke="#9a916c" cx="-155.785" cy="-36.907" stroke-width=".679" r="1.141" fill="none" transform="rotate(-90)" style="stroke:#8c8c8c;stroke-opacity:1"/>
        <path d="M-38.048 158.409v-5.248h2.282v5.248h-2.282m1.141-1.483a1.14 1.14 0 1 0 0-2.282 1.14 1.14 0 0 0 0 2.282z" fill="#9a916c" style="fill:#8c8c8c;fill-opacity:1;stroke-width:.942558"/>
        <circle stroke="#9a916c" cx="-155.785" cy="-13.822" stroke-width=".679" r="1.141" fill="none" transform="rotate(-90)" style="stroke:#8c8c8c;stroke-opacity:1"/>
        <path d="M-14.963 158.409v-5.248h2.282v5.248h-2.282m1.14-1.483a1.14 1.14 0 1 0 0-2.282 1.14 1.14 0 0 0 0 2.282z" fill="#9a916c" style="fill:#8c8c8c;fill-opacity:1;stroke-width:.942558"/>
        <circle stroke="#9a916c" cx="-166.953" cy="-36.907" stroke-width=".679" r="1.141" fill="none" transform="rotate(-90)" style="stroke:#8c8c8c;stroke-opacity:1"/>
        <path d="M-38.048 169.577v-5.248h2.282v5.248h-2.282m1.141-1.483a1.14 1.14 0 1 0 0-2.282 1.14 1.14 0 0 0 0 2.282z" fill="#9a916c" style="fill:#8c8c8c;fill-opacity:1;stroke-width:.942558"/>
        <circle stroke="#9a916c" cx="-166.953" cy="-13.822" stroke-width=".679" r="1.141" fill="none" transform="rotate(-90)" style="stroke:#8c8c8c;stroke-opacity:1"/>
        <path d="M-14.963 169.577v-5.248h2.282v5.248h-2.282m1.14-1.483a1.14 1.14 0 1 0 0-2.282 1.14 1.14 0 0 0 0 2.282z" fill="#9a916c" style="fill:#8c8c8c;fill-opacity:1;stroke-width:.942558"/>
        <path fill="#dcdcdc" style="stroke-width:.942558" transform="rotate(-90)" d="M-173.461-37.307h19.638v23.886h-19.638z"/>
        <path d="M-34.048 154.357h-.535v-1.23h.535zm.802-1.23h-.535v1.23h.535zm1.336 0h-.535v1.23h.535zm.8 0h-.534v1.23h.535zm1.337 0h-.534v1.23h.534zm1.336 0h-.535v1.23h.535zm1.335 0h-.534v1.23h.534zm1.337 0h-.534v1.23h.534zm1.336 0h-.535v1.23h.535zm1.335 0h-.534v1.23h.534zm1.337 0h-.535v1.23h.535zm1.335 0h-.534v1.23h.534zm1.336 0h-.534v1.23h.534zm.802 0h-.534v1.23h.534zm1.336 0h-.535v1.23h.535zm.8 0h-.534v1.23h.535z" fill="#dcdcdc" style="stroke-width:.942558"/>
        <path fill="#8c8c8c" style="stroke-width:.942558" transform="rotate(-90)" d="M-160.526-32.118h1.099v3.987h-1.099zM-160.527-22.599h1.099v3.987h-1.099z"/>
        <path fill="#f0f0f0" style="stroke-width:.942558" transform="rotate(-90)" d="M-173.461-35.382h19.638v1.224h-19.638z"/>
        <path fill="#bebebe" style="stroke-width:.942558" transform="rotate(-90)" d="M-173.461-16.572h19.638v1.224h-19.638z"/>
        <path d="M-13.421 153.823v1.883h-.267a.588.588 0 0 1-.588-.588v-.502a.588.588 0 0 0-.588-.588h-2.669a.588.588 0 0 0-.588.588v1.905a.588.588 0 0 1-.588.588h-3.217a.588.588 0 0 1-.588-.588v-.044c0-.324.263-.588.588-.588h1.448a.588.588 0 0 0 .588-.589v-.684a.588.588 0 0 0-.588-.588h-9.775a.588.588 0 0 0-.588.588v.685c0 .325.263.589.588.589h1.448c.324 0 .588.263.588.588v.043a.588.588 0 0 1-.588.588h-3.217a.588.588 0 0 1-.588-.588v-1.905a.588.588 0 0 0-.588-.588h-2.667a.588.588 0 0 0-.589.588v.503a.588.588 0 0 1-.588.588h-.266v-1.884z" fill="#8c8c8c" style="stroke-width:.942558"/>
    </g>
    <g transform="matrix(1.07457 0 0 1.07457 -52.573 -7.298)">
        <rect style="fill:#e6e6e6;fill-opacity:1;fill-rule:nonzero;stroke-linecap:round;stroke-linejoin:round;stroke-miterlimit:4;stroke-dasharray:none;stroke-dashoffset:0" width="20.86" fill="#b3b3b3" x="45.712" height="9.364" y="-102.753" ry="3.255" transform="rotate(90)"/>
        <path style="font-style:normal;font-weight:400;line-height:125%;font-family:'Droid Sans';text-align:center;letter-spacing:0;word-spacing:0;text-anchor:middle;fill:#999;fill-opacity:1;stroke-linecap:butt;stroke-linejoin:miter" d="M95.902 47.677c.102-.035 4.483-1.04 4.53-1.04.037 0 .05.151.05.627 0 .345-.014.627-.03.627-.05 0-2.376.355-2.48.379-.092.02-.093.024-.02.05.043.016.63.142 1.305.28l1.226.252-.01.567-.011.567-1.243.257c-.683.141-1.253.268-1.266.28-.031.032.003.038 1.342.235l1.147.168v.62c0 .341-.011.62-.025.62-.028 0-4.39-1.013-4.495-1.044-.061-.018-.068-.082-.068-.603s.007-.585.068-.604c.038-.01.632-.127 1.321-.258a30.27 30.27 0 0 0 1.27-.255c.031-.031-.053-.05-1.365-.305l-1.275-.248-.01-.578c-.009-.441 0-.581.038-.594zM97.52 52.833h1.667v1.098h-3.333v-1.098ZM99.62 53.159a.833.833 0 0 1 .167-.262c.245-.26.591-.218.799.096.09.135.11.209.11.405.002.904-1.043.964-1.102.062a1.03 1.03 0 0 1 .026-.301zM94.396 54.802c.481.46.95.75 1.516.936.266.088.333.091 2.06.114 1.917.025 1.888.022 2.333.245.26.13.663.447.93.73.296.314.498.632.625.986l.092.255V60.5c0 2.676.003 2.636-.25 3.177-.322.685-1.095 1.32-1.819 1.49-.365.086-3.4.085-3.737-.001-.696-.18-1.318-.676-1.75-1.4-.329-.55-.307-.202-.307-5v-4.257l.307.293zm3.124 8.62h1.706v-1.177h-3.412v1.177zm-.98-4.667h.686v2.47h1.098v-2.47h1.06v2.784h1.136v-4.13l-.653.026c-.36.014-1.41.026-2.333.026h-1.68v1.294zm3.042 4.403c.117.422.633.596.922.31.336-.332.326-.904-.02-1.195-.236-.198-.506-.188-.721.027-.203.202-.272.531-.181.858z" fill="#4d4d4d"/>
    </g>
    <text x="8.402" y="22.527" style="font-style:normal;font-variant:normal;font-weight:400;font-stretch:normal;font-size:4.26667px;line-height:125%;font-family:Arial;-inkscape-font-specification:'Arial, Normal';font-variant-ligatures:normal;font-variant-caps:normal;font-variant-numeric:normal;font-variant-east-asian:normal;letter-spacing:0;word-spacing:0;fill:#fff;fill-opacity:1;stroke:none;stroke-width:1.21559">A0</text>
    <text x="8.168" y="31.287" style="font-style:normal;font-variant:normal;font-weight:400;font-stretch:normal;font-size:4.26667px;line-height:125%;font-family:Arial;-inkscape-font-specification:'Arial, Normal';font-variant-ligatures:normal;font-variant-caps:normal;font-variant-numeric:normal;font-variant-east-asian:normal;letter-spacing:0;word-spacing:0;fill:#fff;fill-opacity:1;stroke:none;stroke-width:1.21952">GND</text>
    <text x="8.377" y="40.001" style="font-style:normal;font-variant:normal;font-weight:400;font-stretch:normal;font-size:4.26667px;line-height:125%;font-family:Arial;-inkscape-font-specification:'Arial, Normal';font-variant-ligatures:normal;font-variant-caps:normal;font-variant-numeric:normal;font-variant-east-asian:normal;letter-spacing:0;word-spacing:0;fill:#fff;fill-opacity:1;stroke:none;stroke-width:1.23958">VU</text>
    <text x="8.204" y="48.766" style="font-style:normal;font-variant:normal;font-weight:400;font-stretch:normal;font-size:4.26667px;line-height:125%;font-family:Arial;-inkscape-font-specification:'Arial, Normal';font-variant-ligatures:normal;font-variant-caps:normal;font-variant-numeric:normal;font-variant-east-asian:normal;letter-spacing:0;word-spacing:0;fill:#fff;fill-opacity:1;stroke:none;stroke-width:1.2148">S3</text>
    <text x="8.204" y="57.507" style="font-style:normal;font-variant:normal;font-weight:400;font-stretch:normal;font-size:4.26667px;line-height:125%;font-family:Arial;-inkscape-font-specification:'Arial, Normal';font-variant-ligatures:normal;font-variant-caps:normal;font-variant-numeric:normal;font-variant-east-asian:normal;letter-spacing:0;word-spacing:0;fill:#fff;fill-opacity:1;stroke:none;stroke-width:1.21794">S2</text>
    <text x="8.204" y="66.247" style="font-style:normal;font-variant:normal;font-weight:400;font-stretch:normal;font-size:4.26667px;line-height:125%;font-family:Arial;-inkscape-font-specification:'Arial, Normal';font-variant-ligatures:normal;font-variant-caps:normal;font-variant-numeric:normal;font-variant-east-asian:normal;letter-spacing:0;word-spacing:0;fill:#fff;fill-opacity:1;stroke:none;stroke-width:1.2211">S1</text>
    <text x="8.204" y="74.987" style="font-style:normal;font-variant:normal;font-weight:400;font-stretch:normal;font-size:4.26667px;line-height:125%;font-family:Arial;-inkscape-font-specification:'Arial, Normal';font-variant-ligatures:normal;font-variant-caps:normal;font-variant-numeric:normal;font-variant-east-asian:normal;letter-spacing:0;word-spacing:0;fill:#fff;fill-opacity:1;stroke:none;stroke-width:1.2211">SC</text>
    <text x="8.204" y="83.727" style="font-style:normal;font-variant:normal;font-weight:400;font-stretch:normal;font-size:4.26667px;line-height:125%;font-family:Arial;-inkscape-font-specification:'Arial, Normal';font-variant-ligatures:normal;font-variant-caps:normal;font-variant-numeric:normal;font-variant-east-asian:normal;letter-spacing:0;word-spacing:0;fill:#fff;fill-opacity:1;stroke:none;stroke-width:1.21559">S0</text>
    <text x="8.204" y="92.467" style="font-style:normal;font-variant:normal;font-weight:400;font-stretch:normal;font-size:4.26667px;line-height:125%;font-family:Arial;-inkscape-font-specification:'Arial, Normal';font-variant-ligatures:normal;font-variant-caps:normal;font-variant-numeric:normal;font-variant-east-asian:normal;letter-spacing:0;word-spacing:0;fill:#fff;fill-opacity:1;stroke:none;stroke-width:1.2211">SK</text>
    <text x="8.168" y="101.207" style="font-style:normal;font-variant:normal;font-weight:400;font-stretch:normal;font-size:4.26667px;line-height:125%;font-family:Arial;-inkscape-font-specification:'Arial, Normal';font-variant-ligatures:normal;font-variant-caps:normal;font-variant-numeric:normal;font-variant-east-asian:normal;letter-spacing:0;word-spacing:0;fill:#fff;fill-opacity:1;stroke:none;stroke-width:1.21952">GND</text>
    <text x="8.216" y="109.926" style="font-style:normal;font-variant:normal;font-weight:400;font-stretch:normal;font-size:4.26667px;line-height:125%;font-family:Arial;-inkscape-font-specification:'Arial, Normal';font-variant-ligatures:normal;font-variant-caps:normal;font-variant-numeric:normal;font-variant-east-asian:normal;letter-spacing:0;word-spacing:0;fill:#fff;fill-opacity:1;stroke:none;stroke-width:1.2148">3V</text>
    <text x="8.058" y="118.687" style="font-style:normal;font-variant:normal;font-weight:400;font-stretch:normal;font-size:4.26667px;line-height:125%;font-family:Arial;-inkscape-font-specification:'Arial, Normal';font-variant-ligatures:normal;font-variant-caps:normal;font-variant-numeric:normal;font-variant-east-asian:normal;letter-spacing:0;word-spacing:0;fill:#fff;fill-opacity:1;stroke:none;stroke-width:1.26539">EN</text>
    <text x="8.06" y="127.427" style="font-style:normal;font-variant:normal;font-weight:400;font-stretch:normal;font-size:4.26667px;line-height:125%;font-family:Arial;-inkscape-font-specification:'Arial, Normal';font-variant-ligatures:normal;font-variant-caps:normal;font-variant-numeric:normal;font-variant-east-asian:normal;letter-spacing:0;word-spacing:0;fill:#fff;fill-opacity:1;stroke:none;stroke-width:1.2211">RST</text>
    <text x="8.168" y="136.167" style="font-style:normal;font-variant:normal;font-weight:400;font-stretch:normal;font-size:4.26667px;line-height:125%;font-family:Arial;-inkscape-font-specification:'Arial, Normal';font-variant-ligatures:normal;font-variant-caps:normal;font-variant-numeric:normal;font-variant-east-asian:normal;letter-spacing:0;word-spacing:0;fill:#fff;fill-opacity:1;stroke:none;stroke-width:1.21952">GND</text>
    <text x="8.377" y="144.907" style="font-style:normal;font-variant:normal;font-weight:400;font-stretch:normal;font-size:4.26667px;line-height:125%;font-family:Arial;-inkscape-font-specification:'Arial, Normal';font-variant-ligatures:normal;font-variant-caps:normal;font-variant-numeric:normal;font-variant-east-asian:normal;letter-spacing:0;word-spacing:0;fill:#fff;fill-opacity:1;stroke:none;stroke-width:1.26539">VIN</text>
    <text x="74.062" y="22.527" style="font-style:normal;font-variant:normal;font-weight:400;font-stretch:normal;font-size:4.26667px;line-height:125%;font-family:Arial;-inkscape-font-specification:'Arial, Normal';font-variant-ligatures:normal;font-variant-caps:normal;font-variant-numeric:normal;font-variant-east-asian:normal;letter-spacing:0;word-spacing:0;fill:#fff;fill-opacity:1;stroke:none;stroke-width:1.21559">D0</text>
    <text x="74.641" y="31.293" style="font-style:normal;font-variant:normal;font-weight:400;font-stretch:normal;font-size:4.26667px;line-height:125%;font-family:Arial;-inkscape-font-specification:'Arial, Normal';font-variant-ligatures:normal;font-variant-caps:normal;font-variant-numeric:normal;font-variant-east-asian:normal;letter-spacing:0;word-spacing:0;fill:#fff;fill-opacity:1;stroke:none;stroke-width:1.26115">D1</text>
    <text x="74.083" y="40.033" style="font-style:normal;font-variant:normal;font-weight:400;font-stretch:normal;font-size:4.26667px;line-height:125%;font-family:Arial;-inkscape-font-specification:'Arial, Normal';font-variant-ligatures:normal;font-variant-caps:normal;font-variant-numeric:normal;font-variant-east-asian:normal;letter-spacing:0;word-spacing:0;fill:#fff;fill-opacity:1;stroke:none;stroke-width:1.23958">D2</text>
    <text x="74.052" y="48.746" style="font-style:normal;font-variant:normal;font-weight:400;font-stretch:normal;font-size:4.26667px;line-height:125%;font-family:Arial;-inkscape-font-specification:'Arial, Normal';font-variant-ligatures:normal;font-variant-caps:normal;font-variant-numeric:normal;font-variant-east-asian:normal;letter-spacing:0;word-spacing:0;fill:#fff;fill-opacity:1;stroke:none;stroke-width:1.2148">D3</text>
    <text x="74.064" y="57.507" style="font-style:normal;font-variant:normal;font-weight:400;font-stretch:normal;font-size:4.26667px;line-height:125%;font-family:Arial;-inkscape-font-specification:'Arial, Normal';font-variant-ligatures:normal;font-variant-caps:normal;font-variant-numeric:normal;font-variant-east-asian:normal;letter-spacing:0;word-spacing:0;fill:#fff;fill-opacity:1;stroke:none;stroke-width:1.26539">D4</text>
    <text x="74.127" y="66.226" style="font-style:normal;font-variant:normal;font-weight:400;font-stretch:normal;font-size:4.26667px;line-height:125%;font-family:Arial;-inkscape-font-specification:'Arial, Normal';font-variant-ligatures:normal;font-variant-caps:normal;font-variant-numeric:normal;font-variant-east-asian:normal;letter-spacing:0;word-spacing:0;fill:#fff;fill-opacity:1;stroke:none;stroke-width:1.2148">3V</text>
    <text x="70.058" y="74.987" style="font-style:normal;font-variant:normal;font-weight:400;font-stretch:normal;font-size:4.26667px;line-height:125%;font-family:Arial;-inkscape-font-specification:'Arial, Normal';font-variant-ligatures:normal;font-variant-caps:normal;font-variant-numeric:normal;font-variant-east-asian:normal;letter-spacing:0;word-spacing:0;fill:#fff;fill-opacity:1;stroke:none;stroke-width:1.21952">GND</text>
    <text x="74.029" y="83.701" style="font-style:normal;font-variant:normal;font-weight:400;font-stretch:normal;font-size:4.26667px;line-height:125%;font-family:Arial;-inkscape-font-specification:'Arial, Normal';font-variant-ligatures:normal;font-variant-caps:normal;font-variant-numeric:normal;font-variant-east-asian:normal;letter-spacing:0;word-spacing:0;fill:#fff;fill-opacity:1;stroke:none;stroke-width:1.23958">D5</text>
    <text x="74.054" y="92.447" style="font-style:normal;font-variant:normal;font-weight:400;font-stretch:normal;font-size:4.26667px;line-height:125%;font-family:Arial;-inkscape-font-specification:'Arial, Normal';font-variant-ligatures:normal;font-variant-caps:normal;font-variant-numeric:normal;font-variant-east-asian:normal;letter-spacing:0;word-spacing:0;fill:#fff;fill-opacity:1;stroke:none;stroke-width:1.21716">D6</text>
    <text x="74.052" y="101.207" style="font-style:normal;font-variant:normal;font-weight:400;font-stretch:normal;font-size:4.26667px;line-height:125%;font-family:Arial;-inkscape-font-specification:'Arial, Normal';font-variant-ligatures:normal;font-variant-caps:normal;font-variant-numeric:normal;font-variant-east-asian:normal;letter-spacing:0;word-spacing:0;fill:#fff;fill-opacity:1;stroke:none;stroke-width:1.26539">D7</text>
    <text x="74.045" y="109.927" style="font-style:normal;font-variant:normal;font-weight:400;font-stretch:normal;font-size:4.26667px;line-height:125%;font-family:Arial;-inkscape-font-specification:'Arial, Normal';font-variant-ligatures:normal;font-variant-caps:normal;font-variant-numeric:normal;font-variant-east-asian:normal;letter-spacing:0;word-spacing:0;fill:#fff;fill-opacity:1;stroke:none;stroke-width:1.21012">D8</text>
    <text x="73.412" y="118.687" style="font-style:normal;font-variant:normal;font-weight:400;font-stretch:normal;font-size:4.26667px;line-height:125%;font-family:Arial;-inkscape-font-specification:'Arial, Normal';font-variant-ligatures:normal;font-variant-caps:normal;font-variant-numeric:normal;font-variant-east-asian:normal;letter-spacing:0;word-spacing:0;fill:#fff;fill-opacity:1;stroke:none;stroke-width:1.26539">RX</text>
    <text x="73.887" y="127.427" style="font-style:normal;font-variant:normal;font-weight:400;font-stretch:normal;font-size:4.26667px;line-height:125%;font-family:Arial;-inkscape-font-specification:'Arial, Normal';font-variant-ligatures:normal;font-variant-caps:normal;font-variant-numeric:normal;font-variant-east-asian:normal;letter-spacing:0;word-spacing:0;fill:#fff;fill-opacity:1;stroke:none;stroke-width:1.26539">TX</text>
    <text x="70.058" y="136.167" style="font-style:normal;font-variant:normal;font-weight:400;font-stretch:normal;font-size:4.26667px;line-height:125%;font-family:Arial;-inkscape-font-specification:'Arial, Normal';font-variant-ligatures:normal;font-variant-caps:normal;font-variant-numeric:normal;font-variant-east-asian:normal;letter-spacing:0;word-spacing:0;fill:#fff;fill-opacity:1;stroke:none;stroke-width:1.21952">GND</text>
    <text x="74.127" y="144.886" style="font-style:normal;font-variant:normal;font-weight:400;font-stretch:normal;font-size:4.26667px;line-height:125%;font-family:Arial;-inkscape-font-specification:'Arial, Normal';font-variant-ligatures:normal;font-variant-caps:normal;font-variant-numeric:normal;font-variant-east-asian:normal;letter-spacing:0;word-spacing:0;fill:#fff;fill-opacity:1;stroke:none;stroke-width:1.2148">3V</text>
    <text x="26.225" y="138.853" style="font-style:normal;font-variant:normal;font-weight:400;font-stretch:normal;font-size:6.40001px;line-height:125%;font-family:Arial;-inkscape-font-specification:'Arial, Normal';font-variant-ligatures:normal;font-variant-caps:normal;font-variant-numeric:normal;font-variant-east-asian:normal;letter-spacing:0;word-spacing:0;fill:#fff;fill-opacity:1;stroke:none;stroke-width:.96503" transform="scale(.96503 1.03624)"><tspan style="font-style:normal;font-variant:normal;font-weight:400;font-stretch:normal;font-size:6.40001px;font-family:Arial;-inkscape-font-specification:'Arial, Normal';font-variant-ligatures:normal;font-variant-caps:normal;font-variant-numeric:normal;font-variant-east-asian:normal;stroke-width:.96503">NodeMCU v3</tspan></text>
    <text x="149.71" y="-26.532" transform="rotate(90)" style="font-style:normal;font-variant:normal;font-weight:400;font-stretch:normal;font-size:3.20001px;line-height:125%;font-family:Arial;-inkscape-font-specification:'Arial, Normal';font-variant-ligatures:normal;font-variant-caps:normal;font-variant-numeric:normal;font-variant-east-asian:normal;letter-spacing:0;word-spacing:0;fill:#f9f9f9;fill-opacity:1;stroke:none">RST</text>
    <text x="147.845" y="-59.604" transform="rotate(90)" style="font-style:normal;font-variant:normal;font-weight:400;font-stretch:normal;font-size:3.20001px;line-height:125%;font-family:Arial;-inkscape-font-specification:'Arial, Normal';font-variant-ligatures:normal;font-variant-caps:normal;font-variant-numeric:normal;font-variant-east-asian:normal;letter-spacing:0;word-spacing:0;fill:#fff;fill-opacity:1;stroke:none">FLASH</text>
    <path d="M25.986 120.134v16.727M29.67 120.134v16.727M33.356 120.134v16.727M37.041 120.134v16.727M40.726 120.134v16.727M44.411 120.134v16.727M48.096 120.134v16.727M22.265 120.134v16.727" stroke="#8c8c8c" stroke-width="1.062" style="stroke-linecap:round;stroke-linejoin:miter;stroke-miterlimit:4;stroke-dasharray:none" fill="none"/>
    <path d="M19.951 123.032h30.424v10.932H19.951z"/>
    <text x="26.89" y="130.024" style="font-style:normal;font-variant:normal;font-weight:400;font-stretch:normal;font-size:4.26667px;line-height:125%;font-family:Arial;-inkscape-font-specification:'Arial, Normal';font-variant-ligatures:normal;font-variant-caps:normal;font-variant-numeric:normal;font-variant-east-asian:normal;letter-spacing:0;word-spacing:0;fill:#4d4d4d;fill-opacity:1;stroke:none;stroke-width:1.57482">CH340G</text>
    <circle class="pad-tx" cx="47.779" cy="125.781" r="1.372" fill="none" stroke="#9a916c" stroke-width="1.6" style="fill:#3c3c3c;fill-opacity:1;stroke:#3c3c3c;stroke-width:.351308;stroke-miterlimit:3.7;stroke-dasharray:none;stroke-opacity:1"/>
</svg>
