<svg width="29.063" height="55.341" xmlns="http://www.w3.org/2000/svg">
    <defs>
        <clipPath id="a"/>
        <clipPath id="b"/>
        <clipPath id="c"/>
        <clipPath id="d"/>
        <clipPath id="e"/>
    </defs>
    <g transform="translate(-79.904 -74.083)">
        <path d="M81.078 74.083c-.65 0-1.174.525-1.174 1.174v52.032c0 .65.525 1.166 1.174 1.166h26.715c.65 0 1.174-.517 1.174-1.166V75.257c0-.65-.525-1.174-1.174-1.174zm1.052.868a1.358 1.358 0 0 1 1.358 1.358 1.358 1.358 0 0 1-1.358 1.358 1.358 1.358 0 0 1-1.358-1.358 1.358 1.358 0 0 1 1.358-1.358zm24.61 0a1.358 1.358 0 0 1 1.358 1.358 1.358 1.358 0 0 1-1.358 1.358 1.358 1.358 0 0 1-1.358-1.358 1.358 1.358 0 0 1 1.358-1.358zm-25.32 5.36a.723.723 0 0 1 .724.724.723.723 0 0 1-.724.723.723.723 0 0 1-.723-.723.723.723 0 0 1 .723-.723zm26.03 0a.723.723 0 0 1 .722.724.723.723 0 0 1-.723.723.723.723 0 0 1-.723-.723.723.723 0 0 1 .723-.723zm-26.03 2.891a.723.723 0 0 1 .724.723.723.723 0 0 1-.724.724.723.723 0 0 1-.723-.724.723.723 0 0 1 .723-.723zm26.03 0a.723.723 0 0 1 .722.723.723.723 0 0 1-.723.724.723.723 0 0 1-.723-.724.723.723 0 0 1 .723-.723zm-26.03 2.891a.723.723 0 0 1 .724.723.723.723 0 0 1-.724.723.723.723 0 0 1-.723-.723.723.723 0 0 1 .723-.723zm26.03 0a.723.723 0 0 1 .722.723.723.723 0 0 1-.723.723.723.723 0 0 1-.723-.723.723.723 0 0 1 .723-.723zm-26.03 2.89a.723.723 0 0 1 .724.724.723.723 0 0 1-.724.723.723.723 0 0 1-.723-.723.723.723 0 0 1 .723-.724zm26.03 0a.723.723 0 0 1 .722.724.723.723 0 0 1-.723.723.723.723 0 0 1-.723-.723.723.723 0 0 1 .723-.724zm-26.03 2.891a.723.723 0 0 1 .724.723.723.723 0 0 1-.724.724.723.723 0 0 1-.723-.724.723.723 0 0 1 .723-.723zm26.03 0a.723.723 0 0 1 .722.723.723.723 0 0 1-.723.724.723.723 0 0 1-.723-.724.723.723 0 0 1 .723-.723zm-26.03 2.89a.723.723 0 0 1 .724.724.723.723 0 0 1-.724.723.723.723 0 0 1-.723-.723.723.723 0 0 1 .723-.723zm26.03 0a.723.723 0 0 1 .722.724.723.723 0 0 1-.723.723.723.723 0 0 1-.723-.723.723.723 0 0 1 .723-.723zm-26.03 2.891a.723.723 0 0 1 .724.723.723.723 0 0 1-.724.724.723.723 0 0 1-.723-.724.723.723 0 0 1 .723-.723zm26.03 0a.723.723 0 0 1 .722.723.723.723 0 0 1-.723.724.723.723 0 0 1-.723-.724.723.723 0 0 1 .723-.723zm-26.03 2.891a.723.723 0 0 1 .724.723.723.723 0 0 1-.724.723.723.723 0 0 1-.723-.723.723.723 0 0 1 .723-.723zm26.03 0a.723.723 0 0 1 .722.723.723.723 0 0 1-.723.723.723.723 0 0 1-.723-.723.723.723 0 0 1 .723-.723zm-26.03 2.89a.723.723 0 0 1 .724.724.723.723 0 0 1-.724.723.723.723 0 0 1-.723-.723.723.723 0 0 1 .723-.724zm26.03 0a.723.723 0 0 1 .722.724.723.723 0 0 1-.723.723.723.723 0 0 1-.723-.723.723.723 0 0 1 .723-.724zm-26.03 2.891a.723.723 0 0 1 .724.723.723.723 0 0 1-.724.724.723.723 0 0 1-.723-.724.723.723 0 0 1 .723-.723zm26.03 0a.723.723 0 0 1 .722.723.723.723 0 0 1-.723.724.723.723 0 0 1-.723-.724.723.723 0 0 1 .723-.723zm-26.03 2.89a.723.723 0 0 1 .724.724.723.723 0 0 1-.724.723.723.723 0 0 1-.723-.723.723.723 0 0 1 .723-.723zm26.03 0a.723.723 0 0 1 .722.724.723.723 0 0 1-.723.723.723.723 0 0 1-.723-.723.723.723 0 0 1 .723-.723zm-26.03 2.891a.723.723 0 0 1 .724.723.723.723 0 0 1-.724.724.723.723 0 0 1-.723-.724.723.723 0 0 1 .723-.723zm26.03 0a.723.723 0 0 1 .722.723.723.723 0 0 1-.723.724.723.723 0 0 1-.723-.724.723.723 0 0 1 .723-.723zM81.42 115a.723.723 0 0 1 .724.723.723.723 0 0 1-.724.723.723.723 0 0 1-.723-.723.723.723 0 0 1 .723-.723zm26.03 0a.723.723 0 0 1 .722.723.723.723 0 0 1-.723.723.723.723 0 0 1-.723-.723.723.723 0 0 1 .723-.723zm-26.03 2.89a.723.723 0 0 1 .724.724.723.723 0 0 1-.724.723.723.723 0 0 1-.723-.723.723.723 0 0 1 .723-.724zm26.03 0a.723.723 0 0 1 .722.724.723.723 0 0 1-.723.723.723.723 0 0 1-.723-.723.723.723 0 0 1 .723-.724zm-26.03 2.891a.723.723 0 0 1 .724.723.723.723 0 0 1-.724.724.723.723 0 0 1-.723-.724.723.723 0 0 1 .723-.723zm26.03 0a.723.723 0 0 1 .722.723.723.723 0 0 1-.723.724.723.723 0 0 1-.723-.724.723.723 0 0 1 .723-.723zm-25.32 4.091a1.358 1.358 0 0 1 1.357 1.358 1.358 1.358 0 0 1-1.358 1.358 1.358 1.358 0 0 1-1.358-1.358 1.358 1.358 0 0 1 1.358-1.358zm24.61 0a1.358 1.358 0 0 1 1.357 1.358 1.358 1.358 0 0 1-1.358 1.358 1.358 1.358 0 0 1-1.358-1.358 1.358 1.358 0 0 1 1.358-1.358z" fill="#3c3c3c"/>
        <path fill="#8c8c8c" d="M87.027 98.36h1.177v.701h-1.177zM87.027 100.33h1.177v.701h-1.177z"/>
        <path d="M87.052 100.52v-1.682c0-.052.04-.094.09-.094h.947c.05 0 .09.042.09.094v1.682c0 .052-.04.093-.09.093h-.947a.091.091 0 0 1-.09-.093z" fill="#dcdcdc"/>
        <path fill="#b7a283" d="M88.179 99.093v1.168h-1.127v-1.168z"/>
        <path fill="#8c8c8c" d="M90.121 98.36h1.177v.701h-1.177zM90.121 100.33h1.177v.701h-1.177z"/>
        <path d="M90.146 100.52v-1.682c0-.052.04-.094.09-.094h.947c.05 0 .09.042.09.094v1.682c0 .052-.04.093-.09.093h-.947a.091.091 0 0 1-.09-.093z" fill="#dcdcdc"/>
        <path fill="#b7a283" d="M91.274 99.093v1.168h-1.127v-1.168z"/>
        <g fill="#8c8c8c" stroke-width=".312">
            <path d="M91.906 122.56v1.016h-.508v-1.016zM92.613 122.56v1.016h-.508v-1.016zM93.496 122.56v1.016h-.243v-1.016zM94.38 122.56v1.016h-.243v-1.016zM94.822 122.56v1.016h-.243v-1.016zM95.705 122.56v1.016h-.243v-1.016zM97.561 122.56v1.016h-.508v-1.016zM96.854 122.56v1.016h-.508v-1.016zM96.147 122.56v1.016h-.243v-1.016zM95.264 122.56v1.016h-.243v-1.016zM93.938 122.56v1.016h-.243v-1.016zM93.055 122.56v1.016h-.243v-1.016z"/>
        </g>
        <circle transform="rotate(-90)" cx="-123.58" cy="90.662" r=".377" fill="none" stroke="#8c8c8c" stroke-width=".224"/>
        <path d="M90.285 124.45v-1.736h.755v1.736h-.755m.377-.49a.377.377 0 1 0 0-.755.377.377 0 0 0 0 .754z" fill="#8c8c8c"/>
        <circle transform="rotate(-90)" cx="-123.58" cy="98.297" r=".377" fill="none" stroke="#8c8c8c" stroke-width=".224"/>
        <path d="M97.92 124.45v-1.736h.755v1.736h-.755m.377-.49a.377.377 0 1 0 0-.755.377.377 0 0 0 0 .754z" fill="#8c8c8c"/>
        <circle transform="rotate(-90)" cx="-127.27" cy="90.662" r=".377" fill="none" stroke="#8c8c8c" stroke-width=".224"/>
        <path d="M90.285 128.14v-1.736h.755v1.736h-.755m.377-.49a.377.377 0 1 0 0-.755.377.377 0 0 0 0 .754z" fill="#8c8c8c"/>
        <circle transform="rotate(-90)" cx="-127.27" cy="98.297" r=".377" fill="none" stroke="#8c8c8c" stroke-width=".224"/>
        <g stroke-width=".312">
            <path d="M97.92 128.14v-1.736h.755v1.736h-.755m.377-.49a.377.377 0 1 0 0-.755.377.377 0 0 0 0 .754z" fill="#8c8c8c"/>
            <path fill="#dcdcdc" d="M90.53 129.42v-6.495h7.9v6.495z"/>
            <path d="M91.608 123.11h-.177v-.406h.177zm.265-.406h-.176v.406h.176zm.442 0h-.177v.406h.177zm.265 0h-.177v.406h.177zm.442 0h-.177v.406h.177zm.442 0h-.177v.406h.177zm.441 0h-.176v.406h.176zm.442 0h-.176v.406h.176zm.442 0h-.177v.406h.177zm.442 0h-.177v.406h.177zm.442 0h-.177v.406h.177zm.442 0h-.177v.406h.177zm.441 0h-.176v.406h.176zm.266 0h-.177v.406h.177zm.441 0h-.176v.406h.176zm.265 0h-.176v.406h.176z" fill="#dcdcdc"/>
            <path fill="#8c8c8c" d="M92.246 125.15v-.363h1.319v.363zM95.394 125.15v-.363h1.319v.363z"/>
            <path fill="#f0f0f0" d="M91.167 129.42v-6.495h.405v6.495z"/>
            <path fill="#bebebe" d="M97.388 129.42v-6.495h.405v6.495z"/>
            <path d="M98.43 122.93v.623h-.088a.195.195 0 0 1-.195-.195v-.166a.195.195 0 0 0-.194-.194h-.883a.195.195 0 0 0-.194.194v.63a.195.195 0 0 1-.195.195h-1.064a.195.195 0 0 1-.194-.195v-.014c0-.107.087-.195.194-.195h.48a.195.195 0 0 0 .194-.194v-.227a.195.195 0 0 0-.195-.194h-3.232a.195.195 0 0 0-.195.194v.227c0 .107.087.195.195.195h.478c.108 0 .195.087.195.194v.014a.195.195 0 0 1-.195.195h-1.064a.195.195 0 0 1-.194-.195v-.63a.195.195 0 0 0-.195-.194h-.882a.195.195 0 0 0-.194.194v.167a.195.195 0 0 1-.195.194h-.088v-.623z" fill="#8c8c8c"/>
        </g>
        <g fill="#fff" font-family="Arial" letter-spacing="0" word-spacing="0">
            <g font-size="1.411">
                <text x="82.683" y="81.534" stroke-width=".402" style="font-variant-caps:normal;font-variant-east-asian:normal;font-variant-ligatures:normal;font-variant-numeric:normal;line-height:125%">A0</text>
                <text x="82.606" y="84.431" stroke-width=".403" style="font-variant-caps:normal;font-variant-east-asian:normal;font-variant-ligatures:normal;font-variant-numeric:normal;line-height:125%">GND</text>
                <text x="82.675" y="87.313" stroke-width=".41" style="font-variant-caps:normal;font-variant-east-asian:normal;font-variant-ligatures:normal;font-variant-numeric:normal;line-height:125%">VU</text>
                <text x="82.617" y="90.212" stroke-width=".402" style="font-variant-caps:normal;font-variant-east-asian:normal;font-variant-ligatures:normal;font-variant-numeric:normal;line-height:125%">S3</text>
                <text x="82.617" y="93.103" stroke-width=".403" style="font-variant-caps:normal;font-variant-east-asian:normal;font-variant-ligatures:normal;font-variant-numeric:normal;line-height:125%">S2</text>
                <text x="82.617" y="95.993" stroke-width=".404" style="font-variant-caps:normal;font-variant-east-asian:normal;font-variant-ligatures:normal;font-variant-numeric:normal;line-height:125%">S1</text>
                <text x="82.617" y="98.884" stroke-width=".404" style="font-variant-caps:normal;font-variant-east-asian:normal;font-variant-ligatures:normal;font-variant-numeric:normal;line-height:125%">SC</text>
                <text x="82.617" y="101.774" stroke-width=".402" style="font-variant-caps:normal;font-variant-east-asian:normal;font-variant-ligatures:normal;font-variant-numeric:normal;line-height:125%">S0</text>
                <text x="82.617" y="104.665" stroke-width=".404" style="font-variant-caps:normal;font-variant-east-asian:normal;font-variant-ligatures:normal;font-variant-numeric:normal;line-height:125%">SK</text>
                <text x="82.606" y="107.555" stroke-width=".403" style="font-variant-caps:normal;font-variant-east-asian:normal;font-variant-ligatures:normal;font-variant-numeric:normal;line-height:125%">GND</text>
                <text x="82.622" y="110.439" stroke-width=".402" style="font-variant-caps:normal;font-variant-east-asian:normal;font-variant-ligatures:normal;font-variant-numeric:normal;line-height:125%">3V</text>
                <text x="82.569" y="113.337" stroke-width=".418" style="font-variant-caps:normal;font-variant-east-asian:normal;font-variant-ligatures:normal;font-variant-numeric:normal;line-height:125%">EN</text>
                <text x="82.57" y="116.227" stroke-width=".404" style="font-variant-caps:normal;font-variant-east-asian:normal;font-variant-ligatures:normal;font-variant-numeric:normal;line-height:125%">RST</text>
                <text x="82.606" y="119.118" stroke-width=".403" style="font-variant-caps:normal;font-variant-east-asian:normal;font-variant-ligatures:normal;font-variant-numeric:normal;line-height:125%">GND</text>
                <text x="82.675" y="122.008" stroke-width=".418" style="font-variant-caps:normal;font-variant-east-asian:normal;font-variant-ligatures:normal;font-variant-numeric:normal;line-height:125%">VIN</text>
                <text x="104.399" y="81.534" stroke-width=".402" style="font-variant-caps:normal;font-variant-east-asian:normal;font-variant-ligatures:normal;font-variant-numeric:normal;line-height:125%">D0</text>
                <text x="104.59" y="84.433" stroke-width=".417" style="font-variant-caps:normal;font-variant-east-asian:normal;font-variant-ligatures:normal;font-variant-numeric:normal;line-height:125%">D1</text>
                <text x="104.406" y="87.324" stroke-width=".41" style="font-variant-caps:normal;font-variant-east-asian:normal;font-variant-ligatures:normal;font-variant-numeric:normal;line-height:125%">D2</text>
                <text x="104.395" y="90.205" stroke-width=".402" style="font-variant-caps:normal;font-variant-east-asian:normal;font-variant-ligatures:normal;font-variant-numeric:normal;line-height:125%">D3</text>
                <text x="104.399" y="93.103" stroke-width=".418" style="font-variant-caps:normal;font-variant-east-asian:normal;font-variant-ligatures:normal;font-variant-numeric:normal;line-height:125%">D4</text>
                <text x="104.42" y="95.986" stroke-width=".402" style="font-variant-caps:normal;font-variant-east-asian:normal;font-variant-ligatures:normal;font-variant-numeric:normal;line-height:125%">3V</text>
                <text x="103.074" y="98.884" stroke-width=".403" style="font-variant-caps:normal;font-variant-east-asian:normal;font-variant-ligatures:normal;font-variant-numeric:normal;line-height:125%">GND</text>
                <text x="104.388" y="101.766" stroke-width=".41" style="font-variant-caps:normal;font-variant-east-asian:normal;font-variant-ligatures:normal;font-variant-numeric:normal;line-height:125%">D5</text>
                <text x="104.396" y="104.658" stroke-width=".403" style="font-variant-caps:normal;font-variant-east-asian:normal;font-variant-ligatures:normal;font-variant-numeric:normal;line-height:125%">D6</text>
                <text x="104.395" y="107.555" stroke-width=".418" style="font-variant-caps:normal;font-variant-east-asian:normal;font-variant-ligatures:normal;font-variant-numeric:normal;line-height:125%">D7</text>
                <text x="104.393" y="110.439" stroke-width=".4" style="font-variant-caps:normal;font-variant-east-asian:normal;font-variant-ligatures:normal;font-variant-numeric:normal;line-height:125%">D8</text>
                <text x="104.184" y="113.337" stroke-width=".418" style="font-variant-caps:normal;font-variant-east-asian:normal;font-variant-ligatures:normal;font-variant-numeric:normal;line-height:125%">RX</text>
                <text x="104.341" y="116.227" stroke-width=".418" style="font-variant-caps:normal;font-variant-east-asian:normal;font-variant-ligatures:normal;font-variant-numeric:normal;line-height:125%">TX</text>
                <text x="103.074" y="119.118" stroke-width=".403" style="font-variant-caps:normal;font-variant-east-asian:normal;font-variant-ligatures:normal;font-variant-numeric:normal;line-height:125%">GND</text>
                <text x="104.42" y="122.001" stroke-width=".402" style="font-variant-caps:normal;font-variant-east-asian:normal;font-variant-ligatures:normal;font-variant-numeric:normal;line-height:125%">3V</text>
            </g>
            <text transform="scale(.96503 1.0362)" x="91.473" y="117.551" font-size="2.117" stroke-width=".319" style="font-variant-caps:normal;font-variant-east-asian:normal;font-variant-ligatures:normal;font-variant-numeric:normal;line-height:125%"><tspan style="font-variant-caps:normal;font-variant-east-asian:normal;font-variant-ligatures:normal;font-variant-numeric:normal">NodeMCU v3</tspan></text>
        </g>
        <text transform="rotate(90)" x="124.391" y="-88.679" fill="#f9f9f9" font-family="Arial" font-size="1.058" letter-spacing="0" stroke-width=".331" word-spacing="0" style="font-variant-caps:normal;font-variant-east-asian:normal;font-variant-ligatures:normal;font-variant-numeric:normal;line-height:125%">RST</text>
        <text transform="rotate(90)" x="123.774" y="-99.617" fill="#fff" font-family="Arial" font-size="1.058" letter-spacing="0" stroke-width=".331" word-spacing="0" style="font-variant-caps:normal;font-variant-east-asian:normal;font-variant-ligatures:normal;font-variant-numeric:normal;line-height:125%">FLASH</text>
        <path fill="#303030" d="M102.08 117.72v-1.19h-2.518v1.19z"/>
        <path fill="#3d3e3d" d="m99.413 116.433.134.134h2.554l.067-.134z"/>
        <path d="M99.547 117.844h2.621l-.067-.134h-2.554l-.134.134z"/>
        <path fill="#1e1f1f" d="m99.413 117.844.134-.134v-1.143l-.134-.134zM102.168 117.844v-1.411l-.067.134v1.143z"/>
        <g stroke-width=".031">
            <path fill="#bdbfc1" d="M101.88 116.45v-.712h-.304v.712z"/>
            <path fill="#666766" d="M101.88 116.16v-.203h-.304v.203z"/>
            <path fill="#bdbfc1" d="M100.95 117.81v.712h-.304v-.712z"/>
            <path fill="#666766" d="M100.95 118.1v.203h-.304v-.203z"/>
            <path fill="#bdbfc1" d="M99.983 116.45v-.712h-.304v.712z"/>
            <path fill="#666766" d="M99.983 116.16v-.203h-.304v.203z"/>
        </g>
        <path fill="#303030" d="M99.504 109.7v1.19h2.518v-1.19z"/>
        <path fill="#3d3e3d" d="m99.475 110.858-.067.134h2.755l-.134-.134z"/>
        <path d="m102.029 109.715.134-.134h-2.755l.067.134z"/>
        <path fill="#1e1f1f" d="m102.029 110.858.134.134v-1.411l-.134.134zM99.475 110.858v-1.143l-.067-.134v1.411z"/>
        <g stroke-width=".031">
            <path fill="#bdbfc1" d="M99.7 110.97v.712h.304v-.712z"/>
            <path fill="#666766" d="M99.7 111.26v.203h.304v-.203z"/>
            <path fill="#bdbfc1" d="M100.63 109.61v-.712h.304v.712z"/>
            <path fill="#666766" d="M100.63 109.32v-.203h.304v.203z"/>
            <path fill="#bdbfc1" d="M101.6 110.97v.712h.304v-.712z"/>
            <path fill="#666766" d="M101.6 111.26v.203h.304v-.203z"/>
        </g>
        <path fill="#ccc" d="M100.69 123.56h2.889v3.83h-2.889z"/>
        <g fill="#333" stroke-width=".067">
            <path d="M100.69 123.56h.202v.538h-.202zM103.38 123.56h.202v.538h-.202zM100.69 126.86h.202v.538h-.202zM103.38 126.86h.202v.538h-.202zM101.43 123.56h.336v.202h-.336zM102.5 123.56h.336v.202h-.336z"/>
        </g>
        <path fill="#e6e6e6" d="M101.5 122.89h1.344v.672H101.5zM101.5 127.4h1.344v.672H101.5z"/>
        <circle cx="102.1" cy="125.51" r=".941" fill="#333" stroke="#1a1a1a" stroke-width=".076"/>
        <path d="M101.29 125.85c-.067-.134-.067-.202-.067-.336 0-.336.134-.605.403-.74" fill="none" stroke="#fff" stroke-width=".076"/>
        <g stroke-width=".067">
            <path fill="#333" d="M101.43 127.26h.336v.202h-.336zM102.5 127.26h.336v.202h-.336z"/>
            <path fill="#ccc" d="M85.315 123.56h2.889v3.83h-2.889z"/>
        </g>
        <g fill="#333" stroke-width=".067">
            <path d="M85.315 123.56h.202v.538h-.202zM88.003 123.56h.202v.538h-.202zM85.315 126.86h.202v.538h-.202zM88.003 126.86h.202v.538h-.202zM85.987 123.56h.336v.202h-.336zM87.129 123.56h.336v.202h-.336z"/>
        </g>
        <path fill="#e6e6e6" d="M86.054 122.89h1.344v.672h-1.344zM86.054 127.4h1.344v.672h-1.344z"/>
        <circle cx="86.726" cy="125.51" r=".941" fill="#333" stroke="#1a1a1a" stroke-width=".076"/>
        <path d="M85.853 125.85c-.067-.134-.067-.202-.067-.336 0-.336.134-.605.403-.74" fill="none" stroke="#fff" stroke-width=".076"/>
        <path fill="#333" d="M85.987 127.26h.336v.202h-.336zM87.129 127.26h.336v.202h-.336z"/>
        <g fill="#8c8c8c" stroke-width=".331">
            <path d="M87.987 108.44h1.345v1.149h-1.345zM90.237 108.44h1.345v1.149h-1.345zM90.237 110.22h1.345v1.149h-1.345zM87.987 110.22h1.345v1.149h-1.345z"/>
        </g>
        <path d="M88.135 110.86v-1.925c0-.198.172-.357.384-.357h2.531c.212 0 .385.16.385.357v1.925c0 .197-.172.357-.385.357h-2.53c-.213 0-.385-.16-.385-.357z" fill="#d2c595"/>
        <path d="M88.393 108.94c0-.079.069-.143.153-.143h2.523c.085 0 .154.064.154.143v1.909c0 .079-.07.143-.154.143h-2.522c-.085 0-.154-.064-.154-.143z" fill="#dcdcdc"/>
        <g fill="none" stroke="#8c8c8c" stroke-linecap="round" stroke-width=".351">
            <path d="M88.498 113.82v5.532M89.717 113.82v5.532M90.936 113.82v5.532M92.155 113.82v5.532M93.373 113.82v5.532M94.592 113.82v5.532M95.811 113.82v5.532M87.268 113.82v5.532"/>
        </g>
        <path fill="#303030" d="M96.252 115v3.162h-9.335V115z"/>
        <path fill="#3d3e3d" d="M96.251 115h-9.335l-.415-.226h10.061z"/>
        <path d="M86.916 118.387h-.415l.415-.225h9.335l.311.225h-.31z"/>
        <path fill="#1e1f1f" d="M96.251 118.162v-3.163l.311-.225v3.613zM86.501 114.774l.415.225v3.163l-.415.225z"/>
        <g fill="none" stroke="#8c8c8c" stroke-linecap="round">
            <path d="M99.592 112.98v1.457" stroke-width=".563"/>
            <path d="M100.41 112.98v1.457M101.17 112.98v1.457" stroke-width=".375"/>
            <path d="M101.99 112.98v1.457" stroke-width=".563"/>
        </g>
        <g fill="#dcdcdc" stroke-width=".347">
            <path d="M99.219 114.38v-1.347h.746v1.347zM100.13 114.38v-1.347h.574v1.347zM100.88 114.38v-1.347h.574v1.347zM101.61 114.38v-1.347h.746v1.347z"/>
        </g>
        <path d="M99.106 114.23v-1.029h3.368v1.029z"/>
        <g fill="none" stroke="#8c8c8c" stroke-linecap="round">
            <path d="M95.496 109.17v1.458" stroke-width=".563"/>
            <path d="M96.318 109.17v1.458M97.069 109.17v1.458" stroke-width=".375"/>
            <path d="M97.891 109.17v1.458" stroke-width=".563"/>
        </g>
        <g fill="#dcdcdc" stroke-width=".347">
            <path d="M95.123 110.58v-1.347h.746v1.347zM96.031 110.58v-1.347h.574v1.347zM96.782 110.58v-1.347h.574v1.347zM97.518 110.58v-1.347h.746v1.347z"/>
        </g>
        <path d="M95.01 110.42v-1.029h3.368v1.029z"/>
        <path fill="#8c8c8c" d="M88.084 102.42h2.158v4.013h-2.158z"/>
        <path fill="#ff9c01" d="M87.677 102.74h2.971v3.363h-2.971z"/>
        <path fill="#8c8c8c" d="M92.095 102.65h1.261v3.543h-1.261z"/>
        <path fill="#ff9c01" d="M91.829 102.87h1.794v3.111h-1.794z"/>
        <path fill="#8c8c8c" d="M86.102 108.58h1.177v.701h-1.177zM86.102 110.55h1.177v.701h-1.177z"/>
        <path d="M86.127 110.74v-1.682c0-.052.04-.094.09-.094h.947c.05 0 .09.042.09.094v1.682c0 .052-.04.093-.09.093h-.947a.091.091 0 0 1-.09-.093z" fill="#dcdcdc"/>
        <path fill="#b7a283" d="M87.254 109.32v1.168h-1.127v-1.168z"/>
        <path fill="#8c8c8c" d="M92.29 108.58h1.177v.701H92.29zM92.29 110.55h1.177v.701H92.29z"/>
        <path d="M92.315 110.74v-1.682c0-.052.04-.094.09-.094h.947c.05 0 .09.042.09.094v1.682c0 .052-.04.093-.09.093h-.947a.091.091 0 0 1-.09-.093z" fill="#dcdcdc"/>
        <path fill="#b7a283" d="M93.442 109.32v1.168h-1.127v-1.168z"/>
        <path fill="#8c8c8c" d="M101.27 99.088v1.177h-.701v-1.177zM99.297 99.088v1.177h-.701v-1.177z"/>
        <path d="M99.106 99.113h1.682c.052 0 .094.04.094.09v.947c0 .05-.042.09-.094.09h-1.682a.092.092 0 0 1-.093-.09v-.947c0-.05.042-.09.093-.09z" fill="#dcdcdc"/>
        <path fill="#b7a283" d="M100.53 100.24h-1.168v-1.127h1.168z"/>
        <g fill="none" stroke="#8c8c8c" stroke-linecap="round">
            <path d="M93.715 98.948v1.458" stroke-width=".563"/>
            <path d="M94.537 98.948v1.458M95.289 98.948v1.458" stroke-width=".375"/>
            <path d="M96.111 98.948v1.458" stroke-width=".563"/>
        </g>
        <g fill="#dcdcdc" stroke-width=".347">
            <path d="M93.342 100.35v-1.347h.746v1.347zM94.25 100.35v-1.347h.574v1.347zM95.002 100.35v-1.347h.574v1.347zM95.737 100.35v-1.347h.746v1.347z"/>
        </g>
        <path d="M93.229 100.19v-1.029h3.368v1.029z"/>
        <path fill="#303030" d="M96.764 101.55h2.648v5.674h-2.648z"/>
        <path fill="#3d3e3d" d="m96.764 107.228-.189.252v-6.116l.19.19z"/>
        <path d="m99.602 107.48-.19-.252v-5.675l.19-.189V107.228z"/>
        <path fill="#1e1f1f" d="m96.764 101.553-.189-.189h3.027l-.19.19zM96.764 107.228h2.648l.19.252h-3.027z"/>
        <g stroke-width=".063">
            <path fill="#bdbfc1" d="M95.251 106.09h1.324v.694h-1.324z"/>
            <path fill="#666766" d="M95.63 106.09h.378v.694h-.378z"/>
            <path fill="#bdbfc1" d="M99.602 102.88h1.639v2.837h-1.639z"/>
            <path fill="#666766" d="M100.42 102.88h.378v2.837h-.378z"/>
            <path fill="#bdbfc1" d="M95.251 104.01h1.324v.694h-1.324z"/>
            <path fill="#666766" d="M95.63 104.01h.378v.694h-.378z"/>
            <path fill="#bdbfc1" d="M95.251 101.81h1.324v.694h-1.324z"/>
            <path fill="#666766" d="M95.63 101.81h.378v.694h-.378z"/>
        </g>
        <g fill="none">
            <g stroke="#b3b3b3">
                <g stroke-width=".075">
                    <path d="M100.48 105.71v-2.83M95.945 106.79v-.7M95.945 104.71v-.7"/>
                </g>
                <path stroke-width=".072" d="M95.946 102.5v-.69"/>
            </g>
            <g stroke="#333">
                <g stroke-width=".075">
                    <path d="M100.67 105.71v-2.83M95.756 106.79v-.7M95.756 104.71v-.7"/>
                </g>
                <path stroke-width=".072" d="M95.754 102.5v-.69"/>
            </g>
            <g stroke="#b4b4b4" stroke-width=".529">
                <circle class="pad-tx" cx="107.45" cy="121.5" r=".723"/>
                <circle class="pad-tx" cx="107.45" cy="81.035" r=".723"/>
                <circle class="pad-tx" cx="107.45" cy="83.926" r=".723"/>
                <circle class="pad-tx" cx="107.45" cy="86.816" r=".723"/>
                <circle class="pad-tx" cx="107.45" cy="89.707" r=".723"/>
                <circle class="pad-tx" cx="107.45" cy="92.598" r=".723"/>
                <circle class="pad-tx" cx="107.45" cy="95.488" r=".723"/>
                <circle class="pad-tx" cx="107.45" cy="98.379" r=".723"/>
                <circle class="pad-tx" cx="107.45" cy="101.27" r=".723"/>
                <circle class="pad-tx" cx="107.45" cy="104.16" r=".723"/>
                <circle class="pad-tx" cx="107.45" cy="107.05" r=".723"/>
                <circle class="pad-tx" cx="107.45" cy="109.94" r=".723"/>
                <circle class="pad-tx" cx="107.45" cy="112.83" r=".723"/>
                <circle class="pad-tx" cx="107.45" cy="115.72" r=".723"/>
                <circle class="pad-tx" cx="107.45" cy="118.61" r=".723"/>
                <circle class="pad-tx" cx="81.421" cy="121.5" r=".723"/>
                <circle class="pad-tx" cx="81.421" cy="81.035" r=".723"/>
                <circle class="pad-tx" cx="81.421" cy="83.926" r=".723"/>
                <circle class="pad-tx" cx="81.421" cy="86.816" r=".723"/>
                <circle class="pad-tx" cx="81.421" cy="89.707" r=".723"/>
                <circle class="pad-tx" cx="81.421" cy="92.598" r=".723"/>
                <circle class="pad-tx" cx="81.421" cy="95.488" r=".723"/>
                <circle class="pad-tx" cx="81.421" cy="98.379" r=".723"/>
                <circle class="pad-tx" cx="81.421" cy="101.27" r=".723"/>
                <circle class="pad-tx" cx="81.421" cy="104.16" r=".723"/>
                <circle class="pad-tx" cx="81.421" cy="107.05" r=".723"/>
                <circle class="pad-tx" cx="81.421" cy="109.94" r=".723"/>
                <circle class="pad-tx" cx="81.421" cy="112.83" r=".723"/>
                <circle class="pad-tx" cx="81.421" cy="115.72" r=".723"/>
                <circle class="pad-tx" cx="81.421" cy="118.61" r=".723"/>
            </g>
        </g>
        <path d="M102.12 81.961v-7.878H86.75v7.878a.288.288 0 1 1 0 .576v1.345a.288.288 0 1 1 0 .576v1.345a.288.288 0 1 1 0 .577v1.345a.288.288 0 1 1 0 .576v1.345a.288.288 0 1 1 0 .576v1.345a.288.288 0 1 1 0 .577v1.345a.288.288 0 1 1 0 .576v1.345a.288.288 0 1 1 0 .577v1.153h2.604c-.003-.017-.01-.031-.01-.048a.288.288 0 1 1 .576 0c0 .017-.007.032-.01.048h1.365c-.003-.017-.01-.031-.01-.048a.288.288 0 1 1 .576 0c0 .017-.006.032-.01.048h1.365c-.003-.017-.01-.031-.01-.048a.288.288 0 1 1 .576 0c0 .017-.006.032-.01.048h1.365c-.003-.017-.01-.031-.01-.048a.288.288 0 1 1 .577 0c0 .017-.007.032-.01.048h1.364c-.003-.017-.01-.031-.01-.048a.288.288 0 1 1 .577 0c0 .017-.007.032-.01.048h1.364c-.003-.017-.01-.031-.01-.048a.288.288 0 1 1 .577 0c0 .017-.007.032-.01.048h2.603v-1.154a.288.288 0 0 1 0-.576v-1.346a.288.288 0 0 1 0-.576v-1.345a.288.288 0 0 1 0-.577v-1.345a.288.288 0 0 1 0-.576v-1.346a.288.288 0 0 1 0-.576v-1.345a.288.288 0 0 1 0-.577v-1.345a.288.288 0 0 1 0-.576v-1.346a.287.287 0 1 1 .002-.573zM87.711 95.987a.288.288 0 1 1 0-.577.288.288 0 0 1 0 .577zm0-1.922a.288.288 0 1 1 0-.577.288.288 0 0 1 0 .577zm0-1.921a.288.288 0 1 1 0-.577.288.288 0 0 1 0 .577zm0-1.922a.288.288 0 1 1 0-.576.288.288 0 0 1 0 .576zm0-1.92a.288.288 0 1 1 0-.578.288.288 0 0 1 0 .577zm0-1.922a.288.288 0 1 1 0-.577.288.288 0 0 1 0 .577zm0-1.922a.288.288 0 1 1 0-.576.288.288 0 0 1 0 .576zm0-1.921a.288.288 0 1 1 0-.577.288.288 0 0 1 0 .577zm13.45 13.449a.288.288 0 1 1 0-.576.288.288 0 0 1 0 .576zm0-1.922a.288.288 0 1 1 0-.576.288.288 0 0 1 0 .576zm0-1.92a.288.288 0 1 1 0-.577.288.288 0 0 1 0 .576zm0-1.922a.288.288 0 1 1 0-.577.288.288 0 0 1 0 .577zm0-1.922a.288.288 0 1 1 0-.576.288.288 0 0 1 0 .576zm0-1.921a.288.288 0 1 1 0-.576.288.288 0 0 1 0 .576zm0-1.922a.288.288 0 1 1 0-.576.288.288 0 0 1 0 .576zm0-1.92a.288.288 0 1 1 0-.577.288.288 0 0 1 0 .576z"/>
        <g fill="#9a916c">
            <g stroke="#000" stroke-width=".013">
                <path class="pad1-rst" d="M86.75 81.687v.274a.288.288 0 1 1 0 .576v.274h1.518v-1.124zm.96.85a.288.288 0 1 1 0-.576.288.288 0 0 1 0 .576z"/>
                <path class="pad2-adc" d="M86.75 83.608v.274a.288.288 0 1 1 0 .576v.274h1.518v-1.124zm.96.85a.288.288 0 1 1 0-.576.288.288 0 0 1 0 .576z"/>
                <path class="pad3-en" d="M86.75 85.529v.274a.288.288 0 1 1 0 .576v.274h1.518V85.53zm.96.85a.288.288 0 1 1 0-.576.288.288 0 0 1 0 .576z"/>
                <path class="pad4-gpio16" d="M86.75 87.451v.274a.288.288 0 1 1 0 .576v.274h1.518v-1.124zm.96.85a.288.288 0 1 1 0-.577.288.288 0 0 1 0 .577z"/>
                <path class="pad5-gpio14" d="M86.75 89.372v.274a.288.288 0 1 1 0 .576v.274h1.518v-1.124zm.96.85a.288.288 0 1 1 0-.577.288.288 0 0 1 0 .577z"/>
                <path class="pad6-gpio12" d="M86.75 91.293v.274a.288.288 0 1 1 0 .576v.274h1.518v-1.124zm.96.85a.288.288 0 1 1 0-.576.288.288 0 0 1 0 .576z"/>
                <path class="pad7-gpio13" d="M86.75 93.215v.274a.288.288 0 1 1 0 .576v.274h1.518v-1.124zm.96.85a.288.288 0 1 1 0-.576.288.288 0 0 1 0 .576z"/>
                <path class="pad8-vcc" d="M86.75 95.136v.274a.288.288 0 1 1 0 .577v.274h1.518v-1.125H86.75zm.96.85a.288.288 0 1 1 0-.576.288.288 0 0 1 0 .577z"/>
                <path class="pad9-cso" d="M89.07 96.583v.557h.284c-.003-.016-.01-.031-.01-.048a.288.288 0 1 1 .576 0c0 .017-.006.032-.01.048h.284v-.557z"/>
                <path class="pad10-miso" d="M90.991 96.583v.557h.284c-.003-.016-.01-.031-.01-.048a.288.288 0 1 1 .576 0c0 .017-.006.032-.01.048h.284v-.557z"/>
                <path class="pad11-gpio9" d="M92.912 96.583v.557h.284c-.003-.016-.01-.031-.01-.048a.288.288 0 1 1 .576 0c0 .017-.006.032-.01.048h.284v-.557z"/>
                <path class="pad12-gpio10" d="M94.834 96.583v.557h.284c-.003-.016-.01-.031-.01-.048a.288.288 0 1 1 .576 0c0 .017-.006.032-.01.048h.284v-.557z"/>
                <path class="pad13-mosi" d="M96.755 96.583v.557h.284c-.003-.016-.01-.031-.01-.048a.288.288 0 1 1 .576 0c0 .017-.006.032-.01.048h.284v-.557z"/>
                <path class="pad14-sclk" d="M98.677 96.583v.557h.284c-.003-.016-.01-.031-.01-.048a.288.288 0 1 1 .577 0c0 .017-.007.032-.01.048h.284v-.557z"/>
                <path class="pad15-gnd" d="M101.83 95.698c0-.16.13-.288.288-.288v-.274H100.6v1.124h1.518v-.274a.288.288 0 0 1-.288-.288zm-.672.288a.288.288 0 1 1 0-.576.288.288 0 0 1 0 .576z"/>
                <path class="pad16-gpio15" d="M101.83 93.777c0-.16.13-.288.288-.288v-.274H100.6v1.124h1.518v-.274a.288.288 0 0 1-.288-.288zm-.672.288a.288.288 0 1 1 0-.576.288.288 0 0 1 0 .576z"/>
                <path class="pad17-gpio2" d="M101.83 91.855c0-.16.13-.288.288-.288v-.274H100.6v1.124h1.518v-.274a.288.288 0 0 1-.288-.288zm-.672.288a.288.288 0 1 1 0-.576.288.288 0 0 1 0 .576z"/>
                <path class="pad18-gpio0" d="M101.83 89.934c0-.16.13-.288.288-.288v-.274H100.6v1.124h1.518v-.274a.288.288 0 0 1-.288-.288zm-.672.288a.288.288 0 1 1 0-.576.288.288 0 0 1 0 .576z"/>
                <path class="pad19-gpio4" d="M101.83 88.013c0-.16.13-.288.288-.288v-.274H100.6v1.124h1.518v-.274a.288.288 0 0 1-.288-.288zm-.672.288a.288.288 0 1 1 0-.576.288.288 0 0 1 0 .576z"/>
                <path class="pad20-gpio5" d="M101.83 86.091c0-.16.13-.288.288-.288v-.274H100.6v1.124h1.518v-.274a.288.288 0 0 1-.288-.288zm-.672.288a.288.288 0 1 1 0-.576.288.288 0 0 1 0 .576z"/>
                <path class="pad21-rxd0" d="M101.83 84.17c0-.16.13-.288.288-.288v-.274H100.6v1.124h1.518v-.274a.288.288 0 0 1-.288-.288zm-.672.288a.288.288 0 1 1 0-.576.288.288 0 0 1 0 .576z"/>
                <path class="pad22-txd0" d="M101.83 82.249c0-.16.13-.288.288-.288v-.274H100.6v1.124h1.518v-.274a.288.288 0 0 1-.288-.288zm-.672.288a.288.288 0 1 1 0-.576.288.288 0 0 1 0 .576z"/>
            </g>
            <path d="M92.273 77.387h1.98v-2.61h2.61v2.61h2v-2.61h2.563v4.488h-.414V75.19h-1.735v2.61h-2.828v-2.61h-1.783v2.61H91.86v-2.61h-1.734v4.073h-.414V75.19h-1.709v4.074h-.559v-4.488h4.83z"/>
        </g>
        <path class="led-outer" d="M101.31 80.325c0-.102.082-.184.184-.184v-.14h-1.947v.14a.184.184 0 0 1 0 .368v.14h1.947v-.14a.184.184 0 0 1-.184-.184z" fill="#cdcccc"/>
        <path class="led-blue" fill="#00f" d="M99.874 80.001h1.298v.649h-1.298z"/>
        <path class="main" fill="#999" d="M88.64 81.479h11.591V96.12H88.64z"/>
        <path class="bottom-right" fill="#ccc" d="m88.566 96.215.074.075h11.592l.169-.17V81.48l-.095-.095-.244.308v14.258H88.81v-.044z"/>
        <path class="top-left" fill="#666" d="M100.232 81.31H88.64l-.169.17v14.64l.095.095.244-.308V81.649h11.252v.044l.244-.308z"/>
        <text transform="rotate(90)" x="83.247" y="-91.763" fill="#fff" font-family="Arial" font-size="1.321" font-weight="bold" stroke-width=".44" style="font-variant-caps:normal;font-variant-east-asian:normal;font-variant-ligatures:normal;font-variant-numeric:normal">MODEL ESP8266</text>
        <rect transform="rotate(90)" x="88.109" y="-97.82" width="7.122" height="3.197" ry="1.111" fill="#fff"/>
        <g fill="#999" stroke-width=".284">
            <path d="M95.481 88.78c.035-.012 1.53-.355 1.547-.355.013 0 .017.052.017.214 0 .118-.005.214-.01.214-.017 0-.812.121-.847.13-.031.007-.032.008-.007.017.015.005.215.048.445.095l.42.086-.008.387-.424.088a8.073 8.073 0 0 0-.433.096c-.01.01.001.013.459.08l.391.057v.212c0 .117-.004.212-.008.212-.01 0-1.499-.346-1.535-.357-.021-.006-.023-.028-.023-.206s.002-.2.023-.206l.451-.088c.235-.044.43-.084.434-.087.01-.01-.018-.017-.467-.104l-.435-.085-.003-.197c-.003-.15 0-.199.013-.203zM96.033 90.54h.57v.375h-1.14v-.375zM96.75 90.651a.285.285 0 0 1 .057-.09c.084-.088.202-.074.273.033.03.047.037.072.037.139.001.308-.356.329-.376.021a.346.346 0 0 1 .01-.103zM94.966 91.212c.164.157.324.256.518.32.09.03.114.03.703.039.655.008.645.007.797.083.088.045.226.153.317.25.101.107.17.215.214.336l.03.087v.83c0 .914.002.9-.084 1.085-.11.234-.374.45-.621.509-.125.03-1.162.029-1.276 0-.238-.062-.45-.231-.598-.478-.112-.188-.105-.07-.105-1.708v-1.453l.105.1zm1.067 2.943h.582v-.402H95.45v.402zm-.335-1.593h.234v.843h.375v-.844h.362v.951h.388v-1.41l-.223.009c-.123.005-.481.009-.797.009h-.573v.441zm1.039 1.503c.04.144.216.203.314.106.115-.114.112-.309-.006-.408-.08-.068-.173-.065-.247.009-.069.069-.092.181-.062.293z"/>
        </g>
        <g fill="#fff">
            <path transform="matrix(0 .04272 .04272 0 95.088 84.014)" d="M0 0a7.655 7.655 0 0 0-15.31 0 7.654 7.654 0 0 0 7.655 7.653A7.652 7.652 0 0 0 0 0" clip-path="url(#a)"/>
            <path transform="matrix(0 .04272 .04272 0 95.428 86.87)" d="M0 0c-4.905 34.796-32.499 62.392-67.297 67.295a49.833 49.833 0 0 1-11.102-8.019v-7.405c34.723 0 62.974-28.251 62.974-62.975h7.406A49.931 49.931 0 0 1 0 0" clip-path="url(#b)"/>
            <path transform="matrix(0 .04272 .04272 0 96.421 87.115)" d="M0 0c0 27.51-22.302 49.811-49.813 49.811a50.83 50.83 0 0 1-5.131-.284l-1.136-3.27c24.488-8.554 43.896-27.973 52.476-52.45l3.327 1.164C-.112-3.375 0-1.701 0 0" clip-path="url(#c)"/>
            <path transform="matrix(0 .04272 .04272 0 93.894 85.011)" d="M0 0c-15.816 0-30.687 6.159-41.872 17.342-11.183 11.185-17.342 26.054-17.342 41.871 0 15.816 6.159 30.685 17.342 41.87l3.164-3.164C-49.045 87.58-54.742 73.834-54.742 59.213c0-14.62 5.697-28.368 16.034-38.706C-28.37 10.166-14.622 4.473 0 4.473s28.367 5.693 38.705 16.034l3.164-3.165C30.686 6.159 15.815 0 0 0" clip-path="url(#d)"/>
            <path transform="matrix(0 .04272 .04272 0 94.808 84.984)" d="M0 0c1.222 12.362-4.279 23.871-13.523 30.88a34.115 34.115 0 0 1-17.326 6.784c-1.698.179-2.937 1.684-2.773 3.369.196 1.848 1.722 2.944 3.385 2.774 7.066-.722 13.537-3.192 19.009-6.994C.522 28.687 7.649 14.597 6.128-.611A40.556 40.556 0 0 0 4.77-7.608l8.988-2.535a49.477 49.477 0 0 1 7.787 2.926c.642 3.446 1 6.994 1 10.633 0 28.491-21.068 52.14-48.443 56.194-3.282.47-6.613.509-9.061-.107a19.37 19.37 0 0 1-9.793-5.99 19.3 19.3 0 0 1-4.837-12.807c0-8.657 5.669-15.992 13.504-18.477 1.469-.468 3.753-.67 4.878-.878h.046c8.558-1.477 15.103-8.959 15.103-17.935 0-3.611-1.072-6.969-2.895-9.802l6.232-3.987a50.12 50.12 0 0 1 9.276-1.556A34.459 34.459 0 0 1 0 0" clip-path="url(#e)"/>
        </g>
    </g>
</svg>
