<svg viewBox="0 0 72.601 97.001" width="96.801" height="129.334" xml:space="preserve" xmlns="http://www.w3.org/2000/svg">
    <path d="M2.225 83h3.68v7h-3.68z" class="reset-button"/>
    <path style="fill:#0d4c75;fill-opacity:1" class="Board" d="M12.8 0C5.8 0 0 5.7 0 12.8v61.7c0 .2.1.4.3.5l5 2.3c.2.1.3.3.3.5V95c.2 1.1 1.1 2 2.2 2h13.6c.3 0 .6-.3.6-.6V94c0-.5.4-.8.8-.8H46c.5 0 .9.4.9.8v2.3c0 .3.3.601.6.601h23.1c1.1 0 2-.901 2-2.001V12.8C72.6 5.7 66.9 0 59.8 0ZM3.883 18.233a2.05 2.05 0 0 1 2.051 2.05 2.05 2.05 0 0 1-2.05 2.05 2.05 2.05 0 0 1-2.05-2.05 2.05 2.05 0 0 1 2.05-2.05Zm64.8 0a2.05 2.05 0 0 1 2.05 2.05 2.05 2.05 0 0 1-2.05 2.05 2.05 2.05 0 0 1-2.05-2.05 2.05 2.05 0 0 1 2.05-2.05zm-64.8 7.217a2.05 2.05 0 0 1 2.051 2.05 2.05 2.05 0 0 1-2.05 2.05 2.05 2.05 0 0 1-2.05-2.05 2.05 2.05 0 0 1 2.05-2.05Zm64.8 0a2.05 2.05 0 0 1 2.05 2.05 2.05 2.05 0 0 1-2.05 2.05 2.05 2.05 0 0 1-2.05-2.05 2.05 2.05 0 0 1 2.05-2.05zm-64.8 7.216a2.05 2.05 0 0 1 2.051 2.05 2.05 2.05 0 0 1-2.05 2.05 2.05 2.05 0 0 1-2.05-2.05 2.05 2.05 0 0 1 2.05-2.05Zm64.8 0a2.05 2.05 0 0 1 2.05 2.05 2.05 2.05 0 0 1-2.05 2.05 2.05 2.05 0 0 1-2.05-2.05 2.05 2.05 0 0 1 2.05-2.05zm-64.8 7.216a2.05 2.05 0 0 1 2.051 2.05 2.05 2.05 0 0 1-2.05 2.05 2.05 2.05 0 0 1-2.05-2.05 2.05 2.05 0 0 1 2.05-2.05Zm64.8 0a2.05 2.05 0 0 1 2.05 2.05 2.05 2.05 0 0 1-2.05 2.05 2.05 2.05 0 0 1-2.05-2.05 2.05 2.05 0 0 1 2.05-2.05zm-64.8 7.216a2.05 2.05 0 0 1 2.051 2.049 2.05 2.05 0 0 1-2.05 2.05 2.05 2.05 0 0 1-2.05-2.05 2.05 2.05 0 0 1 2.05-2.05Zm64.8 0a2.05 2.05 0 0 1 2.05 2.049 2.05 2.05 0 0 1-2.05 2.05 2.05 2.05 0 0 1-2.05-2.05 2.05 2.05 0 0 1 2.05-2.05zm-64.8 7.216a2.05 2.05 0 0 1 2.051 2.05 2.05 2.05 0 0 1-2.05 2.05 2.05 2.05 0 0 1-2.05-2.05 2.05 2.05 0 0 1 2.05-2.05Zm64.8 0a2.05 2.05 0 0 1 2.05 2.05 2.05 2.05 0 0 1-2.05 2.05 2.05 2.05 0 0 1-2.05-2.05 2.05 2.05 0 0 1 2.05-2.05zm-64.8 7.215a2.05 2.05 0 0 1 2.051 2.051 2.05 2.05 0 0 1-2.05 2.05 2.05 2.05 0 0 1-2.05-2.05 2.05 2.05 0 0 1 2.05-2.05Zm64.8 0a2.05 2.05 0 0 1 2.05 2.051 2.05 2.05 0 0 1-2.05 2.05 2.05 2.05 0 0 1-2.05-2.05 2.05 2.05 0 0 1 2.05-2.05zm-64.8 7.216a2.05 2.05 0 0 1 2.051 2.051 2.05 2.05 0 0 1-2.05 2.05 2.05 2.05 0 0 1-2.05-2.05 2.05 2.05 0 0 1 2.05-2.05Zm64.8 0a2.05 2.05 0 0 1 2.05 2.051 2.05 2.05 0 0 1-2.05 2.05 2.05 2.05 0 0 1-2.05-2.05 2.05 2.05 0 0 1 2.05-2.05z"/>
    <g class="micro-usb">
        <path fill="#b3b3b3" d="M24.437 94.64v.478l-.661 1.082H23.4z"/>
        <path fill="#ccc" d="M24.437 95.118h.001l-.001.539-.661.543z"/>
        <path fill="#b3b3b3" d="M45.4 96.2h-.376l-.661-1.082v-.478z"/>
        <path fill="#ccc" d="m45.024 96.2-.661-.543-.001-.539h.001z"/>
        <path fill="#e6e6e6" d="M24.439 93.2h19.923v1.808H24.439z"/>
        <path fill="#f2f2f2" d="M24.986 93.2h-.547v1.808h.419z"/>
        <path fill="#b3b3b3" d="M25.415 94.147h17.973v.66H25.415z"/>
        <path fill="#ccc" d="M25.415 94.697h17.973v.313H25.415z"/>
    </g>
    <path class="D0" d="M7.656 33.535v2.361m0 0h1.147m0 0 .404-.404m0 0V33.94m0 0-.404-.405m0 0H7.656m2.36 1.957V33.94m0 0 .406-.405m0 0h.742m0 0 .405.405m0 0v1.552m0 0-.405.404m0 0h-.742m0 0-.405-.404m0 0 1.552-1.552" style="fill:none;stroke:#eee;stroke-width:.473787;stroke-linecap:round;stroke-miterlimit:4;stroke-dasharray:none"/>
    <path class="D5" d="M7.656 40.751v2.361m0 0h1.147m0 0 .405-.404m0 0v-1.552m0 0-.405-.405m0 0H7.656m3.913 0h-1.551m0 0v1.147m0 0 .81-.405m0 0h.336m0 0 .405.405m0 0v.81m0 0-.405.404m0 0h-.742m0 0-.404-.404" style="fill:none;stroke:#eee;stroke-width:.473786;stroke-linecap:round;stroke-miterlimit:4;stroke-dasharray:none"/>
    <path class="D6" d="M7.656 47.967v2.361m0 0h1.147m0 0 .404-.404m0 0v-1.552m0 0-.404-.405m0 0H7.656m3.913 0-.742.405m0 0-.81.81m0 0v.742m0 0 .405.404m0 0h.742m0 0 .405-.404m0 0v-.405m0 0-.405-.338m0 0h-1.146" style="fill:none;stroke:#eee;stroke-width:.473786;stroke-linecap:round;stroke-miterlimit:4;stroke-dasharray:none"/>
    <path class="D7" d="M7.656 55.183v2.361m0 0h1.147m0 0 .404-.404m0 0v-1.552m0 0-.404-.405m0 0H7.656m2.362 0h1.55m0 0v.405m0 0-1.55 1.552m0 0v.404" style="fill:none;stroke:#eee;stroke-width:.473786;stroke-linecap:round;stroke-miterlimit:4;stroke-dasharray:none"/>
    <path class="D8" d="M7.656 62.4v2.36m0 0h1.147m0 0 .404-.404m0 0v-1.552m0 0-.404-.405m0 0H7.656m2.362.405.404-.405m0 0h.742m0 0 .405.405m0 0v.405m0 0-.405.404m0 0 .405.405m0 0v.338m0 0-.405.404m0 0h-.742m0 0-.404-.404m0 0v-.338m0 0 .404-.405m0 0-.404-.404m0 0v-.405m.404.81h.742" style="fill:none;stroke:#eee;stroke-width:.473786;stroke-linecap:round;stroke-miterlimit:4;stroke-dasharray:none"/>
    <path class="3V3" d="m7.656 70.02.404-.405m0 0h.743m0 0 .404.405m0 0v.337m0 0-.404.405m0 0h-.406m.406 0 .404.405m0 0v.405m0 0-.404.404m0 0H8.06m0 0-.404-.404m2.36-1.957v1.552m0 0 .81.81m0 0 .743-.81m0 0v-1.552m.81.405.404-.405m0 0h.81m0 0 .337.405m0 0v.337m0 0-.338.405m0 0h-.404m.404 0 .338.405m0 0v.405m0 0-.338.404m0 0h-.81m0 0-.404-.404" style="fill:none;stroke:#eee;stroke-width:.473786;stroke-linecap:round;stroke-miterlimit:4;stroke-dasharray:none"/>
    <path class="5V" d="M62.393 69.615h-1.55m0 0v1.147m0 0 .74-.405m0 0h.406m0 0 .404.405m0 0v.81m0 0-.404.404m0 0h-.742m0 0-.405-.404m2.362-1.957v1.552m0 0 .81.81m0 0 .741-.81m0 0v-1.552" style="fill:none;stroke:#eee;stroke-width:.473786;stroke-linecap:round;stroke-miterlimit:4;stroke-dasharray:none"/>
    <path class="G" d="m64.755 62.804-.405-.405m0 0h-.742m0 0-.405.405m0 0v1.552m0 0 .405.404m0 0h.742m0 0 .405-.404m0 0v-.81m0 0h-.81" style="fill:none;stroke:#eee;stroke-width:.473786;stroke-linecap:round;stroke-miterlimit:4;stroke-dasharray:none"/>
    <path class="D4" d="M60.842 55.183v2.361m0 0h1.147m0 0 .404-.404m0 0v-1.552m0 0-.404-.405m0 0h-1.147m3.508 2.361v-2.36m0 0-1.146 1.213m0 0h1.551" style="fill:none;stroke:#eee;stroke-width:.473786;stroke-linecap:round;stroke-miterlimit:4;stroke-dasharray:none"/>
    <path class="D3" d="M60.842 47.967v2.361m0 0h1.147m0 0 .404-.404m0 0v-1.552m0 0-.404-.405m0 0h-1.147m2.362.405.404-.405m0 0h.742m0 0 .405.405m0 0v.337m0 0-.405.405m0 0h-.336m.336 0 .405.405m0 0v.405m0 0-.405.404m0 0h-.742m0 0-.404-.404" style="fill:none;stroke:#eee;stroke-width:.473786;stroke-linecap:round;stroke-miterlimit:4;stroke-dasharray:none"/>
    <path class="D2" d="M60.842 40.751v2.361m0 0h1.147m0 0 .405-.404m0 0v-1.552m0 0-.405-.405m0 0h-1.147m3.913 2.361h-1.55m0 0 1.55-1.551m0 0v-.405m0 0-.405-.405m0 0h-.742m0 0-.404.405" style="fill:none;stroke:#eee;stroke-width:.473786;stroke-linecap:round;stroke-miterlimit:4;stroke-dasharray:none"/>
    <path class="D1" d="M60.742 33.541v2.35m0 0h1.175m0 0 .414-.346m0 0v-1.658m0 0-.414-.346m0 0h-1.175m2.418.76.83-.76m0 0v2.35m-.83 0h1.59" style="fill:none;stroke:#eee;stroke-width:.48523;stroke-linecap:round;stroke-miterlimit:4;stroke-dasharray:none"/>
    <path class="RX" d="M60.842 28.68v-2.36m0 0h1.147m0 0 .404.403m0 0v.81m0 0-.404.337m0 0h-1.147m.742 0 .81.81m.81-2.36 1.551 2.36m0-2.36-1.55 2.36" style="fill:none;stroke:#eee;stroke-width:.473786;stroke-linecap:round;stroke-miterlimit:4;stroke-dasharray:none"/>
    <path class="TX" d="M61.502 21.458v-2.35m-.76 0h1.589m.83 0 1.589 2.35m0-2.35-1.59 2.35" style="fill:none;stroke:#eee;stroke-width:.48523;stroke-linecap:round;stroke-miterlimit:4;stroke-dasharray:none"/>
    <g style="fill:none;stroke:#eee;stroke-width:.425197;stroke-linecap:round;stroke-miterlimit:4;stroke-dasharray:none">
        <path d="M0 2.26V0m0 0h1.098m0 0 .387.388m0 0v.775m0 0-.387.387m0 0H0m.71 0 .775.71M3.746 0H2.26m0 0v2.26m0 0h1.486M2.26 1.163h.775M6.071.388 5.683 0m0 0h-.775m0 0-.387.388m0 0v.387m0 0 .387.388m0 0h.775m0 0 .388.387m0 0v.323m0 0-.388.387m0 0h-.775m0 0-.387-.387M8.331 0H6.846m0 0v2.26m0 0h1.485M6.846 1.163h.71M9.881 2.26V0m-.775 0h1.486" style="stroke-width:.425197;stroke-miterlimit:4;stroke-dasharray:none" transform="translate(10.01 85.37)" class="label-reset" stroke-width=".4"/>
    </g>
    <path class="label-logo-d1" d="M50 81v4.224m0 0h2.052m0 0 .724-.724m0 0v-2.776m0 0L52.052 81m0 0H50m4.224 1.448L55.672 81m0 0v4.224m-1.448 0H57" style="fill:none;stroke:#eee;stroke-width:.708662;stroke-linecap:round;stroke-miterlimit:4;stroke-dasharray:none"/>
    <path class="label-logo-mini" d="M59.8 85.295v-2.07m0 0h.54m0 0 .45.54m0 0v1.53m0-1.53.54-.54m0 0 .54.54m0 0v1.53m1.08-2.07h.54m0 0v2.07m-.54 0h1.08m-.54-3.6v.54m1.62 3.06v-2.07m0 0h1.53m0 0 .54.54m0 0v1.53m1.08-2.07h.54m0 0v2.07m-.54 0h.99m-.45-3.6v.54" style="fill:none;stroke:#eee;stroke-width:.56693;stroke-linecap:round;stroke-miterlimit:4;stroke-dasharray:none"/>
    <circle class="pad-3v3" cx="3.884" cy="70.796" r="2.05" fill="none" stroke="#9a916c" stroke-width="1.5" style="stroke:#b4b4b4;stroke-opacity:1"/>
    <circle class="pad-5v" cx="68.684" cy="70.796" r="2.05" fill="none" stroke="#9a916c" stroke-width="1.5" style="stroke:#b4b4b4;stroke-opacity:1"/>
    <circle class="pad-g" cx="68.684" cy="63.58" r="2.05" fill="none" stroke="#9a916c" stroke-width="1.5" style="stroke:#b4b4b4;stroke-opacity:1"/>
    <circle class="pad-d4" cx="68.684" cy="56.364" r="2.05" fill="none" stroke="#9a916c" stroke-width="1.5" style="stroke:#b4b4b4;stroke-opacity:1"/>
    <circle class="pad-d3" cx="68.684" cy="49.148" r="2.05" fill="none" stroke="#9a916c" stroke-width="1.5" style="stroke:#b4b4b4;stroke-opacity:1"/>
    <circle class="pad-d2" cx="68.684" cy="41.932" r="2.05" fill="none" stroke="#9a916c" stroke-width="1.5" style="stroke:#b4b4b4;stroke-opacity:1"/>
    <circle class="pad-d1" cx="68.684" cy="34.716" r="2.05" fill="none" stroke="#9a916c" stroke-width="1.5" style="stroke:#b4b4b4;stroke-opacity:1"/>
    <circle class="pad-rx" cx="68.684" cy="27.5" r="2.05" fill="none" stroke="#9a916c" stroke-width="1.5" style="stroke:#b4b4b4;stroke-opacity:1"/>
    <circle class="pad-tx" cx="68.684" cy="20.284" r="2.05" fill="none" stroke="#9a916c" stroke-width="1.5" style="stroke:#b4b4b4;stroke-opacity:1"/>
    <circle class="pad" cx="8" cy="84" r="1.5" style="fill:#b4b4b4;fill-opacity:1"/>
    <circle class="pin" fill="#333" cx="8" cy="84" r=".75"/>
    <circle class="pad" cx="8" cy="89" r="1.5" style="fill:#b4b4b4;fill-opacity:1"/>
    <circle class="pin" fill="#333" cx="8" cy="89" r=".75"/>
    <circle class="pad-a" cx="26" cy="89" r="1.5" style="fill:#b4b4b4;fill-opacity:1"/>
    <circle class="pad-b" cx="26" cy="90" r="1.5" style="fill:#b4b4b4;fill-opacity:1"/>
    <circle class="pad-c" cx="26" cy="89.5" r="1.5" style="fill:#b4b4b4;fill-opacity:1"/>
    <circle class="pin" fill="#333" cx="26" cy="89.5" r=".75"/>
    <circle class="pad-a" cx="43" cy="89" r="1.5" style="fill:#b4b4b4;fill-opacity:1"/>
    <circle class="pad-b" cx="43" cy="90" r="1.5" style="fill:#b4b4b4;fill-opacity:1"/>
    <circle class="pad-c" cx="43" cy="89.5" r="1.5" style="fill:#b4b4b4;fill-opacity:1"/>
    <circle class="pin" fill="#333" cx="43" cy="89.5" r=".75"/>
    <circle class="pad-a" cx="28" cy="80" r="1.5" style="fill:#b4b4b4;fill-opacity:1"/>
    <circle class="pad-b" cx="29" cy="80" r="1.5" style="fill:#b4b4b4;fill-opacity:1"/>
    <circle class="pad-c" cx="28.5" cy="80" r="1.5" style="fill:#b4b4b4;fill-opacity:1"/>
    <circle class="pin" fill="#333" cx="28.5" cy="80" r=".75"/>
    <circle class="pad-a" cx="41" cy="80" r="1.5" style="fill:#b4b4b4;fill-opacity:1"/>
    <circle class="pad-b" cx="40" cy="80" r="1.5" style="fill:#b4b4b4;fill-opacity:1"/>
    <circle class="pad-c" cx="40.5" cy="80" r="1.5" style="fill:#b4b4b4;fill-opacity:1"/>
    <circle class="pin" fill="#333" cx="40.5" cy="80" r=".75"/>
    <path d="M58.957 23.244V0h-45.35v23.243a.851.851 0 1 1 0 1.701v3.968a.851.851 0 1 1 0 1.701v3.968a.851.851 0 1 1 0 1.701v3.968a.851.851 0 1 1 0 1.701v3.968a.85.85 0 1 1 0 1.701v3.968a.85.85 0 1 1 0 1.701v3.968a.85.85 0 1 1 0 1.701v3.968a.85.85 0 1 1 0 1.702v3.402h7.681c-.008-.048-.029-.091-.029-.141a.851.851 0 1 1 1.701 0c0 .05-.02.094-.029.141h4.025c-.008-.048-.029-.091-.029-.141a.85.85 0 1 1 1.701 0c0 .05-.02.094-.029.141h4.025c-.008-.048-.029-.091-.029-.141a.85.85 0 1 1 1.701 0c0 .05-.02.094-.029.141h4.025c-.008-.048-.029-.091-.029-.141a.85.85 0 1 1 1.701 0c0 .05-.02.094-.029.141h4.025c-.008-.048-.029-.091-.029-.141a.85.85 0 1 1 1.701 0c0 .05-.02.094-.029.141h4.025c-.008-.048-.029-.091-.029-.141a.851.851 0 1 1 1.702 0c0 .05-.02.094-.029.141h7.68v-3.404a.85.85 0 0 1 0-1.7v-3.97a.85.85 0 0 1 0-1.7v-3.97a.85.85 0 0 1 0-1.7v-3.97a.85.85 0 0 1 0-1.7v-3.97a.85.85 0 0 1 0-1.7v-3.97a.85.85 0 0 1 0-1.7v-3.97a.85.85 0 0 1 0-1.7v-3.97a.847.847 0 1 1 .005-1.692zM16.442 64.628a.851.851 0 1 1 0-1.702.851.851 0 0 1 0 1.702zm0-5.67a.851.851 0 1 1 0-1.702.851.851 0 0 1 0 1.702zm0-5.669a.851.851 0 1 1 0-1.702.851.851 0 0 1 0 1.702zm0-5.669a.851.851 0 1 1 0-1.702.851.851 0 0 1 0 1.702zm0-5.669a.85.85 0 1 1 0-1.702.85.85 0 0 1 0 1.702zm0-5.669a.85.85 0 1 1 0-1.702.85.85 0 0 1 0 1.702zm0-5.669a.85.85 0 1 1 0-1.702.85.85 0 0 1 0 1.702zm0-5.669a.85.85 0 1 1 0-1.702.85.85 0 0 1 0 1.702zm39.684 39.683a.85.85 0 1 1 0-1.7.85.85 0 0 1 0 1.7zm0-5.669a.85.85 0 1 1 0-1.7.85.85 0 0 1 0 1.7zm0-5.669a.85.85 0 1 1 0-1.7.85.85 0 0 1 0 1.7zm0-5.669a.85.85 0 1 1 0-1.7.85.85 0 0 1 0 1.7zm0-5.669a.85.85 0 1 1 0-1.7.85.85 0 0 1 0 1.7zm0-5.669a.85.85 0 1 1 0-1.7.85.85 0 0 1 0 1.7zm0-5.669a.85.85 0 1 1 0-1.7.85.85 0 0 1 0 1.7zm0-5.669a.85.85 0 1 1 0-1.7.85.85 0 0 1 0 1.7z" class="pcb"/>
    <g class="pads" fill="#9a916c">
        <g class="pads-left">
            <path class="pad1-rst" d="M13.607 22.434v.808a.851.851 0 1 1 0 1.701v.808h4.479v-3.317zm2.835 2.509a.85.85 0 1 1 0-1.702.85.85 0 0 1 0 1.702z"/>
            <path class="pad2-adc" d="M13.607 28.103v.808a.851.851 0 1 1 0 1.701v.808h4.479v-3.317zm2.835 2.509a.85.85 0 1 1 0-1.702.85.85 0 0 1 0 1.702z"/>
            <path class="pad3-en" d="M13.607 33.772v.808a.851.851 0 1 1 0 1.701v.808h4.479v-3.317zm2.835 2.509a.85.85 0 1 1 0-1.702.85.85 0 0 1 0 1.702z"/>
            <path class="pad4-gpio16" d="M13.607 39.442v.808a.851.851 0 1 1 0 1.701v.808h4.479v-3.317zm2.835 2.508a.85.85 0 1 1 0-1.702.85.85 0 0 1 0 1.702z"/>
            <path class="pad5-gpio14" d="M13.607 45.111v.808a.85.85 0 1 1 0 1.701v.808h4.479v-3.317zm2.835 2.508a.851.851 0 1 1 0-1.702.851.851 0 0 1 0 1.702z"/>
            <path class="pad6-gpio12" d="M13.607 50.779v.808a.85.85 0 1 1 0 1.701v.808h4.479v-3.317Zm2.835 2.509a.851.851 0 1 1 0-1.702.851.851 0 0 1 0 1.702z"/>
            <path class="pad7-gpio13" d="M13.607 56.448v.808a.85.85 0 1 1 0 1.701v.808h4.479v-3.317zm2.835 2.509a.851.851 0 1 1 0-1.702.851.851 0 0 1 0 1.702z"/>
            <path class="pad8-vcc" d="M13.607 62.117v.808a.85.85 0 1 1 0 1.702v.808h4.479v-3.317h-4.48Zm2.835 2.51a.851.851 0 1 1 0-1.702.851.851 0 0 1 0 1.702z"/>
        </g>
        <g class="pads-bot">
            <path class="pad9-cso" d="M20.453 66.386v1.644h.837c-.008-.048-.03-.092-.03-.142a.851.851 0 1 1 1.701 0c0 .05-.02.094-.028.142h.837v-1.644z"/>
            <path class="pad10-miso" d="M26.122 66.386v1.644h.837c-.008-.048-.03-.092-.03-.142a.85.85 0 1 1 1.702 0c0 .05-.02.094-.03.142h.838v-1.644z"/>
            <path class="pad11-gpio9" d="M31.79 66.386v1.644h.837c-.009-.048-.03-.092-.03-.142a.85.85 0 1 1 1.701 0c0 .05-.02.094-.029.142h.837v-1.644z"/>
            <path class="pad12-gpio10" d="M37.459 66.386v1.644h.836c-.007-.048-.028-.092-.028-.142a.85.85 0 1 1 1.7 0c0 .05-.02.094-.028.142h.836v-1.644z"/>
            <path class="pad13-mosi" d="M43.127 66.386v1.644h.837c-.007-.048-.028-.092-.028-.142a.85.85 0 1 1 1.7 0c0 .05-.02.094-.029.142h.837v-1.644z"/>
            <path class="pad14-sclk" d="M48.796 66.386v1.644h.837c-.008-.048-.029-.092-.029-.142a.851.851 0 1 1 1.702 0c0 .05-.02.094-.029.142h.837v-1.644z"/>
        </g>
        <g class="pads-right">
            <path class="pad15-gnd" d="M58.11 63.775c0-.47.38-.851.85-.851v-.808h-4.479v3.317h4.48v-.808a.85.85 0 0 1-.852-.85zm-1.985.851a.85.85 0 1 1 0-1.7.85.85 0 0 1 0 1.7z"/>
            <path class="pad16-gpio15" d="M58.11 58.106c0-.47.38-.851.85-.851v-.808h-4.479v3.317h4.48v-.808a.85.85 0 0 1-.852-.85zm-1.985.851a.85.85 0 1 1 0-1.7.85.85 0 0 1 0 1.7z"/>
            <path class="pad17-gpio2" d="M58.11 52.437c0-.47.38-.85.85-.85v-.808h-4.479v3.317h4.48v-.808a.851.851 0 0 1-.852-.851zm-1.985.851a.85.85 0 1 1 0-1.7.85.85 0 0 1 0 1.7z"/>
            <path class="pad18-gpio0" d="M58.11 46.768c0-.47.38-.85.85-.85v-.808h-4.479v3.317h4.48v-.808a.851.851 0 0 1-.852-.851zm-1.985.851a.85.85 0 1 1 0-1.7.85.85 0 0 1 0 1.7z"/>
            <path class="pad19-gpio4" d="M58.11 41.099c0-.47.38-.85.85-.85v-.808h-4.479v3.317h4.48v-.808a.851.851 0 0 1-.852-.851zm-1.985.851a.85.85 0 1 1 0-1.7.85.85 0 0 1 0 1.7z"/>
            <path class="pad20-gpio5" d="M58.11 35.43c0-.47.38-.85.85-.85v-.808h-4.479v3.317h4.48v-.808a.851.851 0 0 1-.852-.851zm-1.985.851a.85.85 0 1 1 0-1.7.85.85 0 0 1 0 1.7z"/>
            <path class="pad21-rxd0" d="M58.11 29.762c0-.47.38-.851.85-.851v-.808h-4.479v3.317h4.48v-.808a.85.85 0 0 1-.852-.85zm-1.985.85a.85.85 0 1 1 0-1.7.85.85 0 0 1 0 1.7z"/>
            <path class="pad22-txd0" d="M58.11 24.093c0-.47.38-.851.85-.851v-.808h-4.479v3.317h4.48v-.808a.85.85 0 0 1-.852-.85zm-1.985.85a.85.85 0 1 1 0-1.7.85.85 0 0 1 0 1.7z"/>
        </g>
    </g>
    <path d="M17.303 15.289h-1.648V2.049h14.249v7.7h5.84v-7.7h7.7v7.7h5.903v-7.7h7.56v13.24h-1.22V3.269h-5.12v7.7h-8.343v-7.7h-5.26v7.7h-8.28v-7.7h-5.116v12.017h-1.22V3.269h-5.044z" class="antenna" fill="#9a916c"/>
    <g class="cover" fill="#fff">
        <path class="main" fill="#999" d="M19.181 21.26h34.2v43.2h-34.2z"/>
        <g class="shadows">
            <path class="bottom-right" fill="#ccc" d="m53.882 21.26-.28-.279-.72.91V63.96h-33.2v-.132l-.721.911.22.221h34.2l.5-.5z"/>
            <path class="top-left" fill="#666" d="m18.96 64.739.721-.911V21.76h33.2v.131l.722-.91-.221-.221h-34.2l-.5.5v43.2z"/>
        </g>
        <g class="wemos-logo">
            <path class="wemos-logo-w" d="M51.57 27.034v.624c-.335.243-.742.439-1.129.17-2.053-1.03-4.39-1.664-6.696-1.322-.911.168-1.92.477-2.448 1.301-.522.877-.163 1.995.419 2.748.294.424.85.443 1.293.619.465.136.505.856.151 1.129-.524.279-1.171.365-1.58.832-.65.677-.831 1.856-.188 2.598.631.692 1.616.905 2.515.95a9.067 9.067 0 0 0 4.848-1.221c.63-.355 1.1-.929 1.73-1.279.485-.12.936.426.698.875-.432.867-1.337 1.365-2.161 1.8-1.922.888-4.081 1.467-6.204 1.12-1.51-.273-3-1.368-3.212-2.974V33.94c.179-.866.66-1.63 1.327-2.204-.636-.722-1.18-1.557-1.327-2.526v-.768c.092-.776.42-1.535 1.008-2.064 1.024-.95 2.456-1.281 3.812-1.38h1.357c1.667.234 3.309.66 4.862 1.31.373.148.676.419.926.726z"/>
            <path class="wemos-logo-e" d="M44.153 40.415c-.594-1.423-2.767-1.727-3.77-.591-.7.897-.55 2.15-.206 3.159.308.007.617.017.925.026-.428-.86-.587-2.387.643-2.636.04 1.009.007 2.019.02 3.028.618-.017 1.298.006 1.816-.385.82-.56.913-1.741.571-2.601zm-.663 1.035c.01.514-.538.675-.937.789a36.044 36.044 0 0 1-.002-1.86c.458.169 1.023.496.939 1.071z"/>
            <path class="wemos-logo-m" d="M45.921 44.339c.007.649.006 1.297.006 1.946-1.436.548-2.869 1.109-4.324 1.604 1.451.518 2.888 1.067 4.324 1.623V51.4c-1.974-.004-3.948-.002-5.922 0 .002-.445.002-.89.011-1.335 1.627.011 3.256.03 4.88.03-1.682-.419-3.259-1.155-4.889-1.727l-.001-1.06c1.625-.613 3.216-1.35 4.902-1.783-1.628.009-3.26.022-4.892.041a71.232 71.232 0 0 1-.009-1.223c1.971.007 3.942.011 5.914-.004z"/>
            <path class="wemos-logo-o" d="M43.814 53.854c.64 1.191-.555 2.815-1.886 2.44-1.338-.29-1.742-2.24-.654-3.056.781-.738 2.155-.353 2.54.616z"/>
            <path class="wemos-logo-wifi-fan-3" d="M48.945 49.289c1.166 1.163 2.034 2.658 2.253 4.307.368 2.311-.557 4.701-2.226 6.307-.297-.288-.596-.572-.895-.856 1.273-1.202 2.026-2.954 1.931-4.711-.064-1.585-.817-3.088-1.952-4.182.295-.289.594-.577.89-.865z"/>
            <path class="wemos-logo-wifi-fan-2" d="M47.397 50.734c1.256 1.138 1.918 2.894 1.669 4.578-.124 1.217-.794 2.29-1.609 3.172a33.202 33.202 0 0 0-1.001-.948c.883-.869 1.41-2.116 1.242-3.363-.081-.959-.593-1.815-1.251-2.496.32-.309.636-.624.95-.943z"/>
            <path class="wemos-logo-wifi-fan-1" d="M45.82 52.241c.565.634 1.024 1.417 1.024 2.288.05.92-.4 1.778-1.01 2.436a34.97 34.97 0 0 0-.973-.916c.791-.776.81-2.101-.013-2.862.33-.311.654-.625.972-.946z"/>
            <path class="wemos-logo-s" d="M43.984 58.056c.497.77.361 1.742.206 2.595-.322.002-.648.004-.971.011.251-.641.438-1.411-.055-1.995-.794.563-.578 1.89-1.59 2.225h-.657c-1.218-.578-1.16-2.221-.824-3.32.333-.06.673-.06 1.01-.08-.208.578-.468 1.2-.289 1.823.04.275.2.389.483.338.439-.572.434-1.393.98-1.896.516-.402 1.367-.275 1.707.299z"/>
        </g>
        <g class="words">
            <g class="model">
                <path class="model-m" d="M37.186 25.248v1.018l-1.525.393 1.525.39v1.018H34.68v-.634h1.91l-1.91-.488v-.575l1.91-.488h-1.91v-.634z"/>
                <path class="model-o" d="M35.931 28.463c.41 0 .729.114.956.342.228.228.341.545.341.952 0 .417-.11.738-.336.964-.224.226-.537.338-.94.338-.292 0-.532-.049-.72-.148a1.06 1.06 0 0 1-.438-.427c-.104-.186-.156-.418-.156-.696 0-.283.045-.517.135-.702.09-.185.231-.335.427-.45.196-.115.438-.173.731-.173zm-.002.774c-.255 0-.437.047-.547.141a.479.479 0 0 0-.164.384c0 .166.053.295.161.386.109.091.304.137.583.137.235 0 .407-.047.517-.143a.49.49 0 0 0 .164-.387.471.471 0 0 0-.167-.376c-.11-.095-.292-.142-.547-.142z"/>
                <path class="model-d" d="M37.186 31.485v1.15c0 .227-.03.41-.093.549a.892.892 0 0 1-.265.346 1.097 1.097 0 0 1-.402.198 1.855 1.855 0 0 1-.484.062c-.269 0-.476-.031-.623-.092a1.043 1.043 0 0 1-.37-.254.82.82 0 0 1-.2-.349 1.767 1.767 0 0 1-.068-.461v-1.15h2.505zm-.568.775H35.25v.189c0 .162.018.277.054.345a.37.37 0 0 0 .188.161c.09.039.235.058.437.058.265 0 .446-.043.544-.13.099-.087.147-.23.147-.431v-.192Z"/>
                <path class="model-e" d="M37.186 34.196v2.074h-.535v-1.299h-.398v1.205h-.51v-1.205h-.495v1.337h-.567v-2.112z"/>
                <path class="model-l" d="M37.186 36.725v.774h-1.889v1.208h-.617v-1.982z"/>
            </g>
            <g class="esp-8266">
                <path class="esp-e" d="M37.186 41.255v2.074h-.535V42.03h-.398v1.205h-.51V42.03h-.495v1.337h-.566v-2.112z"/>
                <path class="esp-s" d="m35.51 43.648.046.736a.57.57 0 0 0-.273.098.407.407 0 0 0-.153.342c0 .11.026.195.078.256.053.06.112.09.18.09a.233.233 0 0 0 .176-.086c.051-.057.1-.189.145-.396.076-.34.178-.582.304-.727a.612.612 0 0 1 .484-.219c.128 0 .25.037.364.112a.747.747 0 0 1 .272.337c.064.149.097.354.097.616 0 .319-.06.563-.178.731-.12.168-.31.269-.569.301l-.041-.73a.4.4 0 0 0 .245-.122.392.392 0 0 0 .078-.257c0-.09-.02-.158-.059-.203a.175.175 0 0 0-.14-.068c-.04 0-.075.019-.107.056-.033.037-.063.123-.092.26-.072.339-.146.581-.221.728a.76.76 0 0 1-.279.319.706.706 0 0 1-.37.101.79.79 0 0 1-.443-.134.847.847 0 0 1-.31-.372 1.511 1.511 0 0 1-.104-.604c0-.427.082-.722.246-.886a.969.969 0 0 1 .624-.279z"/>
                <path class="esp-p" d="M37.186 46.308v1.287c0 .28-.067.49-.2.63-.134.14-.323.209-.569.209-.253 0-.45-.076-.593-.228-.143-.152-.214-.385-.214-.697v-.424h-.93v-.777zm-1.068.777v.19c0 .149.025.254.077.314s.118.09.2.09a.274.274 0 0 0 .2-.078c.053-.053.081-.151.081-.296v-.221h-.558z"/>
                <path class="esp-dash" d="M35.864 48.66v1.012h-.538V48.66Z"/>
                <path class="esp-8" d="M36.028 50.311a.672.672 0 0 1 .194-.239.583.583 0 0 1 .339-.103c.21 0 .38.098.515.295.103.154.153.357.153.61 0 .335-.063.582-.191.742a.59.59 0 0 1-.797.144.777.777 0 0 1-.213-.226.704.704 0 0 1-.258.304.665.665 0 0 1-.355.1.739.739 0 0 1-.352-.086.72.72 0 0 1-.252-.212.854.854 0 0 1-.13-.312 1.885 1.885 0 0 1-.043-.399c0-.266.031-.468.094-.608a.684.684 0 0 1 .277-.319.779.779 0 0 1 .408-.109c.147 0 .271.034.374.103.102.066.18.172.237.315zm-.586.274a.374.374 0 0 0-.271.102.312.312 0 0 0-.104.23.3.3 0 0 0 .106.224c.07.067.16.1.27.1a.38.38 0 0 0 .273-.101.31.31 0 0 0 .105-.231.301.301 0 0 0-.103-.227.384.384 0 0 0-.277-.097zm1.078.038a.275.275 0 0 0-.21.081.291.291 0 0 0-.08.216c0 .08.027.146.08.197.052.051.12.076.203.076a.284.284 0 0 0 .21-.08.273.273 0 0 0 .082-.205.279.279 0 0 0-.08-.206.279.279 0 0 0-.205-.079z"/>
                <path class="esp-2" d="M34.68 54.264v-2.089c.207.024.4.097.583.218.182.122.396.35.644.684.15.203.267.334.345.391a.381.381 0 0 0 .224.086.259.259 0 0 0 .196-.085.296.296 0 0 0 .08-.213.297.297 0 0 0-.083-.218c-.056-.057-.154-.094-.296-.113l.057-.697a1.1 1.1 0 0 1 .459.15c.11.072.194.176.253.309s.088.316.088.551c0 .245-.027.436-.083.571a.697.697 0 0 1-.647.438.803.803 0 0 1-.438-.134c-.14-.09-.292-.252-.458-.488a6.254 6.254 0 0 0-.203-.281 2.72 2.72 0 0 0-.153-.166v1.087h-.567z"/>
                <path class="esp-6" d="m36.623 56.575-.086-.692c.098-.018.166-.049.205-.091a.225.225 0 0 0 .06-.158c0-.113-.057-.201-.17-.264-.082-.045-.258-.079-.526-.101a.898.898 0 0 1 .186.257.705.705 0 0 1 .062.304c0 .224-.08.412-.24.566a.835.835 0 0 1-.606.231.896.896 0 0 1-.452-.117.77.77 0 0 1-.31-.324 1.135 1.135 0 0 1-.106-.521c0-.251.043-.452.13-.604a.904.904 0 0 1 .408-.363c.188-.09.436-.136.744-.136.452 0 .783.096.993.286.211.189.315.453.315.791 0 .199-.022.356-.069.473a.734.734 0 0 1-.202.288.906.906 0 0 1-.337.175zm-1.117-1.281a.458.458 0 0 0-.318.103.322.322 0 0 0-.115.251c0 .091.034.167.104.229.069.062.173.093.31.093.143 0 .25-.032.324-.096a.302.302 0 0 0 .11-.237.314.314 0 0 0-.107-.244c-.071-.067-.174-.099-.308-.099zM36.623 58.91l-.086-.692c.098-.018.166-.049.205-.091a.225.225 0 0 0 .06-.158c0-.113-.057-.201-.17-.264-.082-.045-.258-.079-.526-.101a.898.898 0 0 1 .186.257.705.705 0 0 1 .062.304c0 .224-.08.412-.24.566a.835.835 0 0 1-.606.231.896.896 0 0 1-.452-.117.77.77 0 0 1-.31-.324A1.135 1.135 0 0 1 34.64 58c0-.251.043-.452.13-.604a.904.904 0 0 1 .408-.363c.188-.09.436-.136.744-.136.452 0 .783.096.993.286.211.189.315.453.315.791 0 .199-.022.356-.069.473a.734.734 0 0 1-.202.288.921.921 0 0 1-.337.175zm-1.117-1.281a.458.458 0 0 0-.318.103.322.322 0 0 0-.115.251c0 .091.034.167.104.229.069.062.173.093.31.093.143 0 .25-.032.324-.096a.302.302 0 0 0 .11-.237.314.314 0 0 0-.107-.244c-.071-.067-.174-.099-.308-.099z"/>
            </g>
            <g class="ism">
                <path class="ism-i" d="M32.674 41.246v.665h-2.147v-.665z"/>
                <path class="ism-s" d="m31.238 42.271.039.631a.479.479 0 0 0-.234.084.35.35 0 0 0-.131.293c0 .095.022.167.067.219a.2.2 0 0 0 .154.077.195.195 0 0 0 .149-.073c.044-.049.085-.162.125-.34.064-.291.152-.499.26-.623a.527.527 0 0 1 .415-.188c.11 0 .215.032.312.096.099.064.176.16.23.289.058.128.085.305.085.528 0 .274-.051.483-.152.627-.103.145-.265.23-.487.258l-.036-.626a.35.35 0 0 0 .21-.104.344.344 0 0 0 .066-.221c0-.077-.018-.135-.05-.174a.152.152 0 0 0-.12-.059c-.033 0-.063.016-.091.048-.028.031-.055.105-.08.223-.061.29-.125.498-.188.623a.657.657 0 0 1-.238.274.603.603 0 0 1-.317.086.676.676 0 0 1-.381-.114.713.713 0 0 1-.265-.319 1.279 1.279 0 0 1-.091-.518c0-.365.07-.618.21-.759a.837.837 0 0 1 .538-.238z"/>
                <path class="ism-m" d="M32.674 44.546v.873l-1.307.337 1.307.334v.872h-2.147v-.544h1.638l-1.638-.419v-.491l1.638-.418h-1.638v-.544z"/>
                <path class="ism-2" d="M30.527 50.035v-1.79c.177.021.343.083.499.187.155.104.339.299.552.585.129.175.229.287.295.336a.333.333 0 0 0 .192.073.227.227 0 0 0 .168-.072.255.255 0 0 0 .069-.183.254.254 0 0 0-.072-.187c-.048-.049-.132-.081-.253-.098l.048-.598a.94.94 0 0 1 .394.129c.095.062.167.15.217.265.05.113.074.271.074.472 0 .21-.022.373-.07.49a.596.596 0 0 1-.554.376.687.687 0 0 1-.375-.115c-.12-.077-.25-.216-.393-.418a5.068 5.068 0 0 0-.174-.241 2.35 2.35 0 0 0-.131-.143v.932z"/>
                <path class="ism-dot" d="M31.125 50.349v.637h-.598v-.637z"/>
                <path class="ism-4" d="M30.928 52.314v-1.087h.49l1.292 1.087v.52h-1.32v.27h-.463v-.27h-.4v-.52zm.463 0h.676l-.677-.574Z"/>
                <path class="ism-g" d="M31.303 54.466h.447v1.025h-.916a2.019 2.019 0 0 1-.272-.521 1.743 1.743 0 0 1-.073-.537c0-.255.044-.463.131-.623a.884.884 0 0 1 .39-.373c.17-.089.368-.133.591-.133.234 0 .438.048.611.145a.942.942 0 0 1 .395.425c.07.146.105.342.105.588 0 .237-.022.414-.065.532a.693.693 0 0 1-.198.293.887.887 0 0 1-.344.175l-.114-.64a.351.351 0 0 0 .187-.134.428.428 0 0 0 .064-.241.434.434 0 0 0-.152-.348c-.102-.087-.262-.13-.48-.13-.231 0-.397.043-.497.131a.458.458 0 0 0-.15.365c0 .074.011.146.032.213s.058.145.11.231h.201v-.443z"/>
                <path class="ism-h" d="M32.674 55.889v.663h-.751v.726h.75v.666h-2.146v-.666h.869v-.726h-.87v-.663z"/>
                <path class="ism-z" d="M32.082 58.277v1.443h-.349l-.8-.785v.833h-.406v-1.55h.387l.762.746v-.688h.407z"/>
            </g>
            <g class="pa">
                <path class="pa-p" d="M28.674 41.217v1.103c0 .24-.058.42-.171.54-.115.119-.277.18-.488.18-.217 0-.387-.065-.508-.195-.123-.131-.184-.33-.184-.598v-.363h-.797v-.666h2.147zm-.915.666v.163c0 .128.02.218.066.27a.212.212 0 0 0 .17.077.238.238 0 0 0 .172-.067c.047-.045.07-.129.07-.253v-.189h-.478z"/>
                <path class="pa-a" d="M26.88 44.451v-.753l-.354-.104v-.678l2.147.807v.724l-2.146.808v-.695Zm.464-.138.772-.237-.772-.234z"/>
                <path class="pa-plus" d="M27.835 46.432v.561h.563v.474h-.563v.563h-.474v-.563H26.8v-.474h.562v-.561z"/>
                <path class="pa-2" d="M26.526 50.095v-1.79c.177.021.343.083.5.187.154.104.338.3.551.586.13.175.23.286.295.335a.333.333 0 0 0 .192.073.227.227 0 0 0 .168-.072.255.255 0 0 0 .07-.183.254.254 0 0 0-.073-.187c-.048-.049-.132-.081-.253-.098l.048-.598a.94.94 0 0 1 .394.129c.095.062.167.15.217.265.051.113.075.271.075.473 0 .21-.023.373-.07.489a.586.586 0 0 1-.222.275.581.581 0 0 1-.333.101.679.679 0 0 1-.375-.115c-.119-.076-.25-.216-.393-.418a5.68 5.68 0 0 0-.174-.241 2.693 2.693 0 0 0-.13-.143v.932z"/>
                <path class="pa-5" d="M28.674 50.592v1.416h-.476v-.959l-.322-.052c.03.066.054.132.07.197a.846.846 0 0 1 .023.192c0 .215-.065.39-.195.523a.658.658 0 0 1-.49.2.818.818 0 0 1-.4-.104.69.69 0 0 1-.293-.293 1.03 1.03 0 0 1-.102-.485c0-.142.014-.263.04-.364a.715.715 0 0 1 .302-.43.936.936 0 0 1 .252-.109l.066.604a.364.364 0 0 0-.221.103.267.267 0 0 0-.076.191c0 .083.032.151.095.206.063.054.157.081.282.081.128 0 .222-.027.28-.082a.284.284 0 0 0 .09-.218.358.358 0 0 0-.042-.167.51.51 0 0 0-.111-.132l.073-.509z"/>
                <path class="pa-d" d="M28.674 54.046h-2.148v-.559h.23a.722.722 0 0 1-.198-.214.61.61 0 0 1-.067-.287.55.55 0 0 1 .242-.485.999.999 0 0 1 .587-.168c.258 0 .455.062.592.186.137.123.205.28.205.471a.663.663 0 0 1-.047.253.565.565 0 0 1-.14.201h.743zm-1.365-.598c.122 0 .213-.026.273-.078a.248.248 0 0 0 .09-.196.216.216 0 0 0-.087-.174c-.058-.047-.154-.07-.29-.07-.128 0-.22.023-.279.072a.22.22 0 0 0-.088.18c0 .076.029.14.089.19.06.05.157.076.292.076z"/>
                <path class="pa-b" d="M28.674 54.45v1.242c0 .207-.052.365-.153.477a.504.504 0 0 1-.381.166.48.48 0 0 1-.327-.118.536.536 0 0 1-.144-.231.599.599 0 0 1-.191.34.523.523 0 0 1-.34.109.575.575 0 0 1-.512-.29.698.698 0 0 1-.07-.252 2.726 2.726 0 0 1-.03-.297V54.45Zm-1.686.669v.339c0 .114.02.194.062.241.04.047.095.07.163.07a.191.191 0 0 0 .153-.069c.038-.047.058-.128.058-.244v-.337zm.844 0v.289c0 .104.019.175.054.216.036.04.087.061.155.061a.185.185 0 0 0 .146-.061c.035-.041.053-.111.053-.212v-.293z"/>
                <path class="pa-m" d="M28.083 56.747v.557h-.228c.095.08.162.161.203.242.039.082.06.181.06.296a.576.576 0 0 1-.065.295.503.503 0 0 1-.198.178.907.907 0 0 1 .208.256.67.67 0 0 1 .055.285c0 .167-.05.297-.148.391-.1.094-.255.141-.466.141h-.978v-.598h.887c.07 0 .122-.014.156-.041.054-.04.08-.09.08-.149a.21.21 0 0 0-.076-.169c-.05-.043-.132-.064-.244-.064h-.803v-.598h.857a.535.535 0 0 0 .14-.012.193.193 0 0 0 .094-.066.178.178 0 0 0 .036-.109.214.214 0 0 0-.078-.17c-.052-.044-.137-.065-.255-.065h-.794v-.598h1.556z"/>
            </g>
            <g class="802">
                <path class="802-8" d="M23.68 41.481a.565.565 0 0 1 .168-.205.492.492 0 0 1 .29-.088c.18 0 .326.085.44.254.089.132.132.306.132.522 0 .287-.055.499-.164.637a.507.507 0 0 1-.683.124.682.682 0 0 1-.182-.193.56.56 0 0 1-.526.346.642.642 0 0 1-.303-.074.603.603 0 0 1-.328-.45 1.633 1.633 0 0 1-.035-.343c0-.228.027-.401.08-.521a.589.589 0 0 1 .238-.273.672.672 0 0 1 .35-.094c.127 0 .233.029.32.088a.552.552 0 0 1 .204.27zm-.501.237a.316.316 0 0 0-.232.086.265.265 0 0 0-.09.198c0 .071.03.135.09.191a.329.329 0 0 0 .233.085.326.326 0 0 0 .233-.085.27.27 0 0 0 .09-.199.253.253 0 0 0-.088-.193.324.324 0 0 0-.236-.083Zm.924.032a.24.24 0 0 0-.18.069.255.255 0 0 0-.068.186c0 .068.022.124.068.168a.237.237 0 0 0 .174.066.246.246 0 0 0 .18-.069.234.234 0 0 0 .07-.176.238.238 0 0 0-.067-.176.239.239 0 0 0-.177-.068z"/>
                <path class="802-0" d="M23.608 43.124c.408 0 .694.073.857.221.163.146.244.37.244.671 0 .145-.018.264-.053.356a.654.654 0 0 1-.14.227.739.739 0 0 1-.4.22c-.16.04-.328.061-.502.061-.39 0-.675-.066-.855-.198-.18-.132-.27-.36-.27-.682 0-.181.03-.327.087-.438a.711.711 0 0 1 .253-.273.945.945 0 0 1 .325-.121c.137-.03.288-.044.454-.044zm0 .592c-.274 0-.46.024-.562.072-.1.049-.149.118-.149.21 0 .061.021.113.063.158a.402.402 0 0 0 .201.098c.092.021.234.031.43.031.284 0 .477-.023.574-.072.1-.048.147-.121.147-.218 0-.099-.05-.17-.15-.214-.099-.044-.285-.065-.555-.065z"/>
                <path class="802-2" d="M22.526 46.871v-1.79c.177.021.343.083.5.187.154.104.338.299.551.585.13.175.23.287.295.336a.333.333 0 0 0 .192.073.227.227 0 0 0 .168-.072.255.255 0 0 0 .07-.183.254.254 0 0 0-.073-.187c-.048-.049-.132-.081-.253-.098l.048-.598a.94.94 0 0 1 .394.129c.095.062.167.15.217.265.051.113.075.271.075.472 0 .21-.023.373-.07.49a.596.596 0 0 1-.555.376.687.687 0 0 1-.375-.115c-.119-.077-.25-.216-.392-.418a5.068 5.068 0 0 0-.174-.241 2.35 2.35 0 0 0-.131-.143v.932z"/>
                <path class="802-dot" d="M23.125 47.185v.637h-.599v-.637z"/>
                <path class="802-1" d="M24.71 49.477h-2.184v-.604h1.432a1.82 1.82 0 0 1-.18-.283 2.227 2.227 0 0 1-.133-.344h.49c.064.203.143.361.234.474.091.113.205.2.34.264v.493zM24.71 51.478h-2.184v-.604h1.432a1.82 1.82 0 0 1-.18-.283 2.227 2.227 0 0 1-.133-.344h.49c.064.203.143.361.234.474.091.113.205.2.34.264v.493z"/>
                <path class="802-b" d="M24.674 52.187v.603h-.744a.61.61 0 0 1 .188.454.61.61 0 0 1-.204.47c-.138.124-.333.187-.588.187-.17 0-.319-.028-.449-.085a.644.644 0 0 1-.29-.235.616.616 0 0 1-.095-.333c0-.104.022-.2.067-.287a.753.753 0 0 1 .198-.214h-.23v-.559h2.146zm-1.365.597c-.134 0-.23.025-.291.076a.236.236 0 0 0-.09.19c0 .071.029.132.089.18.059.049.158.072.298.072.122 0 .212-.023.27-.07a.217.217 0 0 0 .087-.173.25.25 0 0 0-.09-.198c-.06-.05-.152-.077-.274-.077z"/>
                <path class="802-slash" d="M24.71 54.542v.305l-2.22-.539v-.302z"/>
                <path class="802-g" d="M24.083 56.101v.559h-1.539a.657.657 0 0 1-.494-.227.679.679 0 0 1-.119-.263 1.646 1.646 0 0 1-.036-.363c0-.312.047-.527.141-.645a.46.46 0 0 1 .376-.175l.08.003-.067.579c-.053.015-.09.037-.11.067a.294.294 0 0 0-.046.165c0 .086.023.15.068.192.047.043.127.064.24.064h.236a.602.602 0 0 1-.15-.176.612.612 0 0 1-.073-.298c0-.208.092-.376.273-.504.129-.091.299-.136.51-.136.242 0 .427.059.554.176.127.117.19.271.19.46a.64.64 0 0 1-.062.299.66.66 0 0 1-.203.221h.23zm-.755-.561c-.112 0-.195.023-.25.071a.238.238 0 0 0-.08.189.24.24 0 0 0 .084.187c.056.05.14.075.254.075.113 0 .2-.026.26-.079a.245.245 0 0 0 .09-.193.226.226 0 0 0-.082-.183c-.057-.045-.148-.067-.276-.067Z"/>
                <path class="802-slash" d="M24.71 57.377v.305l-2.22-.54v-.301z"/>
                <path class="802-n" d="M24.083 57.853v.556h-.253a.841.841 0 0 1 .222.252.668.668 0 0 1 .066.311.512.512 0 0 1-.147.388c-.098.093-.25.14-.455.14h-.99v-.6h.855c.098 0 .167-.018.207-.054a.192.192 0 0 0 .061-.152.217.217 0 0 0-.082-.176c-.054-.045-.151-.067-.294-.067h-.747v-.597h1.556z"/>
            </g>
        </g>
        <g class="fcc-logo">
            <path class="fcc-logo-f" d="M28.983 26.904h1.403v3.566h1.404v-3.566c0-.776-.628-1.404-1.404-1.404h-7.78v1.404H26.6v2.808h1.241v-2.808Z"/>
            <path class="fcc-logo-c-outer" d="M25.297 36.88h.001a3.01 3.01 0 0 1-1.208-2.405 3.025 3.025 0 1 1 6.05 0c0 .986-.479 1.853-1.209 2.405v1.714a4.503 4.503 0 0 0-1.817-8.626 4.504 4.504 0 0 0-1.817 8.627z"/>
            <path class="fcc-logo-c-inner" d="M28.42 34.443c0 .403-.187.758-.474.999v1.603a2.736 2.736 0 0 0 1.913-2.602 2.745 2.745 0 0 0-5.49 0c0 1.223.807 2.248 1.913 2.601v-1.603h.002a1.297 1.297 0 0 1-.474-.998 1.305 1.305 0 0 1 2.61 0z"/>
        </g>
    </g>
    <path class="RST" d="M7.656 21.464v-2.36m0 0h1.147m0 0 .404.403m0 0v.81m0 0-.404.337m0 0H7.656m.741 0 .81.81m2.362-1.957-.405-.404m0 0h-.742m0 0-.405.404m0 0v.406m0 0 .405.404m0 0h.742m0 0 .405.337m0 0v.406m0 0-.405.404m0 0h-.742m0 0-.405-.404m3.171.404v-2.36m-.81 0h1.552" style="fill:none;stroke:#eee;stroke-width:.473786;stroke-linecap:round;stroke-miterlimit:4;stroke-dasharray:none"/>
    <path class="A0" d="M7.661 28.674v-1.59m0 0 .76-.76m0 0 .83.76m0 0v1.59M7.66 27.5h1.59m.83.829V26.67m0 0 .413-.346m0 0h.76m0 0 .415.346m0 0v1.658m0 0-.415.345m0 0h-.76m0 0-.414-.345m0 0 1.59-1.658" style="fill:none;stroke:#eee;stroke-width:.48523;stroke-linecap:round;stroke-miterlimit:4;stroke-dasharray:none"/>
    <circle class="pad-rst" cx="3.883" cy="20.284" r="2.05" fill="none" stroke="#9a916c" stroke-width="1.5" style="stroke:#b4b4b4;stroke-opacity:1"/>
    <circle class="pad-a0" cx="3.883" cy="27.5" r="2.05" fill="none" stroke="#9a916c" stroke-width="1.5" style="stroke:#b4b4b4;stroke-opacity:1"/>
    <circle class="pad-d0" cx="3.883" cy="34.716" r="2.05" fill="none" stroke="#9a916c" stroke-width="1.5" style="stroke:#b4b4b4;stroke-opacity:1"/>
    <circle class="pad-d5" cx="3.883" cy="41.932" r="2.05" fill="none" stroke="#9a916c" stroke-width="1.5" style="stroke:#b4b4b4;stroke-opacity:1"/>
    <circle class="pad-d6" cx="3.883" cy="49.148" r="2.05" fill="none" stroke="#9a916c" stroke-width="1.5" style="stroke:#b4b4b4;stroke-opacity:1"/>
    <circle class="pad-d7" cx="3.883" cy="56.364" r="2.05" fill="none" stroke="#9a916c" stroke-width="1.5" style="stroke:#b4b4b4;stroke-opacity:1"/>
    <circle class="pad-d8" cx="3.883" cy="63.58" r="2.05" fill="none" stroke="#9a916c" stroke-width="1.5" style="stroke:#b4b4b4;stroke-opacity:1"/>
    <path transform="translate(13.607)" style="fill:#fff" d="M36.844 16.75v3.335h3.395v-.217h-3.16v-2.901h3.16v-.217zM41.036 19.868v.217h3.395V16.75h-3.395v.217h3.16v2.901z"/>
    <path class="led-pad-left" fill="#9a916c" d="M53.317 19.617h-2.4v-2.4h2.4z"/>
    <path class="led-pad-right" fill="#9a916c" d="M57.57 19.617h-2.4v-2.4h2.4z"/>
    <path class="led-outer" fill="#cdcccc" d="M56.573 18.418c0-.3.243-.543.543-.543v-.415h-5.744v.415a.543.543 0 0 1 0 1.085v.415h5.744v-.415a.543.543 0 0 1-.543-.542z" style="stroke-width:.957327"/>
    <path class="led-blue" fill="#3d55a5" style="fill:#00f;fill-opacity:1;stroke-width:.957327" d="M52.329 17.46h3.829v1.915h-3.829z"/>
    <circle cx="-18.418" cy="54.244" r=".432" fill="#a00000" transform="rotate(-90)" style="fill:#18157f;fill-opacity:1;stroke-width:1"/>
</svg>
